<svg width="100" height="100" viewBox="0 0 100 100" fill="none" xmlns="http://www.w3.org/2000/svg">
<mask id="mask0_4953_27" style="mask-type:alpha" maskUnits="userSpaceOnUse" x="19" y="20" width="62" height="60">
<path d="M49.9973 20C41.8464 20 40.8276 20.0375 37.6272 20.1813C34.4332 20.325 32.2517 20.8313 30.3452 21.5752C28.37 22.344 26.7011 23.3691 25.0322 25.0318C23.3632 26.7007 22.3381 28.3759 21.5693 30.3448C20.8255 32.2513 20.3192 34.4328 20.1754 37.6268C20.0316 40.8272 19.9941 41.8523 19.9941 49.9969C19.9941 58.1415 20.0316 59.1666 20.1754 62.3669C20.3254 65.561 20.8255 67.7425 21.5693 69.6489C22.3381 71.6241 23.3632 73.2931 25.0322 74.962C26.7011 76.6309 28.37 77.656 30.3452 78.4248C32.2517 79.1687 34.4332 79.675 37.6272 79.8187C40.8276 79.9625 41.8527 80 49.9973 80C58.1419 80 59.167 79.9625 62.3673 79.8187C65.5614 79.675 67.7429 79.1687 69.6556 78.4248C71.6308 77.656 73.2997 76.6309 74.9686 74.962C76.6376 73.2931 77.6627 71.6179 78.4315 69.6489C79.1691 67.7425 79.6754 65.561 79.8254 62.3669C79.9692 59.1666 80.0067 58.1477 80.0067 49.9969C80.0067 41.846 79.9692 40.8272 79.8254 37.6268C79.6754 34.4328 79.1691 32.2513 78.4315 30.3448C77.6627 28.3696 76.6376 26.7007 74.9686 25.0318C73.2997 23.3628 71.6308 22.3377 69.6556 21.5752C67.7429 20.8313 65.5614 20.325 62.3673 20.1813C59.167 20.0375 58.1481 20 49.9973 20ZM47.3033 25.4068C48.1033 25.4068 48.9909 25.4068 49.9973 25.4068C58.0106 25.4068 58.9545 25.4381 62.1236 25.5818C65.0489 25.7131 66.6365 26.2069 67.6929 26.6132C69.093 27.157 70.0931 27.8071 71.1433 28.8572C72.1934 29.9073 72.8434 30.9074 73.3872 32.3075C73.7998 33.3639 74.2873 34.9516 74.4186 37.8769C74.5624 41.0397 74.5936 41.9898 74.5936 49.9969C74.5936 58.004 74.5624 58.9541 74.4186 62.1169C74.2873 65.0422 73.7935 66.6299 73.3872 67.6862C72.8434 69.0864 72.1934 70.0802 71.1433 71.1303C70.0931 72.1804 69.093 72.8305 67.6929 73.3743C66.6365 73.7869 65.0489 74.2744 62.1236 74.4057C58.9607 74.5494 58.0106 74.5807 49.9973 74.5807C41.9839 74.5807 41.0338 74.5494 37.871 74.4057C34.9457 74.2682 33.358 73.7806 32.3017 73.3743C30.9015 72.8305 29.9014 72.1804 28.8513 71.1303C27.8012 70.0802 27.1511 69.0801 26.6073 67.68C26.1948 66.6236 25.7072 65.0359 25.576 62.1106C25.4322 58.9478 25.401 57.9977 25.401 49.9844C25.401 41.971 25.4322 41.0272 25.576 37.8644C25.7072 34.9391 26.201 33.3514 26.6073 32.295C27.1511 30.8949 27.8012 29.8948 28.8513 28.8447C29.9014 27.7946 30.9015 27.1445 32.3017 26.6007C33.358 26.1881 34.9457 25.7006 37.871 25.5631C40.6401 25.4381 41.7089 25.4006 47.3033 25.3943V25.4068ZM66.0115 30.3948C64.0238 30.3948 62.4111 32.0075 62.4111 33.9952C62.4111 35.9829 64.0238 37.5956 66.0115 37.5956C67.9992 37.5956 69.6118 35.9829 69.6118 33.9952C69.6118 32.0075 67.9992 30.3948 66.0115 30.3948ZM49.9973 34.6015C41.4901 34.6015 34.5894 41.5022 34.5894 50.0094C34.5894 58.5165 41.4901 65.4172 49.9973 65.4172C58.5044 65.4172 65.4052 58.5228 65.4052 50.0094C65.4052 41.496 58.5107 34.6015 49.9973 34.6015ZM49.9973 40.0083C55.5229 40.0083 59.9983 44.4838 59.9983 50.0094C59.9983 55.535 55.5229 60.0104 49.9973 60.0104C44.4717 60.0104 39.9962 55.535 39.9962 50.0094C39.9962 44.4838 44.4717 40.0083 49.9973 40.0083Z" fill="white"/>
</mask>
<g mask="url(#mask0_4953_27)">
<path d="M50.0113 9.3728C33.047 9.3728 28.084 9.39155 27.1214 9.47281C23.6398 9.76034 21.4708 10.3104 19.1143 11.4855C17.2954 12.3919 15.864 13.4357 14.4451 14.9046C11.8635 17.5799 10.3009 20.8678 9.73832 24.7869C9.46329 26.6871 9.38203 27.0747 9.36328 36.7757C9.36328 40.0135 9.36328 44.2702 9.36328 49.9833C9.36328 66.9351 9.38203 71.8918 9.46329 72.8544C9.74457 76.2423 10.2759 78.3738 11.401 80.7053C13.5512 85.1682 17.6579 88.5186 22.4959 89.7687C24.1711 90.2 26.0213 90.4375 28.3965 90.55C29.4029 90.5938 39.6602 90.6251 49.9238 90.6251C60.1874 90.6251 70.4509 90.6126 71.4323 90.5625C74.1826 90.4313 75.7828 90.2188 77.5454 89.7625C82.4147 88.5061 86.4464 85.2057 88.6404 80.6803C89.7405 78.405 90.303 76.1923 90.5593 72.9795C90.6156 72.2794 90.6343 61.1157 90.6343 49.9708C90.6343 38.8259 90.6093 27.681 90.5531 26.9809C90.2968 23.7181 89.7405 21.5241 88.5966 19.2051C87.659 17.3049 86.6276 15.8922 85.115 14.4421C82.4272 11.8731 79.1394 10.3104 75.2202 9.74784C73.32 9.47281 72.945 9.39155 63.2314 9.3728H50.005L50.0113 9.3728Z" fill="url(#paint0_radial_4953_27)"/>
<path d="M50.0113 9.3728C33.047 9.3728 28.084 9.39155 27.1214 9.47281C23.6398 9.76034 21.4708 10.3104 19.1143 11.4855C17.2954 12.3919 15.864 13.4357 14.4451 14.9046C11.8635 17.5799 10.3009 20.8678 9.73832 24.7869C9.46329 26.6871 9.38203 27.0747 9.36328 36.7757C9.36328 40.0135 9.36328 44.2702 9.36328 49.9833C9.36328 66.9351 9.38203 71.8918 9.46329 72.8544C9.74457 76.2423 10.2759 78.3738 11.401 80.7053C13.5512 85.1682 17.6579 88.5186 22.4959 89.7687C24.1711 90.2 26.0213 90.4375 28.3965 90.55C29.4029 90.5938 39.6602 90.6251 49.9238 90.6251C60.1874 90.6251 70.4509 90.6126 71.4323 90.5625C74.1826 90.4313 75.7828 90.2188 77.5454 89.7625C82.4147 88.5061 86.4464 85.2057 88.6404 80.6803C89.7405 78.405 90.303 76.1923 90.5593 72.9795C90.6156 72.2794 90.6343 61.1157 90.6343 49.9708C90.6343 38.8259 90.6093 27.681 90.5531 26.9809C90.2968 23.7181 89.7405 21.5241 88.5966 19.2051C87.659 17.3049 86.6276 15.8922 85.115 14.4421C82.4272 11.8731 79.1394 10.3104 75.2202 9.74784C73.32 9.47281 72.945 9.39155 63.2314 9.3728H50.005L50.0113 9.3728Z" fill="url(#paint1_radial_4953_27)"/>
</g>
<defs>
<radialGradient id="paint0_radial_4953_27" cx="0" cy="0" r="1" gradientUnits="userSpaceOnUse" gradientTransform="translate(32.805 97.1421) rotate(-90) scale(80.4459 74.7578)">
<stop stop-color="#FFDD55"/>
<stop offset="0.1" stop-color="#FFDD55"/>
<stop offset="0.5" stop-color="#FF543E"/>
<stop offset="1" stop-color="#C837AB"/>
</radialGradient>
<radialGradient id="paint1_radial_4953_27" cx="0" cy="0" r="1" gradientUnits="userSpaceOnUse" gradientTransform="translate(-4.15982 19.3832) rotate(78.68) scale(36.16 148.297)">
<stop stop-color="#3771C8"/>
<stop offset="0.13" stop-color="#3771C8"/>
<stop offset="1" stop-color="#6600FF" stop-opacity="0"/>
</radialGradient>
</defs>
</svg>
