<svg width="100" height="100" viewBox="0 0 100 100" fill="none" xmlns="http://www.w3.org/2000/svg">
<path d="M37.8019 66.7331C37.8532 66.778 37.9045 66.8293 37.9558 66.8742C38.4367 67.214 38.7829 67.7013 39.2382 68.0668C40.6616 69.2081 42.2646 69.83 44.0984 69.9455C48.4456 70.2148 52.235 66.9447 52.7288 62.6423C52.7544 62.4307 52.7416 62.2191 52.7416 62.014C52.7416 49.0684 52.7416 36.1228 52.7416 23.1708C52.7416 22.5894 53.0323 22.2988 53.6136 22.2988C55.582 22.2988 57.5505 22.2988 59.5189 22.2988C59.7049 22.2988 59.8972 22.2667 60.0639 22.3821C60.0768 22.3949 60.0832 22.4014 60.096 22.4078C60.1922 22.5039 60.2178 22.6322 60.2435 22.754C61.0001 26.2421 62.8339 29.0248 65.7128 31.1279C65.8924 31.2562 66.0462 31.4229 66.2129 31.5639C66.3412 31.6729 66.463 31.7755 66.5912 31.8845C67.0529 32.1474 67.3863 32.5706 67.7903 32.9104C69.3804 34.2377 71.1822 35.1546 73.1891 35.6675C73.3686 35.7124 73.5674 35.7124 73.6956 35.8791C73.702 35.892 73.7148 35.8984 73.7277 35.9048C73.8431 36.0266 73.8239 36.1869 73.8239 36.3344C73.8239 38.617 73.8239 40.8996 73.8239 43.1823C73.8239 43.7016 73.7533 43.7337 73.2275 43.7337C71.554 43.7337 69.9126 43.5093 68.2904 43.1374C65.4948 42.4962 62.9172 41.3613 60.5256 39.7904C60.4038 39.707 60.2691 39.5339 60.1345 39.5916C59.9678 39.6686 60.0511 39.8866 60.0511 40.0404C60.0511 46.4651 60.0768 52.8898 60.0383 59.321C60.0127 63.8157 58.5828 67.8295 55.6398 71.2535C52.5172 74.889 48.5482 76.9985 43.7842 77.582C40.1102 78.0308 36.6285 77.364 33.32 75.7354C32.7878 75.4725 32.2749 75.1647 31.794 74.8057C31.6465 74.671 31.4926 74.5364 31.3387 74.4017C30.1974 73.4592 29.4087 72.2409 28.665 70.997C27.5237 69.0734 26.7863 66.996 26.4272 64.7903C26.222 63.5272 26.113 62.2576 26.1836 60.9816C26.408 56.8652 27.793 53.1976 30.4475 50.0237C32.6724 47.3628 35.4552 45.5034 38.7316 44.3813C40.0974 43.9132 41.508 43.6247 42.9571 43.5221C43.2264 43.5029 43.4892 43.4387 43.7585 43.458C43.8868 43.4644 44.015 43.458 44.1304 43.5413C44.1432 43.5542 44.1561 43.5606 44.1689 43.567C44.2458 43.6952 44.2266 43.8427 44.2266 43.9773C44.2266 46.292 44.2266 48.6131 44.2266 50.9278C44.2266 51.0112 44.2266 51.0945 44.2266 51.1715C44.2138 51.4023 44.0984 51.4792 43.8804 51.4215C43.2456 51.242 42.598 51.1586 41.944 51.1266C40.9309 51.0753 39.9306 51.2164 38.9753 51.569C35.7886 52.7424 33.8586 55.025 33.4546 58.3848C33.0571 61.6934 34.3651 64.3415 37.1158 66.2522C37.3467 66.4125 37.5839 66.56 37.8019 66.7395V66.7331Z" fill="#010201"/>
<path d="M31.8076 74.8055C31.9294 74.7735 32 74.8697 32.0833 74.921C34.1544 76.1841 36.3857 77.0112 38.7837 77.396C39.9892 77.5883 41.201 77.6717 42.4193 77.6075C46.4908 77.396 50.1392 76.043 53.2938 73.4334C56.3267 70.9264 58.3464 67.7589 59.3531 63.9566C59.6737 62.7576 59.8468 61.533 59.9109 60.289C59.9494 59.5773 59.943 58.8592 59.943 58.1475C59.943 52.0241 59.943 45.9008 59.943 39.7774V39.3607C60.1033 39.3158 60.1738 39.4376 60.2635 39.4953C62.4436 40.9893 64.8032 42.0921 67.3551 42.7974C68.7529 43.1821 70.1763 43.4386 71.6254 43.5669C72.2345 43.6182 72.8437 43.6117 73.4464 43.6566C73.7093 43.6759 73.7157 43.663 73.7221 43.3873C73.7221 43.0924 73.7221 42.8038 73.7221 42.5089C73.7221 40.4379 73.7221 38.3668 73.7221 36.2894C73.7221 36.1611 73.7285 36.0329 73.7349 35.9047C74.2799 35.9688 74.8185 36.0842 75.3699 36.1227C75.7098 36.1483 76.0496 36.1804 76.3894 36.1676C76.5561 36.1676 76.6267 36.2188 76.6074 36.392C76.601 36.4625 76.6074 36.533 76.6074 36.6036V45.593C76.6074 45.6507 76.6074 45.7084 76.6074 45.7661C76.601 46.029 76.601 46.0354 76.3253 46.029C75.3892 46.029 74.453 45.9649 73.5233 45.8431C71.6254 45.593 69.7788 45.1314 67.9963 44.4325C66.2907 43.7656 64.6813 42.9193 63.1681 41.8805C63.072 41.8164 62.9758 41.7587 62.8347 41.6625V42.0857C62.8347 48.6322 62.8347 55.1724 62.8347 61.7189C62.8347 65.207 61.9306 68.4514 60.0648 71.4072C57.8142 74.9787 54.698 77.4857 50.7355 78.9284C48.331 79.8004 45.8368 80.1402 43.2785 79.9479C38.9633 79.6273 35.2316 77.9794 32.0513 75.0556C31.9679 74.9787 31.891 74.8825 31.814 74.7991L31.8076 74.8055Z" fill="#FC264C"/>
<path d="M60.0711 22.3756C59.9428 22.3756 59.8146 22.3948 59.6863 22.3948C57.5768 22.3948 55.4673 22.3948 53.3642 22.3948C53.0394 22.3948 52.8769 22.553 52.8769 22.8693C52.8769 35.7508 52.8769 48.6258 52.8769 61.5073C52.8769 62.4049 52.8128 63.2834 52.5307 64.1362C51.5433 67.1497 49.5171 69.1374 46.4266 69.8427C43.1116 70.5993 40.2968 69.5863 38.0527 67.0151C38.0142 66.9702 37.9885 66.9189 37.9629 66.8676C38.6041 67.1241 39.2453 67.3806 39.9249 67.5152C42.0857 67.9448 44.1247 67.6114 45.997 66.4573C48.1642 65.1236 49.4402 63.168 49.889 60.6737C49.9723 60.1993 49.9852 59.7184 49.9852 59.2375C49.9852 46.3368 49.9852 33.4297 49.9852 20.529C49.9852 19.9262 49.9018 20.0032 50.4981 20.0032C53.4732 20.0032 56.4483 20.0032 59.4235 20.0032C59.494 20.0032 59.5645 20.0032 59.635 20.0032C59.9364 20.0032 59.9428 20.0032 59.9428 20.3174C59.9428 21.0098 59.93 21.6959 60.0646 22.3756H60.0711Z" fill="#2CF2EB"/>
<path d="M44.1438 43.5411C42.3292 43.5988 40.5467 43.8874 38.8219 44.4644C36.3277 45.2916 34.1092 46.5932 32.1728 48.3757C29.6337 50.716 27.9025 53.5501 26.9535 56.865C26.6137 58.0448 26.4214 59.2566 26.3316 60.4813C26.2803 61.2187 26.2611 61.9561 26.3059 62.687C26.4149 64.7324 26.8381 66.7073 27.614 68.6052C28.4796 70.7275 29.6978 72.6254 31.2816 74.2861C31.3136 74.3182 31.3329 74.363 31.3585 74.4015C30.9994 74.2476 30.7109 73.9847 30.4095 73.7475C27.4601 71.4072 25.3762 68.4577 24.2349 64.8606C23.8374 63.6103 23.5873 62.3279 23.4655 61.0199C23.3757 60.071 23.3693 59.122 23.427 58.1795C23.5681 55.9994 24.0874 53.9091 24.9851 51.915C25.9276 49.8312 27.21 47.9846 28.8386 46.388C30.7365 44.5286 32.9358 43.1372 35.4429 42.2331C37.0138 41.6689 38.6296 41.3226 40.2967 41.2008C41.5021 41.111 42.7011 41.1367 43.9066 41.2842C44.0668 41.3034 44.163 41.3354 44.163 41.5278C44.1502 42.1946 44.1502 42.8615 44.1438 43.5283V43.5411Z" fill="#2CF2EB"/>
<path d="M37.8032 66.733C37.0723 66.3995 36.4375 65.9251 35.8604 65.3736C34.4178 63.9823 33.5586 62.2895 33.3341 60.2954C32.8661 56.1149 35.5014 52.5114 39.1625 51.3957C40.727 50.9213 42.2915 50.902 43.8625 51.3252C43.9522 51.3508 44.0356 51.3893 44.1318 51.3637C44.1831 51.2354 44.1574 51.1072 44.1574 50.979C44.1574 48.6386 44.1574 46.2983 44.1574 43.958C44.1574 43.8297 44.1702 43.7015 44.1766 43.5732C45.0807 43.5091 45.9784 43.5925 46.8696 43.6951C47.0107 43.7079 47.0492 43.7784 47.0427 43.9002C47.0427 43.9708 47.0427 44.0413 47.0427 44.1118C47.0427 47.2152 47.0427 50.3185 47.0427 53.4155C47.0427 53.5309 47.0748 53.6463 46.9979 53.7745C46.5875 53.6976 46.19 53.5758 45.7732 53.5181C43.3752 53.1847 41.2144 53.7425 39.3164 55.2365C37.6493 56.5509 36.6234 58.2757 36.2772 60.366C35.9117 62.5845 36.3734 64.6427 37.6493 66.5085C37.7006 66.5855 37.7455 66.6624 37.7968 66.7458L37.8032 66.733Z" fill="#FC264C"/>
<path d="M66.2259 31.5638C65.3218 31.0316 64.5331 30.3584 63.8086 29.6082C61.8594 27.6013 60.6283 25.2225 60.1025 22.4718C60.1025 22.4461 60.1025 22.4269 60.1025 22.4012C60.9425 22.3564 61.7889 22.4012 62.6288 22.382C62.7763 22.382 62.8468 22.4397 62.8276 22.5872C62.8276 22.6449 62.8276 22.7026 62.8276 22.7603C62.7827 25.1199 63.4816 27.2743 64.6357 29.3004C65.0461 30.025 65.5398 30.6918 66.072 31.333C66.1297 31.4035 66.2131 31.4612 66.2259 31.5638Z" fill="#FC264C"/>
<path d="M73.702 35.8791C71.304 35.3661 69.1945 34.2825 67.3607 32.6539C67.0914 32.4166 66.8157 32.1794 66.5977 31.8845C66.6874 31.878 66.7515 31.9293 66.8221 31.9678C68.2776 32.8014 69.8292 33.3464 71.4835 33.6157C72.1247 33.7247 72.7787 33.7888 73.4327 33.7824C73.7084 33.7824 73.7148 33.7888 73.7148 34.0517C73.7148 34.6608 73.7084 35.2635 73.702 35.8726V35.8791Z" fill="#2CF2EB"/>
</svg>
