<svg width="100" height="100" viewBox="0 0 100 100" fill="none" xmlns="http://www.w3.org/2000/svg">
<path d="M78.7504 35.5565C78.0619 32.9771 76.0248 30.94 73.4455 30.2515C68.763 28.9972 50 28.9972 50 28.9972C50 28.9972 31.237 28.9972 26.5593 30.2515C23.9799 30.94 21.9428 32.9771 21.2543 35.5565C20 40.2342 20 50 20 50C20 50 20 59.7611 21.2543 64.4436C21.9428 67.023 23.9799 69.0601 26.5593 69.7485C31.237 71.0028 50 71.0029 50 71.0029C50 71.0029 68.763 71.0028 73.4407 69.7485C76.0201 69.0601 78.0572 67.023 78.7457 64.4436C80 59.7658 80 50 80 50C80 50 80 40.2389 78.7457 35.5565H78.7504ZM44.0019 58.9972V40.9981L59.5913 50L44.0019 59.0019V58.9972Z" fill="#DA0000"/>
</svg>
