<svg width="24" height="24" viewBox="0 0 24 24" fill="none" xmlns="http://www.w3.org/2000/svg">
<path d="M18.031 14.5307C17.9614 14.6005 17.8787 14.6558 17.7876 14.6935C17.6966 14.7313 17.599 14.7507 17.5004 14.7507C17.4019 14.7507 17.3043 14.7313 17.2132 14.6935C17.1222 14.6558 17.0394 14.6005 16.9698 14.5307L12.0004 9.56041L7.03104 14.5307C6.89031 14.6715 6.69944 14.7505 6.50042 14.7505C6.30139 14.7505 6.11052 14.6715 5.96979 14.5307C5.82906 14.39 5.75 14.1991 5.75 14.0001C5.75 13.8011 5.82906 13.6102 5.96979 13.4695L11.4698 7.96948C11.5394 7.89974 11.6222 7.84443 11.7132 7.80668C11.8043 7.76894 11.9019 7.74951 12.0004 7.74951C12.099 7.74951 12.1966 7.76894 12.2876 7.80668C12.3787 7.84443 12.4614 7.89974 12.531 7.96948L18.031 13.4695C18.1008 13.5391 18.1561 13.6218 18.1938 13.7129C18.2316 13.8039 18.251 13.9015 18.251 14.0001C18.251 14.0987 18.2316 14.1963 18.1938 14.2873C18.1561 14.3784 18.1008 14.4611 18.031 14.5307Z" fill="#ED174C"/>
</svg>
