<svg width="24" height="24" viewBox="0 0 24 24" fill="none" xmlns="http://www.w3.org/2000/svg">
<path d="M18.0306 10.5306L12.5306 16.0306C12.4609 16.1003 12.3782 16.1556 12.2871 16.1933C12.1961 16.2311 12.0985 16.2505 11.9999 16.2505C11.9014 16.2505 11.8038 16.2311 11.7127 16.1933C11.6217 16.1556 11.539 16.1003 11.4693 16.0306L5.9693 10.5306C5.82857 10.3898 5.74951 10.199 5.74951 9.99993C5.74951 9.80091 5.82857 9.61003 5.9693 9.4693C6.11003 9.32857 6.30091 9.24951 6.49993 9.24951C6.69895 9.24951 6.88982 9.32857 7.03055 9.4693L11.9999 14.4396L16.9693 9.4693C17.039 9.39962 17.1217 9.34435 17.2128 9.30663C17.3038 9.26892 17.4014 9.24951 17.4999 9.24951C17.5985 9.24951 17.6961 9.26892 17.7871 9.30663C17.8781 9.34435 17.9609 9.39962 18.0306 9.4693C18.1002 9.53899 18.1555 9.62171 18.1932 9.71276C18.2309 9.8038 18.2503 9.90138 18.2503 9.99993C18.2503 10.0985 18.2309 10.1961 18.1932 10.2871C18.1555 10.3781 18.1002 10.4609 18.0306 10.5306Z" fill="#ED174C"/>
</svg>
