<svg width="38" height="38" viewBox="0 0 38 38" fill="none" xmlns="http://www.w3.org/2000/svg">
<path d="M34.4375 7.125H23.75C22.8282 7.125 21.9191 7.33961 21.0947 7.75184C20.2702 8.16407 19.5531 8.76259 19 9.5C18.4469 8.76259 17.7298 8.16407 16.9053 7.75184C16.0809 7.33961 15.1718 7.125 14.25 7.125H3.5625C3.24756 7.125 2.94551 7.25011 2.72281 7.47281C2.50011 7.69551 2.375 7.99756 2.375 8.3125V29.6875C2.375 30.0024 2.50011 30.3045 2.72281 30.5272C2.94551 30.7499 3.24756 30.875 3.5625 30.875H14.25C15.1948 30.875 16.101 31.2503 16.7691 31.9184C17.4372 32.5865 17.8125 33.4927 17.8125 34.4375C17.8125 34.7524 17.9376 35.0545 18.1603 35.2772C18.383 35.4999 18.6851 35.625 19 35.625C19.3149 35.625 19.617 35.4999 19.8397 35.2772C20.0624 35.0545 20.1875 34.7524 20.1875 34.4375C20.1875 33.4927 20.5628 32.5865 21.2309 31.9184C21.899 31.2503 22.8052 30.875 23.75 30.875H34.4375C34.7524 30.875 35.0545 30.7499 35.2772 30.5272C35.4999 30.3045 35.625 30.0024 35.625 29.6875V8.3125C35.625 7.99756 35.4999 7.69551 35.2772 7.47281C35.0545 7.25011 34.7524 7.125 34.4375 7.125ZM14.25 28.5H4.75V9.5H14.25C15.1948 9.5 16.101 9.87533 16.7691 10.5434C17.4372 11.2115 17.8125 12.1177 17.8125 13.0625V29.6875C16.7857 28.9148 15.535 28.498 14.25 28.5ZM33.25 28.5H23.75C22.465 28.498 21.2143 28.9148 20.1875 29.6875V13.0625C20.1875 12.1177 20.5628 11.2115 21.2309 10.5434C21.899 9.87533 22.8052 9.5 23.75 9.5H33.25V28.5ZM23.75 13.0625H29.6875C30.0024 13.0625 30.3045 13.1876 30.5272 13.4103C30.7499 13.633 30.875 13.9351 30.875 14.25C30.875 14.5649 30.7499 14.867 30.5272 15.0897C30.3045 15.3124 30.0024 15.4375 29.6875 15.4375H23.75C23.4351 15.4375 23.133 15.3124 22.9103 15.0897C22.6876 14.867 22.5625 14.5649 22.5625 14.25C22.5625 13.9351 22.6876 13.633 22.9103 13.4103C23.133 13.1876 23.4351 13.0625 23.75 13.0625ZM30.875 19C30.875 19.3149 30.7499 19.617 30.5272 19.8397C30.3045 20.0624 30.0024 20.1875 29.6875 20.1875H23.75C23.4351 20.1875 23.133 20.0624 22.9103 19.8397C22.6876 19.617 22.5625 19.3149 22.5625 19C22.5625 18.6851 22.6876 18.383 22.9103 18.1603C23.133 17.9376 23.4351 17.8125 23.75 17.8125H29.6875C30.0024 17.8125 30.3045 17.9376 30.5272 18.1603C30.7499 18.383 30.875 18.6851 30.875 19ZM30.875 23.75C30.875 24.0649 30.7499 24.367 30.5272 24.5897C30.3045 24.8124 30.0024 24.9375 29.6875 24.9375H23.75C23.4351 24.9375 23.133 24.8124 22.9103 24.5897C22.6876 24.367 22.5625 24.0649 22.5625 23.75C22.5625 23.4351 22.6876 23.133 22.9103 22.9103C23.133 22.6876 23.4351 22.5625 23.75 22.5625H29.6875C30.0024 22.5625 30.3045 22.6876 30.5272 22.9103C30.7499 23.133 30.875 23.4351 30.875 23.75Z" fill="#0F172A"/>
</svg>
