<svg width="38" height="38" viewBox="0 0 38 38" fill="none" xmlns="http://www.w3.org/2000/svg">
<path d="M35.625 30.875H33.25V14.25C33.25 13.6201 32.9998 13.016 32.5544 12.5706C32.109 12.1252 31.5049 11.875 30.875 11.875H21.375V4.75002C21.3753 4.31994 21.2588 3.89786 21.0379 3.52882C20.817 3.15979 20.5001 2.85765 20.121 2.65466C19.7418 2.45167 19.3146 2.35544 18.8851 2.37626C18.4555 2.39707 18.0396 2.53414 17.6819 2.77283L5.80687 10.6875C5.48111 10.9049 5.21415 11.1994 5.02976 11.5449C4.84536 11.8903 4.74926 12.2761 4.75 12.6677V30.875H2.375C2.06006 30.875 1.75801 31.0001 1.53531 31.2228C1.31261 31.4455 1.1875 31.7476 1.1875 32.0625C1.1875 32.3775 1.31261 32.6795 1.53531 32.9022C1.75801 33.1249 2.06006 33.25 2.375 33.25H35.625C35.9399 33.25 36.242 33.1249 36.4647 32.9022C36.6874 32.6795 36.8125 32.3775 36.8125 32.0625C36.8125 31.7476 36.6874 31.4455 36.4647 31.2228C36.242 31.0001 35.9399 30.875 35.625 30.875ZM30.875 14.25V30.875H21.375V14.25H30.875ZM7.125 12.6677L19 4.75002V30.875H7.125V12.6677ZM16.625 16.625V19C16.625 19.315 16.4999 19.617 16.2772 19.8397C16.0545 20.0624 15.7524 20.1875 15.4375 20.1875C15.1226 20.1875 14.8205 20.0624 14.5978 19.8397C14.3751 19.617 14.25 19.315 14.25 19V16.625C14.25 16.3101 14.3751 16.008 14.5978 15.7853C14.8205 15.5626 15.1226 15.4375 15.4375 15.4375C15.7524 15.4375 16.0545 15.5626 16.2772 15.7853C16.4999 16.008 16.625 16.3101 16.625 16.625ZM11.875 16.625V19C11.875 19.315 11.7499 19.617 11.5272 19.8397C11.3045 20.0624 11.0024 20.1875 10.6875 20.1875C10.3726 20.1875 10.0705 20.0624 9.84781 19.8397C9.62511 19.617 9.5 19.315 9.5 19V16.625C9.5 16.3101 9.62511 16.008 9.84781 15.7853C10.0705 15.5626 10.3726 15.4375 10.6875 15.4375C11.0024 15.4375 11.3045 15.5626 11.5272 15.7853C11.7499 16.008 11.875 16.3101 11.875 16.625ZM11.875 24.9375V27.3125C11.875 27.6275 11.7499 27.9295 11.5272 28.1522C11.3045 28.3749 11.0024 28.5 10.6875 28.5C10.3726 28.5 10.0705 28.3749 9.84781 28.1522C9.62511 27.9295 9.5 27.6275 9.5 27.3125V24.9375C9.5 24.6226 9.62511 24.3205 9.84781 24.0978C10.0705 23.8751 10.3726 23.75 10.6875 23.75C11.0024 23.75 11.3045 23.8751 11.5272 24.0978C11.7499 24.3205 11.875 24.6226 11.875 24.9375ZM16.625 24.9375V27.3125C16.625 27.6275 16.4999 27.9295 16.2772 28.1522C16.0545 28.3749 15.7524 28.5 15.4375 28.5C15.1226 28.5 14.8205 28.3749 14.5978 28.1522C14.3751 27.9295 14.25 27.6275 14.25 27.3125V24.9375C14.25 24.6226 14.3751 24.3205 14.5978 24.0978C14.8205 23.8751 15.1226 23.75 15.4375 23.75C15.7524 23.75 16.0545 23.8751 16.2772 24.0978C16.4999 24.3205 16.625 24.6226 16.625 24.9375Z" fill="#0F172A"/>
</svg>
