<svg width="38" height="38" viewBox="0 0 38 38" fill="none" xmlns="http://www.w3.org/2000/svg">
<path d="M30.875 4.75H27.3125V3.5625C27.3125 3.24756 27.1874 2.94551 26.9647 2.72281C26.742 2.50011 26.4399 2.375 26.125 2.375C25.8101 2.375 25.508 2.50011 25.2853 2.72281C25.0626 2.94551 24.9375 3.24756 24.9375 3.5625V4.75H13.0625V3.5625C13.0625 3.24756 12.9374 2.94551 12.7147 2.72281C12.492 2.50011 12.1899 2.375 11.875 2.375C11.5601 2.375 11.258 2.50011 11.0353 2.72281C10.8126 2.94551 10.6875 3.24756 10.6875 3.5625V4.75H7.125C6.49511 4.75 5.89102 5.00022 5.44562 5.44562C5.00022 5.89102 4.75 6.49511 4.75 7.125V30.875C4.75 31.5049 5.00022 32.109 5.44562 32.5544C5.89102 32.9998 6.49511 33.25 7.125 33.25H30.875C31.5049 33.25 32.109 32.9998 32.5544 32.5544C32.9998 32.109 33.25 31.5049 33.25 30.875V7.125C33.25 6.49511 32.9998 5.89102 32.5544 5.44562C32.109 5.00022 31.5049 4.75 30.875 4.75ZM10.6875 7.125V8.3125C10.6875 8.62744 10.8126 8.92949 11.0353 9.15219C11.258 9.37489 11.5601 9.5 11.875 9.5C12.1899 9.5 12.492 9.37489 12.7147 9.15219C12.9374 8.92949 13.0625 8.62744 13.0625 8.3125V7.125H24.9375V8.3125C24.9375 8.62744 25.0626 8.92949 25.2853 9.15219C25.508 9.37489 25.8101 9.5 26.125 9.5C26.4399 9.5 26.742 9.37489 26.9647 9.15219C27.1874 8.92949 27.3125 8.62744 27.3125 8.3125V7.125H30.875V11.875H7.125V7.125H10.6875ZM30.875 30.875H7.125V14.25H30.875V30.875ZM20.7812 19.5938C20.7812 19.946 20.6768 20.2904 20.4811 20.5834C20.2853 20.8763 20.0071 21.1046 19.6817 21.2394C19.3562 21.3742 18.998 21.4095 18.6525 21.3408C18.307 21.272 17.9896 21.1024 17.7405 20.8533C17.4914 20.6042 17.3217 20.2868 17.253 19.9413C17.1842 19.5957 17.2195 19.2376 17.3543 18.9121C17.4892 18.5866 17.7175 18.3084 18.0104 18.1127C18.3033 17.917 18.6477 17.8125 19 17.8125C19.4724 17.8125 19.9255 18.0002 20.2595 18.3342C20.5936 18.6683 20.7812 19.1213 20.7812 19.5938ZM27.3125 19.5938C27.3125 19.946 27.208 20.2904 27.0123 20.5834C26.8166 20.8763 26.5384 21.1046 26.2129 21.2394C25.8874 21.3742 25.5293 21.4095 25.1837 21.3408C24.8382 21.272 24.5208 21.1024 24.2717 20.8533C24.0226 20.6042 23.853 20.2868 23.7842 19.9413C23.7155 19.5957 23.7508 19.2376 23.8856 18.9121C24.0204 18.5866 24.2487 18.3084 24.5416 18.1127C24.8346 17.917 25.179 17.8125 25.5312 17.8125C26.0037 17.8125 26.4567 18.0002 26.7908 18.3342C27.1248 18.6683 27.3125 19.1213 27.3125 19.5938ZM14.25 25.5312C14.25 25.8835 14.1455 26.2279 13.9498 26.5209C13.7541 26.8138 13.4759 27.0421 13.1504 27.1769C12.8249 27.3117 12.4668 27.347 12.1212 27.2783C11.7757 27.2095 11.4583 27.0399 11.2092 26.7908C10.9601 26.5417 10.7905 26.2243 10.7217 25.8788C10.653 25.5332 10.6883 25.1751 10.8231 24.8496C10.9579 24.5241 11.1862 24.2459 11.4791 24.0502C11.7721 23.8545 12.1165 23.75 12.4688 23.75C12.9412 23.75 13.3942 23.9377 13.7283 24.2717C14.0623 24.6058 14.25 25.0588 14.25 25.5312ZM20.7812 25.5312C20.7812 25.8835 20.6768 26.2279 20.4811 26.5209C20.2853 26.8138 20.0071 27.0421 19.6817 27.1769C19.3562 27.3117 18.998 27.347 18.6525 27.2783C18.307 27.2095 17.9896 27.0399 17.7405 26.7908C17.4914 26.5417 17.3217 26.2243 17.253 25.8788C17.1842 25.5332 17.2195 25.1751 17.3543 24.8496C17.4892 24.5241 17.7175 24.2459 18.0104 24.0502C18.3033 23.8545 18.6477 23.75 19 23.75C19.4724 23.75 19.9255 23.9377 20.2595 24.2717C20.5936 24.6058 20.7812 25.0588 20.7812 25.5312ZM27.3125 25.5312C27.3125 25.8835 27.208 26.2279 27.0123 26.5209C26.8166 26.8138 26.5384 27.0421 26.2129 27.1769C25.8874 27.3117 25.5293 27.347 25.1837 27.2783C24.8382 27.2095 24.5208 27.0399 24.2717 26.7908C24.0226 26.5417 23.853 26.2243 23.7842 25.8788C23.7155 25.5332 23.7508 25.1751 23.8856 24.8496C24.0204 24.5241 24.2487 24.2459 24.5416 24.0502C24.8346 23.8545 25.179 23.75 25.5312 23.75C26.0037 23.75 26.4567 23.9377 26.7908 24.2717C27.1248 24.6058 27.3125 25.0588 27.3125 25.5312Z" fill="#0F172A"/>
</svg>
