<svg width="56" height="56" viewBox="0 0 56 56" fill="none" xmlns="http://www.w3.org/2000/svg">
<g clip-path="url(#clip0_134_628)">
<path d="M5.88204 24.8386L9.16679 26.735C9.31029 26.5753 9.49656 26.4598 9.70907 26.4028C9.99848 26.3254 10.3005 26.3649 10.5595 26.5145L12.9049 27.8686C13.1638 28.0181 13.3492 28.2598 13.4266 28.5492C13.4836 28.7617 13.4767 28.9809 13.4102 29.1849L16.695 31.0813C17.0338 31.2769 17.4646 31.215 17.6973 30.9374L19.0155 29.3628C19.042 29.3309 19.0465 29.3142 19.0393 29.2732C19.0322 29.2324 19.0222 29.2183 18.9864 29.1975L6.36799 21.9124C6.33201 21.8917 6.31484 21.8901 6.27568 21.9043C6.23674 21.9185 6.22438 21.9307 6.21027 21.9695L5.50557 23.8987C5.38121 24.2388 5.5432 24.6429 5.88204 24.8386Z" fill="#ED174C"/>
<path d="M10.0273 28.2561L10.149 28.0454L11.7832 28.9889L11.6615 29.1996L10.0273 28.2561Z" fill="url(#paint0_linear_134_628)"/>
<path d="M30.0924 8.99161C32.0287 8.99161 33.6039 7.41639 33.6039 5.48023C33.6039 3.54408 32.0287 1.96875 30.0924 1.96875C28.1562 1.96875 26.5811 3.54397 26.5811 5.48023C26.5811 7.4165 28.1563 8.99161 30.0924 8.99161Z" fill="#016DB8"/>
<path d="M37.9298 22.7525H37.9429L42.9147 22.7393C43.3877 22.7381 43.7703 22.3813 43.8049 21.9095L43.8238 21.6507C43.8585 21.1752 43.5016 20.7549 43.0109 20.6939L38.4403 20.1252C37.3953 19.9953 36.5507 19.4728 35.9977 18.6142L33.8405 15.2642C33.7265 15.0872 33.6064 14.9188 33.4819 14.7563L32.6357 18.8098L34.6897 21.2456C35.5329 22.2456 36.6231 22.7525 37.9298 22.7525Z" fill="url(#paint1_linear_134_628)"/>
<path d="M23.8649 30.1282L24.3337 34.83C24.4498 35.9956 24.1796 37.0419 23.5302 37.9396L19.1356 44.0152C18.4444 44.9708 18.7562 45.7598 19.2334 46.1452C19.7731 46.5809 20.6494 46.6515 21.3913 45.8269L26.4774 40.173C27.5245 39.009 28.0332 37.6433 28.0325 35.998L28.0307 31.5087L23.8649 30.1282Z" fill="#016DB8"/>
<path d="M15.8859 22.649L19.6508 15.6086C19.7827 15.3618 20.0389 15.2067 20.3187 15.204L23.4855 15.1738H23.4927C23.721 15.1738 23.9373 15.2756 24.0829 15.4518C24.23 15.6298 24.2889 15.8647 24.2431 16.091L22.322 25.6049C22.0989 26.7101 22.5054 28.0646 23.5719 28.418L35.7925 32.4677C36.0873 32.5654 36.2939 32.8315 36.3154 33.1414L36.8063 40.198C36.8629 41.0116 37.4998 41.2991 38.0337 41.2991H38.0462C38.5919 41.2945 39.2449 40.9933 39.2889 40.1591L39.6686 32.9616C39.7994 30.4791 38.6489 29.9784 36.56 29.0694C36.3165 28.9635 36.0665 28.8547 35.8117 28.7392L30.1018 26.6694C29.7437 26.5396 29.5354 26.1661 29.6132 25.7931L31.0602 18.8619L32.186 13.4688C31.4122 12.8897 30.5141 12.4904 29.4964 12.2779L26.4766 11.6472C25.6908 11.4833 25.016 11.4566 24.2197 11.5578L19.728 12.1292C18.2882 12.3124 17.1604 13.1477 16.6339 14.4209L13.6754 21.5751C13.615 21.7214 13.5707 21.8642 13.54 22.0025L15.5227 23.1471C15.6592 23.0112 15.781 22.845 15.8858 22.649H15.8859Z" fill="url(#paint2_linear_134_628)"/>
<path d="M30.0927 10.5229C32.8734 10.5229 35.1355 8.26066 35.1355 5.48023C35.1355 2.69981 32.8733 0.4375 30.0927 0.4375C27.3122 0.4375 25.0501 2.6997 25.0501 5.48023C25.0501 8.26077 27.3123 10.5229 30.0927 10.5229ZM30.0927 1.96875C32.029 1.96875 33.6042 3.54397 33.6042 5.48023C33.6042 7.4165 32.029 8.99161 30.0927 8.99161C28.1565 8.99161 26.5814 7.41639 26.5814 5.48023C26.5814 3.54408 28.1566 1.96875 30.0927 1.96875ZM13.5116 38.7672C14.2306 38.7672 14.9311 38.3942 15.3157 37.7281L18.4404 32.316C18.5979 32.2054 18.7433 32.0737 18.8716 31.9205L20.1899 30.3459C20.5063 29.9679 20.6333 29.4924 20.5475 29.0067C20.4615 28.5212 20.179 28.118 19.7522 27.8717L16.7493 26.138L16.948 25.7938C17.1584 25.4296 17.2139 25.0042 17.1046 24.5958C17.0463 24.378 16.9438 24.1805 16.8066 24.0108C16.9666 23.8196 17.1107 23.6065 17.2365 23.3713L20.7873 16.7311L22.5556 16.7142L20.8214 25.302C20.5269 26.761 20.9586 28.5424 22.2592 29.4551L22.8103 34.9822C22.8905 35.7861 22.7252 36.4407 22.2899 37.0425L17.8953 43.118C16.6672 44.8158 17.2295 46.495 18.2716 47.3366C18.7787 47.7461 19.4377 47.9921 20.1325 47.9921C20.945 47.9921 21.8064 47.6557 22.53 46.8512L27.6161 41.1973C28.9095 39.7596 29.5649 38.0101 29.5641 35.9975L29.5625 32.0164L34.8239 33.7599L35.2791 40.3045C35.3948 41.9669 36.7489 42.8306 38.0352 42.8305H38.0594C39.3631 42.8195 40.7296 41.9262 40.8185 40.2399L41.1982 33.0424C41.385 29.4991 39.3383 28.6083 37.1715 27.6654C36.9266 27.5588 36.6747 27.4493 36.418 27.3327C36.3997 27.3244 36.3811 27.3167 36.3622 27.31L31.2484 25.4563L32.2384 20.7141L33.5192 22.2331C34.651 23.5752 36.1758 24.2842 37.9302 24.2841H37.9471L42.9188 24.2709C44.1802 24.2676 45.2403 23.2795 45.3322 22.0213L45.3511 21.7626C45.4453 20.4731 44.5005 19.3364 43.2001 19.1746L38.6293 18.6059C38.041 18.5328 37.5887 18.2568 37.2853 17.7855L35.1281 14.4354C33.8714 12.4836 32.082 11.2535 29.8099 10.7791L26.79 10.1485C25.8408 9.95028 24.9885 9.91648 24.0269 10.039L19.5352 10.6105C17.5349 10.865 15.9618 12.0405 15.2194 13.8358L12.261 20.9898C12.2244 21.0784 12.191 21.167 12.161 21.2554C11.4749 21.0475 10.7093 21.3287 10.3357 21.9758L10.1369 22.32L7.13415 20.5863C6.70715 20.3398 6.2166 20.2968 5.75362 20.465C5.28998 20.6334 4.9414 20.9813 4.77242 21.4444L4.06782 23.3732C3.99935 23.5608 3.95834 23.7525 3.94117 23.944L0.816321 29.3566C0.539384 29.8363 0.466212 30.3964 0.61015 30.9339C0.754087 31.4713 1.09763 31.9198 1.57735 32.1967L12.476 38.4891C12.8026 38.6776 13.1591 38.7672 13.5116 38.7672ZM28.0325 35.998C28.0332 37.6434 27.5245 39.009 26.4774 40.173L21.3913 45.8269C20.6495 46.6515 19.7731 46.5811 19.2334 46.1452C18.7563 45.7599 18.4444 44.9708 19.1356 44.0152L23.5302 37.9397C24.1796 37.0419 24.4499 35.9956 24.3337 34.83L23.8649 30.1282L28.0307 31.5087L28.0325 35.998ZM35.9976 18.6143C36.5506 19.4729 37.3951 19.9954 38.4401 20.1253L43.0108 20.694C43.5013 20.755 43.8583 21.1753 43.8237 21.6508L43.8047 21.9096C43.7703 22.3814 43.3877 22.7382 42.9145 22.7394L37.9428 22.7526H37.9297C36.623 22.7526 35.5327 22.2457 34.6895 21.2457L32.6356 18.8099L33.4817 14.7564C33.6063 14.9189 33.7265 15.0873 33.8404 15.2643L35.9976 18.6143ZM16.6341 14.4208C17.1606 13.1476 18.2884 12.3123 19.7282 12.1291L24.2199 11.5577C25.0161 11.4566 25.691 11.4832 26.4768 11.6471L29.4966 12.2778C30.5143 12.4903 31.4124 12.8896 32.1862 13.4687L31.0604 18.8617L29.6134 25.793C29.5356 26.166 29.7438 26.5395 30.102 26.6693L35.8119 28.739C36.0667 28.8544 36.3167 28.9633 36.5602 29.0693C38.6491 29.9783 39.7997 30.479 39.6688 32.9615L39.2891 40.159C39.2451 40.9931 38.5921 41.2944 38.0464 41.299C38.0422 41.299 38.0381 41.299 38.0339 41.299C37.5 41.299 36.8631 41.0115 36.8065 40.1979L36.3156 33.1413C36.2941 32.8314 36.0875 32.5653 35.7927 32.4676L23.5721 28.4179C22.5056 28.0645 22.0991 26.71 22.3222 25.6048L24.2434 16.0909C24.2891 15.8646 24.2302 15.6297 24.0831 15.4517C23.9375 15.2756 23.7211 15.1737 23.4929 15.1737C23.4905 15.1737 23.488 15.1737 23.4857 15.1737L20.3189 15.2039C20.039 15.2065 19.7829 15.3616 19.651 15.6085L15.8861 22.6489C15.7813 22.8449 15.6595 23.0111 15.523 23.147L13.5404 22.0024C13.571 21.864 13.6153 21.7212 13.6758 21.575L16.6341 14.4208ZM11.6614 22.7414C11.6733 22.7207 11.7065 22.7117 11.727 22.7236L15.6044 24.9622C15.6146 24.9681 15.6215 24.9781 15.6253 24.9916C15.6289 25.0053 15.6277 25.0175 15.6218 25.0277L15.423 25.372L11.4628 23.0856L11.6614 22.7414ZM5.50577 23.8985L6.21048 21.9694C6.22459 21.9306 6.23684 21.9184 6.27588 21.9042C6.31493 21.89 6.33221 21.8915 6.3682 21.9123L18.9866 29.1974C19.0224 29.2181 19.0324 29.2323 19.0395 29.2731C19.0467 29.3141 19.0422 29.3309 19.0157 29.3628L17.6975 30.9374C17.4648 31.2151 17.034 31.2769 16.6952 31.0813L13.4104 29.1849C13.4769 28.9809 13.4838 28.7617 13.4268 28.5492C13.3494 28.2598 13.1641 28.018 12.9051 27.8685L10.5597 26.5145C10.3007 26.3648 9.99857 26.3253 9.70927 26.4028C9.49676 26.4598 9.31038 26.5753 9.16699 26.735L5.88224 24.8385C5.54329 24.6428 5.38142 24.2388 5.50577 23.8985ZM11.7839 28.9894L11.6622 29.2003L10.028 28.2567L10.1496 28.0459L11.7839 28.9894ZM2.08868 30.5375C2.05051 30.3952 2.06943 30.2477 2.14195 30.1221L4.63701 25.8005C4.77821 25.9384 4.93812 26.0615 5.11651 26.1645L8.40126 28.0609C8.33465 28.2649 8.32787 28.4841 8.38485 28.6967C8.4624 28.9861 8.64757 29.2277 8.90657 29.3773L11.2521 30.7315C11.4244 30.8311 11.6158 30.8819 11.8099 30.8819C11.9075 30.8819 12.0056 30.869 12.1024 30.8432C12.315 30.7862 12.5014 30.6707 12.6449 30.511L15.9296 32.4075C16.108 32.5105 16.2946 32.5875 16.4846 32.6408L13.9897 36.9623C13.8387 37.2238 13.5032 37.314 13.2412 37.1628L2.34254 30.8704C2.21709 30.7979 2.12674 30.6798 2.08868 30.5375ZM55.4624 39.0893C55.4624 39.5122 55.1196 39.8549 54.6967 39.8549H43.8932V44.3252C43.8932 44.748 43.5504 45.0908 43.1276 45.0908H32.3241V49.561C32.3241 49.9838 31.9813 50.3266 31.5585 50.3266H20.7549V54.7968C20.7549 55.2196 20.4122 55.5624 19.9893 55.5624H8.42007C7.99723 55.5624 7.65445 55.2196 7.65445 54.7968C7.65445 54.3739 7.99723 54.0311 8.42007 54.0311H19.2236V49.561C19.2236 49.1381 19.5664 48.7954 19.9892 48.7954H30.7927V44.3252C30.7927 43.9024 31.1355 43.5596 31.5584 43.5596H42.3619V39.0893C42.3619 38.6665 42.7047 38.3237 43.1275 38.3237H54.6966C55.1195 38.3237 55.4624 38.6665 55.4624 39.0893Z" fill="black"/>
</g>
<defs>
<linearGradient id="paint0_linear_134_628" x1="11.2458" y1="28.8114" x2="10.3816" y2="29.081" gradientUnits="userSpaceOnUse">
<stop stop-color="#ED174C"/>
<stop offset="1" stop-color="#006DB8"/>
</linearGradient>
<linearGradient id="paint1_linear_134_628" x1="38.5347" y1="20.4043" x2="37.9746" y2="14.801" gradientUnits="userSpaceOnUse">
<stop stop-color="#ED174C"/>
<stop offset="1" stop-color="#006DB8"/>
</linearGradient>
<linearGradient id="paint2_linear_134_628" x1="27.3189" y1="32.5475" x2="24.0384" y2="11.9792" gradientUnits="userSpaceOnUse">
<stop stop-color="#ED174C"/>
<stop offset="1" stop-color="#006DB8"/>
</linearGradient>
<clipPath id="clip0_134_628">
<rect width="56" height="56" fill="white"/>
</clipPath>
</defs>
</svg>
