<svg width="38" height="38" viewBox="0 0 38 38" fill="none" xmlns="http://www.w3.org/2000/svg">
<path d="M19 3.5625C15.9468 3.5625 12.9621 4.46789 10.4234 6.16419C7.88471 7.86048 5.90604 10.2715 4.73762 13.0923C3.56919 15.9132 3.26347 19.0171 3.85913 22.0117C4.45479 25.0063 5.92507 27.757 8.08405 29.916C10.243 32.0749 12.9937 33.5452 15.9883 34.1409C18.9829 34.7365 22.0868 34.4308 24.9077 33.2624C27.7285 32.094 30.1395 30.1153 31.8358 27.5766C33.5321 25.0379 34.4375 22.0532 34.4375 19C34.4332 14.907 32.8053 10.983 29.9112 8.08881C27.017 5.19466 23.093 3.56682 19 3.5625ZM19 32.0625C16.4165 32.0625 13.891 31.2964 11.7429 29.8611C9.59475 28.4257 7.9205 26.3857 6.93183 23.9988C5.94316 21.6119 5.68448 18.9855 6.1885 16.4516C6.69252 13.9178 7.9366 11.5902 9.76342 9.76342C11.5902 7.93659 13.9178 6.69251 16.4516 6.18849C18.9855 5.68447 21.6119 5.94315 23.9988 6.93182C26.3857 7.92049 28.4258 9.59475 29.8611 11.7429C31.2964 13.891 32.0625 16.4165 32.0625 19C32.0586 22.4632 30.6811 25.7834 28.2323 28.2322C25.7834 30.6811 22.4632 32.0586 19 32.0625ZM28.5 19C28.5 19.3149 28.3749 19.617 28.1522 19.8397C27.9295 20.0624 27.6275 20.1875 27.3125 20.1875H19C18.6851 20.1875 18.383 20.0624 18.1603 19.8397C17.9376 19.617 17.8125 19.3149 17.8125 19V10.6875C17.8125 10.3726 17.9376 10.0705 18.1603 9.84781C18.383 9.62511 18.6851 9.5 19 9.5C19.315 9.5 19.617 9.62511 19.8397 9.84781C20.0624 10.0705 20.1875 10.3726 20.1875 10.6875V17.8125H27.3125C27.6275 17.8125 27.9295 17.9376 28.1522 18.1603C28.3749 18.383 28.5 18.6851 28.5 19Z" fill="#0F172A"/>
</svg>
