<svg width="31" height="28" viewBox="0 0 31 28" fill="none" xmlns="http://www.w3.org/2000/svg">
<path d="M2.17753 21L6.67752 21L12.1775 16.5L2.17752 7.49998L2.17753 21Z" fill="#ED174C"/>
<path d="M22.6775 5.25H1.67749C1.44543 5.25 1.22287 5.34219 1.05877 5.50628C0.894677 5.67038 0.80249 5.89294 0.80249 6.125V21C0.80249 21.4641 0.986865 21.9092 1.31505 22.2374C1.64324 22.5656 2.08836 22.75 2.55249 22.75H21.8025C22.2666 22.75 22.7117 22.5656 23.0399 22.2374C23.3681 21.9092 23.5525 21.4641 23.5525 21V6.125C23.5525 5.89294 23.4603 5.67038 23.2962 5.50628C23.1321 5.34219 22.9096 5.25 22.6775 5.25ZM20.4276 7L12.1775 14.5633L3.92733 7H20.4276ZM21.8025 21H2.55249V8.11453L11.5858 16.3953C11.7472 16.5435 11.9584 16.6257 12.1775 16.6257C12.3966 16.6257 12.6078 16.5435 12.7692 16.3953L21.8025 8.11453V21Z" fill="#0F172A"/>
<circle cx="27.5" cy="20" r="3" fill="#ED174C"/>
</svg>
