<svg width="56" height="56" viewBox="0 0 56 56" fill="none" xmlns="http://www.w3.org/2000/svg">
<path d="M49.4234 22.5047C48.4625 21.6641 47.4703 20.7953 47.1656 20.0625C46.8344 19.2609 46.9188 17.8953 47 16.575C47.1328 14.3969 47.2844 11.9281 45.6781 10.3234C44.0719 8.71875 41.6078 8.86719 39.4281 9.00313C38.1047 9.08281 36.7406 9.16719 35.9391 8.83594C35.2047 8.53125 34.3375 7.53906 33.4969 6.57812C32.0281 4.90156 30.3656 3 28 3C25.6344 3 23.9719 4.90156 22.5047 6.57656C21.6641 7.5375 20.7953 8.52969 20.0625 8.83437C19.2594 9.16563 17.8937 9.08281 16.575 9C14.4 8.86719 11.9297 8.71719 10.3234 10.3234C8.71875 11.9281 8.86875 14.3953 9.00313 16.5734C9.08437 17.8953 9.16719 19.2625 8.83594 20.0625C8.53125 20.7969 7.53906 21.6641 6.57812 22.5047C4.90156 23.9719 3 25.6344 3 28C3 30.3656 4.90156 32.0281 6.57656 33.4953C7.5375 34.3359 8.52969 35.2047 8.83437 35.9375C9.16563 36.7391 9.08125 38.1047 9 39.425C8.86719 41.6031 8.71562 44.0719 10.3219 45.6766C11.9281 47.2812 14.3922 47.1328 16.5719 46.9969C17.8953 46.9172 19.2594 46.8312 20.0609 47.1641C20.7953 47.4688 21.6625 48.4609 22.5031 49.4219C23.9719 51.0984 25.6344 53 28 53C30.3656 53 32.0281 51.0984 33.4953 49.4234C34.3359 48.4625 35.2047 47.4703 35.9375 47.1656C36.7359 46.8344 38.1047 46.9172 39.425 47C41.6 47.1344 44.0703 47.2859 45.6766 45.6781C47.2812 44.0734 47.1313 41.6062 46.9969 39.4281C46.9156 38.1062 46.8328 36.7391 47.1641 35.9391C47.4688 35.2047 48.4609 34.3375 49.4219 33.4969C51.0984 32.0281 53 30.3656 53 28C53 25.6344 51.0984 23.9719 49.4234 22.5047ZM47.3656 31.1437C46.1359 32.2187 44.8625 33.3313 44.2781 34.7422C43.6688 36.2094 43.7766 37.9438 43.8781 39.6188C43.9719 41.1375 44.0781 42.8578 43.4672 43.4688C42.8578 44.0797 41.1344 43.9703 39.6156 43.8812C37.9422 43.7797 36.2078 43.6719 34.7406 44.2797C33.3312 44.8641 32.2188 46.1359 31.1422 47.3672C30.0625 48.6 28.9469 49.875 28 49.875C27.0531 49.875 25.9375 48.6 24.8563 47.3656C23.7812 46.1359 22.6688 44.8625 21.2578 44.2781C20.3531 43.9031 19.3453 43.7984 18.3141 43.7984C17.6734 43.7984 17.0234 43.8375 16.3813 43.8781C14.8578 43.9719 13.1406 44.0781 12.5312 43.4672C11.9203 42.8563 12.0266 41.1359 12.1187 39.6156C12.2219 37.9406 12.3281 36.2078 11.7203 34.7406C11.1359 33.3312 9.86406 32.2188 8.63281 31.1422C7.4 30.0625 6.125 28.9469 6.125 28C6.125 27.0531 7.4 25.9375 8.63438 24.8563C9.86406 23.7812 11.1375 22.6688 11.7219 21.2578C12.3312 19.7906 12.2234 18.0563 12.1219 16.3813C12.0281 14.8641 11.9219 13.1422 12.5328 12.5328C13.1438 11.9234 14.8641 12.0312 16.3844 12.1203C18.0594 12.225 19.7922 12.3328 21.2594 11.7219C22.6688 11.1375 23.7812 9.86562 24.8578 8.63438C25.9375 7.4 27.0531 6.125 28 6.125C28.9469 6.125 30.0625 7.4 31.1437 8.63438C32.2187 9.86406 33.3313 11.1375 34.7422 11.7219C36.2078 12.3312 37.9422 12.2234 39.6188 12.1219C41.1391 12.0266 42.8578 11.9203 43.4688 12.5328C44.0797 13.1438 43.9734 14.8641 43.8812 16.3844C43.7781 18.0594 43.6719 19.7922 44.2797 21.2594C44.8641 22.6688 46.1359 23.7812 47.3672 24.8578C48.6 25.9375 49.875 27.0531 49.875 28C49.875 28.9469 48.6 30.0625 47.3656 31.1437Z" fill="black"/>
<path d="M51.2147 27.9999C51.2147 30.8615 46.5858 32.7821 45.5535 35.2691C44.4841 37.849 46.3598 42.4702 44.4145 44.414C42.4707 46.3578 37.8495 44.4821 35.2696 45.5515C32.7826 46.5853 30.862 51.2142 28.0004 51.2142C25.1389 51.2142 23.2183 46.5853 20.7313 45.553C18.1514 44.4836 13.5302 46.3593 11.5864 44.414C9.64256 42.4702 11.5183 37.849 10.4489 35.2691C9.41506 32.7821 4.78613 30.8615 4.78613 27.9999C4.78613 25.1384 9.41506 23.2178 10.4473 20.7308C11.5167 18.1509 9.64101 13.5297 11.5848 11.5859C13.5286 9.64207 18.1498 11.5178 20.7297 10.4484C23.2183 9.41457 25.1389 4.78564 28.0004 4.78564C30.862 4.78564 32.7826 9.41457 35.2696 10.4468C37.8495 11.5162 42.4707 9.64053 44.4145 11.5843C46.3583 13.5281 44.4826 18.1493 45.552 20.7292C46.5858 23.2178 51.2147 25.1384 51.2147 27.9999Z" fill="url(#paint0_linear_134_595)"/>
<path d="M51.2147 28.058C51.2147 29.7491 49.6012 31.1144 48.0652 32.4642C48.0962 32.2936 48.1117 32.1229 48.1117 31.9367C48.1117 28.9734 43.3176 26.9875 42.2471 24.412C41.1455 21.7279 43.0849 16.9493 41.068 14.9324C39.051 12.9154 34.2724 14.8548 31.5884 13.7533C29.0129 12.6827 27.027 7.88862 24.0636 7.88862C23.8775 7.88862 23.7068 7.90414 23.5361 7.93517C24.8859 6.39919 26.2512 4.78564 27.9424 4.78564C30.8126 4.78564 32.7365 9.4246 35.2344 10.4641C37.8098 11.5346 42.4488 9.65732 44.4037 11.5967C46.343 13.5516 44.4657 18.1905 45.5363 20.766C46.5758 23.2639 51.2147 25.1877 51.2147 28.058Z" fill="white" fill-opacity="0.2"/>
<path d="M32.4647 47.7344C31.0378 49.344 29.6109 51.2142 27.8005 51.2142C24.962 51.2142 23.0595 46.6307 20.5893 45.6037C18.0424 44.5459 13.4549 46.4008 11.5217 44.4846C9.6038 42.5531 11.4603 37.9696 10.4016 35.4249C9.37366 32.9569 4.78613 31.056 4.78613 28.2201C4.78613 25.3842 9.37366 23.4833 10.4016 21.0153C11.4603 18.4706 9.6038 13.8871 11.5217 11.9556C12.6724 10.8212 14.759 11.0052 16.7843 11.1278C16.5695 13.3046 17.2906 16.1405 16.5388 17.9494C15.5108 20.4174 10.9233 22.3183 10.9233 25.1542C10.9233 27.9902 15.5108 29.891 16.5388 32.359C17.5974 34.9037 15.741 39.4872 17.6588 41.4187C19.592 43.3349 24.1795 41.48 26.7265 42.5378C28.7364 43.3809 30.3781 46.5847 32.4647 47.7344Z" fill="white" fill-opacity="0.2"/>
<path d="M16.743 31.4039L15.315 32.0685L14.6491 30.6451L16.0754 29.9806C16.8626 29.6146 17.2042 28.6798 16.8358 27.8928C16.469 27.1073 15.5323 26.7695 14.7435 27.134L11.8892 28.463C11.1021 28.8291 10.7604 29.7638 11.1288 30.5509C11.1288 30.5509 13.1235 34.8193 13.1267 34.8255C13.1267 34.8255 15.1198 39.0892 15.1214 39.0924C15.4488 39.793 16.2817 40.1418 17.0185 39.9218C17.9174 39.6532 18.3693 38.6085 17.9741 37.7633L16.6438 34.9167L18.0717 34.2521C18.8589 33.8861 19.2005 32.9514 18.8321 32.1643C18.4669 31.3788 17.5301 31.0379 16.743 31.4039Z" fill="#F5FCFF"/>
<path d="M29.2127 31.6725L26.2377 29.8101C27.1282 28.5906 27.3703 26.9294 26.702 25.4524C26.2344 24.4206 25.4035 23.6378 24.3621 23.2472C23.319 22.8566 22.193 22.9078 21.1947 23.3905C21.1947 23.3905 18.941 24.4701 18.9377 24.4718C18.1085 24.8692 17.7487 25.8839 18.1367 26.7384C18.1367 26.7384 22.3389 36.0046 22.3423 36.0114C22.6938 36.7857 23.5976 37.1711 24.382 36.9017C25.304 36.5861 25.7568 35.4707 25.3472 34.5685L24.508 32.718L27.4914 34.5856C27.76 34.7544 28.0585 34.8329 28.3504 34.8346C29.9772 34.8363 30.6041 32.544 29.2127 31.6725ZM23.2262 26.457C23.9028 26.7111 23.9508 27.7123 23.2958 28.0278C23.2958 28.0278 22.5446 28.3877 22.5429 28.3894L21.8414 26.8442L22.596 26.4826C22.7983 26.3837 23.0255 26.382 23.2262 26.457Z" fill="#F5FCFF"/>
<path d="M35.5423 28.3437L33.9662 29.058L33.2312 27.5264C33.2312 27.5264 34.8021 26.8138 34.8073 26.8122C36.816 25.902 35.3911 22.822 33.3372 23.7508L31.7629 24.4633L31.0296 22.9335L32.6039 22.2209C34.5953 21.3192 33.1999 18.2308 31.1339 19.1595L27.9835 20.5863C27.1147 20.9798 26.7376 21.9845 27.1442 22.8305L31.5492 32.013C31.8446 32.6259 32.4701 32.9873 33.1252 32.9873C33.372 32.9873 33.6205 32.9366 33.8585 32.8286C33.8585 32.8286 37.0019 31.4034 37.0089 31.4C39.0246 30.4916 37.5927 27.42 35.5423 28.3437Z" fill="#F5FCFF"/>
<path d="M42.7645 24.6735L41.3332 25.3368L40.6649 23.9161C40.6649 23.9161 42.0931 23.2559 42.0978 23.2528C43.9241 22.4076 42.6286 19.5537 40.7613 20.4099L39.33 21.0732L38.6618 19.6509C38.6618 19.6509 40.0915 18.9892 40.0931 18.9892C41.924 18.1424 40.6223 15.2885 38.7565 16.1462L35.8924 17.4713C35.1025 17.8366 34.7597 18.7696 35.1293 19.5553C35.1293 19.5553 37.1309 23.8158 37.1357 23.8252L39.1357 28.0825C39.4043 28.6517 39.973 28.9873 40.5686 28.9873C40.7929 28.9873 41.0188 28.9403 41.2353 28.8399C41.2353 28.8399 44.0915 27.518 44.0978 27.5133C45.9288 26.6681 44.6287 23.8142 42.7645 24.6735Z" fill="#F5FCFF"/>
<defs>
<linearGradient id="paint0_linear_134_595" x1="29.2607" y1="37.5795" x2="24.752" y2="5.35051" gradientUnits="userSpaceOnUse">
<stop stop-color="#ED174C"/>
<stop offset="1" stop-color="#006DB8"/>
</linearGradient>
</defs>
</svg>
