<svg width="56" height="56" viewBox="0 0 56 56" fill="none" xmlns="http://www.w3.org/2000/svg">
<path d="M28.0693 7.90039C28.1179 7.90039 28.1665 7.90533 28.2139 7.91504L28.3525 7.95801L28.3564 7.95996L54.4902 19.0078C54.6228 19.0684 54.7351 19.1658 54.8145 19.2881C54.895 19.4123 54.9384 19.5571 54.9385 19.7051C54.9385 19.8163 54.9143 19.9261 54.8682 20.0264L54.8145 20.123C54.7343 20.2466 54.6196 20.3429 54.4854 20.4033L51.9131 21.4951C51.2612 21.7713 50.8153 22.3847 50.7617 23.0918L50.7559 23.2344L50.7588 36.1748C50.7577 36.8229 51.0875 37.3282 51.4082 37.666L51.5439 37.7998C51.9086 38.1391 52.2074 38.7366 52.3359 39.4658C52.4473 40.0983 52.4141 40.7405 52.2529 41.2607L52.1758 41.4766C52.0414 41.8052 51.9511 42.2221 52.0283 42.6641L52.0723 42.8545L53.8096 48.96H53.8105C53.8159 48.9808 53.8151 49.0032 53.8076 49.0234C53.8001 49.0436 53.7862 49.061 53.7686 49.0732C53.7508 49.0855 53.7296 49.0928 53.708 49.0928L53.6758 49.0869L53.6475 49.0732C52.8013 48.4447 51.7832 48.0935 50.7324 48.0654L50.5205 48.0635L50.5117 48.0645C49.5143 48.0888 48.5461 48.4001 47.7236 48.96L47.5615 49.0752L47.5518 49.083C47.538 49.0934 47.5211 49.099 47.5039 49.0996L47.4785 49.0967C47.4702 49.0944 47.4624 49.0907 47.4551 49.0859L47.4414 49.0781L47.4131 49.0439L47.4102 49.001L47.4121 48.9902L48.7881 42.8174C48.8842 42.3859 48.8141 41.9787 48.6924 41.6484L48.6367 41.5117C48.3754 40.9131 48.3216 40.0964 48.498 39.3086C48.6542 38.6119 48.9629 38.0556 49.3252 37.7266L49.4834 37.5996C49.9373 37.2828 50.5686 36.6715 50.5693 35.7686L50.5645 24.9414C50.565 23.6219 49.2586 22.7077 48.0322 23.1367L47.9141 23.1826L28.3604 31.4492C28.2182 31.5085 28.0623 31.525 27.9131 31.4971L27.7666 31.4541L13.4258 25.4062H13.4268C12.1572 24.8541 3.04829 21.032 1.50781 20.3721C1.40969 20.3264 1.32259 20.2607 1.25195 20.1797L1.18555 20.0908C1.12488 19.9968 1.08495 19.8912 1.06934 19.7812L1.0625 19.6699C1.06291 19.5582 1.08706 19.4482 1.13379 19.3477L1.1875 19.25C1.26866 19.126 1.38419 19.028 1.51953 18.9678L27.7812 7.96094L27.7871 7.95801C27.8318 7.93888 27.8784 7.92474 27.9258 7.91504L28.0693 7.90039ZM12.0986 28.9502L26.3076 34.9502L26.3145 34.9531C27.3687 35.3875 28.544 35.4144 29.6133 35.0342L29.8252 34.9531L29.833 34.9492L44.0156 28.957C44.0368 28.9481 44.0525 28.9469 44.0645 28.9482C44.0785 28.9498 44.0955 28.9556 44.1123 28.9668C44.129 28.978 44.1416 28.9919 44.1494 29.0059C44.1562 29.0182 44.1621 29.0345 44.1621 29.0586V37.2119C44.1572 37.5471 44.08 37.8765 43.9375 38.1787L43.873 38.3066C43.7117 38.6007 43.4893 38.8563 43.2217 39.0566L43.1045 39.1387L43.1006 39.1416C38.4323 42.2497 32.9255 43.8561 27.3184 43.7461H27.3193C22.3643 43.6042 17.5487 42.0927 13.4053 39.3828L13.0068 39.1162L13.002 39.1133L12.8877 39.0322C12.6651 38.8625 12.4752 38.6536 12.3271 38.416L12.2568 38.2949C12.1008 38.0068 12.0075 37.689 11.9834 37.3633L11.9775 37.2227V29.0381C11.9776 29.0136 11.9837 28.9985 11.9893 28.9883C11.9958 28.9765 12.0055 28.9648 12.0186 28.9561C12.0316 28.9473 12.0449 28.9436 12.0557 28.9424L12.0986 28.9502Z" fill="url(#paint0_linear_134_55)" stroke="black" stroke-width="1.8"/>
<path d="M41.5 37V31L43 30.5V38C41.8333 39.3333 37.5 42.2 29.5 43C21.5 43.8 14.8333 40 12.5 38V36L16 38C16.3333 38.3333 18.8 39.4 26 41C33.2 42.6 39.3333 38.8333 41.5 37Z" fill="white" fill-opacity="0.2"/>
<path d="M28.5 8.5C28.5538 8.52354 28.6085 8.5482 28.664 8.57395L54 20L28 31L8.5 22.5C15.8333 23.6667 31.1 25.3 33.5 22.5C36.5 19 28 21 28 19C28 17 36 19 36 16C36 13.6484 31.3597 9.82475 28.664 8.57395L28.5 8.5Z" fill="white" fill-opacity="0.2"/>
<defs>
<linearGradient id="paint0_linear_134_55" x1="29.5114" y1="37.3722" x2="26.2613" y2="7.29016" gradientUnits="userSpaceOnUse">
<stop stop-color="#ED174C"/>
<stop offset="1" stop-color="#006DB8"/>
</linearGradient>
</defs>
</svg>
