<svg width="38" height="38" viewBox="0 0 38 38" fill="none" xmlns="http://www.w3.org/2000/svg">
<path d="M37.7477 16.0177L33.9595 8.43852C33.82 8.15955 33.6268 7.91081 33.3911 7.70649C33.1555 7.50218 32.8818 7.34629 32.5859 7.24774C32.2899 7.14918 31.9775 7.10989 31.6664 7.1321C31.3552 7.15431 31.0515 7.23759 30.7726 7.37719L27.0809 9.22227L19.3043 7.16492C19.1048 7.11299 18.8952 7.11299 18.6957 7.16492L10.9191 9.22227L7.22742 7.37719C6.94848 7.23759 6.64477 7.15431 6.33364 7.1321C6.02251 7.10989 5.71005 7.14918 5.41411 7.24774C5.11816 7.34629 4.84453 7.50218 4.60884 7.70649C4.37315 7.91081 4.18002 8.15955 4.04046 8.43852L0.25234 16.0162C0.112743 16.2952 0.0294614 16.5989 0.00724989 16.91C-0.0149616 17.2212 0.0243325 17.5336 0.122888 17.8296C0.221444 18.1255 0.377331 18.3991 0.581646 18.6348C0.785962 18.8705 1.0347 19.0637 1.31367 19.2032L5.32148 21.2086L13.5583 27.0912C13.6796 27.1775 13.8161 27.2404 13.9605 27.2767L23.4605 29.6517C23.6595 29.7016 23.868 29.6991 24.0657 29.6445C24.2634 29.5899 24.4436 29.485 24.5887 29.34L32.7631 21.1641L36.6848 19.2032C37.2478 18.9214 37.6759 18.4275 37.8749 17.8302C38.0739 17.2328 38.0276 16.5809 37.7462 16.0177H37.7477ZM29.5999 20.9711L24.4922 16.8802C24.2634 16.6969 23.9748 16.6048 23.6822 16.6215C23.3895 16.6382 23.1133 16.7626 22.9069 16.9707C20.2632 19.6337 17.3167 19.2967 15.4375 18.1092L21.8559 11.8748H26.5777L30.6167 19.9513L29.5999 20.9711ZM6.16461 9.49984L9.20312 11.0169L5.40757 18.5946L2.375 17.0791L6.16461 9.49984ZM23.3834 27.1832L14.7577 25.0279L7.45453 19.8118L11.6108 11.4993L19 9.54141L20.4547 9.92586L13.775 16.4096L13.7631 16.423C13.5117 16.6744 13.3199 16.9791 13.202 17.3146C13.084 17.65 13.0429 18.0077 13.0816 18.3612C13.1204 18.7147 13.238 19.0549 13.4259 19.3569C13.6137 19.6588 13.8669 19.9147 14.1669 20.1057C17.2187 22.0547 20.9015 21.7385 23.8019 19.3635L27.9062 22.6603L23.3834 27.1832ZM32.5865 18.5931L28.7984 11.0228L31.8354 9.49984L35.625 17.0791L32.5865 18.5931ZM19.5611 32.3488C19.4969 32.6055 19.3489 32.8334 19.1405 32.9963C18.9321 33.1593 18.6753 33.248 18.4107 33.2484C18.3131 33.2482 18.2159 33.2363 18.1212 33.2127L11.9359 31.666C11.7912 31.6303 11.6547 31.5673 11.5336 31.4805L7.62226 28.6869C7.38177 28.498 7.22337 28.2237 7.18007 27.921C7.13677 27.6184 7.21189 27.3106 7.3898 27.0619C7.5677 26.8133 7.83468 26.6428 8.13513 26.586C8.43558 26.5292 8.74635 26.5906 9.00273 26.7572L12.73 29.4202L18.7031 30.9105C19.0086 30.9869 19.2712 31.1815 19.4332 31.4515C19.5952 31.7215 19.6434 32.0448 19.567 32.3503L19.5611 32.3488Z" fill="#0F172A"/>
</svg>
