<svg width="38" height="38" viewBox="0 0 38 38" fill="none" xmlns="http://www.w3.org/2000/svg">
<path d="M28.5742 25.4526C30.0758 24.1912 31.2754 22.609 32.0846 20.8226C32.8939 19.0361 33.2921 17.091 33.2499 15.1302C33.1015 8.34517 27.6672 2.75056 20.894 2.39431C19.1464 2.29919 17.3975 2.55623 15.7512 3.15017C14.1049 3.74411 12.5947 4.66283 11.3103 5.85178C10.026 7.04073 8.99368 8.47565 8.27469 10.0713C7.5557 11.667 7.16471 13.3909 7.12493 15.1406L3.79251 21.5502C3.77915 21.5769 3.76579 21.6036 3.75392 21.6303C3.51501 22.1872 3.49798 22.8143 3.70632 23.3833C3.91466 23.9523 4.33261 24.4202 4.87462 24.6911L4.91173 24.7074L8.31243 26.2645V30.875C8.31243 31.5049 8.56265 32.109 9.00805 32.5544C9.45345 32.9998 10.0575 33.25 10.6874 33.25H17.8124C18.1274 33.25 18.4294 33.1249 18.6521 32.9022C18.8748 32.6795 18.9999 32.3775 18.9999 32.0625C18.9999 31.7476 18.8748 31.4455 18.6521 31.2228C18.4294 31.0001 18.1274 30.875 17.8124 30.875H10.6874V25.5031C10.6876 25.2754 10.6224 25.0526 10.4995 24.861C10.3766 24.6694 10.2012 24.5172 9.99423 24.4224L5.93743 22.5625L9.36188 15.9808C9.45114 15.8135 9.49851 15.6271 9.49993 15.4375C9.49959 13.0155 10.3219 10.6652 11.8322 8.77175C13.3424 6.87828 15.451 5.55394 17.8124 5.01571V7.32985C17.0201 7.60998 16.3523 8.16119 15.9271 8.88605C15.5019 9.61091 15.3466 10.4628 15.4887 11.291C15.6308 12.1193 16.0612 12.8707 16.7037 13.4124C17.3462 13.954 18.1596 14.2511 18.9999 14.2511C19.8403 14.2511 20.6536 13.954 21.2962 13.4124C21.9387 12.8707 22.369 12.1193 22.5111 11.291C22.6532 10.4628 22.498 9.61091 22.0727 8.88605C21.6475 8.16119 20.9797 7.60998 20.1874 7.32985V4.75001C20.3804 4.75001 20.5734 4.75001 20.7663 4.76485C22.8722 4.88548 24.8957 5.62432 26.5839 6.88898C28.272 8.15363 29.5498 9.88795 30.2574 11.875H27.3124C27.1382 11.8749 26.9661 11.9132 26.8084 11.9871C26.6506 12.061 26.511 12.1687 26.3995 12.3025L22.6129 16.8477C21.8232 16.5534 20.9548 16.5479 20.1614 16.8321C19.368 17.1164 18.7007 17.672 18.2775 18.4008C17.8542 19.1296 17.7024 19.9846 17.8488 20.8146C17.9952 21.6446 18.4303 22.396 19.0773 22.9361C19.7243 23.4761 20.5415 23.77 21.3843 23.7657C22.227 23.7613 23.0411 23.4591 23.6825 22.9124C24.324 22.3657 24.7514 21.6098 24.8892 20.7784C25.027 19.947 24.8664 19.0936 24.4357 18.3692L27.8691 14.25H30.8067C30.8423 14.5588 30.864 14.8705 30.872 15.1852C30.909 16.886 30.5409 18.5713 29.7981 20.1018C29.0553 21.6324 27.959 22.9642 26.5999 23.9875C26.4325 24.1131 26.3011 24.2806 26.2193 24.4733C26.1374 24.6659 26.108 24.8768 26.1338 25.0845L27.3213 34.5845C27.3575 34.8713 27.497 35.135 27.7137 35.3263C27.9304 35.5176 28.2094 35.6233 28.4984 35.6235C28.5481 35.6235 28.5976 35.6205 28.6469 35.6146C28.8017 35.5953 28.9511 35.5458 29.0868 35.4687C29.2224 35.3917 29.3415 35.2887 29.4373 35.1656C29.5331 35.0425 29.6037 34.9017 29.6451 34.7513C29.6865 34.6009 29.6979 34.4439 29.6785 34.2891L28.5742 25.4526ZM18.9999 11.875C18.7651 11.875 18.5355 11.8054 18.3402 11.6749C18.1449 11.5444 17.9927 11.3589 17.9028 11.1419C17.8129 10.925 17.7894 10.6862 17.8352 10.4558C17.8811 10.2255 17.9942 10.0139 18.1602 9.84782C18.3263 9.68175 18.5379 9.56865 18.7683 9.52283C18.9986 9.47701 19.2374 9.50052 19.4544 9.5904C19.6714 9.68028 19.8568 9.83249 19.9873 10.0278C20.1178 10.2231 20.1874 10.4526 20.1874 10.6875C20.1874 11.0025 20.0623 11.3045 19.8396 11.5272C19.6169 11.7499 19.3149 11.875 18.9999 11.875ZM21.3749 21.375C21.1401 21.375 20.9105 21.3054 20.7152 21.1749C20.5199 21.0444 20.3677 20.8589 20.2778 20.6419C20.1879 20.425 20.1644 20.1862 20.2102 19.9558C20.2561 19.7255 20.3692 19.5139 20.5352 19.3478C20.7013 19.1817 20.9129 19.0686 21.1433 19.0228C21.3736 18.977 21.6124 19.0005 21.8294 19.0904C22.0464 19.1803 22.2318 19.3325 22.3623 19.5278C22.4928 19.7231 22.5624 19.9526 22.5624 20.1875C22.5624 20.5025 22.4373 20.8045 22.2146 21.0272C21.9919 21.2499 21.6899 21.375 21.3749 21.375Z" fill="#0F172A"/>
</svg>
