<svg width="38" height="38" viewBox="0 0 38 38" fill="none" xmlns="http://www.w3.org/2000/svg">
<path d="M29.6875 11.2278V5.9375C29.6875 5.30761 29.4373 4.70352 28.9919 4.25812C28.5465 3.81272 27.9424 3.5625 27.3125 3.5625H10.6875C10.0576 3.5625 9.45352 3.81272 9.00812 4.25812C8.56272 4.70352 8.3125 5.30761 8.3125 5.9375V11.2812C8.3133 11.6498 8.3995 12.0132 8.56433 12.3428C8.72915 12.6725 8.96813 12.9595 9.2625 13.1813L17.0213 19L9.2625 24.8188C8.96813 25.0405 8.72915 25.3275 8.56433 25.6572C8.3995 25.9868 8.3133 26.3502 8.3125 26.7188V32.0625C8.3125 32.6924 8.56272 33.2965 9.00812 33.7419C9.45352 34.1873 10.0576 34.4375 10.6875 34.4375H27.3125C27.9424 34.4375 28.5465 34.1873 28.9919 33.7419C29.4373 33.2965 29.6875 32.6924 29.6875 32.0625V26.7722C29.6865 26.4053 29.601 26.0435 29.4375 25.715C29.2741 25.3865 29.037 25.1001 28.7449 24.8781L20.9698 19L28.7449 13.1219C29.0373 12.9001 29.2745 12.6138 29.438 12.2852C29.6015 11.9567 29.6869 11.5948 29.6875 11.2278ZM26.456 26.125H11.4787L19 20.4844L26.456 26.125ZM10.6875 32.0625V28.5H27.3125V32.0625H10.6875ZM27.3125 11.2278L19 17.5156L10.6875 11.2812V5.9375H27.3125V11.2278Z" fill="#0F172A"/>
</svg>
