<svg width="283" height="50" viewBox="0 0 283 50" fill="none" xmlns="http://www.w3.org/2000/svg">
<path d="M55 31.0281L228.087 12.2218V37.794H55V31.0281Z" fill="#B8FF00"/>
<path d="M70.123 10.3021V32.5669C70.123 34.0554 68.9076 34.7666 67.4026 34.7666C65.8977 34.7666 64.6822 34.0554 64.6822 32.5669V26.3485H58.5605V34.0176C58.5605 34.0176 58.6305 40 67.3645 40C76.0984 40 76.5693 34.175 76.5852 33.6652L76.5915 10.3053H70.123V10.3021Z" fill="#111AFF"/>
<path d="M87.3976 40H91.0343C95.3233 40 98.8328 36.5069 98.8328 32.2333V17.7667C98.8328 13.4963 95.3233 10 91.0343 10H87.3976C83.1086 10 79.5991 13.4931 79.5991 17.7667V32.2333C79.5991 36.5037 83.1086 40 87.3976 40ZM86.0931 18.415C86.0931 17.5968 86.4208 16.81 87.0062 16.231C87.5917 15.6519 88.3871 15.3278 89.2144 15.3278C90.0416 15.3278 90.8371 15.6519 91.4225 16.231C92.008 16.81 92.3357 17.5968 92.3357 18.415V31.5819C92.3357 32.4001 92.008 33.1868 91.4225 33.7659C90.8371 34.3449 90.0448 34.669 89.2144 34.669C88.3839 34.669 87.5917 34.3449 87.0062 33.7659C86.4208 33.1868 86.0931 32.4001 86.0931 31.5819V18.415Z" fill="#111AFF"/>
<path d="M120.366 29.552C120.366 29.552 120.483 25.6026 116.592 24.6837C117.512 24.3155 118.307 23.6987 118.893 22.9056C119.478 22.1126 119.828 21.1748 119.904 20.1961L119.92 16.3914C119.92 15.227 119.58 14.0847 118.937 13.106C118.294 12.1273 117.381 11.3531 116.306 10.8779C115.523 10.5223 114.674 10.3335 113.811 10.3209H101.838V39.5153H113.875C114.569 39.509 115.256 39.3957 115.918 39.188C117.216 38.7695 118.342 37.9576 119.144 36.8656C119.943 35.7736 120.375 34.4581 120.372 33.1112V29.552H120.366ZM108.266 14.2578H111.371C111.931 14.2767 112.465 14.5064 112.857 14.9029C113.248 15.2994 113.474 15.8313 113.477 16.3883V19.4849C113.477 20.6367 112.478 21.1937 111.355 21.5493C109.86 22.0213 108.262 22.5186 108.262 22.5186V14.2578H108.266ZM113.856 32.4409C113.856 33.0577 113.608 33.6462 113.169 34.0836C112.73 34.5179 112.131 34.7634 111.508 34.7634H108.262V27.1414L111.584 26.1029C113.264 26.1029 113.853 27.8212 113.853 29.0611V32.4441L113.856 32.4409Z" fill="#111AFF"/>
<path d="M143.605 39.5185L135.438 24.476L143.449 10.3241H136.742L129.303 24.0102V10.3241H122.838V39.5185H129.303V25.6152L136.831 39.5185H143.602H143.605Z" fill="#111AFF"/>
<path d="M151.378 10C147.089 10 143.579 13.4931 143.579 17.7667V32.2333C143.579 36.5037 147.089 40 151.378 40H155.014C159.303 40 162.813 36.5069 162.813 32.2333V17.7667C162.813 13.4963 159.303 10 155.014 10H151.378ZM156.316 31.5819C156.316 31.9878 156.239 32.3938 156.083 32.7714C155.927 33.1491 155.698 33.4921 155.409 33.7816C155.119 34.0711 154.773 34.3008 154.394 34.4582C154.015 34.6155 153.605 34.6942 153.194 34.6942C152.784 34.6942 152.373 34.6124 151.995 34.4582C151.616 34.3008 151.269 34.0711 150.98 33.7816C150.69 33.4921 150.461 33.1491 150.305 32.7714C150.149 32.3938 150.07 31.991 150.073 31.5819V18.415C150.073 18.009 150.149 17.6031 150.305 17.2254C150.461 16.8478 150.69 16.5048 150.98 16.2153C151.269 15.9257 151.616 15.696 151.995 15.5387C152.377 15.3813 152.784 15.3026 153.194 15.3026C153.605 15.3026 154.015 15.3845 154.394 15.5387C154.776 15.696 155.119 15.9257 155.409 16.2153C155.698 16.5048 155.927 16.8478 156.083 17.2254C156.239 17.6031 156.319 18.0059 156.316 18.415V31.5819Z" fill="#111AFF"/>
<path d="M182.658 29.0296C182.432 28.1107 182.031 27.5002 181.204 27.2107C182.989 26.4019 183.991 24.6208 183.991 22.0497V17.5369C183.991 16.124 183.574 14.7456 182.785 13.5686C182.162 12.5805 181.296 11.7654 180.269 11.199C179.241 10.6325 178.086 10.3304 176.909 10.3241H165.839V39.5185H172.311V29.9391L176.457 28.6426L178.875 39.5185H185.178L182.658 29.0296ZM177.526 21.6595C177.526 23.0599 176.629 23.8183 175.623 24.1424C174.691 24.4445 172.314 25.1998 172.314 25.1998V14.9313H175.315C175.604 14.9281 175.894 14.9785 176.164 15.0886C176.435 15.1956 176.68 15.3561 176.886 15.5575C177.093 15.7589 177.255 16.0012 177.367 16.2687C177.478 16.5362 177.532 16.8194 177.529 17.1089V21.6626L177.526 21.6595Z" fill="#111AFF"/>
<path d="M193.257 27.1289H201.66V22.0654H193.257V15.5701H202.283V10.3241H186.782V39.5185H202.388V34.2599H193.253V27.1289H193.257Z" fill="#111AFF"/>
<path d="M219.179 10.3241H208.997L203.308 39.5185H209.449L210.718 32.6455H217.496L218.606 39.5185H225.03L219.179 10.3241ZM211.705 27.6292L214.187 14.925L216.668 27.6292H211.705Z" fill="#111AFF"/>
</svg>
