<svg width="56" height="56" viewBox="0 0 56 56" fill="none" xmlns="http://www.w3.org/2000/svg">
<g clip-path="url(#clip0_134_649)">
<path d="M1.67871 18.2607L8.82181 7.5525L1.67871 18.2607ZM4.35577 20.0465L11.4989 9.33828L4.35577 20.0465ZM7.03282 21.8323L14.1759 11.1241L7.03282 21.8323Z" fill="black"/>
<path d="M13.2697 10.5196L15.082 11.7285L7.93885 22.4367L6.12658 21.2278L13.2697 10.5196ZM10.5926 8.73374L12.405 9.94273L5.26186 20.651L3.44946 19.442L10.5926 8.73374ZM7.91557 6.948L9.72785 8.15691L2.58474 18.8652L0.772461 17.6562L7.91557 6.948Z" fill="#222222"/>
<path d="M40.9424 44.4521L48.0855 33.7439L40.9424 44.4521ZM43.6194 46.2379L50.7625 35.5297L43.6194 46.2379ZM46.2965 48.0237L53.4396 37.3155L46.2965 48.0237Z" fill="black"/>
<path d="M52.5334 36.7112L54.3456 37.9201L47.2025 48.6284L45.3902 47.4195L52.5334 36.7112ZM49.8562 34.9254L51.6686 36.1344L44.5255 46.8426L42.7131 45.6336L49.8562 34.9254ZM47.1792 33.1396L48.9915 34.3486L41.8484 45.0568L40.0361 43.8479L47.1792 33.1396Z" fill="#222222"/>
<path d="M43.0269 37.4614L51.9505 43.4141L51.3552 44.3064L42.4316 38.3538L43.0269 37.4614Z" fill="white"/>
<path d="M15.4205 19.6901L15.6341 19.3794C20.1762 12.9308 29.0583 11.2469 35.658 15.6492L35.9693 15.862C42.3988 20.3906 44.0912 29.2327 39.738 35.8263C39.7251 35.8461 39.7136 35.8668 39.7005 35.8865C39.4985 36.1893 39.2848 36.4826 39.0624 36.7675C38.1163 37.982 37.0077 39.0066 35.7905 39.8375C35.732 39.8774 35.6734 39.9172 35.6144 39.9563C35.4794 40.0456 35.3431 40.1324 35.2056 40.2169C35.1413 40.2564 35.0771 40.296 35.0122 40.3345C34.9063 40.3973 34.8 40.4591 34.6928 40.5191C34.5957 40.5735 34.4977 40.6262 34.3993 40.6784C34.3054 40.7281 34.211 40.7764 34.1162 40.824C34.0045 40.8802 33.8922 40.9356 33.779 40.989C33.6925 41.0296 33.6057 41.0694 33.5186 41.1083C33.3783 41.1711 33.2372 41.2322 33.0949 41.2906C33.0369 41.3142 32.9788 41.3373 32.9206 41.3602C32.763 41.4225 32.6045 41.4829 32.4445 41.5397C32.3961 41.5569 32.3473 41.5731 32.2988 41.5897C32.1209 41.6508 31.9416 41.7087 31.761 41.763C31.7374 41.7701 31.7137 41.7771 31.6901 41.7841C31.2727 41.9072 30.8487 42.0133 30.4185 42.0992C30.2092 42.141 29.999 42.1762 29.789 42.2087C29.7692 42.2118 29.7495 42.2152 29.7297 42.2182C29.5349 42.2475 29.3398 42.2727 29.1446 42.294C29.105 42.2984 29.0654 42.3037 29.0257 42.3077C28.8372 42.3267 28.6486 42.3409 28.46 42.3525C28.4187 42.3551 28.3774 42.358 28.336 42.3602C28.1686 42.3691 28.0011 42.3745 27.8338 42.3777C27.7539 42.3792 27.6741 42.3803 27.5942 42.3806C27.4497 42.3809 27.3053 42.3796 27.1611 42.3757C27.0698 42.3733 26.9786 42.3702 26.8873 42.3661C26.7539 42.3599 26.6206 42.3519 26.4875 42.3421C24.2254 42.1775 21.973 41.4842 19.9204 40.221C19.7662 40.1263 19.6133 40.029 19.4623 39.9283C19.3618 39.8613 19.2621 39.7932 19.1635 39.7238L19.1519 39.7161C16.3356 37.7327 14.429 34.9206 13.54 31.833C13.4275 31.443 13.3296 31.0474 13.2495 30.6463C13.1682 30.239 13.105 29.83 13.0589 29.4204C12.6855 26.1181 13.432 22.6711 15.4205 19.6901ZM17.2871 20.9353C15.9441 22.9487 15.2734 25.2136 15.2169 27.4667C15.7687 28.3953 16.5257 29.1984 17.4414 29.8092C19.0512 30.883 21.0217 31.2729 22.9193 30.8939C24.6984 30.5386 26.2772 29.5352 27.3524 28.0846L27.7685 27.4919C28.8437 26.0414 30.4226 25.0379 32.2016 24.6827C34.0992 24.3037 36.0697 24.6935 37.6795 25.7674C38.5955 26.3784 39.351 27.1828 39.9028 28.1117C40.0063 24.0157 38.0732 19.9577 34.4129 17.5158C28.7396 13.7315 21.0717 15.2621 17.2871 20.9353Z" fill="url(#paint0_linear_134_649)"/>
<path d="M15.6341 19.3794C20.1762 12.9308 29.0583 11.2469 35.658 15.6492L35.9693 15.862C42.3988 20.3906 44.0912 29.2327 39.738 35.8263C39.7251 35.8461 39.7136 35.8668 39.7005 35.8865C39.4985 36.1893 39.2848 36.4826 39.0624 36.7675C38.1163 37.982 37.0077 39.0066 35.7905 39.8375C35.732 39.8774 35.6734 39.9172 35.6144 39.9563C35.4794 40.0456 35.3431 40.1324 35.2056 40.2169C35.1413 40.2564 35.0771 40.296 35.0122 40.3345C34.9063 40.3973 34.8 40.4591 34.6928 40.5191C34.5957 40.5735 34.4977 40.6262 34.3993 40.6784C34.3054 40.7281 34.211 40.7764 34.1162 40.824C34.0045 40.8802 33.8922 40.9356 33.779 40.989C33.6925 41.0296 33.6057 41.0694 33.5186 41.1083C33.3783 41.1711 33.2372 41.2322 33.0949 41.2906C33.0369 41.3142 32.9788 41.3373 32.9206 41.3602C32.763 41.4225 32.6045 41.4829 32.4445 41.5397C32.3961 41.5569 32.3473 41.5731 32.2988 41.5897C32.1209 41.6508 31.9416 41.7087 31.761 41.763C31.7374 41.7701 31.7137 41.7771 31.6901 41.7841C31.2727 41.9072 30.8487 42.0133 30.4185 42.0992C30.2092 42.141 29.999 42.1762 29.789 42.2087C29.7692 42.2118 29.7495 42.2152 29.7297 42.2182C29.5349 42.2475 29.3398 42.2727 29.1446 42.294C29.105 42.2984 29.0654 42.3037 29.0257 42.3077C28.8372 42.3267 28.6486 42.3409 28.46 42.3525C28.4187 42.3551 28.3774 42.358 28.336 42.3602C28.1686 42.3691 28.0011 42.3745 27.8338 42.3777C27.7539 42.3792 27.6741 42.3803 27.5942 42.3806C27.4497 42.3809 27.3053 42.3796 27.1611 42.3757C27.0698 42.3733 26.9786 42.3702 26.8873 42.3661C26.7539 42.3599 26.6206 42.3519 26.4875 42.3421C24.2254 42.1775 21.973 41.4842 19.9204 40.221C19.7662 40.1263 19.6133 40.029 19.4623 39.9283C19.3618 39.8613 19.2621 39.7932 19.1635 39.7238L19.1519 39.7161C16.3356 37.7327 14.429 34.9206 13.54 31.833C13.4275 31.443 13.3296 31.0474 13.2495 30.6463C13.1682 30.239 13.105 29.83 13.0589 29.4204C12.6855 26.1181 13.432 22.6711 15.4205 19.6901L15.6341 19.3794ZM20.8416 38.7218L20.8425 38.7224L21.1827 38.9248C22.7811 39.8424 24.5044 40.3771 26.2428 40.5546L26.6149 40.5872L26.6173 40.5875L26.9661 40.6084L26.9667 40.6075L27.2077 40.6159L27.2086 40.6165L27.5882 40.6205L27.7991 40.6179L27.8006 40.6176L28.2415 40.6031L28.3508 40.596L28.8487 40.5562L28.8481 40.5571C28.9056 40.5513 28.831 40.558 28.9532 40.5446L29.468 40.4774L29.4674 40.4783C29.4645 40.4788 29.464 40.4787 29.4734 40.4771C29.4801 40.476 29.5 40.4725 29.5199 40.4694L30.0737 40.3727L30.635 40.2475L31.1919 40.096L31.1933 40.0957L31.2547 40.0772L31.7269 39.9248L31.7284 39.9245L31.8554 39.8814L32.2746 39.7233L32.2752 39.7224L32.4274 39.6626L32.7995 39.5015L32.801 39.5012L33.0302 39.3958L33.0296 39.3967L33.3251 39.2517L33.3266 39.2514L33.5739 39.1246L33.5745 39.1237C33.6679 39.0741 33.7531 39.0286 33.8331 38.9837L33.8337 38.9828L34.1129 38.8217L34.1135 38.8209L34.2834 38.7172L34.2842 38.7178L34.6436 38.4888L34.7976 38.3837L34.7985 38.3843L35.1951 38.1014C36.1104 37.4247 36.947 36.6193 37.6738 35.6863L37.675 35.6845L37.9647 35.3006C38.0532 35.1786 38.1384 35.0551 38.2216 34.931C38.2241 34.9269 38.2277 34.9222 38.2305 34.9176C38.2385 34.9047 38.2505 34.8861 38.2648 34.8643L38.2696 34.8571L38.6129 34.3076C39.1499 33.3991 39.5606 32.4477 39.8527 31.4754L38.3892 29.0103C38.0222 28.3926 37.5374 27.8485 36.957 27.4119L36.7032 27.231C35.5584 26.4674 34.1726 26.1599 32.8172 26.3613L32.5464 26.4091C31.2027 26.6775 30.0095 27.4319 29.1943 28.5231L28.7928 29.0959L28.766 29.1322C27.5145 30.8207 25.7139 32.0209 23.6747 32.5276L23.2641 32.6204C21.0562 33.0613 18.7685 32.663 16.8445 31.5131L16.465 31.2728C15.8976 30.8943 15.3782 30.4572 14.9159 29.9696L14.976 30.3015C15.0109 30.4761 15.0494 30.6505 15.0921 30.8244L15.231 31.3458C16.0133 34.0626 17.6888 36.5329 20.1649 38.2769L20.1765 38.2846C20.2616 38.3445 20.3488 38.4047 20.4386 38.4646L20.8416 38.7218ZM17.4414 29.8092C19.0512 30.883 21.0217 31.2729 22.9193 30.8939C24.6984 30.5386 26.2772 29.5352 27.3524 28.0846L27.7685 27.4919C28.8437 26.0414 30.4226 25.0379 32.2016 24.6827C34.0992 24.3037 36.0697 24.6935 37.6795 25.7674C38.5955 26.3784 39.351 27.1828 39.9028 28.1117C40.0063 24.0157 38.0732 19.9577 34.4129 17.5158C28.7396 13.7315 21.0717 15.2621 17.2871 20.9353C15.9441 22.9487 15.2734 25.2136 15.2169 27.4667C15.7687 28.3953 16.5257 29.1984 17.4414 29.8092Z" fill="black"/>
<path d="M8.82422 48.0237L1.68112 37.3154L8.82422 48.0237ZM11.5013 46.2379L4.35817 35.5297L11.5013 46.2379ZM14.1783 44.4521L7.03523 33.7439L14.1783 44.4521Z" fill="black"/>
<path d="M6.12897 34.3484L7.94125 33.1394L15.0844 43.8477L13.2721 45.0566L6.12897 34.3484ZM3.45186 36.1342L5.26425 34.9252L12.4074 45.6334L10.595 46.8424L3.45186 36.1342ZM0.774858 37.9199L2.58714 36.711L9.73025 47.4193L7.91797 48.6282L0.774858 37.9199Z" fill="#222222"/>
<path d="M48.0869 21.8323L40.9438 11.124L48.0869 21.8323ZM50.764 20.0465L43.6209 9.33826L50.764 20.0465ZM53.441 18.2607L46.2979 7.55248L53.441 18.2607Z" fill="black"/>
<path d="M45.3926 8.15671L47.2049 6.94779L54.348 17.656L52.5358 18.865L45.3926 8.15671ZM42.7155 9.94253L44.5279 8.73354L51.671 19.4418L49.8586 20.6508L42.7155 9.94253ZM40.0385 11.7283L41.8508 10.5194L48.9939 21.2276L47.1816 22.4365L40.0385 11.7283Z" fill="#222222"/>
<path d="M48.2339 13.3534L50.911 11.5676L51.5063 12.4599L48.8291 14.2457L48.2339 13.3534ZM42.4336 17.2226L45.5569 15.1391L46.1521 16.0315L43.0289 18.1149L42.4336 17.2226ZM6.29343 41.3306L8.97042 39.5448L9.56567 40.4372L6.88867 42.2229L6.29343 41.3306Z" fill="white"/>
</g>
<defs>
<linearGradient id="paint0_linear_134_649" x1="33.0094" y1="30.4715" x2="14.5823" y2="21.5865" gradientUnits="userSpaceOnUse">
<stop stop-color="#ED174C"/>
<stop offset="1" stop-color="#006DB8"/>
</linearGradient>
<clipPath id="clip0_134_649">
<rect width="56" height="56" fill="white"/>
</clipPath>
</defs>
</svg>
