<svg width="38" height="38" viewBox="0 0 38 38" fill="none" xmlns="http://www.w3.org/2000/svg">
<path d="M1.14993 30.743C1.46447 30.7334 1.77105 30.8507 2.00035 31.0662L7.18948 35.9476C7.41845 36.1631 7.55227 36.4621 7.56212 36.7764C7.57158 37.091 7.45621 37.3975 7.2405 37.6268C7.02471 37.856 6.72639 37.9898 6.41173 37.9994C6.09727 38.0088 5.7905 37.8933 5.56131 37.6778L0.372179 32.7948C0.143629 32.5792 0.00922106 32.2802 -0.000461372 31.9661C-0.00971583 31.652 0.106026 31.3462 0.321153 31.1172C0.53674 30.8881 0.835508 30.7528 1.14993 30.743ZM36.8491 30.743C37.1635 30.7527 37.4623 30.8883 37.6779 31.1172C37.893 31.3462 38.0088 31.652 37.9995 31.9661C37.9898 32.2804 37.8558 32.5792 37.6269 32.7948L32.4378 37.6778C32.2085 37.8934 31.902 38.0089 31.5873 37.9994C31.2729 37.9897 30.9742 37.8558 30.7586 37.6268C30.5432 37.3976 30.4275 37.0907 30.437 36.7764C30.4468 36.462 30.5806 36.1632 30.8096 35.9476L35.9987 31.0662C36.228 30.8505 36.5345 30.7336 36.8491 30.743ZM4.10786 27.8748C4.42239 27.8652 4.72897 27.9809 4.95828 28.1964L10.1474 33.0778C10.3763 33.2933 10.5101 33.5923 10.52 33.9066C10.5295 34.2212 10.4141 34.5277 10.1984 34.757C9.98264 34.9862 9.68434 35.12 9.36965 35.1296C9.05515 35.1391 8.74845 35.0236 8.51923 34.808L3.3301 29.925C3.10174 29.7096 2.96733 29.4116 2.95746 29.0978C2.94804 28.7834 3.0637 28.4766 3.27908 28.2474C3.49469 28.0182 3.7934 27.8846 4.10786 27.8748ZM33.8912 27.8748C34.2056 27.8844 34.5043 28.0185 34.72 28.2474C34.9353 28.4766 35.051 28.7835 35.0416 29.0978C35.0317 29.4119 34.8977 29.7095 34.669 29.925L29.4798 34.808C29.2505 35.0237 28.9441 35.1392 28.6294 35.1296C28.315 35.1199 28.0163 34.9861 27.8006 34.757C27.5853 34.5278 27.4696 34.2209 27.479 33.9066C27.4889 33.5923 27.6227 33.2933 27.8517 33.0778L33.0408 28.1964C33.27 27.9807 33.5766 27.8653 33.8912 27.8748ZM18.9995 4.74943C26.8694 4.74943 33.2492 11.1296 33.2495 18.9994C33.2495 26.8695 26.8696 33.2494 18.9995 33.2494C11.1297 33.2492 4.74954 26.8693 4.74954 18.9994C4.74984 11.1298 11.1299 4.7497 18.9995 4.74943ZM25.3329 17.8119C24.5765 17.8119 23.9104 17.8485 23.1944 18.0964C22.574 18.3113 21.8529 18.7086 21.0034 19.4834L20.6308 19.839C19.035 21.4348 17.1467 23.3536 13.4579 23.3536C11.0529 23.3534 9.18511 22.1454 7.86827 20.8286C7.61981 20.5801 7.39008 20.3215 7.17402 20.0648C7.71284 26.1238 12.8005 30.8742 18.9995 30.8744C24.4513 30.8744 29.0404 27.1993 30.4354 22.1924C30.0707 21.0004 29.2928 19.9202 28.3325 19.12C27.2853 18.2477 26.1599 17.8119 25.3329 17.8119ZM18.9995 7.12443C13.4025 7.12466 8.71215 10.9982 7.45698 16.21C7.84063 16.9572 8.54191 18.1437 9.54747 19.1494C10.6054 20.2073 11.905 20.9784 13.4579 20.9786C16.1024 20.9786 17.3807 19.7307 18.9516 18.1598L19.4062 17.7253C20.4565 16.7682 21.4498 16.1867 22.4182 15.8513C23.518 15.4707 24.5065 15.4369 25.3329 15.4369C26.8804 15.4369 28.5266 16.1895 29.854 17.2955C30.2011 17.5848 30.5352 17.9068 30.8482 18.2557C30.464 12.0441 25.3079 7.12443 18.9995 7.12443ZM9.3712 2.86922C9.68563 2.87907 9.98439 3.01428 10.2 3.24341C10.4149 3.4725 10.531 3.77826 10.5216 4.09229C10.5118 4.40647 10.3777 4.70549 10.149 4.92106L4.95982 9.80404C4.73063 10.0196 4.42388 10.1351 4.1094 10.1257C3.79496 10.1161 3.49639 9.98191 3.28063 9.75301C3.06501 9.52385 2.94966 9.21708 2.95901 8.90259C2.96872 8.58807 3.10252 8.2895 3.33165 8.07381L8.52078 3.19238C8.75015 2.97658 9.05641 2.85964 9.3712 2.86922ZM28.6294 2.86922C28.9442 2.85965 29.2505 2.97662 29.4798 3.19238L34.669 8.07381C34.8981 8.2895 35.0319 8.58809 35.0416 8.90259C35.051 9.21708 34.9356 9.52385 34.72 9.75301C34.5042 9.9819 34.2056 10.1161 33.8912 10.1257C33.5768 10.135 33.27 10.0195 33.0408 9.80404L27.8517 4.92106C27.6229 4.7055 27.4888 4.40645 27.479 4.09229C27.4696 3.77826 27.5857 3.4725 27.8006 3.24341C28.0162 3.01429 28.315 2.87908 28.6294 2.86922ZM6.41327 0.000980072C6.72774 0.0107957 7.02644 0.144466 7.24205 0.37362C7.45725 0.602881 7.57324 0.909715 7.56366 1.22404C7.55368 1.53795 7.41961 1.83587 7.19103 2.05127L2.0019 6.93425C1.77267 7.14983 1.466 7.2653 1.15148 7.25586C0.837011 7.24628 0.53846 7.11215 0.322699 6.88322C0.107146 6.65407 -0.00826072 6.34724 0.00108485 6.0328C0.0108444 5.71835 0.144639 5.41967 0.373725 5.20402L5.56285 0.322595C5.79222 0.106785 6.09848 -0.00860578 6.41327 0.000980072ZM31.5873 0.000980072C31.9021 -0.008596 32.2084 0.106827 32.4378 0.322595L37.6269 5.20402C37.8559 5.41966 37.9898 5.71837 37.9995 6.0328C38.0089 6.34724 37.8935 6.65407 37.6779 6.88322C37.4622 7.11214 37.1636 7.24627 36.8491 7.25586C36.5347 7.26529 36.2279 7.14979 35.9987 6.93425L30.8096 2.05127C30.581 1.83587 30.4469 1.53792 30.437 1.22404C30.4274 0.909718 30.5434 0.602881 30.7586 0.37362C30.9742 0.144477 31.2729 0.010807 31.5873 0.000980072Z" fill="black"/>
</svg>
