<svg width="283" height="50" viewBox="0 0 283 50" fill="none" xmlns="http://www.w3.org/2000/svg">
<g clip-path="url(#clip0_162561_40708)">
<path d="M188.067 29.4893V15.2662L179.501 29.1227H173.626L165.043 15.2662V29.4893H158.412V5.00146H165.416L176.729 23.0636L188.067 5.00146H194.87V29.4893H188.067Z" fill="#17479D"/>
<path d="M146.855 14.043H133.539C132.985 14.043 132.494 13.8494 132.074 13.4787C131.717 13.0956 131.519 12.6673 131.498 12.2018C131.519 11.6375 131.717 11.1926 132.074 10.8425C132.448 10.4759 132.905 10.2782 133.443 10.2782H153.767V4.99756H132.712C130.239 4.99756 128.299 5.6978 126.854 7.11476C125.351 8.56879 124.599 10.2947 124.599 12.3336C124.599 14.3726 125.351 16.1726 126.854 17.6678C128.357 19.1589 130.318 19.9003 132.712 19.9003H146.7C147.313 19.9003 147.813 20.1104 148.228 20.5388C148.644 20.9466 148.858 21.4532 148.858 22.034C148.858 22.6148 148.64 23.1215 148.203 23.5498C147.771 23.9741 147.237 24.1883 146.603 24.1883H126.002V29.4854H146.859C149.312 29.4854 151.311 28.7069 152.873 27.154C154.418 25.6217 155.186 23.7805 155.186 21.6427C155.186 19.5049 154.418 17.7996 152.873 16.2673C151.369 14.7762 149.37 14.0348 146.859 14.0348L146.855 14.043Z" fill="#17479D"/>
<path d="M226.607 10.2821V5.00146H199.047V29.4893H226.607V24.1922H205.838V19.896H226.607V14.5989H205.85V10.2821H226.607Z" fill="#17479D"/>
<path d="M89.0693 26.1447C91.0304 29.3617 96.3844 34.0657 103.599 34.4611C107.664 34.6836 111.497 33.6661 114.571 31.5119C119.337 28.3855 122.176 23.1213 121.849 17.4576C121.534 11.9298 116.583 7.09816 111.598 7.29176C108.646 7.40709 106.143 8.857 104.762 11.176C106.828 11.4603 109.721 12.6795 110.569 15.7606C111.43 18.8869 109.058 22.1451 106.362 23.0801C106.311 23.1708 106.37 23.3026 106.509 23.2861C110.422 22.8042 114.882 20.1638 113.967 13.215C115.025 16.8727 114.298 21.6467 111.443 24.7896C109.545 26.8738 106.572 28.3278 102.557 28.0889C102.322 28.0766 102.217 28.402 102.511 28.4638C106.66 29.3411 110.364 28.1219 112.992 26.3054C116.028 24.2129 117.725 20.7487 117.973 17.2022C118.443 22.59 116.163 27.4834 110.137 30.4409C103.347 33.7732 93.6927 30.9805 89.4808 25.8935C89.1533 25.4939 88.809 25.7163 89.0735 26.1488L89.0693 26.1447Z" fill="#17479D"/>
<path d="M120.04 8.34628C118.083 5.12929 112.725 0.421192 105.511 0.0298809C101.446 -0.192549 97.6118 0.824861 94.5379 2.97913C89.7676 6.1055 86.9331 11.3697 87.2564 17.0334C87.584 22.7218 92.4887 27.397 97.511 27.1992C100.463 27.088 102.962 25.634 104.343 23.3191C102.281 23.0349 99.3881 21.8115 98.5356 18.7346C97.6706 15.6082 100.047 12.35 102.739 11.4191C102.789 11.3285 102.731 11.1967 102.592 11.2131C98.6784 11.6951 94.223 14.3354 95.1384 21.2843C94.0802 17.6265 94.8067 12.8567 97.6664 9.70969C99.5644 7.62132 102.538 6.17553 106.552 6.4062C106.791 6.41855 106.892 6.09315 106.598 6.03136C102.449 5.14988 98.7456 6.37324 96.1169 8.18563C93.085 10.2781 91.3801 13.7423 91.1365 17.2888C90.6662 11.901 92.9464 7.00758 98.9723 4.05009C105.763 0.717765 115.417 3.51049 119.633 8.59754C119.96 8.99709 120.305 8.77466 120.04 8.34216V8.34628Z" fill="#EC1B2E"/>
<path d="M72.4238 16.4895L88.7631 29.4893H79.1006L63.8364 17.8118V29.4893H57V5.00146H63.8364V15.4186L77.8787 5.00146H87.2556L72.4238 16.4895Z" fill="#17479D"/>
<path d="M198.922 41.7411C199.687 41.7411 200.282 41.9965 200.698 42.6472H200.72V41.873H202.16L202.168 41.8687V46.997C202.168 48.5415 201.538 49.9999 199.107 49.9999C198.511 49.9999 197.822 49.9127 197.104 49.612L197.226 48.3558C197.688 48.5987 198.439 48.8541 198.914 48.8541C200.576 48.8541 200.656 47.6313 200.656 46.6469H200.635C200.354 47.1329 199.677 47.5531 198.834 47.5531C197.125 47.5528 196.47 46.206 196.47 44.6863C196.47 43.3188 197.188 41.7411 198.922 41.7411ZM223.571 46.0123L223.576 46.0167H223.597L224.991 41.8687H226.519L224.348 47.5074C223.865 48.7636 223.517 49.9998 221.942 49.9999C221.581 49.9999 221.22 49.946 220.871 49.843L220.972 48.7515C221.165 48.8174 221.379 48.8507 221.749 48.8507C222.353 48.8506 222.727 48.4428 222.727 47.8333L220.514 41.8644H222.177L223.571 46.0123ZM178.216 41.7368C179.992 41.7369 180.643 43.129 180.643 44.6941C180.643 46.2593 179.992 47.685 178.178 47.685C177.539 47.6849 177.01 47.5281 176.481 46.9021H176.456V49.868H174.949V41.8687H176.393V42.6757H176.414C176.75 42.1238 177.326 41.7368 178.216 41.7368ZM83.3968 41.7411C85.1601 41.7412 85.8946 42.4576 85.8947 44.1336V44.863C85.8947 45.4356 85.9072 45.8681 85.9156 46.2882C85.9282 46.7166 85.95 47.1166 85.9836 47.5574H84.6566C84.602 47.2608 84.6013 46.8852 84.5887 46.7081H84.5678C84.2192 47.3383 83.4635 47.6927 82.779 47.6927C81.7545 47.6927 80.7551 47.087 80.7551 46.0037C80.7552 45.1556 81.1707 44.6571 81.7457 44.3811C82.321 44.1051 83.0607 44.0517 83.6947 44.0517H84.5259C84.5259 43.1373 84.1101 42.8283 83.2199 42.8283C82.5775 42.8283 81.9351 43.0717 81.4312 43.4465L81.385 42.1773L81.3807 42.1696C81.9644 41.906 82.7543 41.7411 83.3968 41.7411ZM123.214 41.7411C124.981 41.7412 125.711 42.4576 125.712 44.1336V44.863C125.712 45.4356 125.724 45.8681 125.733 46.2882C125.745 46.7166 125.767 47.1166 125.8 47.5574H124.474C124.419 47.2608 124.418 46.8852 124.406 46.7081H124.385C124.036 47.3383 123.285 47.6927 122.596 47.6927C121.571 47.6927 120.572 47.087 120.572 46.0037C120.572 45.1556 120.988 44.6571 121.563 44.3811C122.138 44.1051 122.877 44.0517 123.507 44.0517H124.338C124.338 43.1373 123.923 42.8283 123.032 42.8283C122.394 42.8284 121.752 43.0717 121.244 43.4465L121.198 42.1773L121.202 42.1696C121.786 41.906 122.575 41.7411 123.214 41.7411ZM155.25 41.7411C157.018 41.7412 157.748 42.4576 157.748 44.1336V44.863C157.748 45.4356 157.761 45.8681 157.769 46.2882C157.782 46.7166 157.803 47.1166 157.837 47.5574H156.51C156.455 47.2608 156.455 46.8852 156.442 46.7081H156.421C156.073 47.3383 155.321 47.6927 154.632 47.6927C153.608 47.6927 152.608 47.087 152.608 46.0037C152.609 45.1556 153.024 44.6571 153.599 44.3811C154.174 44.1051 154.914 44.0517 155.544 44.0517H156.375C156.375 43.1373 155.959 42.8283 155.069 42.8283C154.431 42.8284 153.788 43.0717 153.28 43.4465L153.234 42.1773L153.238 42.1696C153.822 41.906 154.612 41.7411 155.25 41.7411ZM114.794 41.7368C115.503 41.7368 115.962 41.8483 116.436 41.9471L116.335 43.0628H116.331C115.869 42.9064 115.533 42.8197 114.983 42.8197C114.58 42.8197 114.093 42.9643 114.093 43.4499C114.093 44.3561 116.713 43.7802 116.713 45.8356C116.713 47.1576 115.508 47.6884 114.281 47.6884C113.706 47.6884 113.123 47.5903 112.573 47.4462L112.665 46.2305C113.136 46.4611 113.631 46.6055 114.152 46.6055C114.534 46.6055 115.142 46.4614 115.142 45.9097C115.142 44.7977 112.523 45.555 112.522 43.5042C112.522 42.281 113.614 41.7369 114.794 41.7368ZM183.838 41.7368C184.548 41.7368 185.01 41.8483 185.481 41.9471L185.379 43.0628H185.375C184.913 42.9064 184.577 42.8197 184.027 42.8197C183.62 42.8197 183.138 42.9643 183.138 43.4499C183.138 44.3561 185.758 43.7802 185.758 45.8356C185.757 47.1576 184.552 47.6884 183.326 47.6884C182.755 47.6884 182.167 47.5903 181.617 47.4462L181.71 46.2305C182.18 46.4611 182.675 46.6055 183.196 46.6055C183.578 46.6055 184.186 46.4614 184.187 45.9097C184.187 44.7977 181.567 45.555 181.567 43.5042C181.567 42.281 182.658 41.7369 183.838 41.7368ZM218.469 41.7411C219.078 41.7411 219.515 41.807 219.93 41.9264L219.796 43.0964H219.792C219.523 42.977 219.229 42.8861 218.767 42.8861C217.835 42.8861 217.239 43.6153 217.239 44.6863C217.239 45.757 217.747 46.5399 218.805 46.54C219.233 46.54 219.704 46.3833 219.964 46.2762L220.031 47.4996C219.591 47.6314 219.141 47.6884 218.523 47.6884C216.621 47.6883 215.668 46.4202 215.668 44.6863C215.668 42.9522 216.659 41.7411 218.469 41.7411ZM66.3896 41.7368C68.1112 41.7368 69.4259 42.8735 69.426 44.7475C69.426 46.3828 68.3129 47.685 66.3896 47.685C64.4665 47.6849 63.3663 46.3827 63.3663 44.7475C63.3665 42.8736 64.6807 41.7368 66.3896 41.7368ZM77.2744 41.7368C79.4241 41.7369 80.0285 43.183 80.0285 45.1683H76.0267C76.094 46.0825 76.745 46.6012 77.6813 46.6012C78.4119 46.6012 79.0423 46.3377 79.605 46.0287V47.2315H79.6007C79.0506 47.528 78.4203 47.685 77.6098 47.685C75.6951 47.6849 74.5866 46.6014 74.5865 44.7398C74.5865 43.0962 75.4771 41.7368 77.2744 41.7368ZM92.8779 39.7106C93.554 39.7106 94.1844 39.7971 94.7555 39.9865L94.6082 41.2548L94.6161 41.2634C94.1206 41.0534 93.5706 40.9332 93.0164 40.9332C92.4622 40.9333 91.7775 41.1647 91.7775 42.0049C91.7782 43.3389 95.2213 42.7751 95.2216 45.3571C95.2216 47.0459 93.8606 47.685 92.2732 47.685C91.4166 47.685 90.6482 47.5446 89.9931 47.2151L90.1944 45.889C90.6941 46.3092 91.5636 46.4658 92.1809 46.4659C92.7982 46.4659 93.5749 46.1687 93.5749 45.4726C93.5747 44.0064 90.1317 44.6114 90.1317 42.0618C90.1319 40.3404 91.4923 39.7107 92.8779 39.7106ZM138.424 47.5531H136.98V46.7452H136.958C136.622 47.2971 136.047 47.6849 135.157 47.685C133.381 47.685 132.73 46.2928 132.73 44.7277C132.73 43.1625 133.381 41.7368 135.194 41.7368C135.833 41.7368 136.366 41.8936 136.891 42.5196H136.916V39.5537H138.424V47.5531ZM145.201 39.7141C145.873 39.7141 146.507 39.8006 147.078 39.99L146.931 41.2591L146.936 41.2634C146.44 41.0534 145.89 40.9332 145.34 40.9332C144.789 40.9332 144.101 41.1647 144.101 42.0049C144.101 43.3389 147.54 42.7751 147.54 45.3571C147.54 47.0459 146.179 47.685 144.592 47.685C143.74 47.685 143.353 47.5737 142.581 47.3884L142.727 45.996C143.269 46.2843 143.887 46.4693 144.504 46.4693C145.121 46.4693 145.898 46.173 145.898 45.4769C145.898 44.0105 142.455 44.6158 142.455 42.0661C142.455 40.3445 143.815 39.7141 145.201 39.7141ZM150.546 41.873H151.886V42.9516H150.546V45.6002C150.546 46.0863 150.681 46.54 151.256 46.54C151.525 46.54 151.786 46.4861 151.941 46.3831L151.987 47.5531C151.672 47.6396 151.323 47.685 150.874 47.685C149.694 47.6848 149.039 46.9677 149.039 45.8434V42.9516H147.926V41.873H149.039V40.7358L150.546 40.2624V41.873ZM165.623 41.873H166.962V42.9516H165.623V45.6002C165.623 46.0863 165.757 46.54 166.332 46.54C166.601 46.54 166.861 46.4861 167.017 46.3831L167.058 47.5531C166.744 47.6395 166.395 47.685 165.946 47.685C164.766 47.685 164.11 46.9679 164.11 45.8434V42.9516H163.002V41.873H164.114V40.7358L165.623 40.2624V41.873ZM169.758 44.9044C169.758 45.6005 169.77 46.5355 170.736 46.5357C171.828 46.5357 172.063 45.3783 172.063 44.6492V41.8687H173.571V47.5531H172.143V46.7788H172.122C171.66 47.3308 171.009 47.685 170.219 47.685C168.847 47.6848 168.25 46.7371 168.25 45.4562V41.8687H169.758V44.9044ZM205.872 41.7368C208.021 41.7369 208.626 43.183 208.626 45.1683H204.62C204.687 46.0824 205.342 46.6011 206.274 46.6012C207.005 46.6012 207.635 46.3377 208.198 46.0287V47.2315C207.648 47.528 207.018 47.685 206.207 47.685C204.297 47.6849 203.184 46.6014 203.184 44.7398C203.184 43.0962 204.074 41.7368 205.872 41.7368ZM111.569 41.0651H108.512V42.9645H111.313V44.1793H108.512V46.3417H111.594V47.5574H106.938V39.8503H111.569V41.0651ZM73.3763 41.7368C73.5232 41.7368 73.9053 41.7943 74.0986 41.8971V43.3016C73.964 43.2235 73.6448 43.1499 73.3763 43.1499C72.1507 43.1502 71.9362 44.6486 71.9361 45.4683V47.5531H70.4288V41.8687H71.768V43.1576H71.7898C71.8571 42.6263 72.478 41.737 73.3763 41.7368ZM96.4858 39.8503H99.0055L100.87 45.6873H100.891L102.759 39.8503H105.279V47.5531H103.771V41.197H103.75L101.634 47.5531H100.127L98.0097 41.197L97.9888 41.2177V47.5488H96.4815V39.846L96.4858 39.8503ZM130.025 41.7368C131.398 41.7368 131.994 42.6845 131.994 43.9655V47.5531H130.487V44.5173C130.487 43.8212 130.474 42.8861 129.509 42.8861C128.417 42.8861 128.182 44.0435 128.182 44.7725V47.5531H126.674V41.8687H128.098V42.6429H128.123C128.594 41.9922 129.236 41.7368 130.025 41.7368ZM161.8 41.7368C161.947 41.7368 162.103 41.7372 162.263 41.7825V43.187C162.124 43.1499 161.856 43.1376 161.587 43.1499C160.315 43.224 160.36 44.6486 160.36 45.4683V47.5531H158.853V41.8687H160.192V43.1576H160.214C160.281 42.6263 160.898 41.737 161.8 41.7368ZM196.138 47.5531H194.395L193.719 45.7856H190.536L189.852 47.5531H188.222L191.284 39.8503H193.055L196.138 47.5531ZM212.993 41.7368C214.367 41.7368 214.962 42.6845 214.962 43.9655V47.5531H213.455V44.5173C213.455 43.8212 213.443 42.8861 212.477 42.8861C211.385 42.8861 211.15 44.0435 211.15 44.7725V47.5531H209.642V41.8687H211.066V42.6429H211.091C211.562 41.9922 212.204 41.7368 212.993 41.7368ZM58.5744 43.162L61.4095 39.8503H63.3454L60.1157 43.4792L63.4796 47.5488H61.4217L58.5996 43.9733H58.5787V47.5488H57V39.8503H58.5744V43.162ZM123.688 44.9251C123.016 44.9251 122.012 45.0364 122.012 45.9054C122.012 46.3913 122.428 46.6012 122.965 46.6012C123.427 46.6012 123.789 46.4039 124.024 46.0951C124.272 45.7739 124.338 45.3658 124.338 44.9251H123.688ZM155.724 44.9251C155.052 44.9251 154.049 45.0364 154.049 45.9054C154.049 46.3913 154.465 46.6012 155.002 46.6012C155.464 46.6012 155.825 46.4039 156.06 46.0951C156.308 45.7739 156.375 45.3658 156.375 44.9251H155.724ZM83.8707 44.9251C83.1947 44.9251 82.1953 45.0364 82.1953 45.9054C82.1954 46.3905 82.6099 46.5997 83.1502 46.6004C83.6113 46.5999 83.9722 46.4036 84.2071 46.0951C84.4548 45.7739 84.5216 45.3658 84.5216 44.9251H83.8707ZM66.3896 42.8817C65.4029 42.8818 64.9372 43.7223 64.9372 44.5708C64.9373 45.5098 65.2392 46.5356 66.3896 46.5357C67.5486 46.5357 67.8507 45.5222 67.8508 44.5708C67.8508 43.6975 67.3765 42.8817 66.3896 42.8817ZM177.825 42.8861C176.847 42.8864 176.477 43.9033 176.477 44.6941H176.473C176.473 45.5014 176.801 46.5357 177.8 46.5357C178.799 46.5354 179.072 45.4766 179.072 44.6941C179.072 43.9115 178.803 42.8861 177.825 42.8861ZM135.547 42.9067C134.569 42.9068 134.304 43.9443 134.304 44.7104C134.304 45.4766 134.569 46.4822 135.526 46.4822C136.484 46.4822 136.845 45.4889 136.845 44.7104C136.845 43.9237 136.526 42.9067 135.547 42.9067ZM199.401 42.8817C198.376 42.8818 198.053 43.8088 198.053 44.682C198.053 45.4563 198.469 46.4037 199.334 46.4038C200.278 46.4038 200.661 45.6006 200.661 44.6492C200.661 43.6771 200.278 42.8817 199.401 42.8817ZM190.985 44.5708H193.278L192.145 41.3953H192.124L190.985 44.5708ZM77.3624 42.8197C76.5184 42.8197 76.0896 43.3925 76.0224 44.1543H78.5883C78.542 43.4378 78.2062 42.8197 77.3624 42.8197ZM205.96 42.8197C205.116 42.8197 204.687 43.3925 204.62 44.1543H207.186C207.139 43.4378 206.803 42.8197 205.96 42.8197Z" fill="#17479D"/>
</g>
<defs>
<clipPath id="clip0_162561_40708">
<rect width="283" height="50" fill="white"/>
</clipPath>
</defs>
</svg>
