<svg width="56" height="56" viewBox="0 0 56 56" fill="none" xmlns="http://www.w3.org/2000/svg">
<path d="M30.7686 22.6777C30.5251 27.5131 28.9144 30.4307 28 30.4307C27.0856 30.4301 25.4759 27.5126 25.2324 22.6777H30.7686ZM22.7412 22.6777C22.8605 25.2171 23.3382 27.6821 24.1582 29.5557C21.4746 28.2834 19.521 25.724 19.0986 22.6777H22.7412ZM36.9004 22.6777C36.478 25.724 34.5243 28.2834 31.8408 29.5557C32.6608 27.6821 33.1385 25.2171 33.2578 22.6777H36.9004ZM24.1582 13.3105C23.3383 15.1889 22.8605 17.6541 22.7412 20.1934H19.0986C19.521 17.142 21.4746 14.5876 24.1582 13.3105ZM31.8408 13.3105C34.5243 14.5876 36.478 17.142 36.9004 20.1934H33.2578C33.1386 17.6541 32.6607 15.1889 31.8408 13.3105ZM28 12.4355C28.9144 12.4355 30.525 15.3522 30.7686 20.1924H25.2324C25.476 15.3527 27.0856 12.4361 28 12.4355Z" fill="url(#paint0_linear_134_419)"/>
<path d="M13.1699 6.90039H42.8301C44.0879 6.90039 45.0996 7.91249 45.0996 9.14355V46.8564C45.0996 48.0875 44.0879 49.0996 42.8301 49.0996H13.1699C11.9121 49.0996 10.9004 48.0875 10.9004 46.8564V9.14355C10.9004 7.91249 11.9121 6.90039 13.1699 6.90039ZM19.2588 39.542C18.0905 39.542 17.1279 40.4806 17.1279 41.665C17.1282 42.8425 18.0885 43.7871 19.2588 43.7871H36.7412C37.9115 43.7871 38.8718 42.8425 38.8721 41.665C38.8721 40.4806 37.9095 39.542 36.7412 39.542H19.2588ZM28 9.34375C21.2375 9.34375 15.7305 14.8111 15.7305 21.542C15.7306 28.273 21.238 33.7354 28 33.7354C34.762 33.7354 40.2694 28.273 40.2695 21.542C40.2695 14.8111 34.7625 9.34375 28 9.34375Z" fill="url(#paint1_linear_134_419)" stroke="black" stroke-width="1.8"/>
<path d="M42.8304 48.2785V50H13.1696V48.2785H42.8304ZM44.2949 46.8567V9.14326C44.2947 8.38859 43.6656 7.72166 42.8304 7.72155H13.1696C12.3344 7.72166 11.7053 8.38859 11.7051 9.14326V46.8567C11.7053 47.6114 12.3344 48.2783 13.1696 48.2785V50L13.0068 49.9963C11.3889 49.9147 10.0862 48.6252 10.0037 47.0183L10 46.8567V9.14326C10.0002 7.46204 11.335 6.08805 13.0068 6.00374L13.1696 6H42.8304C44.5775 6.00011 45.9998 7.4078 46 9.14326V46.8567L45.9963 47.0183C45.9111 48.6788 44.5229 49.9999 42.8304 50V48.2785C43.6656 48.2783 44.2947 47.6114 44.2949 46.8567ZM19.2581 40.4423L19.1323 40.4488C18.5122 40.5111 18.0277 41.0282 18.0277 41.665C18.0279 42.2974 18.5124 42.8175 19.1323 42.8803L19.2581 42.8868H36.7419L36.8677 42.8803C37.4465 42.8217 37.9072 42.3644 37.9659 41.7892L37.9723 41.665C37.9723 41.0282 37.4878 40.5111 36.8677 40.4488L36.7419 40.4423V38.7207C38.332 38.7209 39.6774 40.0041 39.6774 41.665C39.6772 43.3171 38.3361 44.6082 36.7419 44.6084H19.2581C17.7136 44.6082 16.4063 43.3962 16.3263 41.8182L16.3226 41.665L16.3263 41.5099C16.4067 39.9247 17.7177 38.7209 19.2581 38.7207V40.4423ZM36.7419 38.7207V40.4423H19.2581V38.7207H36.7419ZM39.3703 21.5416C39.3702 15.4105 34.4289 10.4025 28.2933 10.2474L28 10.2436C21.7294 10.2436 16.6298 15.3131 16.6297 21.5416L16.6334 21.8331C16.787 27.8305 21.6685 32.6787 27.7067 32.8312L28 32.8349C34.1727 32.8349 39.2106 27.9273 39.3666 21.8331L39.3703 21.5416ZM41.0753 21.5416C41.0753 28.7473 35.1861 34.5565 28 34.5565C20.8139 34.5565 14.9247 28.7473 14.9247 21.5416C14.9248 14.3367 20.8131 8.52208 28 8.52208C35.1869 8.52208 41.0752 14.3367 41.0753 21.5416Z" fill="black"/>
<defs>
<linearGradient id="paint0_linear_134_419" x1="28.4827" y1="25.146" x2="26.717" y2="12.6597" gradientUnits="userSpaceOnUse">
<stop stop-color="#ED174C"/>
<stop offset="1" stop-color="#006DB8"/>
</linearGradient>
<linearGradient id="paint1_linear_134_419" x1="28.9772" y1="37.0785" x2="23.8039" y2="6.82212" gradientUnits="userSpaceOnUse">
<stop stop-color="#ED174C"/>
<stop offset="1" stop-color="#006DB8"/>
</linearGradient>
</defs>
</svg>
