<svg width="283" height="50" viewBox="0 0 283 50" fill="none" xmlns="http://www.w3.org/2000/svg">
<path d="M222.081 11C224.13 11 226.012 11.3676 227.731 12.1026C229.448 12.8361 230.935 13.8298 232.187 15.0804C233.437 16.3308 234.41 17.801 235.106 19.4889H235.105C235.799 21.177 236.148 22.9902 236.148 24.9228V25.001C236.148 26.9337 235.792 28.7467 235.086 30.4349C234.377 32.1245 233.398 33.6056 232.147 34.8825C230.896 36.158 229.405 37.1642 227.672 37.8993C225.941 38.6329 224.052 39 222.004 39C219.956 38.9999 218.073 38.6328 216.354 37.8993C214.637 37.1643 213.151 36.1721 211.9 34.9216C210.649 33.6711 209.675 32.2011 208.981 30.5131C208.286 28.8249 207.938 27.0117 207.938 25.0791V25.001C207.938 23.0682 208.292 21.2552 208.999 19.567C209.708 17.8774 210.687 16.3964 211.938 15.1194C213.19 13.8424 214.681 12.8361 216.412 12.1026C218.143 11.3675 220.033 11 222.081 11ZM86.2301 11.4659V33.1597H100.901V38.5351H80.4259V11.4659H86.2301ZM112.195 11.4659V38.5332H106.389V11.4659H112.195ZM123.589 11.4659V23.0819L134.294 11.4659H141.307L130.564 22.9501L141.798 38.5351H134.824L126.644 27.0099L123.589 30.2592V38.5351H117.783V11.4659H123.589ZM165.935 11.4659V16.7621H151.189V22.3504H164.23V27.6486H151.189V33.2369H165.935V38.5332H145.459V11.4659H165.935ZM37.0867 31.5327H54.8309V38.5332H34.3562V21.3083L19 11.4659H37.0867V31.5327ZM177.36 33.1588H192.031V38.5332H171.556V11.4659H177.36V33.1588ZM203.325 11.4659V38.5332H197.519V11.4659H203.325ZM246.349 11.4639L246.568 11.7588L258.894 28.3723V11.4659H264.7V38.5332H259.332L258.894 37.9433L246.568 21.3445V38.5332H240.762V11.4639H246.349ZM222.007 16.3715C220.802 16.3715 219.707 16.5957 218.72 17.0395C217.733 17.4849 216.887 18.1 216.183 18.8834C215.477 19.6683 214.927 20.5766 214.529 21.6091C214.132 22.6432 213.933 23.749 213.933 24.9248V25.0029C213.933 26.1786 214.132 27.2903 214.529 28.3352C214.927 29.3818 215.49 30.2966 216.22 31.0815C216.949 31.8664 217.811 32.4876 218.796 32.9439C219.783 33.4017 220.905 33.6305 222.083 33.6305C223.262 33.6305 224.353 33.4073 225.352 32.9634C226.351 32.518 227.201 31.9044 227.907 31.1196C228.612 30.3347 229.164 29.4272 229.561 28.3948C229.958 27.3623 230.156 26.2548 230.156 25.0791L230.161 25.0801V25.0029C230.161 23.8271 229.961 22.7143 229.565 21.6677C229.166 20.6229 228.603 19.7057 227.872 18.9224C227.142 18.1377 226.277 17.5163 225.277 17.06C224.276 16.6022 223.213 16.3715 222.007 16.3715ZM70.1872 11.4659L54.8309 21.3083V11.4659H70.1872Z" fill="#FF6B00"/>
</svg>
