<svg width="198" height="28" viewBox="0 0 198 28" fill="none" xmlns="http://www.w3.org/2000/svg">
<g clip-path="url(#clip0_162534_43010)">
<path d="M36.6523 3.82107H40.8647V23.1533H46.0645V3.82107H50.3131V0H36.6523V3.82107Z" fill="black"/>
<path d="M60.4589 5.13712H56.3553C53.3024 5.13712 51.7715 6.48039 51.7715 9.17601V19.1144C51.7715 21.8101 53.3024 23.1533 56.3553 23.1533H60.4227C63.5027 23.1533 65.0337 21.8101 65.0337 19.1144V17.3627H60.16V18.5608C60.16 18.8966 60.0875 19.1417 59.9426 19.2869C59.7977 19.4321 59.5531 19.5047 59.2179 19.5047H57.5873C57.2249 19.5047 56.9713 19.4412 56.8263 19.305C56.6814 19.1689 56.6089 18.9511 56.6089 18.6334V15.5384H65.079V9.16694C65.079 6.47131 63.539 5.12804 60.468 5.12804L60.4589 5.13712ZM60.2053 12.5614H56.6089V9.64798C56.6089 9.33031 56.6814 9.11248 56.8263 8.97634C56.9713 8.8402 57.2249 8.77666 57.5873 8.77666H59.2632C59.5984 8.77666 59.8429 8.8402 59.9879 8.97634C60.1328 9.11248 60.2053 9.33939 60.2053 9.64798V12.5614Z" fill="black"/>
<path d="M75.6054 5.13712H71.9003C68.8203 5.13712 67.2803 6.48039 67.2803 9.17601V19.1144C67.2803 21.81 68.8203 23.1533 71.9003 23.1533H75.6054C78.6854 23.1533 80.2254 21.81 80.2254 19.1144V16.6729H75.2793V18.4246C75.2793 19.0327 74.9531 19.3323 74.3009 19.3323H73.3588C72.7066 19.3323 72.3804 19.0327 72.3804 18.4246V9.8658C72.3804 9.2577 72.7066 8.95819 73.3588 8.95819H74.3009C74.9531 8.95819 75.2793 9.26678 75.2793 9.8658V11.6175H80.2254V9.17601C80.2254 6.48039 78.6854 5.13712 75.6054 5.13712Z" fill="black"/>
<path d="M91.4134 5.13712H90.5075C88.9856 5.13712 88.0344 5.73614 87.672 6.92512V0.181524H82.6172V23.1533H87.672V10.1199C87.672 9.33939 88.0253 8.95819 88.7229 8.95819H89.5925C90.2448 8.95819 90.5709 9.26678 90.5709 9.8658V23.1533H95.662V9.16694C95.662 6.47131 94.2397 5.12804 91.4134 5.12804V5.13712Z" fill="black"/>
<path d="M114.242 0H109.595C106.542 0 105.011 1.3342 105.011 4.00259V19.1507C105.011 21.8191 106.542 23.1533 109.595 23.1533H114.242C117.322 23.1533 118.853 21.8191 118.853 19.1507V15.1481H113.617V18.6788C113.617 19.0146 113.544 19.2506 113.399 19.3867C113.254 19.5229 113.01 19.5864 112.675 19.5864H111.189C110.827 19.5864 110.573 19.5229 110.428 19.3867C110.283 19.2506 110.211 19.0146 110.211 18.6788V4.47455C110.211 3.86645 110.537 3.56694 111.189 3.56694H112.675C113.309 3.56694 113.617 3.86645 113.617 4.47455V8.1141H118.853V4.00259C118.853 1.3342 117.313 0 114.242 0Z" fill="black"/>
<path d="M130.049 5.13712H125.728C124.125 5.13712 122.983 5.48201 122.295 6.1718C121.606 6.86159 121.262 7.86904 121.262 9.17601V19.1144C121.262 20.4214 121.606 21.4289 122.295 22.1186C122.983 22.8084 124.134 23.1533 125.728 23.1533H130.049C131.644 23.1533 132.794 22.8084 133.483 22.1186C134.171 21.4289 134.515 20.4214 134.515 19.1144V9.17601C134.515 7.86904 134.171 6.86159 133.483 6.1718C132.794 5.48201 131.644 5.13712 130.049 5.13712ZM129.542 18.6062C129.542 19.2143 129.216 19.5138 128.564 19.5138H127.223C126.571 19.5138 126.245 19.2143 126.245 18.6062V9.68428C126.245 9.07618 126.571 8.77666 127.223 8.77666H128.564C129.216 8.77666 129.542 9.08525 129.542 9.68428V18.6062Z" fill="black"/>
<path d="M142.442 0.181524H137.387V23.1533H142.442V0.181524Z" fill="black"/>
<path d="M150.549 0.181524H145.495V23.1533H150.549V0.181524Z" fill="black"/>
<path d="M162.027 5.13712H157.924C154.871 5.13712 153.34 6.48039 153.34 9.17601V19.1144C153.34 21.8101 154.871 23.1533 157.924 23.1533H161.991C165.071 23.1533 166.602 21.8101 166.602 19.1144V17.3627H161.728V18.5608C161.728 18.8966 161.656 19.1417 161.511 19.2869C161.366 19.4321 161.121 19.5047 160.786 19.5047H159.156C158.793 19.5047 158.54 19.4412 158.395 19.305C158.25 19.1689 158.177 18.9511 158.177 18.6334V15.5384H166.647V9.16694C166.647 6.47131 165.107 5.12804 162.036 5.12804L162.027 5.13712ZM161.774 12.5614H158.177V9.64798C158.177 9.33031 158.25 9.11248 158.395 8.97634C158.54 8.8402 158.793 8.77666 159.156 8.77666H160.822C161.158 8.77666 161.402 8.8402 161.547 8.97634C161.692 9.11248 161.765 9.33939 161.765 9.64798V12.5614H161.774Z" fill="black"/>
<path d="M176.929 7.17018C176.594 5.80875 175.607 5.12804 173.985 5.12804H173.115C170.28 5.12804 168.867 6.47131 168.867 9.16694V18.3429C168.867 21.0386 170.289 22.3818 173.115 22.3818H173.985C175.534 22.3818 176.494 21.7828 176.857 20.5938V23.3621C176.857 23.9702 176.531 24.2697 175.878 24.2697H169.628V27.9818H177.328C180.381 27.9818 181.902 26.6386 181.902 23.9429V5.13712H176.92V7.17926L176.929 7.17018ZM176.857 17.4081C176.857 18.1887 176.494 18.5699 175.77 18.5699H174.936C174.284 18.5699 173.958 18.2703 173.958 17.6622V9.87488C173.958 9.26678 174.284 8.96726 174.936 8.96726H175.77C176.494 8.96726 176.857 9.35754 176.857 10.129V17.4081Z" fill="black"/>
<path d="M198 15.5475V9.17601C198 6.48039 196.46 5.13712 193.389 5.13712H189.285C186.233 5.13712 184.702 6.48039 184.702 9.17601V19.1144C184.702 21.81 186.233 23.1533 189.285 23.1533H193.353C196.433 23.1533 197.964 21.81 197.964 19.1144V17.3627H193.09V18.5608C193.09 18.8966 193.018 19.1417 192.873 19.2869C192.728 19.4321 192.483 19.5047 192.148 19.5047H190.517C190.155 19.5047 189.901 19.4412 189.757 19.305C189.612 19.1689 189.539 18.9511 189.539 18.6334V15.5384H198.009L198 15.5475ZM189.539 9.64797C189.539 9.33031 189.612 9.11248 189.757 8.97634C189.901 8.8402 190.155 8.77666 190.517 8.77666H192.184C192.519 8.77666 192.764 8.8402 192.909 8.97634C193.054 9.11248 193.126 9.33939 193.126 9.64797V12.5614H189.53V9.64797H189.539Z" fill="black"/>
<path d="M11.5591 11.7627L20.464 23.3348H13.9779L5.06392 11.7627V18.2159H8.38853V23.3348H0V0.181524H8.38853V5.30049H5.06392V11.7536L13.9688 0.181524H20.455L11.5501 11.7536L11.5591 11.7627ZM28.4358 4.8013H23.9245V9.32123H28.4358V4.8013ZM23.9245 18.3611H28.4358V13.8412H23.9245V18.3611ZM19.4132 9.32123V13.8412H23.9245V9.32123H19.4132ZM28.4358 9.32123V13.8412H35.2028V9.32123H28.4358Z" fill="url(#paint0_linear_162534_43010)"/>
</g>
<defs>
<linearGradient id="paint0_linear_162534_43010" x1="-0.552592" y1="11.7627" x2="38.618" y2="11.7627" gradientUnits="userSpaceOnUse">
<stop stop-color="#ED174C"/>
<stop offset="1" stop-color="#006DB8"/>
</linearGradient>
<clipPath id="clip0_162534_43010">
<rect width="198" height="28" fill="white"/>
</clipPath>
</defs>
</svg>
