<svg width="56" height="56" viewBox="0 0 56 56" fill="none" xmlns="http://www.w3.org/2000/svg">
<path d="M21.7046 14.0189C16.4556 8.76997 10.0344 7.23194 7.02269 10.2437C4.011 13.2554 5.54901 19.6765 10.7981 24.9256C13.3751 27.5025 17.3212 27.8725 20.2937 26.0395L39.9618 48.1987C40.025 48.2732 40.0914 48.3461 40.1618 48.4165C41.5518 49.8065 43.8055 49.8065 45.1955 48.4165C46.5855 47.0264 46.5855 44.7727 45.1955 43.3827C45.1251 43.3123 45.0523 43.246 44.9777 43.1827L22.8183 23.5145C24.6514 20.5421 24.2815 16.596 21.7046 14.0189Z" fill="url(#paint0_linear_134_618)"/>
<path d="M22.0036 21.9886C22.0121 21.9706 22.0212 21.9527 22.0296 21.9346C22.0412 21.9102 22.0518 21.8851 22.0632 21.8605C23.1751 19.3758 22.7094 16.3614 20.6618 14.323C20.5784 14.2401 20.4945 14.1584 20.4105 14.0774C20.9887 15.0971 21.3199 16.2739 21.3199 17.5284C21.3199 21.4135 18.1561 24.563 14.2533 24.563C13.0219 24.563 11.865 24.248 10.8569 23.6967C10.9205 23.7617 10.9847 23.8267 11.0497 23.8914C13.2332 26.065 16.5318 26.4478 19.1112 25.045C20.3602 24.3439 21.3738 23.2769 22.0036 21.9886Z" fill="white" fill-opacity="0.3"/>
<path d="M35.3335 15.1494L33.0619 17.3436C31.3586 18.989 30.9993 21.4395 31.9813 23.4259L8.94567 43.1765C8.86841 43.2398 8.79286 43.3062 8.72 43.3767C7.27953 44.768 7.27953 47.024 8.72 48.4153C10.1605 49.8066 12.4958 49.8066 13.9361 48.4153C14.0091 48.3448 14.0778 48.2719 14.1434 48.1973L34.5895 25.9453C36.6459 26.894 39.183 26.5467 40.8863 24.9015L43.0212 22.8392L35.3335 15.1494Z" fill="url(#paint1_linear_134_618)"/>
<path d="M36.5855 18.169C36.758 18.3178 36.9813 18.3892 37.2032 18.3845C37.4249 18.3799 37.6452 18.2991 37.8113 18.1433L46.6272 9.86705C46.9593 9.55519 46.9489 9.06143 46.604 8.76388C46.2591 8.46659 45.7105 8.47786 45.3784 8.78963L36.5624 17.0659C36.2303 17.3776 36.2407 17.8714 36.5855 18.169Z" fill="black"/>
<path d="M38.5967 20.6839C38.7212 20.8898 38.9058 21.0101 39.1034 21.0383C39.301 21.0666 39.5119 21.0027 39.6891 20.84L49.2858 12.0671C49.6402 11.7414 49.5348 11.2732 49.2858 10.8614C49.0367 10.4498 48.5478 10.38 48.1935 10.7054L38.7874 19.3489C38.4332 19.6746 38.3479 20.2721 38.5967 20.6839Z" fill="black"/>
<path d="M40.6929 25.2426L51.6838 13.9057C52.0173 13.5616 52.0173 13.004 51.6838 12.66C51.3502 12.3163 50.8096 12.316 50.4761 12.66L39.4854 23.9969C38.1314 25.3935 36.061 25.7599 34.3336 24.909C33.9899 24.7398 33.5796 24.8254 33.3269 25.1191L29.5924 29.4592C29.5909 29.4608 29.5893 29.4622 29.5878 29.4639C29.5863 29.4657 29.5852 29.4675 29.5837 29.4692L13.4427 48.2267C13.4387 48.2315 13.4346 48.2364 13.4306 48.2413C13.3774 48.3058 13.3271 48.3624 13.2762 48.415C12.2105 49.5142 10.4764 49.5141 9.41115 48.415C8.89494 47.8826 8.61065 47.1746 8.61065 46.4216C8.61065 45.6686 8.89494 44.9606 9.41208 44.4272C9.46168 44.3757 9.51647 44.3241 9.57954 44.2687C9.58427 44.2646 9.58901 44.2604 9.59365 44.2562L19.6845 35.0177C20.0373 34.6948 20.0693 34.1381 19.7564 33.7743C19.4433 33.4104 18.9035 33.3771 18.551 33.7002L8.46669 42.9326C8.37028 43.0174 8.284 43.0995 8.20357 43.1825C7.3648 44.0477 6.90283 45.198 6.90283 46.4216C6.90283 47.645 7.36471 48.7954 8.20348 49.6606C9.06937 50.5535 10.2065 51.0001 11.3438 51C12.4807 51 13.618 50.5536 14.4833 49.6611C14.5653 49.5767 14.6448 49.4876 14.7263 49.3891L27.0261 35.095L39.3262 49.3893C39.4075 49.4879 39.487 49.577 39.5685 49.6608C40.4342 50.5537 41.5714 51.0002 42.7085 51.0002C43.8458 51.0002 44.9831 50.5536 45.8489 49.6607C47.5801 47.8747 47.5801 44.9688 45.8494 43.1833C45.7676 43.0987 45.6812 43.0168 45.5858 42.9328L31.4322 29.9748L34.2013 26.7566C36.4449 27.5766 38.9836 27.0054 40.6929 25.2426ZM44.4586 44.2563C44.4633 44.2605 44.468 44.2647 44.4727 44.2688C44.5352 44.3237 44.5901 44.3755 44.6411 44.428C45.7067 45.5273 45.7067 47.3158 44.6412 48.4148C43.5755 49.5139 41.8415 49.5139 40.7755 48.4143C40.7251 48.3623 40.6746 48.3056 40.6214 48.2411C40.6174 48.2362 40.6133 48.2313 40.6093 48.2265L28.1678 33.7681L30.2983 31.2921L44.4586 44.2563Z" fill="black"/>
<path d="M20.3223 27.2937L23.4805 30.804C23.5019 30.8277 23.5241 30.85 23.5474 30.8708C23.5654 30.8957 23.5847 30.92 23.6056 30.9433C23.7777 31.1346 24.0169 31.232 24.2574 31.232C24.463 31.232 24.6694 31.1606 24.8353 31.0154L32.5907 24.2241C32.8811 23.9698 32.9657 23.5567 32.7985 23.2111C31.9569 21.4726 32.3193 19.3894 33.7005 18.027L44.9111 6.96685C45.2513 6.63114 45.2513 6.08719 44.9111 5.75157C44.5708 5.41614 44.0195 5.41614 43.6793 5.75157L32.4688 16.8117C30.7251 18.5318 30.1605 21.0863 30.9714 23.3444L27.5216 26.3652L24.2061 23.4619C25.9207 20.1336 25.2948 16.0924 22.5746 13.4086C19.873 10.7433 16.7437 8.86758 13.7633 8.12727C10.652 7.35462 7.98445 7.87044 6.25138 9.58013C4.51832 11.2898 3.99548 13.9219 4.77874 16.9912C5.52913 19.9314 7.43035 23.0187 10.1322 25.6839C12.8524 28.3677 16.9484 28.9853 20.3223 27.2937ZM7.48312 10.7954C8.76543 9.53022 10.8448 9.17469 13.3379 9.79397C16.0176 10.4596 18.8605 12.1749 21.3427 14.6239C23.6652 16.9151 24.0843 20.4395 22.3622 23.1946C22.1402 23.5498 22.209 24.0111 22.5254 24.2882L26.2094 27.5142L24.3302 29.1597L21.1597 25.6357C20.8789 25.3236 20.4111 25.2554 20.0511 25.4747C17.2585 27.1736 13.6861 26.7602 11.3636 24.4688C8.8812 22.0198 7.14255 19.2153 6.46776 16.5716C5.84024 14.112 6.2007 12.0605 7.48312 10.7954Z" fill="black"/>
<defs>
<linearGradient id="paint0_linear_134_618" x1="26.9727" y1="37.4941" x2="23.0162" y2="9.21224" gradientUnits="userSpaceOnUse">
<stop stop-color="#ED174C"/>
<stop offset="1" stop-color="#006DB8"/>
</linearGradient>
<linearGradient id="paint1_linear_134_618" x1="26.2908" y1="39.3831" x2="23.0563" y2="15.5395" gradientUnits="userSpaceOnUse">
<stop stop-color="#ED174C"/>
<stop offset="1" stop-color="#006DB8"/>
</linearGradient>
</defs>
</svg>
