<?xml version="1.0" encoding="UTF-8"?>
<svg id="Layer_1" data-name="Layer 1" xmlns="http://www.w3.org/2000/svg" viewBox="0 0 976.85 103.62">
  <defs>
    <style>
      .cls-1 {
        stroke: #231f20;
        stroke-miterlimit: 10;
        stroke-width: 5px;
      }

      .cls-1, .cls-2 {
        fill: #101416;
      }

      .cls-3 {
        fill: #f5822d;
      }

      .cls-3, .cls-4, .cls-2, .cls-5, .cls-6 {
        stroke-width: 0px;
      }

      .cls-4 {
        fill: #58595b;
      }

      .cls-5 {
        fill: #ed1a3b;
      }

      .cls-6 {
        fill: #003964;
      }
    </style>
  </defs>
  <g>
    <g>
      <path class="cls-4" d="m760.94,24.73v20.38h-3.26v-16.4l-5.33,16.4h-3.17l-5.3-16.4v16.4h-3.29v-20.38h5.03s5.15,15.86,5.15,15.86l5.15-15.86h5.03Z"/>
      <path class="cls-4" d="m768.98,25.89c0,.57-.21,1.05-.63,1.47-.42.42-.93.63-1.5.63-.6,0-1.08-.21-1.5-.63-.42-.42-.63-.9-.63-1.47s.21-1.08.63-1.5c.42-.42.9-.63,1.5-.63s1.08.21,1.5.63c.42.42.63.93.63,1.5Zm-3.77,19.21v-14.63h3.35s0,14.63,0,14.63h-3.35Z"/>
      <path class="cls-4" d="m776.16,37.75v7.36h-3.32v-14.63h3.2v1.95c.36-.66.93-1.23,1.71-1.68.72-.42,1.53-.63,2.39-.63,1.71,0,3.08.6,4.16,1.76,1.02,1.2,1.56,2.75,1.56,4.73v8.5h-3.32v-7.66c0-1.56-.27-2.69-.75-3.47-.54-.72-1.32-1.11-2.36-1.11-.54,0-1.08.18-1.59.54-.54.36-.93.87-1.2,1.47-.33.72-.48,1.68-.48,2.87Z"/>
      <path class="cls-4" d="m793.79,25.89c0,.57-.21,1.05-.63,1.47-.42.42-.93.63-1.5.63-.6,0-1.08-.21-1.5-.63-.42-.42-.63-.9-.63-1.47s.21-1.08.63-1.5c.42-.42.9-.63,1.5-.63s1.08.21,1.5.63c.42.42.63.93.63,1.5Zm-3.77,19.21v-14.63h3.35v14.63h-3.35Z"/>
      <path class="cls-4" d="m796.3,42.39l2.1-2.12c.57.81,1.2,1.44,1.91,1.85.66.42,1.41.63,2.19.63s1.38-.15,1.92-.48c.48-.3.75-.69.75-1.2s-.24-.9-.72-1.2c-.51-.27-1.11-.54-1.8-.78-.81-.24-1.62-.54-2.45-.87-1.14-.39-1.95-.93-2.45-1.59-.54-.63-.81-1.35-.81-2.19,0-1.2.57-2.21,1.71-3.08,1.11-.84,2.42-1.26,3.98-1.26s2.96.39,4.01,1.17c.54.42.96.93,1.26,1.53l-2.04,1.97c-.3-.45-.6-.84-.96-1.14-.66-.54-1.47-.84-2.42-.84-.6,0-1.08.15-1.5.42-.42.3-.63.63-.63,1.02s.24.78.72,1.05c.45.3,1.14.6,2.07.87.33.12.72.24,1.14.36,1.41.48,2.48,1.08,3.23,1.79.72.75,1.11,1.65,1.11,2.66,0,1.23-.6,2.27-1.77,3.14-1.2.9-2.66,1.35-4.46,1.35-1.56,0-2.9-.36-4.04-1.08-.78-.45-1.47-1.11-2.04-2Z"/>
      <path class="cls-4" d="m815.72,25.74v4.73h3.17v2.66h-3.17v7.45c0,.72.15,1.23.51,1.47.33.27.81.39,1.44.39h1.23v2.66h-2.01c-1.59,0-2.72-.36-3.44-1.08-.72-.69-1.08-1.74-1.08-3.11v-7.78h-2.51v-2.66h2.51v-4.73h3.35Z"/>
      <path class="cls-4" d="m821.91,45.11v-14.63h3.14v2.19c.48-.72,1.05-1.26,1.77-1.68.84-.48,1.83-.75,2.96-.75h.24v2.96h-.36c-1.38,0-2.48.42-3.29,1.26-.78.84-1.14,2.1-1.14,3.83v6.82s-3.32,0-3.32,0Z"/>
      <path class="cls-4" d="m837.2,44.54l-5.75-14.07h3.44l3.98,10,3.95-10h3.41l-8.14,20.32h-3.41l2.51-6.25Z"/>
      <path class="cls-4" d="m863,45.47c-2.15,0-3.98-.72-5.48-2.21-1.53-1.47-2.27-3.29-2.27-5.45,0-2.16.75-3.98,2.27-5.48,1.5-1.47,3.32-2.21,5.48-2.21s3.98.75,5.51,2.21c1.5,1.5,2.24,3.32,2.24,5.48s-.75,3.98-2.24,5.45c-1.53,1.5-3.35,2.21-5.51,2.21Zm0-2.75c1.2,0,2.25-.45,3.11-1.41.84-.9,1.29-2.07,1.29-3.5s-.45-2.57-1.29-3.53c-.87-.93-1.92-1.41-3.11-1.41s-2.24.48-3.08,1.41c-.9.96-1.32,2.13-1.32,3.53,0,1.44.42,2.6,1.32,3.5.84.96,1.89,1.41,3.08,1.41Z"/>
      <path class="cls-4" d="m874.61,27.57c0-1.38.39-2.42,1.17-3.14.75-.69,1.92-1.05,3.5-1.05h1.62v2.67h-.99c-.63,0-1.11.15-1.44.39-.36.27-.51.75-.51,1.47v2.57h2.93v2.66h-2.93v11.97h-3.35s0-11.97,0-11.97h-2.51v-2.66h2.51v-2.9Z"/>
      <path class="cls-4" d="m891.81,40.98l2.25-2.27c.6,1.29,1.38,2.24,2.31,2.84.96.66,1.97.99,2.99.99,1.08,0,1.98-.27,2.75-.84.75-.54,1.14-1.29,1.14-2.19,0-.78-.39-1.44-1.14-1.94-.78-.48-1.62-.9-2.51-1.26-.9-.33-1.85-.69-2.81-1.08-1.56-.57-2.66-1.32-3.32-2.25-.69-.9-1.02-1.85-1.02-2.87,0-1.56.66-2.93,2-4.07,1.32-1.11,2.96-1.68,4.94-1.68s3.71.54,5,1.59c.66.54,1.11,1.11,1.38,1.71l-2.04,2.16c-.18-.36-.51-.75-.99-1.2-.99-.9-2.15-1.35-3.53-1.35-.87,0-1.62.24-2.25.72-.66.48-.99,1.14-.99,1.92,0,1.23,1.32,2.3,3.98,3.2.48.18.96.36,1.5.54,1.77.69,3.11,1.5,4.01,2.39.87.96,1.32,2.09,1.32,3.44,0,1.62-.69,3.02-2.07,4.19-1.38,1.2-3.14,1.8-5.3,1.8-2.01,0-3.65-.45-4.94-1.35-1.26-.87-2.15-1.92-2.66-3.14Z"/>
      <path class="cls-4" d="m930.12,24.73v20.38h-3.26v-16.4l-5.33,16.4h-3.17l-5.3-16.4v16.4h-3.29v-20.38h5.03l5.15,15.86,5.15-15.86h5.03Z"/>
      <path class="cls-4" d="m947.83,45.11h-13.41v-20.38h13.35v2.84h-9.91v5.9h9.67v2.75h-9.67v6.05h9.97v2.84Z"/>
      <path class="cls-4" d="m950.07,42.39l2.1-2.12c.57.81,1.2,1.44,1.91,1.85.66.42,1.41.63,2.19.63s1.38-.15,1.92-.48c.48-.3.75-.69.75-1.2s-.24-.9-.72-1.2c-.51-.27-1.11-.54-1.8-.78-.81-.24-1.62-.54-2.45-.87-1.14-.39-1.95-.93-2.45-1.59-.54-.63-.81-1.35-.81-2.19,0-1.2.57-2.21,1.71-3.08,1.11-.84,2.42-1.26,3.98-1.26s2.96.39,4.01,1.17c.54.42.96.93,1.26,1.53l-2.03,1.97c-.3-.45-.6-.84-.96-1.14-.66-.54-1.47-.84-2.42-.84-.6,0-1.08.15-1.5.42-.42.3-.63.63-.63,1.02s.24.78.72,1.05c.45.3,1.14.6,2.06.87.33.12.72.24,1.14.36,1.41.48,2.48,1.08,3.23,1.79.72.75,1.11,1.65,1.11,2.66,0,1.23-.6,2.27-1.77,3.14-1.2.9-2.66,1.35-4.46,1.35-1.56,0-2.9-.36-4.04-1.08-.78-.45-1.47-1.11-2.04-2Z"/>
    </g>
    <g>
      <path class="cls-6" d="m697.04,49.89c-7.31-4.97-16.67-2.94-21.59,4.53-4.09,6.24-10.29,7.02-12.68,7.02-7.83,0-13.17-5.5-14.76-11.19h0c-.02-.06-.03-.11-.04-.16-.02-.07-.03-.13-.05-.19-.62-2.38-.78-3.51-.78-6.03,0-13.6,13.97-28.75,34.07-28.75,20.59,0,32.37,15.67,35.42,24.39-.06-.16-.11-.31-.16-.46-5.84-17.04-22-29.29-41.03-29.29-23.93,0-43.34,19.4-43.34,43.35,0,21.4,15.44,39.72,36.85,39.72,17.07,0,28.55-9.57,33.81-22.77,2.89-7.22.85-15.7-5.71-20.16Z"/>
      <path class="cls-5" d="m716.89,40.34c-2.54-8.5-14.4-25.23-35.69-25.23-20.1,0-34.07,15.15-34.07,28.75,0,2.52.16,3.66.78,6.03-.26-1.04-.39-2.08-.39-3.09,0-14.17,14.18-23.99,28.77-23.99,19.75,0,35.75,16,35.75,35.74,0,15.47-8.91,28.87-21.84,35.31h0c16.68-6.03,28.59-22.01,28.59-40.77,0-4.44-.6-8.36-1.9-12.76Z"/>
    </g>
    <g>
      <path class="cls-4" d="m746.78,71.49h3.47c0-.93-.39-1.65-1.11-2.13-.78-.48-1.86-.72-3.23-.72h-.09c-1.32,0-2.72.33-4.22.93l-.84-2.6c1.53-.66,3.23-.99,5.09-1.02h.06c2.45,0,4.34.48,5.66,1.41,1.32.96,1.98,2.48,1.98,4.52v9.07h-3.17v-1.62c-.63.63-1.38,1.11-2.27,1.44-.93.36-1.86.54-2.78.54-1.74,0-3.14-.45-4.22-1.41-1.11-.9-1.65-2.03-1.65-3.41,0-1.5.66-2.72,2.04-3.71,1.23-.84,2.99-1.29,5.3-1.29Zm-.9,7.18c.84,0,1.71-.21,2.54-.63.84-.42,1.44-.9,1.83-1.47v-2.48h-2.96c-1.68,0-2.84.24-3.5.66-.66.48-.99,1.08-.99,1.74s.27,1.17.84,1.56c.54.42,1.29.63,2.25.63Z"/>
      <path class="cls-4" d="m760.93,73.58v7.36h-3.32v-14.63h3.2s0,1.94,0,1.94c.36-.66.93-1.23,1.71-1.68.72-.42,1.53-.63,2.39-.63,1.71,0,3.08.6,4.16,1.77,1.02,1.2,1.56,2.75,1.56,4.73v8.5h-3.32v-7.66c0-1.56-.27-2.69-.75-3.47-.54-.72-1.32-1.11-2.36-1.11-.54,0-1.08.18-1.59.54-.54.36-.93.87-1.2,1.47-.33.72-.48,1.68-.48,2.87Z"/>
      <path class="cls-4" d="m780.86,65.95c1.74,0,3.23.72,4.49,2.09v-8.83h3.32v21.73h-3.2v-1.85c-1.26,1.5-2.78,2.21-4.61,2.21-2.16,0-3.86-.75-5.18-2.31-1.35-1.5-2.01-3.29-2.01-5.36,0-2.06.66-3.86,2.01-5.42,1.32-1.5,3.02-2.27,5.18-2.27Zm4.46,8.62c.06-.63.06-1.26,0-1.88-.12-1.08-.54-2.01-1.23-2.75-.78-.81-1.77-1.23-2.9-1.23-1.29,0-2.3.48-3.02,1.41-.78.96-1.14,2.12-1.14,3.53s.36,2.6,1.14,3.5c.72.96,1.74,1.41,3.02,1.41,1.14,0,2.12-.39,2.9-1.23.69-.72,1.11-1.64,1.23-2.75Z"/>
      <path class="cls-4" d="m800.73,76.82l2.25-2.28c.6,1.29,1.38,2.25,2.3,2.84.96.66,1.98.99,2.99.99,1.08,0,1.98-.27,2.75-.84.75-.54,1.14-1.29,1.14-2.18,0-.78-.39-1.44-1.14-1.95-.78-.48-1.62-.9-2.51-1.26-.9-.33-1.86-.69-2.81-1.08-1.56-.57-2.66-1.32-3.32-2.24-.69-.9-1.02-1.86-1.02-2.87,0-1.56.66-2.93,2.01-4.07,1.32-1.11,2.96-1.67,4.94-1.67,2.04,0,3.71.54,5,1.58.66.54,1.11,1.11,1.38,1.71l-2.03,2.16c-.18-.36-.51-.75-.99-1.2-.99-.9-2.15-1.35-3.53-1.35-.87,0-1.62.24-2.24.72-.66.48-.99,1.14-.99,1.91,0,1.23,1.32,2.31,3.98,3.2.48.18.96.36,1.5.54,1.77.69,3.11,1.5,4.01,2.39.87.96,1.32,2.1,1.32,3.44,0,1.62-.69,3.02-2.06,4.19-1.38,1.2-3.14,1.8-5.3,1.8-2.01,0-3.65-.45-4.94-1.35-1.26-.87-2.16-1.91-2.66-3.14Z"/>
      <path class="cls-4" d="m822.27,61.58v4.73h3.17v2.66h-3.17s0,7.45,0,7.45c0,.72.15,1.23.51,1.47.33.27.81.39,1.44.39h1.23v2.66h-2.01c-1.59,0-2.72-.36-3.44-1.08-.72-.69-1.08-1.73-1.08-3.11v-7.78h-2.51v-2.66h2.51v-4.73h3.35Z"/>
      <path class="cls-4" d="m834.78,71.49h3.47c0-.93-.39-1.65-1.11-2.13-.78-.48-1.86-.72-3.23-.72h-.09c-1.32,0-2.72.33-4.22.93l-.84-2.6c1.53-.66,3.23-.99,5.09-1.02h.06c2.45,0,4.34.48,5.66,1.41,1.32.96,1.98,2.48,1.98,4.52v9.07h-3.17v-1.62c-.63.63-1.38,1.11-2.27,1.44-.93.36-1.86.54-2.78.54-1.74,0-3.14-.45-4.22-1.41-1.11-.9-1.65-2.03-1.65-3.41,0-1.5.66-2.72,2.04-3.71,1.23-.84,2.99-1.29,5.3-1.29Zm-.9,7.18c.84,0,1.71-.21,2.54-.63.84-.42,1.44-.9,1.83-1.47v-2.48h-2.96c-1.68,0-2.84.24-3.5.66-.66.48-.99,1.08-.99,1.74s.27,1.17.84,1.56c.54.42,1.29.63,2.24.63Z"/>
      <path class="cls-4" d="m845.61,80.95v-14.63h3.14v2.18c.48-.72,1.05-1.25,1.77-1.67.84-.48,1.83-.75,2.96-.75h.24v2.96s-.36,0-.36,0c-1.38,0-2.48.42-3.29,1.26-.78.84-1.14,2.09-1.14,3.83v6.82h-3.32Z"/>
      <path class="cls-4" d="m861.53,61.58v4.73h3.17s0,2.66,0,2.66h-3.17v7.45c0,.72.15,1.23.51,1.47.33.27.81.39,1.44.39h1.23s0,2.66,0,2.66h-2c-1.59,0-2.72-.36-3.44-1.08-.72-.69-1.08-1.73-1.08-3.11v-7.78h-2.51v-2.66h2.51v-4.73h3.35Z"/>
      <path class="cls-4" d="m877.42,73.67v-7.36h3.32v14.63h-3.2s0-1.95,0-1.95c-.42.72-.96,1.29-1.62,1.65-.81.45-1.64.66-2.48.66-1.73,0-3.11-.57-4.13-1.77-1.08-1.17-1.59-2.75-1.59-4.73v-8.5h3.32v7.66c0,1.56.24,2.72.78,3.44.48.78,1.26,1.14,2.33,1.14.54,0,1.05-.18,1.59-.54.51-.36.9-.84,1.2-1.47.3-.72.48-1.68.48-2.87Z"/>
      <path class="cls-4" d="m892.62,81.31c-1.79,0-3.29-.69-4.49-2.09v7.42h-3.32v-20.32h3.2v1.85c1.26-1.47,2.78-2.21,4.61-2.21,2.13,0,3.86.78,5.21,2.27,1.32,1.56,1.98,3.35,1.98,5.42,0,2.06-.66,3.86-1.98,5.36-1.35,1.56-3.08,2.31-5.21,2.31Zm-4.46-6.74c.12,1.11.51,2.04,1.23,2.75.78.84,1.73,1.23,2.9,1.23,1.26,0,2.28-.45,3.05-1.41.72-.9,1.11-2.06,1.11-3.5,0-1.41-.39-2.57-1.11-3.53-.78-.93-1.79-1.41-3.05-1.41-1.17,0-2.13.42-2.9,1.23-.72.75-1.11,1.68-1.23,2.75-.06.63-.06,1.26,0,1.88Z"/>
      <path class="cls-4" d="m901.51,78.22l2.09-2.13c.57.81,1.2,1.44,1.92,1.86.66.42,1.41.63,2.19.63s1.38-.15,1.91-.48c.48-.3.75-.69.75-1.2,0-.48-.24-.9-.72-1.2-.51-.27-1.11-.54-1.79-.78-.81-.24-1.62-.54-2.45-.87-1.14-.39-1.95-.93-2.45-1.59-.54-.63-.81-1.35-.81-2.18,0-1.2.57-2.22,1.71-3.08,1.11-.84,2.42-1.25,3.98-1.25s2.96.39,4.01,1.17c.54.42.96.93,1.26,1.53l-2.04,1.97c-.3-.45-.6-.84-.96-1.14-.66-.54-1.47-.84-2.42-.84-.6,0-1.08.15-1.5.42-.42.3-.63.63-.63,1.02,0,.42.24.78.72,1.05.45.3,1.14.6,2.07.87.33.12.72.24,1.14.36,1.41.48,2.48,1.08,3.23,1.8.72.75,1.11,1.65,1.11,2.66,0,1.23-.6,2.28-1.77,3.14-1.2.9-2.66,1.35-4.46,1.35-1.56,0-2.9-.36-4.04-1.08-.78-.45-1.47-1.11-2.04-2Z"/>
    </g>
  </g>
  <g>
    <polygon class="cls-2" points="328.71 67.6 357.81 67.6 357.81 77.99 317.19 77.99 317.19 25.63 328.71 25.63 328.71 67.6"/>
    <polygon class="cls-2" points="265.41 78 306.03 78 306.03 67.75 276.77 67.75 276.77 56.94 302.65 56.94 302.65 46.69 276.77 46.69 276.77 35.88 306.03 35.88 306.03 25.63 265.41 25.63 265.41 78"/>
    <rect class="cls-2" x="368.71" y="25.63" width="11.52" height="52.36"/>
    <polygon class="cls-2" points="147.88 25.63 136.36 25.63 136.36 78 176.99 78 176.99 67.6 147.88 67.6 147.88 25.63"/>
    <rect class="cls-2" x="187.88" y="25.63" width="11.52" height="52.36"/>
    <polygon class="cls-2" points="490.49 25.63 490.49 58.34 466.03 26.2 465.6 25.63 454.51 25.63 454.51 29.62 454.51 77.99 466.03 77.99 466.03 44.74 490.49 76.85 491.36 77.99 496.47 77.99 502.01 77.99 502.01 25.63 490.49 25.63"/>
    <path class="cls-2" d="m443.28,41.15c-1.38-3.26-3.31-6.11-5.79-8.53-2.48-2.42-5.43-4.34-8.84-5.76-3.4-1.42-7.15-2.13-11.21-2.13s-7.81.71-11.25,2.13c-3.43,1.42-6.39,3.37-8.87,5.84-2.49,2.47-4.43,5.33-5.84,8.6-1.4,3.27-2.1,6.77-2.1,10.51v.15c0,3.74.68,7.24,2.06,10.51,1.38,3.26,3.31,6.11,5.79,8.52,2.49,2.43,5.43,4.35,8.84,5.77,3.41,1.41,7.15,2.12,11.21,2.12s7.81-.71,11.25-2.12c3.43-1.42,6.39-3.37,8.88-5.84,2.48-2.47,4.43-5.34,5.83-8.6,1.4-3.27,2.11-6.77,2.11-10.51v-.15c0-3.74-.69-7.24-2.07-10.51Zm-9.82,10.82c0,2.28-.39,4.42-1.18,6.41-.79,2-1.88,3.76-3.28,5.28-1.4,1.51-3.09,2.7-5.07,3.56-1.98.86-4.15,1.29-6.49,1.29s-4.56-.44-6.52-1.32c-1.96-.89-3.66-2.09-5.11-3.61-1.45-1.52-2.57-3.29-3.36-5.31-.78-2.02-1.18-4.17-1.18-6.44v-.15c0-2.28.4-4.42,1.18-6.42.79-1.99,1.88-3.75,3.29-5.27,1.4-1.52,3.07-2.71,5.03-3.56,1.96-.86,4.13-1.3,6.52-1.3s4.5.44,6.49,1.33c1.98.88,3.7,2.09,5.15,3.6,1.46,1.52,2.57,3.3,3.36,5.31.79,2.03,1.18,4.18,1.18,6.45v.15Z"/>
    <polygon class="cls-2" points="257.17 25.63 243.25 25.63 222.01 48.1 222.01 25.63 210.49 25.63 210.49 78 222.01 78 222.01 61.99 228.07 55.7 244.3 78 258.14 78 235.85 47.85 257.17 25.63"/>
    <polygon class="cls-2" points="85.58 44.67 116.05 25.63 85.58 25.63 85.58 44.67"/>
    <path class="cls-3" d="m85.58,64.45v13.54h-40.63v-33.32L14.48,25.63h30.47s0,0,0,0h5.42v38.82h35.21Z"/>
  </g>
  <g>
    <line class="cls-1" x1="548.26" y1="33.03" x2="585.83" y2="70.59"/>
    <line class="cls-1" x1="548.26" y1="70.59" x2="585.83" y2="33.03"/>
  </g>
</svg>