<svg width="283" height="50" viewBox="0 0 283 50" fill="none" xmlns="http://www.w3.org/2000/svg">
<path d="M119.3 8.90466V21.0172H117.319V11.2729L114.081 21.0172H112.155L108.934 11.2729V21.0172H106.936V8.90466H109.989L113.12 18.3316L116.247 8.90466H119.3Z" fill="#58595B"/>
<path d="M124.191 9.59781C124.191 9.93612 124.063 10.2201 123.811 10.4707C123.555 10.7172 123.248 10.8425 122.902 10.8425C122.539 10.8425 122.249 10.7172 121.992 10.4707C121.736 10.2201 121.612 9.93612 121.612 9.59781C121.612 9.25949 121.74 8.95876 121.992 8.70816C122.249 8.45755 122.539 8.33643 122.902 8.33643C123.265 8.33643 123.555 8.46173 123.811 8.70816C124.068 8.95876 124.191 9.25949 124.191 9.59781ZM121.898 21.0171V12.321H123.935V21.0171H121.898Z" fill="#58595B"/>
<path d="M128.557 16.6398V21.0129H126.537V12.3169H128.484V13.4739C128.702 13.0812 129.048 12.7429 129.522 12.4756C129.958 12.225 130.449 12.1039 130.979 12.1039C132.016 12.1039 132.854 12.4589 133.507 13.1522C134.126 13.8623 134.451 14.7895 134.451 15.9632V21.0129H132.431V16.4602C132.431 15.5372 132.268 14.8605 131.974 14.3969C131.645 13.9709 131.175 13.737 130.539 13.737C130.21 13.737 129.885 13.8414 129.573 14.0586C129.244 14.2716 129.01 14.5723 128.847 14.9315C128.647 15.3576 128.557 15.9298 128.557 16.6398Z" fill="#58595B"/>
<path d="M139.263 9.59781C139.263 9.93612 139.135 10.2201 138.883 10.4707C138.627 10.7172 138.32 10.8425 137.974 10.8425C137.611 10.8425 137.32 10.7172 137.064 10.4707C136.808 10.2201 136.684 9.93612 136.684 9.59781C136.684 9.25949 136.812 8.95876 137.064 8.70816C137.32 8.45755 137.611 8.33643 137.974 8.33643C138.337 8.33643 138.627 8.46173 138.883 8.70816C139.139 8.95876 139.263 9.25949 139.263 9.59781ZM136.974 21.0171V12.321H139.011V21.0171H136.974Z" fill="#58595B"/>
<path d="M140.793 19.3966L142.066 18.1352C142.412 18.6155 142.792 18.9873 143.227 19.2379C143.629 19.4885 144.082 19.6138 144.556 19.6138C145.03 19.6138 145.393 19.5261 145.722 19.3298C146.012 19.1502 146.175 18.9204 146.175 18.6197C146.175 18.3357 146.029 18.0851 145.739 17.9097C145.431 17.7509 145.064 17.5881 144.645 17.446C144.154 17.304 143.663 17.1244 143.155 16.9281C142.463 16.6984 141.972 16.3768 141.664 15.9842C141.335 15.6125 141.173 15.1822 141.173 14.6852C141.173 13.9752 141.519 13.3695 142.211 12.8558C142.886 12.3588 143.685 12.1082 144.628 12.1082C145.572 12.1082 146.427 12.3379 147.067 12.8015C147.396 13.0479 147.648 13.3528 147.832 13.7079L146.593 14.8815C146.409 14.6142 146.23 14.3845 146.012 14.2049C145.611 13.8833 145.12 13.7079 144.539 13.7079C144.176 13.7079 143.885 13.7956 143.629 13.9543C143.373 14.1339 143.249 14.3302 143.249 14.5599C143.249 14.8105 143.394 15.0235 143.685 15.1822C143.958 15.3618 144.376 15.5373 144.94 15.7002C145.141 15.7712 145.376 15.8422 145.632 15.9132C146.486 16.1972 147.14 16.5522 147.597 16.9783C148.032 17.4252 148.272 17.9556 148.272 18.5612C148.272 19.2922 147.909 19.9145 147.2 20.4282C146.474 20.9629 145.581 21.226 144.492 21.226C143.548 21.226 142.728 21.013 142.036 20.587C141.562 20.3197 141.143 19.927 140.797 19.3966H140.793Z" fill="#58595B"/>
<path d="M152.593 9.5105V12.3215H154.519V13.9044H152.593V18.3318C152.593 18.7578 152.682 19.0627 152.9 19.2047C153.101 19.3635 153.391 19.4345 153.772 19.4345H154.519V21.0175H153.302C152.336 21.0175 151.649 20.8044 151.209 20.3784C150.773 19.9691 150.555 19.3468 150.555 18.5281V13.9044H149.026V12.3215H150.555V9.5105H152.593Z" fill="#58595B"/>
<path d="M156.358 21.0172V12.3212H158.267V13.6202C158.558 13.1942 158.903 12.8725 159.339 12.6219C159.847 12.3379 160.45 12.1792 161.142 12.1792H161.287V13.9376H161.069C160.232 13.9376 159.561 14.1882 159.07 14.6853C158.596 15.1823 158.378 15.9299 158.378 16.9616V21.0172H156.358Z" fill="#58595B"/>
<path d="M165.647 20.6791L162.153 12.3214H164.246L166.663 18.2608L169.063 12.3214H171.135L166.189 24.3964H164.118L165.647 20.6791Z" fill="#58595B"/>
<path d="M181.32 21.2302C180.013 21.2302 178.903 20.8042 177.993 19.9145C177.066 19.0416 176.609 17.9598 176.609 16.6775C176.609 15.3953 177.062 14.3135 177.993 13.4238C178.903 12.5509 180.013 12.1082 181.32 12.1082C182.627 12.1082 183.738 12.5509 184.669 13.4238C185.579 14.3135 186.031 15.3994 186.031 16.6775C186.031 17.9556 185.579 19.0416 184.669 19.9145C183.742 20.8042 182.632 21.2302 181.32 21.2302ZM181.32 19.5929C182.046 19.5929 182.687 19.3256 183.212 18.7575C183.721 18.2229 183.994 17.5296 183.994 16.6775C183.994 15.8255 183.721 15.1488 183.212 14.5766C182.683 14.0253 182.046 13.7413 181.32 13.7413C180.594 13.7413 179.958 14.0253 179.45 14.5766C178.903 15.1447 178.651 15.838 178.651 16.6775C178.651 17.5171 178.907 18.2229 179.45 18.7575C179.958 19.3256 180.594 19.5929 181.32 19.5929Z" fill="#58595B"/>
<path d="M188.377 10.5924C188.377 9.77373 188.612 9.15139 189.086 8.72536C189.538 8.31604 190.252 8.10303 191.213 8.10303H192.195V9.68602H191.593C191.213 9.68602 190.918 9.77373 190.722 9.91574C190.504 10.0745 190.414 10.3585 190.414 10.7887V12.3174H192.195V13.9004H190.414V21.0134H188.377V13.9004H186.848V12.3174H188.377V10.5924Z" fill="#58595B"/>
<path d="M198.834 18.5616L200.196 17.2083C200.559 17.9727 201.033 18.5407 201.597 18.8999C202.178 19.2925 202.797 19.4847 203.417 19.4847C204.07 19.4847 204.617 19.3259 205.091 18.9876C205.548 18.666 205.783 18.2233 205.783 17.6886C205.783 17.2292 205.548 16.8366 205.091 16.5317C204.617 16.2477 204.109 15.9971 203.562 15.784C203.015 15.5877 202.434 15.3747 201.853 15.145C200.909 14.8067 200.235 14.364 199.833 13.8126C199.415 13.278 199.214 12.71 199.214 12.1043C199.214 11.1813 199.615 10.3626 200.431 9.68599C201.23 9.02606 202.234 8.68774 203.434 8.68774C204.634 8.68774 205.689 9.00935 206.47 9.63169C206.872 9.9533 207.145 10.2916 207.308 10.6466L206.069 11.9289C205.958 11.7159 205.761 11.482 205.467 11.2189C204.869 10.6842 204.156 10.4169 203.323 10.4169C202.793 10.4169 202.34 10.5589 201.956 10.8429C201.554 11.127 201.354 11.5196 201.354 11.9832C201.354 12.7141 202.152 13.3532 203.775 13.8836C204.066 13.9922 204.356 14.0966 204.685 14.2052C205.757 14.6146 206.577 15.0949 207.124 15.6253C207.654 16.1934 207.923 16.87 207.923 17.6719C207.923 18.6326 207.504 19.4679 206.667 20.1613C205.83 20.8713 204.758 21.2305 203.447 21.2305C202.229 21.2305 201.226 20.9632 200.444 20.4328C199.679 19.9149 199.133 19.2925 198.825 18.5658L198.834 18.5616Z" fill="#58595B"/>
<path d="M222.11 8.90466V21.0172H220.129V11.2729L216.891 21.0172H214.965L211.744 11.2729V21.0172H209.746V8.90466H212.799L215.93 18.3316L219.061 8.90466H222.115H222.11Z" fill="#58595B"/>
<path d="M232.873 21.0172H224.724V8.90466H232.839V10.5921H226.816V14.0964H232.689V15.7337H226.816V19.3257H232.873V21.0131V21.0172Z" fill="#58595B"/>
<path d="M234.234 19.3966L235.507 18.1352C235.853 18.6155 236.233 18.9873 236.668 19.2379C237.07 19.4885 237.523 19.6138 237.997 19.6138C238.471 19.6138 238.834 19.5261 239.158 19.3298C239.449 19.1502 239.611 18.9204 239.611 18.6197C239.611 18.3357 239.466 18.0851 239.176 17.9097C238.864 17.7509 238.501 17.5881 238.082 17.446C237.591 17.304 237.1 17.1244 236.592 16.9281C235.9 16.6984 235.408 16.3768 235.101 15.9842C234.772 15.6125 234.61 15.1822 234.61 14.6852C234.61 13.9752 234.956 13.3695 235.648 12.8558C236.322 12.3588 237.121 12.1082 238.065 12.1082C239.009 12.1082 239.863 12.3379 240.504 12.8015C240.833 13.0479 241.085 13.3528 241.268 13.7079L240.034 14.8815C239.85 14.6142 239.671 14.3845 239.453 14.2049C239.052 13.8833 238.561 13.7079 237.98 13.7079C237.617 13.7079 237.326 13.7956 237.07 13.9543C236.814 14.1339 236.686 14.3302 236.686 14.5599C236.686 14.8105 236.831 15.0235 237.121 15.1822C237.395 15.3618 237.813 15.5373 238.377 15.7002C238.578 15.7712 238.813 15.8422 239.069 15.9132C239.923 16.1972 240.576 16.5522 241.033 16.9783C241.469 17.4252 241.708 17.9556 241.708 18.5612C241.708 19.2922 241.345 19.9145 240.636 20.4282C239.91 20.9629 239.018 21.226 237.928 21.226C236.984 21.226 236.164 21.013 235.473 20.587C234.998 20.3197 234.58 19.927 234.234 19.3966Z" fill="#58595B"/>
<path d="M80.4735 23.8618C76.0315 20.9088 70.3424 22.1117 67.3527 26.5516C64.8669 30.2606 61.0998 30.7242 59.6476 30.7242C54.8896 30.7242 51.6436 27.4538 50.6783 24.0706C50.6655 24.033 50.6612 24.0038 50.6527 23.9746C50.6441 23.937 50.6356 23.8994 50.6228 23.8576C50.2427 22.4459 50.1487 21.7734 50.1487 20.274C50.1487 12.1878 58.6354 3.18686 70.8507 3.18686C83.066 3.18686 90.5234 12.501 92.377 17.6802C92.3386 17.5841 92.3087 17.4964 92.2788 17.4045C88.7252 7.28008 78.906 0 67.3399 0C52.7968 0 41 11.5278 41 25.7622C41 38.4804 50.3793 49.3692 63.3976 49.3692C73.7721 49.3692 80.7468 43.6805 83.9416 35.8366C85.7013 31.547 84.4584 26.5057 80.4735 23.8576V23.8618Z" fill="#003964"/>
<path d="M92.5353 18.1814C90.9892 13.1276 83.7838 3.18689 70.8509 3.18689C58.6356 3.18689 50.1489 12.192 50.1489 20.274C50.1489 21.7734 50.2472 22.4459 50.623 23.8576C50.465 23.2395 50.3838 22.6213 50.3838 22.0199C50.3838 13.5995 59.0029 7.76461 67.8654 7.76461C79.8672 7.76461 89.5925 17.2751 89.5925 29.0076C89.5925 38.2006 84.181 46.1657 76.3222 49.9916V49.9999C86.4575 46.4121 93.697 36.9142 93.697 25.7664C93.697 23.1267 93.334 20.8003 92.5396 18.1856L92.5353 18.1814Z" fill="#ED1A3B"/>
<path d="M110.7 36.6926H112.809C112.809 36.1413 112.575 35.7153 112.139 35.4312C111.665 35.1472 111.011 35.0052 110.174 35.0052H110.119C109.32 35.0052 108.466 35.2015 107.556 35.5565L107.048 34.0111C107.975 33.6185 109.012 33.4264 110.14 33.4055H110.178C111.669 33.4055 112.814 33.6895 113.617 34.2409C114.415 34.8089 114.817 35.7153 114.817 36.9265V42.3145H112.891V41.3539C112.51 41.7256 112.053 42.0138 111.507 42.2059C110.943 42.419 110.379 42.5275 109.815 42.5275C108.76 42.5275 107.906 42.2602 107.248 41.6922C106.578 41.1576 106.249 40.4851 106.249 39.6665C106.249 38.7768 106.651 38.0459 107.488 37.4611C108.235 36.9641 109.307 36.6968 110.708 36.6968L110.7 36.6926ZM110.153 40.9613C110.661 40.9613 111.191 40.836 111.699 40.5895C112.207 40.3389 112.57 40.0549 112.809 39.7166V38.2422H111.007C109.991 38.2422 109.277 38.3842 108.88 38.6348C108.479 38.9188 108.278 39.2739 108.278 39.6665C108.278 40.0591 108.44 40.3598 108.786 40.5895C109.115 40.836 109.568 40.9613 110.149 40.9613H110.153Z" fill="#58595B"/>
<path d="M119.303 37.9374V42.3146H117.283V33.6186H119.23V34.7756C119.448 34.383 119.794 34.0447 120.268 33.7815C120.704 33.5309 121.195 33.4098 121.725 33.4098C122.763 33.4098 123.6 33.7648 124.253 34.4582C124.872 35.1682 125.197 36.0954 125.197 37.2691V42.3188H123.177V37.7661C123.177 36.8431 123.015 36.1665 122.72 35.7028C122.391 35.2768 121.921 35.0429 121.285 35.0429C120.956 35.0429 120.631 35.1515 120.319 35.3645C119.991 35.5775 119.756 35.8824 119.593 36.2375C119.393 36.6635 119.303 37.2357 119.303 37.9457V37.9374Z" fill="#58595B"/>
<path d="M131.411 33.4017C132.466 33.4017 133.376 33.8277 134.14 34.6464V29.4004H136.16V42.3149H134.213V41.2123C133.448 42.1019 132.521 42.5279 131.411 42.5279C130.1 42.5279 129.066 42.0852 128.263 41.158C127.443 40.2683 127.046 39.2032 127.046 37.9753C127.046 36.7473 127.447 35.6822 128.263 34.755C129.062 33.8653 130.1 33.4059 131.411 33.4059V33.4017ZM134.123 38.5266C134.157 38.1549 134.157 37.779 134.123 37.4072C134.05 36.7682 133.794 36.2127 133.376 35.7699C132.902 35.2896 132.304 35.039 131.612 35.039C130.83 35.039 130.211 35.323 129.775 35.8744C129.301 36.4424 129.083 37.1357 129.083 37.9711C129.083 38.8064 129.301 39.5165 129.775 40.0511C130.211 40.6192 130.83 40.8865 131.612 40.8865C132.304 40.8865 132.902 40.6567 133.376 40.1555C133.794 39.7295 134.05 39.1782 134.123 38.5182V38.5266Z" fill="#58595B"/>
<path d="M143.484 39.859L144.847 38.5058C145.21 39.2701 145.684 39.8382 146.248 40.1932C146.829 40.5858 147.448 40.7821 148.067 40.7821C148.721 40.7821 149.267 40.6234 149.741 40.2851C150.194 39.9635 150.433 39.5207 150.433 38.9861C150.433 38.5225 150.198 38.1299 149.741 37.8291C149.267 37.5451 148.759 37.2945 148.212 37.0815C147.666 36.8852 147.085 36.6722 146.504 36.4425C145.56 36.1041 144.885 35.6614 144.484 35.1101C144.065 34.5755 143.864 34.0074 143.864 33.4018C143.864 32.4745 144.266 31.6601 145.082 30.9834C145.88 30.3235 146.88 29.9894 148.084 29.9894C149.289 29.9894 150.339 30.3068 151.121 30.9291C151.522 31.2508 151.792 31.5891 151.958 31.9441L150.724 33.2264C150.613 33.0134 150.416 32.7836 150.122 32.5163C149.524 31.9817 148.81 31.7144 147.977 31.7144C147.452 31.7144 146.995 31.8564 146.615 32.1404C146.213 32.4244 146.013 32.817 146.013 33.2765C146.013 34.0074 146.811 34.6465 148.43 35.1811C148.721 35.2855 149.011 35.3941 149.34 35.4985C150.412 35.9078 151.232 36.3882 151.779 36.9228C152.308 37.4908 152.577 38.1675 152.577 38.9694C152.577 39.9301 152.159 40.7654 151.322 41.4587C150.485 42.1688 149.413 42.528 148.101 42.528C146.884 42.528 145.88 42.2607 145.099 41.7261C144.334 41.2123 143.787 40.59 143.48 39.859H143.484Z" fill="#58595B"/>
<path d="M156.577 30.8081V33.6191H158.503V35.202H156.577V39.6294C156.577 40.0554 156.666 40.3603 156.884 40.5023C157.085 40.6611 157.375 40.7321 157.755 40.7321H158.503V42.3151H157.286C156.32 42.3151 155.633 42.102 155.193 41.676C154.757 41.2667 154.539 40.6444 154.539 39.8257V35.202H153.01V33.6191H154.539V30.8081H156.577Z" fill="#58595B"/>
<path d="M164.177 36.6926H166.287C166.287 36.1413 166.052 35.7153 165.617 35.4312C165.143 35.1472 164.489 35.0052 163.652 35.0052H163.597C162.798 35.0052 161.944 35.2015 161.034 35.5565L160.526 34.0111C161.452 33.6185 162.49 33.4264 163.618 33.4055H163.652C165.143 33.4055 166.287 33.6895 167.09 34.2409C167.889 34.8089 168.29 35.7153 168.29 36.9265V42.3145H166.364V41.3539C165.984 41.7256 165.527 42.0138 164.98 42.2059C164.417 42.419 163.853 42.5275 163.289 42.5275C162.234 42.5275 161.38 42.2602 160.722 41.6922C160.052 41.1576 159.723 40.4851 159.723 39.6665C159.723 38.7768 160.124 38.0459 160.961 37.4611C161.709 36.9641 162.781 36.6968 164.182 36.6968L164.177 36.6926ZM163.631 40.9613C164.139 40.9613 164.669 40.836 165.177 40.5895C165.685 40.3389 166.048 40.0549 166.287 39.7166V38.2422H164.489C163.468 38.2422 162.759 38.3842 162.362 38.6348C161.961 38.9188 161.764 39.2739 161.764 39.6665C161.764 40.0591 161.927 40.3598 162.273 40.5895C162.601 40.836 163.054 40.9613 163.635 40.9613H163.631Z" fill="#58595B"/>
<path d="M170.759 42.3147V33.6187H172.668V34.9176C172.959 34.4916 173.305 34.17 173.741 33.9236C174.249 33.6396 174.851 33.4808 175.543 33.4808H175.688V35.2434H175.47C174.633 35.2434 173.963 35.4899 173.471 35.9911C172.997 36.4881 172.78 37.2357 172.78 38.2674V42.323H170.759V42.3147Z" fill="#58595B"/>
<path d="M180.435 30.8081V33.6191H182.361V35.202H180.435V39.6294C180.435 40.0554 180.524 40.3603 180.742 40.5023C180.943 40.6611 181.233 40.7321 181.618 40.7321H182.365V42.3151H181.148C180.183 42.3151 179.495 42.102 179.055 41.676C178.619 41.2667 178.402 40.6444 178.402 39.8257V35.202H176.873V33.6191H178.402V30.8081H180.439H180.435Z" fill="#58595B"/>
<path d="M190.086 37.9915V33.6143H192.106V42.3103H190.159V41.1533C189.902 41.5793 189.578 41.9176 189.176 42.1307C188.685 42.398 188.177 42.5233 187.669 42.5233C186.614 42.5233 185.776 42.185 185.157 41.4749C184.504 40.7816 184.192 39.8376 184.192 38.664V33.6143H186.212V38.1669C186.212 39.09 186.357 39.7833 186.686 40.2094C186.977 40.673 187.451 40.886 188.104 40.886C188.429 40.886 188.741 40.7816 189.069 40.5686C189.377 40.3555 189.616 40.0715 189.796 39.6956C189.975 39.2696 190.086 38.6974 190.086 37.9873V37.9915Z" fill="#58595B"/>
<path d="M199.325 42.5275C198.236 42.5275 197.326 42.1182 196.595 41.2829V45.6935H194.575V33.6185H196.523V34.7212C197.287 33.8483 198.214 33.4055 199.325 33.4055C200.615 33.4055 201.669 33.8691 202.49 34.7546C203.288 35.6818 203.69 36.7469 203.69 37.9749C203.69 39.2028 203.288 40.2679 202.49 41.1576C201.669 42.0848 200.619 42.5275 199.325 42.5275ZM196.617 38.5262C196.689 39.1861 196.924 39.7375 197.364 40.1635C197.834 40.6647 198.419 40.8944 199.128 40.8944C199.893 40.8944 200.512 40.6271 200.982 40.0591C201.417 39.5245 201.657 38.8311 201.657 37.9791C201.657 37.127 201.422 36.4504 200.982 35.8823C200.512 35.331 199.893 35.047 199.128 35.047C198.419 35.047 197.838 35.2976 197.364 35.7779C196.929 36.2206 196.689 36.7762 196.617 37.4152C196.583 37.7869 196.583 38.1628 196.617 38.5346V38.5262Z" fill="#58595B"/>
<path d="M204.724 40.6941L205.997 39.4327C206.343 39.913 206.723 40.289 207.163 40.5354C207.564 40.7818 208.017 40.9071 208.491 40.9071C208.965 40.9071 209.328 40.8194 209.653 40.6231C209.943 40.4477 210.11 40.2138 210.11 39.913C210.11 39.629 209.965 39.3784 209.674 39.203C209.367 39.0443 208.999 38.8814 208.585 38.7394C208.094 38.5974 207.603 38.4178 207.095 38.2256C206.403 37.9959 205.911 37.6743 205.604 37.2817C205.275 36.91 205.113 36.4798 205.113 35.9827C205.113 35.2727 205.459 34.667 206.151 34.1491C206.826 33.6521 207.624 33.4015 208.568 33.4015C209.512 33.4015 210.366 33.6312 211.007 34.0948C211.336 34.3454 211.588 34.6462 211.771 35.0012L210.533 36.1749C210.349 35.9075 210.17 35.6778 209.952 35.4982C209.55 35.1808 209.059 35.0012 208.478 35.0012C208.115 35.0012 207.825 35.0889 207.569 35.2518C207.312 35.4314 207.189 35.6235 207.189 35.8574C207.189 36.108 207.334 36.321 207.624 36.4798C207.898 36.6594 208.316 36.8348 208.88 36.9935C209.081 37.0645 209.316 37.1355 209.572 37.2065C210.426 37.4905 211.08 37.8456 211.537 38.2758C211.972 38.7185 212.211 39.2531 212.211 39.8588C212.211 40.5897 211.848 41.212 211.139 41.7258C210.413 42.2604 209.521 42.5277 208.431 42.5277C207.483 42.5277 206.667 42.3147 205.976 41.8887C205.501 41.6213 205.083 41.2329 204.737 40.6983L204.724 40.6941Z" fill="#58595B"/>
</svg>
