<?xml version="1.0" encoding="utf-8"?>
<!-- Generator: Adobe Illustrator 28.0.0, SVG Export Plug-In . SVG Version: 6.00 Build 0)  -->
<svg version="1.1" id="Layer_1" xmlns="http://www.w3.org/2000/svg" xmlns:xlink="http://www.w3.org/1999/xlink" x="0px" y="0px"
	 viewBox="0 0 2150 110" style="enable-background:new 0 0 2150 110;" xml:space="preserve">
<style type="text/css">
	.st0{fill:none;stroke:#231F20;stroke-width:5;stroke-miterlimit:10;}
	.st1{fill:#003893;}
	.st2{fill:#E50020;}
	.st3{fill:#003964;}
	.st4{fill:#ED1A3B;}
	.st5{fill:#58595B;}
	.st6{fill:#101416;}
	.st7{fill:#F5822D;}
</style>
<g>
	<g>
		<line class="st0" x1="542.1" y1="36.2" x2="579.6" y2="73.8"/>
		<line class="st0" x1="542.1" y1="73.8" x2="579.6" y2="36.2"/>
	</g>
	<g>
		<line class="st0" x1="1453.3" y1="36.2" x2="1490.8" y2="73.8"/>
		<line class="st0" x1="1453.3" y1="73.8" x2="1490.8" y2="36.2"/>
	</g>
	<g>
		<polygon class="st1" points="1062.3,67.6 1065.2,67.6 1065.2,73.9 1070.5,67.6 1074.1,67.6 1068.1,74.5 1074.4,82.3 1070.5,82.3 
			1065.3,75.5 1065.2,75.5 1065.2,82.3 1062.3,82.3 		"/>
		<g>
			<path class="st1" d="M1079.8,71.2c3.2,0,5.7,2.2,5.7,5.7c0,3.1-2.1,5.6-5.7,5.6c-3.6,0-5.7-2.5-5.7-5.6
				C1074.2,73.4,1076.6,71.2,1079.8,71.2 M1079.8,80.4c2.2,0,2.7-1.9,2.7-3.7c0-1.7-0.9-3.2-2.7-3.2c-1.8,0-2.7,1.6-2.7,3.2
				C1077.1,78.4,1077.7,80.4,1079.8,80.4"/>
			<path class="st1" d="M1087.4,71.5h2.5v2.5h0c0.1-1,1.3-2.7,3-2.7c0.3,0,1,0.1,1.4,0.3v2.7c-0.3-0.1-0.8-0.3-1.4-0.3
				c-2.3,0-2.7,2.9-2.7,4.4v4h-2.8V71.5z"/>
			<path class="st1" d="M1104.5,81.7c-1,0.6-2.2,0.9-3.7,0.9c-3.6,0-5.7-2.1-5.7-5.6c0-3.1,1.7-5.7,5-5.7c4,0,5.2,2.8,5.2,6.5h-7.5
				c0.1,1.7,1.3,2.7,3.1,2.7c1.4,0,2.5-0.5,3.6-1.1V81.7z M1102.6,75.8c-0.1-1.4-0.7-2.5-2.3-2.5c-1.6,0-2.4,1.1-2.5,2.5H1102.6z"/>
			<path class="st1" d="M1107.9,72c1.1-0.5,2.6-0.8,3.8-0.8c3.3,0,4.7,1.4,4.7,4.6v1.4c0,1.1,0,1.9,0,2.7c0,0.8,0.1,1.6,0.1,2.4
				h-2.5c-0.1-0.6-0.1-1.3-0.1-1.6h0c-0.7,1.2-2.1,1.9-3.3,1.9c-1.9,0-3.8-1.2-3.8-3.2c0-1.6,0.8-2.6,1.8-3.1
				c1.1-0.5,2.5-0.6,3.6-0.6h1.6c0-1.7-0.8-2.3-2.4-2.3c-1.2,0-2.4,0.5-3.3,1.2L1107.9,72z M1111.2,80.5c0.9,0,1.5-0.4,2-1
				c0.5-0.6,0.6-1.4,0.6-2.2h-1.2c-1.3,0-3.1,0.2-3.1,1.9C1109.4,80.1,1110.2,80.5,1111.2,80.5"/>
			<path class="st1" d="M1132.6,70.3c-0.9-0.4-2-0.6-3-0.6c-1,0-2.3,0.4-2.3,2c0,2.5,6.4,1.5,6.4,6.4c0,3.2-2.5,4.4-5.5,4.4
				c-1.6,0-3-0.3-4.3-0.9l0.4-2.5c0.9,0.8,2.6,1.1,3.7,1.1c1.1,0,2.6-0.6,2.6-1.9c0-2.8-6.4-1.6-6.4-6.5c0-3.3,2.5-4.5,5.1-4.5
				c1.3,0,2.4,0.2,3.5,0.5L1132.6,70.3z"/>
			<polygon class="st1" points="1136.1,67.6 1140.8,67.6 1144.3,78.7 1144.4,78.7 1147.9,67.6 1152.6,67.6 1152.6,82.3 1149.8,82.3 
				1149.8,70.2 1149.7,70.2 1145.8,82.3 1142.9,82.3 1139,70.2 1138.9,70.2 1138.9,82.3 1136.1,82.3 			"/>
			<polygon class="st1" points="1155.7,67.6 1164.3,67.6 1164.3,69.9 1158.6,69.9 1158.6,73.5 1163.9,73.5 1163.9,75.9 1158.6,75.9 
				1158.6,80 1164.4,80 1164.4,82.3 1155.7,82.3 			"/>
			<path class="st1" d="M1173.2,73.7c-0.9-0.3-1.5-0.5-2.5-0.5c-0.8,0-1.7,0.3-1.7,1.2c0,1.7,4.9,0.6,4.9,4.5c0,2.5-2.3,3.5-4.5,3.5
				c-1.1,0-2.2-0.2-3.2-0.5l0.2-2.3c0.9,0.4,1.8,0.7,2.8,0.7c0.7,0,1.9-0.3,1.9-1.3c0-2.1-4.9-0.7-4.9-4.6c0-2.3,2-3.4,4.2-3.4
				c1.3,0,2.2,0.2,3.1,0.4L1173.2,73.7z"/>
			<path class="st1" d="M1302.4,73.7c-0.9-0.3-1.5-0.5-2.5-0.5c-0.8,0-1.7,0.3-1.7,1.2c0,1.7,4.9,0.6,4.9,4.5c0,2.5-2.3,3.5-4.5,3.5
				c-1.1,0-2.2-0.2-3.2-0.5l0.2-2.3c0.9,0.4,1.8,0.7,2.8,0.7c0.7,0,1.9-0.3,1.9-1.3c0-2.1-4.9-0.7-4.9-4.6c0-2.3,2-3.4,4.2-3.4
				c1.3,0,2.2,0.2,3.1,0.4L1302.4,73.7z"/>
			<path class="st1" d="M1230.5,70.3c-0.9-0.4-2-0.6-3-0.6c-1,0-2.3,0.4-2.3,2c0,2.5,6.4,1.5,6.4,6.4c0,3.2-2.5,4.4-5.5,4.4
				c-1.6,0-2.3-0.2-3.8-0.6l0.3-2.7c1,0.5,2.2,0.9,3.3,0.9c1.1,0,2.6-0.6,2.6-1.9c0-2.8-6.4-1.6-6.4-6.5c0-3.3,2.5-4.5,5.1-4.5
				c1.3,0,2.4,0.2,3.5,0.5L1230.5,70.3z"/>
			<path class="st1" d="M1234.4,73.5h-2.1v-2.1h2.1v-2.2l2.8-0.9v3.1h2.5v2.1h-2.5v5.1c0,0.9,0.2,1.8,1.3,1.8c0.5,0,1-0.1,1.3-0.3
				l0.1,2.2c-0.6,0.2-1.2,0.3-2.1,0.3c-2.2,0-3.4-1.4-3.4-3.5V73.5z"/>
			<path class="st1" d="M1242.3,72c1.1-0.5,2.6-0.8,3.8-0.8c3.3,0,4.7,1.4,4.7,4.6v1.4c0,1.1,0,1.9,0,2.7c0,0.8,0.1,1.6,0.1,2.4
				h-2.5c-0.1-0.6-0.1-1.3-0.1-1.6h0c-0.7,1.2-2.1,1.9-3.3,1.9c-1.9,0-3.8-1.2-3.8-3.2c0-1.6,0.8-2.6,1.9-3.1
				c1.1-0.5,2.5-0.6,3.6-0.6h1.6c0-1.7-0.8-2.3-2.4-2.3c-1.2,0-2.4,0.5-3.3,1.2L1242.3,72z M1245.6,80.5c0.9,0,1.5-0.4,2-1
				c0.5-0.6,0.6-1.4,0.6-2.2h-1.2c-1.3,0-3.1,0.2-3.1,1.9C1243.8,80.1,1244.6,80.5,1245.6,80.5"/>
			<path class="st1" d="M1182.4,72c1.1-0.5,2.6-0.8,3.8-0.8c3.3,0,4.7,1.4,4.7,4.6v1.4c0,1.1,0,1.9,0,2.7c0,0.8,0.1,1.6,0.1,2.4
				h-2.5c-0.1-0.6-0.1-1.3-0.1-1.6h0c-0.7,1.2-2.1,1.9-3.3,1.9c-1.9,0-3.8-1.2-3.8-3.2c0-1.6,0.8-2.6,1.9-3.1
				c1.1-0.5,2.5-0.6,3.6-0.6h1.6c0-1.7-0.8-2.3-2.4-2.3c-1.2,0-2.4,0.5-3.3,1.2L1182.4,72z M1185.7,80.5c0.9,0,1.5-0.4,2-1
				c0.5-0.6,0.6-1.4,0.6-2.2h-1.2c-1.3,0-3.1,0.2-3.1,1.9C1183.9,80.1,1184.7,80.5,1185.7,80.5"/>
			<path class="st1" d="M1252.8,71.5h2.5v2.5h0c0.1-1,1.3-2.7,3-2.7c0.3,0,0.6,0,0.9,0.1V74c-0.3-0.1-0.8-0.1-1.3-0.1
				c-2.4,0.1-2.3,2.9-2.3,4.4v4h-2.8V71.5z"/>
			<path class="st1" d="M1262.6,73.5h-2.1v-2.1h2.1v-2.2l2.8-0.9v3.1h2.5v2.1h-2.5v5.1c0,0.9,0.2,1.8,1.3,1.8c0.5,0,1-0.1,1.3-0.3
				l0.1,2.2c-0.6,0.2-1.2,0.3-2.1,0.3c-2.2,0-3.4-1.4-3.4-3.5V73.5z"/>
			<path class="st1" d="M1280.3,82.3h-2.7v-1.5h0c-0.9,1.1-2.1,1.7-3.6,1.7c-2.6,0-3.7-1.8-3.7-4.3v-6.8h2.8v5.8
				c0,1.3,0,3.1,1.8,3.1c2,0,2.5-2.2,2.5-3.6v-5.3h2.8V82.3z"/>
			<path class="st1" d="M1282.9,71.5h2.7V73h0c0.6-1.1,1.7-1.8,3.4-1.8c3.3,0,4.5,2.7,4.5,5.6c0,3-1.2,5.7-4.6,5.7
				c-1.2,0-2.2-0.3-3.2-1.5h0v5.7h-2.8V71.5z M1285.8,76.8c0,1.5,0.6,3.5,2.5,3.5c1.9,0,2.4-2,2.4-3.5c0-1.5-0.5-3.5-2.3-3.5
				C1286.5,73.4,1285.8,75.3,1285.8,76.8"/>
			<path class="st1" d="M1214.6,82.3h-2.7v-1.5h0c-0.6,1.1-1.7,1.8-3.4,1.8c-3.3,0-4.5-2.6-4.5-5.6c0-3,1.2-5.7,4.6-5.7
				c1.2,0,2.2,0.3,3.2,1.5h0V67h2.8V82.3z M1211.6,76.9c0-1.5-0.6-3.4-2.4-3.4c-1.8,0-2.3,2-2.3,3.4c0,1.4,0.5,3.4,2.3,3.4
				C1210.9,80.2,1211.6,78.4,1211.6,76.9"/>
			<path class="st1" d="M1313.5,67.6h3.3l5.8,14.7h-3.3l-1.3-3.4h-6l-1.3,3.4h-3.1L1313.5,67.6z M1315.1,70.6L1315.1,70.6l-2.2,6.1
				h4.3L1315.1,70.6z"/>
			<path class="st1" d="M1333.8,71.5v9.8c0,2.9-1.2,5.7-5.7,5.7c-1.1,0-2.4-0.2-3.7-0.7l0.2-2.4c0.9,0.5,2.3,0.9,3.2,0.9
				c3.1,0,3.3-2.3,3.3-4.2h0c-0.5,0.9-1.8,1.7-3.4,1.7c-3.2,0-4.4-2.6-4.4-5.5c0-2.6,1.3-5.6,4.6-5.6c1.4,0,2.5,0.5,3.3,1.7h0v-1.5
				H1333.8z M1331,76.8c0-1.9-0.7-3.4-2.4-3.4c-1.9,0-2.5,1.8-2.5,3.4c0,1.5,0.8,3.3,2.4,3.3C1330.3,80.1,1331,78.6,1331,76.8"/>
			<path class="st1" d="M1345.1,81.7c-1,0.6-2.2,0.9-3.7,0.9c-3.6,0-5.7-2.1-5.7-5.6c0-3.1,1.7-5.7,5-5.7c4,0,5.2,2.8,5.2,6.5h-7.5
				c0.1,1.7,1.3,2.7,3.1,2.7c1.4,0,2.5-0.5,3.6-1.1V81.7z M1343.2,75.8c-0.1-1.4-0.7-2.5-2.3-2.5c-1.6,0-2.4,1.1-2.5,2.5H1343.2z"/>
			<path class="st1" d="M1347.8,71.5h2.7v1.5h0c0.9-1.2,2.1-1.7,3.6-1.7c2.6,0,3.7,1.8,3.7,4.2v6.8h-2.8v-5.8c0-1.3,0-3.1-1.8-3.1
				c-2,0-2.5,2.2-2.5,3.6v5.3h-2.8V71.5z"/>
			<path class="st1" d="M1192.6,71.5h2.7v1.5h0c0.9-1.2,2.1-1.7,3.6-1.7c2.6,0,3.7,1.8,3.7,4.2v6.8h-2.8v-5.8c0-1.3,0-3.1-1.8-3.1
				c-2,0-2.5,2.2-2.5,3.6v5.3h-2.8V71.5z"/>
			<path class="st1" d="M1366.8,73.8c-0.5-0.2-1.1-0.4-1.9-0.4c-1.7,0-2.9,1.4-2.9,3.4c0,2,0.9,3.5,2.9,3.5c0.8,0,1.7-0.3,2.2-0.5
				l0.1,2.3c-0.8,0.3-1.7,0.4-2.8,0.4c-3.6,0-5.3-2.4-5.3-5.7c0-3.1,1.9-5.6,5.2-5.6c1.1,0,2,0.1,2.7,0.4L1366.8,73.8z"/>
			<path class="st1" d="M1373.9,79.4L1373.9,79.4l2.6-7.9h2.9l-4.1,10.8c-0.9,2.4-1.6,4.8-4.5,4.8c-0.7,0-1.3-0.1-2-0.3l0.2-2.1
				c0.4,0.1,0.8,0.2,1.5,0.2c1.1,0,1.8-0.8,1.8-1.9l-4.1-11.4h3.1L1373.9,79.4z"/>
		</g>
		<polygon class="st1" points="950.8,83.5 950.8,50.4 931.2,82.7 917.8,82.7 898.2,50.4 898.2,83.5 883,83.5 883,26.5 899,26.5 
			924.9,68.6 950.8,26.5 966.4,26.5 966.4,83.5 		"/>
		<path class="st1" d="M856.6,47.5h-30.4c-1.3,0-2.4-0.5-3.3-1.3c-0.8-0.9-1.3-1.9-1.3-3c0-1.3,0.5-2.4,1.3-3.2
			c0.9-0.9,1.9-1.3,3.1-1.3h46.5V26.5h-48.1c-5.7,0-10.1,1.6-13.4,4.9c-3.4,3.4-5.2,7.4-5.2,12.2c0,4.8,1.7,8.9,5.2,12.4
			c3.4,3.5,7.9,5.2,13.4,5.2h32c1.4,0,2.5,0.5,3.5,1.5c0.9,0.9,1.4,2.1,1.4,3.5c0,1.4-0.5,2.5-1.5,3.5c-1,1-2.2,1.5-3.7,1.5h-47.1
			v12.3h47.7c5.6,0,10.2-1.8,13.7-5.4c3.5-3.6,5.3-7.9,5.3-12.8c0-4.8-1.8-9-5.3-12.5C866.9,49.3,862.4,47.5,856.6,47.5"/>
		<polygon class="st1" points="1038.9,38.8 1038.9,26.5 975.9,26.5 975.9,83.5 1038.9,83.5 1038.9,71.2 991.4,71.2 991.4,61.2 
			1038.9,61.2 1038.9,48.8 991.5,48.8 991.5,38.8 		"/>
		<path class="st1" d="M724.5,75.7c4.5,7.5,16.7,18.5,33.2,19.4c9.3,0.5,18.1-1.9,25.1-6.9c10.9-7.3,17.4-19.6,16.6-32.8
			c-0.7-12.9-12-24.1-23.4-23.7c-6.7,0.3-12.5,3.6-15.6,9c4.7,0.7,11.3,3.5,13.3,10.7c2,7.3-3.5,14.9-9.6,17c-0.1,0.2,0,0.5,0.3,0.5
			c9-1.1,19.1-7.3,17-23.5c2.4,8.5,0.8,19.6-5.8,27c-4.3,4.9-11.1,8.2-20.3,7.7c-0.5,0-0.8,0.7-0.1,0.9c9.5,2,18-0.8,24-5
			c6.9-4.9,10.8-12.9,11.4-21.2c1.1,12.5-4.1,24-17.9,30.8c-15.5,7.8-37.6,1.3-47.2-10.6C724.7,74.2,723.9,74.7,724.5,75.7"/>
		<path class="st2" d="M795.3,34.3c-4.5-7.5-16.7-18.5-33.2-19.4c-9.3-0.5-18.1,1.9-25.1,6.9c-10.9,7.3-17.4,19.6-16.6,32.8
			c0.7,13.3,12,24.1,23.4,23.7c6.7-0.3,12.5-3.6,15.6-9c-4.7-0.7-11.3-3.5-13.3-10.7c-2-7.3,3.5-14.9,9.6-17.1
			c0.1-0.2,0-0.5-0.3-0.5c-8.9,1.1-19.1,7.3-17,23.5c-2.4-8.5-0.8-19.6,5.8-27c4.3-4.9,11.1-8.2,20.3-7.7c0.5,0,0.8-0.7,0.1-0.9
			c-9.5-2.1-18,0.8-24,5c-6.9,4.9-10.8,13-11.4,21.2c-1.1-12.5,4.1-24,17.9-30.8c15.5-7.8,37.6-1.3,47.2,10.6
			C795.1,35.8,795.9,35.3,795.3,34.3"/>
		<polygon class="st1" points="686.5,53.2 723.8,83.5 701.7,83.5 666.9,56.3 666.9,83.5 651.2,83.5 651.2,26.5 666.9,26.5 
			666.9,50.7 699,26.5 720.4,26.5 		"/>
		<polygon class="st1" points="1331.8,34.2 1327.1,34.2 1327.1,41.6 1317.3,41.6 1317.3,44.4 1347.5,44.4 1347.5,41.6 1331.8,41.6 
					"/>
		<polygon class="st1" points="1376.9,34.2 1376.9,26.7 1372.1,26.7 1372.1,49.2 1376.9,49.2 1376.9,37 1381.7,37 1381.7,34.2 		"/>
		<path class="st1" d="M1190,30h10v2c0,4.4-1.3,11.1-10.3,14.4v3.1c12.5-3.4,15.5-12,15.5-16.6v-5.6H1190V30z"/>
		<path class="st1" d="M1367.3,43.7v-2.8h-8.4c-1.7,0-3.1-1.4-3.1-3.1V30h11.5v-2.8H1351v10.5c0,3.3,2.7,6,6,6H1367.3z"/>
		<path class="st1" d="M1339,35.9c0,1.3-0.4,2.4-1.1,3.4h4.7c0.7-1,1.1-2.1,1.1-3.4l0-8.7h-23.6V30h18.8V35.9z"/>
		<path class="st1" d="M1358.9,53.2v-5h-4.7v4.9c0,3.3,2.7,6,6,6h17.4v-2.8H1362C1360.3,56.3,1358.9,54.9,1358.9,53.2"/>
		<path class="st1" d="M1332.4,45.3c-5.6,0-10.1,3.5-10.1,7.7c0,4.3,4.5,7.7,10.1,7.7c5.6,0,10.1-3.5,10.1-7.7
			C1342.5,48.8,1338,45.3,1332.4,45.3 M1332.4,58c-3,0-5.4-2.2-5.4-4.9c0-2.7,2.4-4.9,5.4-4.9c3,0,5.4,2.2,5.4,4.9
			C1337.8,55.8,1335.4,58,1332.4,58"/>
		<polygon class="st1" points="1109.8,44.6 1105,44.6 1105,53 1090.6,53 1090.6,55.8 1124.2,55.8 1124.2,53 1109.8,53 		"/>
		<path class="st1" d="M1058.3,43.5h13.6v2c-4.4,0.8-7.8,3.9-7.8,7.5c0,4.3,4.5,7.7,10.1,7.7c5.6,0,10.1-3.5,10.1-7.7
			c0-3.6-3.3-6.7-7.8-7.5v-2h13.6v-2.8h-32V43.5z M1079.7,53c0,2.7-2.4,4.9-5.4,4.9c-3,0-5.4-2.2-5.4-4.9c0-2.7,2.4-4.9,5.4-4.9
			C1077.2,48.1,1079.7,50.3,1079.7,53"/>
		<rect x="1285.3" y="41.6" class="st1" width="30.2" height="2.8"/>
		<path class="st1" d="M1300.4,45.3c-5.6,0-10.1,3.5-10.1,7.7c0,4.3,4.5,7.7,10.1,7.7c5.6,0,10.1-3.5,10.1-7.7
			C1310.6,48.8,1306,45.3,1300.4,45.3 M1300.4,58c-3,0-5.4-2.2-5.4-4.9c0-2.7,2.4-4.9,5.4-4.9c3,0,5.4,2.2,5.4,4.9
			C1305.8,55.8,1303.4,58,1300.4,58"/>
		<path class="st1" d="M1291.2,34c0,3.7,4.1,6.6,9.2,6.6c5.1,0,9.2-3,9.2-6.6c0-1.4-0.6-2.8-1.7-3.8h4v-2.8h-9.1v-1.9h-4.7v1.9h-9.7
			v2.8h4.6C1291.9,31.3,1291.2,32.6,1291.2,34 M1300.4,37.8c-2.5,0-4.5-1.8-4.5-4s2-4,4.5-4c2.5,0,4.5,1.8,4.5,4
			S1302.9,37.8,1300.4,37.8"/>
		<rect x="1275.8" y="26.7" class="st1" width="4.7" height="22.5"/>
		<path class="st1" d="M1243.6,32.5h-5.4c-1.2-3.5-4.6-6.1-8.7-6.1c-5.1,0-9.1,3.9-9.1,8.7c0,4.8,4.1,8.7,9.1,8.7c5,0,9-3.8,9.1-8.5
			h5v9.2h4.7V26.7h-4.7V32.5z M1229.4,40.9c-2.4,0-4.4-2.6-4.4-5.9c0-3.3,2-5.9,4.4-5.9c2.4,0,4.4,2.6,4.4,5.9
			C1233.9,38.3,1231.9,40.9,1229.4,40.9"/>
		<path class="st1" d="M1262.5,53.2v-5h-4.7v4.9c0,3.3,2.7,6,6,6h17.4v-2.8h-15.5C1263.9,56.3,1262.5,54.9,1262.5,53.2"/>
		<path class="st1" d="M1134.5,53.2v-5h-4.7v4.9c0,3.3,2.7,6,6,6h17.4v-2.8h-15.5C1135.9,56.3,1134.5,54.9,1134.5,53.2"/>
		<path class="st1" d="M1243.6,49.9h-12.6v-3.6h-4.7v6.8c0,3.3,2.7,6,6,6h16V46.2h-4.7V49.9z M1234.2,56.3c-1.7,0-3.1-1.4-3.1-3.1
			v-0.5h12.6v3.6H1234.2z"/>
		<path class="st1" d="M1262.6,37.2c1.6,3,4.5,6.1,9.8,7.7v-3.1c-6.6-3.2-7.3-8.5-7.3-11.1V30h6.4v-2.8h-17.9V30h6.4v0.8
			c0,2.5-0.6,7.9-7.3,11.1V45C1258.1,43.3,1261,40.3,1262.6,37.2"/>
		<path class="st1" d="M1074.3,33.3c2,2.3,5.7,5,12.3,6.1v-3.1c-6.9-1.3-9.2-5-10-6.9h9.4v-2.8h-23.6v2.8h9.4
			c-0.8,1.9-3.1,5.5-10,6.9v3.1C1068.6,38.3,1072.2,35.7,1074.3,33.3"/>
		<rect x="1211.2" y="26.7" class="st1" width="4.7" height="32.4"/>
		<path class="st1" d="M1138.4,44.4V36h3.4v13.2h4.2V26.7h-4.2v6.5h-3.4v-6h-4.2v6h-5v-6h-4.2v13.3c0,2.2,1.8,4,4,4L1138.4,44.4z
			 M1131.2,41.6c-1.1,0-2.1-0.9-2.1-2.1V36h5v5.6H1131.2z"/>
		<rect x="1148.3" y="26.7" class="st1" width="4.2" height="22.5"/>
		<polygon class="st1" points="1180.6,34.5 1174.5,34.5 1174.5,37.3 1180.6,37.3 1180.6,59.1 1185.3,59.1 1185.3,26.7 1180.6,26.7 
					"/>
		<path class="st1" d="M1169.4,34.7v-2.8h6.4v-2.8h-6.4v-2.8h-4.9l0,2.8h-6.6v2.8h6.6v2.8c0,2.1-0.7,8.7-7.5,11.7v3
			c4.9-1.4,8-4.2,9.9-7.3c1.9,3.1,5.1,5.9,9.9,7.3v-3C1170.1,43.4,1169.4,36.8,1169.4,34.7"/>
		<path class="st1" d="M1107.4,36.5c2.5,4.4,7.2,7.7,13,9.3v-3.5c-6.8-2.6-10.5-7.3-10.5-13.8v-1.3h-5.1v1.3
			c0,6.5-3.7,11.3-10.5,13.8v3.5C1100.2,44.2,1104.9,40.9,1107.4,36.5"/>
	</g>
	<g>
		<g>
			<g>
				<g>
					<g>
						<g>
							<g>
								<g>
									<path class="st3" d="M91.5,52.6c-9-6.1-20.5-3.6-26.6,5.6c-5.1,7.7-12.7,8.6-15.6,8.6c-9.6,0-16.2-6.8-18.2-13.8h0
										c0-0.1,0-0.1,0-0.2c0-0.1,0-0.2-0.1-0.2c-0.8-2.9-1-4.3-1-7.4C30,28.5,47.2,9.8,72,9.8c25.4,0,39.9,19.3,43.6,30
										c-0.1-0.2-0.1-0.4-0.2-0.6c-7.2-21-27.1-36.1-50.5-36.1c-29.5,0-53.4,23.9-53.4,53.4c0,26.4,19,48.9,45.4,48.9
										c21,0,35.2-11.8,41.7-28C102.1,68.6,99.5,58.1,91.5,52.6z"/>
								</g>
								<g>
									<path class="st4" d="M115.9,40.9C112.8,30.4,98.2,9.8,72,9.8c-24.8,0-42,18.7-42,35.4c0,3.1,0.2,4.5,1,7.4
										c-0.3-1.3-0.5-2.6-0.5-3.8c0-17.5,17.5-29.5,35.4-29.5c24.3,0,44,19.7,44,44c0,19.1-11,35.6-26.9,43.5l0,0
										c20.5-7.4,35.2-27.1,35.2-50.2C118.3,51.1,117.5,46.3,115.9,40.9z"/>
								</g>
							</g>
						</g>
					</g>
				</g>
			</g>
		</g>
		<g>
			<g>
				<path class="st5" d="M163.9,79.4v16h-2.6V82.6l-4.2,12.9h-2.5l-4.2-12.9v12.9h-2.6v-16h3.9l4,12.5l4-12.5H163.9z"/>
				<path class="st5" d="M170.2,80.4c0,0.4-0.2,0.8-0.5,1.2c-0.3,0.3-0.7,0.5-1.2,0.5c-0.5,0-0.8-0.2-1.2-0.5
					c-0.3-0.3-0.5-0.7-0.5-1.2c0-0.4,0.2-0.8,0.5-1.2c0.3-0.3,0.7-0.5,1.2-0.5c0.4,0,0.8,0.2,1.2,0.5
					C170.1,79.5,170.2,79.9,170.2,80.4z M167.3,95.4V84h2.6v11.5H167.3z"/>
				<path class="st5" d="M175.9,89.7v5.8h-2.6V84h2.5v1.5c0.3-0.5,0.7-1,1.3-1.3c0.6-0.3,1.2-0.5,1.9-0.5c1.3,0,2.4,0.5,3.3,1.4
					c0.8,0.9,1.2,2.2,1.2,3.7v6.7h-2.6v-6c0-1.2-0.2-2.1-0.6-2.7c-0.4-0.6-1-0.9-1.9-0.9c-0.4,0-0.8,0.1-1.2,0.4
					c-0.4,0.3-0.7,0.7-0.9,1.2C176,88,175.9,88.7,175.9,89.7z"/>
				<path class="st5" d="M189.7,80.4c0,0.4-0.2,0.8-0.5,1.2c-0.3,0.3-0.7,0.5-1.2,0.5c-0.5,0-0.8-0.2-1.2-0.5
					c-0.3-0.3-0.5-0.7-0.5-1.2c0-0.4,0.2-0.8,0.5-1.2c0.3-0.3,0.7-0.5,1.2-0.5c0.4,0,0.8,0.2,1.2,0.5
					C189.6,79.5,189.7,79.9,189.7,80.4z M186.8,95.4V84h2.6v11.5H186.8z"/>
				<path class="st5" d="M191.7,93.3l1.6-1.7c0.4,0.6,0.9,1.1,1.5,1.5c0.5,0.3,1.1,0.5,1.7,0.5c0.6,0,1.1-0.1,1.5-0.4
					c0.4-0.2,0.6-0.5,0.6-0.9c0-0.4-0.2-0.7-0.6-0.9c-0.4-0.2-0.9-0.4-1.4-0.6c-0.6-0.2-1.3-0.4-1.9-0.7c-0.9-0.3-1.5-0.7-1.9-1.2
					c-0.4-0.5-0.6-1.1-0.6-1.7c0-0.9,0.4-1.7,1.3-2.4c0.9-0.7,1.9-1,3.1-1c1.3,0,2.3,0.3,3.1,0.9c0.4,0.3,0.8,0.7,1,1.2l-1.6,1.6
					c-0.2-0.4-0.5-0.7-0.8-0.9c-0.5-0.4-1.2-0.7-1.9-0.7c-0.5,0-0.8,0.1-1.2,0.3c-0.3,0.2-0.5,0.5-0.5,0.8c0,0.3,0.2,0.6,0.6,0.8
					c0.4,0.2,0.9,0.5,1.6,0.7c0.3,0.1,0.6,0.2,0.9,0.3c1.1,0.4,1.9,0.8,2.5,1.4c0.6,0.6,0.9,1.3,0.9,2.1c0,1-0.5,1.8-1.4,2.5
					c-0.9,0.7-2.1,1.1-3.5,1.1c-1.2,0-2.3-0.3-3.2-0.8C192.7,94.5,192.1,94,191.7,93.3z"/>
				<path class="st5" d="M207,80.2V84h2.5V86H207v5.9c0,0.6,0.1,1,0.4,1.2c0.3,0.2,0.6,0.3,1.1,0.3h1v2.1h-1.6
					c-1.2,0-2.1-0.3-2.7-0.8c-0.6-0.5-0.8-1.4-0.8-2.4V86h-2V84h2v-3.7H207z"/>
				<path class="st5" d="M211.8,95.4V84h2.5v1.7c0.4-0.6,0.8-1,1.4-1.3c0.7-0.4,1.4-0.6,2.3-0.6h0.2v2.3h-0.3c-1.1,0-2,0.3-2.6,1
					c-0.6,0.7-0.9,1.6-0.9,3v5.4H211.8z"/>
				<path class="st5" d="M223.8,95l-4.5-11h2.7l3.1,7.8l3.1-7.8h2.7l-6.4,16h-2.7L223.8,95z"/>
				<path class="st5" d="M244.1,95.7c-1.7,0-3.1-0.6-4.3-1.7c-1.2-1.2-1.8-2.6-1.8-4.3c0-1.7,0.6-3.1,1.8-4.3
					c1.2-1.2,2.6-1.7,4.3-1.7c1.7,0,3.1,0.6,4.3,1.7c1.2,1.2,1.8,2.6,1.8,4.3c0,1.7-0.6,3.1-1.8,4.3
					C247.2,95.2,245.8,95.7,244.1,95.7z M244.1,93.6c0.9,0,1.8-0.4,2.4-1.1c0.7-0.7,1-1.6,1-2.7c0-1.1-0.4-2-1-2.8
					c-0.7-0.7-1.5-1.1-2.4-1.1c-0.9,0-1.8,0.4-2.4,1.1c-0.7,0.8-1,1.7-1,2.8c0,1.1,0.3,2,1,2.7C242.3,93.2,243.2,93.6,244.1,93.6z"
					/>
				<path class="st5" d="M253.2,81.7c0-1.1,0.3-1.9,0.9-2.5c0.6-0.5,1.5-0.8,2.7-0.8h1.3v2.1h-0.8c-0.5,0-0.9,0.1-1.1,0.3
					c-0.3,0.2-0.4,0.6-0.4,1.2v2h2.3V86h-2.3v9.4h-2.6V86h-2V84h2V81.7z"/>
				<path class="st5" d="M266.7,92.2l1.8-1.8c0.5,1,1.1,1.8,1.8,2.2c0.8,0.5,1.6,0.8,2.3,0.8c0.8,0,1.6-0.2,2.2-0.7
					c0.6-0.4,0.9-1,0.9-1.7c0-0.6-0.3-1.1-0.9-1.5c-0.6-0.4-1.3-0.7-2-1c-0.7-0.3-1.5-0.5-2.2-0.8c-1.2-0.4-2.1-1-2.6-1.8
					c-0.5-0.7-0.8-1.5-0.8-2.3c0-1.2,0.5-2.3,1.6-3.2c1-0.9,2.3-1.3,3.9-1.3c1.6,0,2.9,0.4,3.9,1.2c0.5,0.4,0.9,0.9,1.1,1.3
					l-1.6,1.7c-0.1-0.3-0.4-0.6-0.8-0.9c-0.8-0.7-1.7-1.1-2.8-1.1c-0.7,0-1.3,0.2-1.8,0.6c-0.5,0.4-0.8,0.9-0.8,1.5
					c0,1,1,1.8,3.1,2.5c0.4,0.1,0.8,0.3,1.2,0.4c1.4,0.5,2.4,1.2,3.1,1.9c0.7,0.8,1,1.6,1,2.7c0,1.3-0.5,2.4-1.6,3.3
					c-1.1,0.9-2.5,1.4-4.2,1.4c-1.6,0-2.9-0.4-3.9-1.1C267.8,94,267.1,93.2,266.7,92.2z"/>
				<path class="st5" d="M296.8,79.4v16h-2.6V82.6l-4.2,12.9h-2.5l-4.2-12.9v12.9h-2.6v-16h3.9l4,12.5l4-12.5H296.8z"/>
				<path class="st5" d="M310.7,95.4h-10.5v-16h10.5v2.2h-7.8v4.6h7.6v2.2h-7.6v4.7h7.8V95.4z"/>
				<path class="st5" d="M312.5,93.3l1.6-1.7c0.4,0.6,0.9,1.1,1.5,1.5c0.5,0.3,1.1,0.5,1.7,0.5c0.6,0,1.1-0.1,1.5-0.4
					c0.4-0.2,0.6-0.5,0.6-0.9c0-0.4-0.2-0.7-0.6-0.9c-0.4-0.2-0.9-0.4-1.4-0.6c-0.6-0.2-1.3-0.4-1.9-0.7c-0.9-0.3-1.5-0.7-1.9-1.2
					c-0.4-0.5-0.6-1.1-0.6-1.7c0-0.9,0.4-1.7,1.3-2.4c0.9-0.7,1.9-1,3.1-1c1.3,0,2.3,0.3,3.1,0.9c0.4,0.3,0.8,0.7,1,1.2l-1.6,1.6
					c-0.2-0.4-0.5-0.7-0.8-0.9c-0.5-0.4-1.2-0.7-1.9-0.7c-0.5,0-0.8,0.1-1.2,0.3c-0.3,0.2-0.5,0.5-0.5,0.8c0,0.3,0.2,0.6,0.6,0.8
					c0.4,0.2,0.9,0.5,1.6,0.7c0.3,0.1,0.6,0.2,0.9,0.3c1.1,0.4,1.9,0.8,2.5,1.4c0.6,0.6,0.9,1.3,0.9,2.1c0,1-0.5,1.8-1.4,2.5
					c-0.9,0.7-2.1,1.1-3.5,1.1c-1.2,0-2.3-0.3-3.2-0.8C313.5,94.5,313,94,312.5,93.3z"/>
				<path class="st5" d="M336.2,88c0.9,0,1.8,0,2.7,0c0-0.7-0.3-1.3-0.9-1.7c-0.6-0.4-1.5-0.6-2.5-0.6h-0.1c-1,0-2.1,0.3-3.3,0.7
					l-0.7-2c1.2-0.5,2.5-0.8,4-0.8h0c1.9,0,3.4,0.4,4.4,1.1c1,0.8,1.6,2,1.6,3.5v7.1H339v-1.3c-0.5,0.5-1.1,0.9-1.8,1.1
					c-0.7,0.3-1.5,0.4-2.2,0.4c-1.4,0-2.5-0.4-3.3-1.1c-0.9-0.7-1.3-1.6-1.3-2.7c0-1.2,0.5-2.1,1.6-2.9C333,88.4,334.4,88,336.2,88z
					 M335.5,93.7c0.7,0,1.3-0.2,2-0.5c0.7-0.3,1.1-0.7,1.4-1.2v-2c-0.9,0-1.6,0-2.3,0c-1.3,0-2.2,0.2-2.7,0.5
					c-0.5,0.4-0.8,0.8-0.8,1.4s0.2,0.9,0.7,1.2C334.2,93.5,334.7,93.7,335.5,93.7z"/>
				<path class="st5" d="M347.3,89.7v5.8h-2.6V84h2.5v1.5c0.3-0.5,0.7-1,1.3-1.3c0.6-0.3,1.2-0.5,1.9-0.5c1.3,0,2.4,0.5,3.3,1.4
					c0.8,0.9,1.2,2.2,1.2,3.7v6.7h-2.6v-6c0-1.2-0.2-2.1-0.6-2.7c-0.4-0.6-1-0.9-1.9-0.9c-0.4,0-0.8,0.1-1.2,0.4
					c-0.4,0.3-0.7,0.7-0.9,1.2C347.4,88,347.3,88.7,347.3,89.7z"/>
				<path class="st5" d="M363,83.7c1.4,0,2.5,0.6,3.5,1.6v-6.9h2.6v17.1h-2.5V94c-1,1.2-2.2,1.7-3.6,1.7c-1.7,0-3-0.6-4.1-1.8
					c-1.1-1.2-1.6-2.6-1.6-4.2s0.5-3,1.6-4.3C359.9,84.3,361.3,83.7,363,83.7z M366.5,90.4c0-0.5,0-1,0-1.5c-0.1-0.8-0.4-1.6-1-2.2
					c-0.6-0.6-1.4-1-2.3-1c-1,0-1.8,0.4-2.4,1.1c-0.6,0.8-0.9,1.7-0.9,2.8c0,1.1,0.3,2,0.9,2.7c0.6,0.8,1.4,1.1,2.4,1.1
					c0.9,0,1.7-0.3,2.3-1C366.1,92,366.4,91.3,366.5,90.4z"/>
				<path class="st5" d="M378.6,92.2l1.8-1.8c0.5,1,1.1,1.8,1.8,2.2c0.8,0.5,1.6,0.8,2.3,0.8c0.8,0,1.6-0.2,2.2-0.7
					c0.6-0.4,0.9-1,0.9-1.7c0-0.6-0.3-1.1-0.9-1.5c-0.6-0.4-1.3-0.7-2-1c-0.7-0.3-1.5-0.5-2.2-0.8c-1.2-0.4-2.1-1-2.6-1.8
					c-0.5-0.7-0.8-1.5-0.8-2.3c0-1.2,0.5-2.3,1.6-3.2c1-0.9,2.3-1.3,3.9-1.3c1.6,0,2.9,0.4,3.9,1.2c0.5,0.4,0.9,0.9,1.1,1.3
					l-1.6,1.7c-0.1-0.3-0.4-0.6-0.8-0.9c-0.8-0.7-1.7-1.1-2.8-1.1c-0.7,0-1.3,0.2-1.8,0.6c-0.5,0.4-0.8,0.9-0.8,1.5
					c0,1,1,1.8,3.1,2.5c0.4,0.1,0.8,0.3,1.2,0.4c1.4,0.5,2.4,1.2,3.1,1.9c0.7,0.8,1,1.6,1,2.7c0,1.3-0.5,2.4-1.6,3.3
					c-1.1,0.9-2.5,1.4-4.2,1.4c-1.6,0-2.9-0.4-3.9-1.1C379.7,94,379,93.2,378.6,92.2z"/>
				<path class="st5" d="M395.5,80.2V84h2.5V86h-2.5v5.9c0,0.6,0.1,1,0.4,1.2c0.3,0.2,0.6,0.3,1.1,0.3h1v2.1h-1.6
					c-1.2,0-2.1-0.3-2.7-0.8c-0.6-0.5-0.8-1.4-0.8-2.4V86h-2V84h2v-3.7H395.5z"/>
				<path class="st5" d="M405.3,88c0.9,0,1.8,0,2.7,0c0-0.7-0.3-1.3-0.9-1.7c-0.6-0.4-1.5-0.6-2.5-0.6h-0.1c-1,0-2.1,0.3-3.3,0.7
					l-0.7-2c1.2-0.5,2.5-0.8,4-0.8h0c1.9,0,3.4,0.4,4.4,1.1c1,0.8,1.6,2,1.6,3.5v7.1h-2.5v-1.3c-0.5,0.5-1.1,0.9-1.8,1.1
					c-0.7,0.3-1.5,0.4-2.2,0.4c-1.4,0-2.5-0.4-3.3-1.1c-0.9-0.7-1.3-1.6-1.3-2.7c0-1.2,0.5-2.1,1.6-2.9
					C402.1,88.4,403.5,88,405.3,88z M404.6,93.7c0.7,0,1.3-0.2,2-0.5c0.7-0.3,1.1-0.7,1.4-1.2v-2c-0.9,0-1.6,0-2.3,0
					c-1.3,0-2.2,0.2-2.7,0.5c-0.5,0.4-0.8,0.8-0.8,1.4s0.2,0.9,0.7,1.2C403.3,93.5,403.9,93.7,404.6,93.7z"/>
				<path class="st5" d="M413.9,95.4V84h2.5v1.7c0.4-0.6,0.8-1,1.4-1.3c0.7-0.4,1.4-0.6,2.3-0.6h0.2v2.3h-0.3c-1.1,0-2,0.3-2.6,1
					c-0.6,0.7-0.9,1.6-0.9,3v5.4H413.9z"/>
				<path class="st5" d="M426.4,80.2V84h2.5V86h-2.5v5.9c0,0.6,0.1,1,0.4,1.2c0.3,0.2,0.6,0.3,1.1,0.3h1v2.1h-1.6
					c-1.2,0-2.1-0.3-2.7-0.8c-0.6-0.5-0.8-1.4-0.8-2.4V86h-2V84h2v-3.7H426.4z"/>
				<path class="st5" d="M438.8,89.7V84h2.6v11.5h-2.5v-1.5c-0.3,0.6-0.8,1-1.3,1.3c-0.6,0.4-1.3,0.5-1.9,0.5
					c-1.4,0-2.4-0.4-3.2-1.4c-0.8-0.9-1.2-2.2-1.2-3.7V84h2.6v6c0,1.2,0.2,2.1,0.6,2.7c0.4,0.6,1,0.9,1.8,0.9c0.4,0,0.8-0.1,1.2-0.4
					c0.4-0.3,0.7-0.7,0.9-1.2C438.7,91.4,438.8,90.7,438.8,89.7z"/>
				<path class="st5" d="M450.8,95.7c-1.4,0-2.6-0.5-3.5-1.6v5.8h-2.6V84h2.5v1.5c1-1.2,2.2-1.7,3.6-1.7c1.7,0,3,0.6,4.1,1.8
					c1,1.2,1.6,2.6,1.6,4.3s-0.5,3-1.6,4.2C453.8,95.1,452.5,95.7,450.8,95.7z M447.3,90.4c0.1,0.9,0.4,1.6,1,2.2
					c0.6,0.7,1.4,1,2.3,1c1,0,1.8-0.4,2.4-1.1c0.6-0.7,0.9-1.6,0.9-2.7c0-1.1-0.3-2-0.9-2.8c-0.6-0.7-1.4-1.1-2.4-1.1
					c-0.9,0-1.7,0.3-2.3,1c-0.6,0.6-0.9,1.3-1,2.2C447.2,89.5,447.2,89.9,447.3,90.4z"/>
				<path class="st5" d="M457.8,93.3l1.6-1.7c0.4,0.6,0.9,1.1,1.5,1.5c0.5,0.3,1.1,0.5,1.7,0.5c0.6,0,1.1-0.1,1.5-0.4
					c0.4-0.2,0.6-0.5,0.6-0.9c0-0.4-0.2-0.7-0.6-0.9c-0.4-0.2-0.9-0.4-1.4-0.6c-0.6-0.2-1.3-0.4-1.9-0.7c-0.9-0.3-1.5-0.7-1.9-1.2
					c-0.4-0.5-0.6-1.1-0.6-1.7c0-0.9,0.4-1.7,1.3-2.4c0.9-0.7,1.9-1,3.1-1c1.3,0,2.3,0.3,3.1,0.9c0.4,0.3,0.8,0.7,1,1.2l-1.6,1.6
					c-0.2-0.4-0.5-0.7-0.8-0.9c-0.5-0.4-1.2-0.7-1.9-0.7c-0.5,0-0.8,0.1-1.2,0.3c-0.3,0.2-0.5,0.5-0.5,0.8c0,0.3,0.2,0.6,0.6,0.8
					c0.4,0.2,0.9,0.5,1.6,0.7c0.3,0.1,0.6,0.2,0.9,0.3c1.1,0.4,1.9,0.8,2.5,1.4c0.6,0.6,0.9,1.3,0.9,2.1c0,1-0.5,1.8-1.4,2.5
					c-0.9,0.7-2.1,1.1-3.5,1.1c-1.2,0-2.3-0.3-3.2-0.8C458.8,94.5,458.2,94,457.8,93.3z"/>
			</g>
		</g>
		<g>
			<path class="st5" d="M163,44.5v-2.7h-18v-4.9h41.8v4.9h-18.1v2.7c0.5,0.2,1.1,0.3,1.6,0.5c1.4,0.6,2.6,1.3,3.6,2.2
				c1,1,1.9,2.1,2.5,3.3c0.6,1.3,0.9,2.7,0.9,4.1c0,1.5-0.3,2.8-0.9,4.1c-0.6,1.3-1.5,2.5-2.5,3.4c-1,0.9-2.2,1.7-3.6,2.2
				c-1.4,0.6-2.9,0.8-4.4,0.8c-1.6,0-3.1-0.3-4.4-0.8c-1.4-0.5-2.6-1.3-3.6-2.2c-1-0.9-1.9-2.1-2.5-3.4c-0.6-1.3-0.9-2.6-0.9-4.1
				c0-1.5,0.3-2.8,0.9-4.1c0.6-1.3,1.4-2.4,2.5-3.3c1-0.9,2.2-1.7,3.6-2.2C162,44.8,162.5,44.6,163,44.5z M183.9,23.1h-15.4
				l16.2,8.6l-2.6,4.2l-16.2-8.7l-16.2,8.7l-2.6-4.2l16.2-8.6H148v-4.8h35.9V23.1z M171.8,54.7c0-1.6-0.6-2.9-1.7-4.1
				c-1.2-1.1-2.6-1.7-4.1-1.7c-1.6,0-2.9,0.6-4.1,1.7c-1.2,1.1-1.8,2.5-1.8,4.1c0,1.6,0.6,2.9,1.8,4c1.1,1.1,2.5,1.7,4.1,1.7
				c1.6,0,2.9-0.6,4.1-1.7C171.2,57.6,171.8,56.3,171.8,54.7z"/>
			<path class="st5" d="M209.6,54.9V41.8h5.7v13.1h18.1v5h-41.8v-5H209.6z M212.5,27.1l-15.1,19l-4.4-3.3l19.5-24.4L232,42.8
				l-4.4,3.3L212.5,27.1z"/>
			<path class="st5" d="M259.7,42.8H240V18.7h5.4v6.5h9v-6.5h5.3V42.8z M242,62.3V47.1h5.6v10.2H280v5H242z M254.4,30.1h-9V38h9
				V30.1z M265.5,17.8h5.3v28.8h-5.3V32.7h-4.8v-5h4.8V17.8z M274.2,17.7h5.4v29.1h-5.4V17.7z"/>
			<path class="st5" d="M297.3,22.5v-4.9h6.1v4.9h10.9v4.9h-11.5l12.5,27.9l-4.7,2.1l-10.1-23.1l-10,23.4l-4.8-2.1l12.5-28.2h-12
				v-4.9H297.3z M321.1,40.8h-8.8v-5h8.8V17.7h5.6v45.5h-5.6V40.8z"/>
			<path class="st5" d="M356.3,57.3h-5.6V25.6h-17.4v-5.1h23.1V57.3z M367.7,17.7h5.6v45.5h-5.6V17.7z"/>
			<path class="st5" d="M406.6,29.6c0,1.6-0.3,3.1-0.9,4.5c-0.7,1.4-1.6,2.6-2.7,3.7c-1.1,1-2.4,1.9-3.8,2.5
				c-1.5,0.6-3.1,0.9-4.8,0.9c-1.7,0-3.2-0.3-4.7-0.9c-1.5-0.6-2.8-1.4-3.9-2.5c-1.1-1-2-2.2-2.6-3.7c-0.7-1.4-1-2.9-1-4.5
				c0-1.6,0.3-3.1,1-4.5c0.6-1.4,1.5-2.6,2.6-3.7c1-1,2.4-1.9,3.9-2.5c1.5-0.6,3-0.9,4.7-0.9c1.7,0,3.2,0.3,4.8,0.9
				c1.5,0.6,2.7,1.5,3.8,2.5c1.1,1,2,2.3,2.7,3.7C406.3,26.6,406.6,28.1,406.6,29.6z M385.3,43.1h5.5v4.3h24.5v-4.3h5.5v19.2h-35.6
				V43.1z M401.2,29.6c0-1.8-0.7-3.4-1.9-4.8c-1.4-1.3-2.9-2-4.8-2c-1.9,0-3.4,0.7-4.8,2c-1.4,1.4-2,2.9-2,4.8c0,1.9,0.6,3.4,2,4.7
				c1.3,1.4,2.9,2,4.8,2c1.8,0,3.4-0.6,4.8-2C400.5,33.1,401.2,31.5,401.2,29.6z M415.4,52h-24.5v5.6h24.5V52z M408.1,27.2h7.2v-9.5
				h5.6v24.1h-5.6v-9.7h-7.2V27.2z"/>
			<path class="st5" d="M428.7,46.5h41.8v5h-18.1v11.7h-5.7V51.5h-18V46.5z M437.6,24.3h23.9v-5.7h5.6v21.9h-35.1V18.5h5.6V24.3z
				 M461.6,29.2h-23.9v6.3h23.9V29.2z"/>
		</g>
	</g>
	<g>
		<polygon class="st6" points="1933.7,73.7 1968.1,73.7 1968.1,85.9 1920.1,85.9 1920.1,24.1 1933.7,24.1 		"/>
		<polygon class="st6" points="1858.9,86 1906.9,86 1906.9,73.8 1872.4,73.8 1872.4,61.1 1902.9,61.1 1902.9,49 1872.4,49 
			1872.4,36.2 1906.9,36.2 1906.9,24.1 1858.9,24.1 		"/>
		<rect x="1981" y="24.1" class="st6" width="13.6" height="61.9"/>
		<polygon class="st6" points="1720,24.1 1706.4,24.1 1706.4,86 1754.4,86 1754.4,73.7 1720,73.7 		"/>
		<rect x="1767.3" y="24.1" class="st6" width="13.6" height="61.9"/>
		<polygon class="st6" points="2124.9,24.1 2124.9,62.7 2096,24.7 2095.5,24.1 2082.4,24.1 2082.4,28.8 2082.4,85.9 2096,85.9 
			2096,46.7 2124.9,84.6 2125.9,85.9 2132,85.9 2138.5,85.9 2138.5,24.1 		"/>
		<path class="st6" d="M2069.1,42.4c-1.6-3.9-3.9-7.2-6.8-10.1s-6.4-5.1-10.4-6.8c-4-1.7-8.4-2.5-13.2-2.5c-4.8,0-9.2,0.8-13.3,2.5
			c-4.1,1.7-7.6,4-10.5,6.9c-2.9,2.9-5.2,6.3-6.9,10.2c-1.7,3.9-2.5,8-2.5,12.4v0.2c0,4.4,0.8,8.6,2.4,12.4
			c1.6,3.9,3.9,7.2,6.8,10.1c2.9,2.9,6.4,5.1,10.4,6.8c4,1.7,8.4,2.5,13.2,2.5c4.8,0,9.2-0.8,13.3-2.5c4.1-1.7,7.6-4,10.5-6.9
			c2.9-2.9,5.2-6.3,6.9-10.2c1.7-3.9,2.5-8,2.5-12.4v-0.2C2071.6,50.4,2070.8,46.3,2069.1,42.4L2069.1,42.4z M2057.5,55.2
			c0,2.7-0.5,5.2-1.4,7.6c-0.9,2.4-2.2,4.4-3.9,6.2c-1.7,1.8-3.7,3.2-6,4.2s-4.9,1.5-7.7,1.5c-2.8,0-5.4-0.5-7.7-1.6
			c-2.3-1.1-4.3-2.5-6-4.3s-3-3.9-4-6.3c-0.9-2.4-1.4-4.9-1.4-7.6v-0.2c0-2.7,0.5-5.2,1.4-7.6c0.9-2.4,2.2-4.4,3.9-6.2
			c1.7-1.8,3.6-3.2,5.9-4.2c2.3-1,4.9-1.5,7.7-1.5s5.3,0.5,7.7,1.6c2.3,1,4.4,2.5,6.1,4.3c1.7,1.8,3,3.9,4,6.3
			c0.9,2.4,1.4,4.9,1.4,7.6L2057.5,55.2L2057.5,55.2z"/>
		<polygon class="st6" points="1849.2,24.1 1832.8,24.1 1807.7,50.6 1807.7,24.1 1794,24.1 1794,86 1807.7,86 1807.7,67 
			1814.8,59.6 1834,86 1850.3,86 1824,50.3 		"/>
		<polygon class="st6" points="1646.4,46.6 1682.4,24.1 1646.4,24.1 		"/>
		<path class="st7" d="M1646.4,69.9v16h-48V46.6l-36-22.5h36l0,0h6.4v45.9C1604.8,69.9,1646.4,69.9,1646.4,69.9z"/>
	</g>
</g>
</svg>
