<svg width="790" height="36" viewBox="0 0 790 36" fill="none" xmlns="http://www.w3.org/2000/svg">
<path d="M37.2568 1.24316C44.6273 1.24316 50.918 5.8642 53.3799 12.3262C53.5536 12.716 53.6922 13.0825 53.793 13.417C54.2841 15.1843 54.5469 16.7557 54.5469 18.4902C54.5468 25.9519 49.7985 32.3335 43.1514 34.7227C48.3249 32.1372 51.8612 26.8029 51.8613 20.6504C51.8613 12.7959 45.476 6.41414 37.6172 6.41406C31.7886 6.41406 26.1565 10.3408 26.1562 15.9697C26.1562 16.3952 26.2221 16.7884 26.3203 17.2139C26.0911 16.2975 26.0254 15.8388 26.0254 14.8242C26.0255 12.9569 26.6834 11.0202 27.8711 9.28223C26.6627 11.0328 25.9923 12.9843 25.9922 14.8574C25.9922 15.8392 26.0251 16.298 26.2871 17.2471C26.3199 17.2471 26.3203 17.2798 26.3203 17.3125V17.3779C26.9753 19.636 29.1033 21.829 32.2139 21.8291C33.1635 21.8291 35.6196 21.5341 37.2568 19.0469C39.2216 16.0687 42.9548 15.2834 45.8691 17.2471C48.4886 19.0144 49.3067 22.3853 48.1279 25.2324C46.0322 30.5014 41.4809 34.2979 34.6699 34.2979C26.1561 34.2978 20 26.9993 20 18.4902C20.0001 8.9667 27.728 1.24318 37.2568 1.24316ZM123.771 23.6621C124.622 23.6621 125.309 23.9566 125.833 24.5781C126.357 25.1999 126.619 25.9202 126.619 26.7383C126.619 27.5565 126.357 28.2771 125.833 28.8662C125.309 29.455 124.622 29.749 123.771 29.749C123.05 29.749 122.461 29.4878 121.97 28.9316V31.877H120.66V23.793H121.937V24.5459C122.428 23.9568 123.05 23.6621 123.771 23.6621ZM90.1406 21.3379C90.9593 21.3379 91.6147 21.5672 92.1387 21.96C92.4004 22.1889 92.5971 22.4185 92.6953 22.6475L91.876 23.498C91.8105 23.3671 91.6799 23.2032 91.4834 23.0068C91.0905 22.6468 90.6319 22.4834 90.0752 22.4834C89.715 22.4834 89.4206 22.582 89.1914 22.7783C88.9296 22.9746 88.798 23.2359 88.7979 23.5303C88.7979 24.0212 89.3223 24.4466 90.3701 24.8066C90.5665 24.8721 90.7626 24.938 90.959 25.0361C91.6793 25.2979 92.2033 25.6254 92.5635 25.9854C92.9236 26.378 93.0878 26.8359 93.0879 27.3594C93.0879 28.0137 92.8259 28.5702 92.2695 29.0283C91.7129 29.5192 91.025 29.749 90.1738 29.749C89.3881 29.749 88.7328 29.5854 88.209 29.2256C87.7507 28.8657 87.3904 28.4399 87.1611 27.9492L88.0449 27.0322C88.2741 27.5558 88.6017 27.9159 88.9619 28.1777C89.3548 28.4395 89.7477 28.5703 90.1406 28.5703C90.5663 28.5703 90.927 28.4723 91.2217 28.2432C91.5162 28.0141 91.6797 27.7192 91.6797 27.3594C91.6796 27.065 91.5161 26.7705 91.2217 26.5742C90.927 26.3779 90.5663 26.2139 90.2061 26.083C89.8459 25.9521 89.4529 25.8218 89.0928 25.6582C88.4707 25.4291 88.0452 25.1343 87.7832 24.7744C87.5213 24.4144 87.3897 24.0216 87.3896 23.6289C87.3896 23.0071 87.6519 22.4504 88.1758 21.9922C88.6997 21.534 89.3548 21.3379 90.1406 21.3379ZM65.3525 23.5967C66.3349 23.5967 67.0884 23.7933 67.6123 24.1533C68.136 24.546 68.3975 25.1351 68.3975 25.9531V29.5527H67.1211V28.8984C66.8592 29.1602 66.5642 29.3564 66.2041 29.4873C65.844 29.6182 65.4509 29.7167 65.0908 29.7168C64.4032 29.7168 63.8466 29.5528 63.4209 29.1602C62.9625 28.8002 62.7656 28.342 62.7656 27.8184C62.7657 27.2294 63.0275 26.7384 63.584 26.3457C64.0751 26.0185 64.763 25.8223 65.6797 25.8223H67.0557C67.0557 25.4623 66.8913 25.168 66.5967 24.9717C66.302 24.7753 65.8433 24.6768 65.3193 24.6768H65.2871C64.7632 24.6768 64.2066 24.808 63.6172 25.0371L63.29 23.9893C63.9119 23.7276 64.5666 23.5967 65.3193 23.5967H65.3525ZM100.423 23.5967C101.405 23.5967 102.159 23.7933 102.683 24.1533C103.206 24.546 103.468 25.1351 103.468 25.9531V29.5527H102.158V28.8984C101.896 29.1602 101.601 29.3564 101.241 29.4873C100.881 29.6182 100.488 29.7168 100.128 29.7168C99.4404 29.7168 98.8837 29.5528 98.458 29.1602C97.9997 28.8002 97.8037 28.3419 97.8037 27.8184C97.8037 27.2293 98.0654 26.7384 98.6221 26.3457C99.1132 26.0185 99.8334 25.8223 100.75 25.8223H102.126C102.126 25.4623 101.962 25.168 101.667 24.9717C101.372 24.7753 100.914 24.6768 100.39 24.6768H100.357C99.8335 24.6768 99.2769 24.808 98.6875 25.0371L98.3604 23.9893C98.9823 23.7276 99.6369 23.5967 100.39 23.5967H100.423ZM82.3799 29.585H81.1025V28.833C80.6115 29.4217 79.9896 29.7157 79.2695 29.7158C78.4181 29.7158 77.73 29.4216 77.2061 28.7998C76.6823 28.2108 76.421 27.4909 76.4209 26.6729C76.4209 25.8548 76.6822 25.1345 77.2061 24.5127C77.73 23.9236 78.4181 23.6289 79.2695 23.6289C79.9571 23.629 80.5465 23.9237 81.0703 24.4473V20.9453H82.3799V29.585ZM115.158 26.8037C115.158 27.4253 115.257 27.8832 115.453 28.1777C115.65 28.4723 115.944 28.6357 116.37 28.6357C116.599 28.6357 116.796 28.5708 116.992 28.4072C117.189 28.2764 117.352 28.08 117.483 27.8184C117.647 27.5565 117.713 27.1633 117.713 26.7051V23.7598H119.022V29.585H117.745V28.7998C117.581 29.0941 117.353 29.3232 117.091 29.4541C116.763 29.6177 116.436 29.7158 116.108 29.7158C115.421 29.7158 114.864 29.487 114.471 28.9961C114.045 28.5379 113.849 27.9158 113.849 27.0977V23.7598H115.158V26.8037ZM129.763 23.6289C130.385 23.6289 130.942 23.7924 131.367 24.0869C131.596 24.2506 131.76 24.4472 131.858 24.709L131.04 25.4941C130.909 25.3305 130.81 25.167 130.646 25.0361C130.385 24.8072 130.057 24.709 129.697 24.709C129.468 24.709 129.271 24.7739 129.107 24.8721C128.944 25.003 128.846 25.1347 128.846 25.2656C128.846 25.4291 128.944 25.5596 129.141 25.6904C129.304 25.8213 129.599 25.9199 129.959 26.0508C130.09 26.0835 130.254 26.1489 130.418 26.1816C130.974 26.3779 131.4 26.607 131.694 26.9014C131.989 27.1959 132.153 27.5565 132.153 27.9492C132.153 28.44 131.924 28.8652 131.433 29.1924C130.942 29.5523 130.385 29.7157 129.665 29.7158C129.043 29.7158 128.518 29.5856 128.06 29.291C127.83 29.1274 127.536 28.8648 127.307 28.5049L128.126 27.6543C128.355 27.9815 128.617 28.2436 128.879 28.4072C129.141 28.5708 129.435 28.6689 129.763 28.6689C130.057 28.6689 130.319 28.6034 130.516 28.4727C130.712 28.3417 130.811 28.2105 130.811 27.9814C130.81 27.7852 130.712 27.6221 130.516 27.4912C130.319 27.3931 130.058 27.2618 129.796 27.1963C129.468 27.0981 129.141 26.9668 128.813 26.8359C128.355 26.6724 128.028 26.4764 127.831 26.2148C127.602 25.9531 127.503 25.6909 127.503 25.3311C127.503 24.8401 127.733 24.4474 128.191 24.1201C128.65 23.7929 129.141 23.6289 129.763 23.6289ZM72.917 23.6289C73.6045 23.629 74.1285 23.8578 74.5869 24.3486C74.9799 24.8395 75.209 25.4289 75.209 26.2471V29.6182H73.8994V26.5742C73.8994 25.9527 73.8008 25.4947 73.6045 25.2002C73.3754 24.9058 73.0807 24.7413 72.6553 24.7412C72.4261 24.7412 72.2287 24.8071 72.0322 24.9707C71.8032 25.1016 71.6719 25.3306 71.541 25.5596C71.3773 25.8214 71.3125 26.182 71.3125 26.6729V29.6182H70.0029V23.7598H71.2793V24.5449C71.4103 24.2833 71.6396 24.0542 71.9668 23.8906C72.2615 23.727 72.5895 23.6289 72.917 23.6289ZM95.7734 23.793H97.0498V24.8398H95.7734V27.8184C95.7735 28.1128 95.8388 28.3091 95.9697 28.4072C96.1006 28.5053 96.2969 28.5712 96.5586 28.5713H97.0498V29.6182H96.2646C95.6425 29.6182 95.1834 29.4869 94.8887 29.1924C94.5942 28.9306 94.4629 28.5053 94.4629 27.9492V24.8398H93.4482V23.793H94.4629V21.8945H95.7734V23.793ZM108.282 24.873H108.15C107.594 24.8731 107.168 25.0371 106.841 25.3643C106.546 25.6915 106.383 26.1826 106.383 26.9023V29.6182L105.04 29.5859V23.793H106.284V24.6768C106.481 24.3822 106.71 24.1861 107.005 24.0225C107.332 23.8261 107.725 23.7275 108.184 23.7275H108.282V24.873ZM111.393 23.793H112.67V24.8398H111.393V27.8184C111.393 28.1127 111.458 28.309 111.589 28.4072C111.72 28.5054 111.917 28.5713 112.179 28.5713H112.67V29.6182H111.884C111.262 29.6182 110.803 29.4869 110.509 29.1924C110.214 28.9306 110.083 28.5055 110.083 27.9492V24.8398H109.067V23.793H110.083V21.8945H111.393V23.793ZM65.876 26.8691C65.2217 26.8692 64.7308 26.9674 64.4688 27.1309C64.2068 27.3272 64.0752 27.5566 64.0752 27.8184C64.0752 28.0802 64.1741 28.2768 64.4033 28.4404C64.6651 28.6039 64.9595 28.7021 65.3193 28.7021C65.6468 28.7021 66.0075 28.6041 66.335 28.4404C66.6624 28.2768 66.9247 28.0806 67.0557 27.8516V26.8691H65.876ZM100.947 26.8691C100.293 26.8691 99.8011 26.9674 99.5391 27.1309C99.2771 27.3272 99.1456 27.5566 99.1455 27.8184C99.1455 28.0802 99.2444 28.2768 99.4736 28.4404C99.7027 28.6039 99.9971 28.7021 100.39 28.7021C100.717 28.7021 101.078 28.6041 101.405 28.4404C101.733 28.2768 101.995 28.0806 102.126 27.8516V26.8691H100.947ZM79.4004 24.7412C78.8765 24.7412 78.4832 24.9379 78.1885 25.2979C77.8938 25.6905 77.7305 26.1488 77.7305 26.7051C77.7305 27.2613 77.8612 27.7523 78.1885 28.1123C78.4832 28.505 78.8765 28.6689 79.4004 28.6689C79.8587 28.6689 80.2512 28.5049 80.5459 28.1777C80.8078 27.8832 81.0043 27.4908 81.0371 27.0654C81.0699 26.8036 81.0699 26.5743 81.0371 26.3125C81.0043 25.8871 80.8078 25.5269 80.5459 25.2324C80.2512 24.9054 79.8259 24.7412 79.4004 24.7412ZM123.64 24.709C123.181 24.709 122.788 24.8729 122.493 25.2002C122.199 25.4947 122.035 25.8549 122.002 26.2803C121.969 26.5747 121.969 26.8038 122.002 27.0654C122.035 27.5235 122.199 27.8837 122.493 28.1455C122.788 28.4728 123.181 28.6367 123.64 28.6367C124.131 28.6367 124.557 28.4728 124.852 28.0801C125.146 27.7201 125.31 27.2617 125.31 26.6729C125.31 26.1166 125.146 25.6583 124.852 25.2656C124.557 24.9057 124.131 24.709 123.64 24.709ZM102.355 13.5166L103.927 9.52344H105.27L102.027 17.6074H100.685L101.7 15.1201L99.4082 9.52344H100.783L102.355 13.5166ZM111.982 9.35938C112.866 9.35949 113.554 9.65425 114.176 10.2432C114.765 10.8322 115.061 11.5521 115.061 12.4355C115.061 13.3191 114.765 14.0066 114.176 14.5957C113.554 15.1846 112.834 15.4794 111.982 15.4795C111.131 15.4795 110.41 15.1847 109.788 14.5957C109.166 14.0066 108.871 13.2864 108.871 12.4355C108.871 11.5848 109.166 10.8649 109.788 10.2432C110.377 9.65415 111.098 9.35938 111.982 9.35938ZM126.423 7.06836C127.209 7.06841 127.897 7.29774 128.421 7.69043C128.683 7.91937 128.879 8.14899 128.978 8.37793L128.158 9.22852C128.093 9.09763 127.962 8.93361 127.766 8.7373C127.373 8.37737 126.914 8.21391 126.357 8.21387C125.997 8.21387 125.703 8.31251 125.474 8.50879C125.212 8.70507 125.08 8.96634 125.08 9.26074C125.08 9.75165 125.604 10.1771 126.652 10.5371C126.849 10.6025 127.045 10.6685 127.241 10.7666C127.961 11.0284 128.486 11.3559 128.846 11.7158C129.206 12.1084 129.37 12.5337 129.37 13.0898C129.37 13.7442 129.108 14.3007 128.552 14.7588C127.995 15.2496 127.307 15.4794 126.456 15.4795C125.67 15.4795 125.015 15.3158 124.491 14.9561C124 14.5962 123.673 14.1704 123.443 13.6797L124.327 12.7627C124.556 13.2863 124.884 13.6464 125.244 13.9082C125.637 14.1699 126.03 14.3008 126.423 14.3008C126.848 14.3007 127.209 14.2027 127.504 13.9736C127.798 13.7446 127.962 13.4497 127.962 13.0898C127.962 12.7955 127.798 12.501 127.504 12.3047C127.209 12.1084 126.848 11.9444 126.488 11.8135C126.128 11.6826 125.735 11.5522 125.375 11.3887C124.753 11.1596 124.327 10.8647 124.065 10.5049C123.803 10.1449 123.672 9.75207 123.672 9.35938C123.672 8.73756 123.934 8.18084 124.458 7.72266C124.982 7.26458 125.637 7.06838 126.423 7.06836ZM87.9141 9.35938C88.536 9.35942 89.0929 9.52296 89.5186 9.81738C89.7477 9.981 89.9116 10.1777 90.0098 10.4395L89.1914 11.2246C89.0605 11.061 88.9615 10.8975 88.7979 10.7666C88.536 10.5377 88.2086 10.4395 87.8486 10.4395C87.6198 10.4395 87.4233 10.5046 87.2598 10.6025C87.096 10.7334 86.9971 10.8652 86.9971 10.9961C86.9972 11.1595 87.0958 11.2901 87.292 11.4209C87.4557 11.5517 87.7504 11.6504 88.1104 11.7812C88.2413 11.814 88.4057 11.8794 88.5693 11.9121C89.1256 12.1084 89.5511 12.3375 89.8457 12.6318C90.1403 12.9264 90.3047 13.287 90.3047 13.6797C90.3046 14.1704 90.0749 14.5957 89.584 14.9229C89.093 15.2827 88.5364 15.4462 87.8164 15.4463C87.1945 15.4463 86.6702 15.3157 86.2119 15.0215C85.9172 14.8579 85.655 14.5953 85.4258 14.2354L86.2773 13.3848C86.5065 13.7119 86.7684 13.9741 87.0303 14.1377C87.2921 14.3012 87.5868 14.3994 87.9141 14.3994C88.2412 14.3994 88.4706 14.3339 88.667 14.2031C88.8633 14.0723 88.9619 13.9409 88.9619 13.7119C88.9619 13.5157 88.8633 13.3525 88.667 13.2217C88.4707 13.1236 88.209 12.9922 87.9473 12.9268C87.6199 12.8286 87.2922 12.6973 86.9648 12.5664C86.5067 12.4029 86.1789 12.2069 85.9824 11.9453C85.7533 11.6836 85.6544 11.4214 85.6543 11.0615C85.6543 10.5706 85.8843 10.1779 86.3428 9.85059C86.8011 9.52346 87.2921 9.3594 87.9141 9.35938ZM149.148 9.35938C149.77 9.35944 150.327 9.52291 150.753 9.81738C150.982 9.981 151.146 10.1777 151.244 10.4395L150.426 11.2246C150.295 11.061 150.196 10.8975 150.032 10.7666C149.77 10.5377 149.443 10.4395 149.083 10.4395C148.854 10.4395 148.657 10.5044 148.493 10.6025C148.329 10.7334 148.231 10.8652 148.231 10.9961C148.232 11.1596 148.33 11.2901 148.526 11.4209C148.69 11.5517 148.985 11.6504 149.345 11.7812C149.476 11.814 149.64 11.8794 149.804 11.9121C150.36 12.1084 150.785 12.3375 151.08 12.6318C151.375 12.9264 151.539 13.287 151.539 13.6797C151.539 14.1704 151.309 14.5957 150.818 14.9229C150.327 15.2828 149.77 15.4463 149.05 15.4463C148.428 15.4462 147.904 15.3159 147.445 15.0215C147.183 14.8579 146.889 14.5953 146.66 14.2354L147.511 13.3848C147.74 13.712 148.003 13.9741 148.265 14.1377C148.526 14.3011 148.821 14.3994 149.148 14.3994C149.443 14.3994 149.705 14.3339 149.901 14.2031C150.098 14.0723 150.196 13.9409 150.196 13.7119C150.196 13.5157 150.098 13.3525 149.901 13.2217C149.705 13.1235 149.443 12.9922 149.181 12.9268C148.853 12.8286 148.526 12.6972 148.198 12.5664C147.74 12.4029 147.413 12.2067 147.217 11.9453C146.988 11.6836 146.889 11.4214 146.889 11.0615C146.889 10.5708 147.118 10.1778 147.576 9.85059C148.035 9.52339 148.526 9.35938 149.148 9.35938ZM98.8516 10.6357H98.7197C98.1634 10.6358 97.7375 10.7999 97.4102 11.127C97.1155 11.4542 96.9522 11.9779 96.9521 12.665V15.3818L95.6094 15.3486V9.52344H96.8535V10.4072C97.05 10.1128 97.2796 9.91654 97.5742 9.75293C97.9016 9.55664 98.2946 9.45801 98.7529 9.45801H98.8516V10.6357ZM67.252 13.5488L69.3145 7.23242H71.3125V15.3486H70.0029V8.80371L67.874 15.3164H66.5967L64.501 8.80371V15.3164H63.1914V7.23242H65.1885L67.252 13.5488ZM79.0078 9.39258C79.6951 9.39273 80.2195 9.62205 80.6777 10.0801C81.0705 10.5709 81.2998 11.1606 81.2998 11.9785V15.3486H79.9893V12.3057C79.9893 11.684 79.8917 11.2252 79.6953 10.9307C79.4661 10.6362 79.1707 10.4727 78.7451 10.4727C78.5161 10.4727 78.3194 10.5387 78.123 10.7021C77.8941 10.8331 77.7627 11.0621 77.6318 11.291C77.4356 11.5528 77.4033 11.9127 77.4033 12.4033V15.3486H76.0928V9.52344H77.3701V10.3086C77.5011 10.047 77.7304 9.81785 78.0576 9.6543C78.3523 9.49072 78.6804 9.39258 79.0078 9.39258ZM134.642 13.5488L136.705 7.23242H138.702V15.3486H137.393V8.80371L135.264 15.3164H133.987L131.892 8.80371V15.3164H130.582V7.23242H132.579L134.642 13.5488ZM145.743 8.37793H141.78V10.7344H145.645V11.7812H141.78V14.2031H145.743V15.3486H140.438V7.23242H145.743V8.37793ZM74.3574 15.3164H73.0146V9.49121H74.3574V15.3164ZM84.2471 15.3164H82.9043V9.49121H84.2471V15.3164ZM93.1533 7.625V9.49023H94.4307V10.5371H93.1533V13.5156C93.1534 13.8099 93.2188 14.0063 93.3496 14.1045C93.4806 14.2026 93.6776 14.2686 93.9395 14.2686H94.4307V15.3154H93.6445C93.0226 15.3154 92.5642 15.1841 92.2695 14.8896C91.9749 14.6278 91.8438 14.2027 91.8438 13.6465V10.5371H90.8291V9.49023H91.8438V7.5918L93.1533 7.625ZM119.121 7.72266H118.728C118.466 7.7227 118.27 7.78871 118.139 7.88672C118.008 7.98488 117.942 8.18115 117.942 8.47559V9.49023H119.121V10.5381H117.942V15.3154H116.6V10.5703H115.584V9.52344H116.6V8.34473C116.6 7.78859 116.763 7.39606 117.058 7.10156C117.352 6.83982 117.811 6.67578 118.466 6.67578H119.121V7.72266ZM111.982 10.4395C111.524 10.4395 111.098 10.6362 110.771 10.9961C110.41 11.3888 110.247 11.8471 110.247 12.4033C110.247 12.9923 110.41 13.4506 110.771 13.8105C111.098 14.2031 111.491 14.3662 111.982 14.3662C112.473 14.3661 112.867 14.2031 113.227 13.8105C113.554 13.4506 113.75 12.9922 113.75 12.4033C113.75 11.8144 113.587 11.3887 113.227 10.9961C112.866 10.6362 112.473 10.4396 111.982 10.4395ZM73.6699 6.83984C73.899 6.83991 74.0961 6.93798 74.2598 7.10156C74.4559 7.26507 74.5214 7.4616 74.5215 7.69043C74.5215 7.91946 74.4234 8.11666 74.2598 8.28027C74.0961 8.44383 73.899 8.54192 73.6699 8.54199C73.441 8.54197 73.2447 8.44355 73.0811 8.28027C72.9173 8.11664 72.8184 7.91952 72.8184 7.69043C72.8185 7.46148 72.9174 7.26512 73.0811 7.10156C73.2447 6.93819 73.4409 6.83986 73.6699 6.83984ZM83.5596 6.83984C83.7884 6.84004 83.9849 6.93815 84.1484 7.10156C84.3447 7.2651 84.4101 7.46153 84.4102 7.69043C84.4102 7.91946 84.3121 8.11666 84.1484 8.28027C83.9849 8.44358 83.7884 8.5418 83.5596 8.54199C83.3305 8.54199 83.1334 8.44371 82.9697 8.28027C82.806 8.11664 82.708 7.91952 82.708 7.69043C82.7081 7.46148 82.8061 7.26512 82.9697 7.10156C83.1334 6.93803 83.3304 6.83984 83.5596 6.83984Z" fill="#A2A2A2"/>
<path d="M180.172 11.8306L180.526 12.1841L174.738 17.9829L180.526 23.7827L180.172 24.1362L179.818 24.4888L174.032 18.6899L168.246 24.4888L167.893 24.1362L167.539 23.7827L173.326 17.9829L167.539 12.1841L168.246 11.4771L174.032 17.2749L179.818 11.4771L180.172 11.8306Z" fill="#A2A2A2"/>
<path d="M237.294 10.3898C241.027 10.2262 244.728 13.8917 244.957 18.1135C245.186 22.4334 243.091 26.4265 239.521 28.8156C237.229 30.4847 234.38 31.237 231.335 31.0734C225.965 30.7789 221.97 27.2116 220.496 24.757C220.267 24.4298 220.529 24.2662 220.726 24.5607C223.869 28.4552 231.073 30.5822 236.148 28.0295C240.667 25.7713 242.37 22.041 242.01 17.9504C241.813 20.6666 240.536 23.2843 238.276 24.8879C236.312 26.2624 233.561 27.1791 230.45 26.5246C230.221 26.459 230.32 26.2297 230.483 26.2297C233.496 26.3933 235.723 25.3138 237.131 23.7101C239.292 21.3211 239.816 17.6882 239.03 14.9064C239.718 20.1754 236.377 22.2046 233.463 22.5646C233.365 22.5644 233.333 22.4659 233.365 22.4006C235.363 21.6804 237.164 19.226 236.509 16.8371C235.887 14.4809 233.726 13.5643 232.187 13.3351C233.234 11.5682 235.1 10.4881 237.294 10.3898ZM406.425 25.674L407.768 21.714H409.208L407.178 27.0812C406.719 28.2919 406.392 29.4697 404.919 29.4699C404.591 29.4699 404.231 29.4045 403.903 29.339L404.002 28.2922C404.166 28.3575 404.395 28.3898 404.722 28.3898C405.278 28.3898 405.639 27.9974 405.639 27.4084L403.576 21.714H405.147L406.425 25.674ZM383.372 21.5177C384.092 21.5178 384.649 21.7466 385.042 22.3683H385.075V21.6486H386.385V26.59C386.385 28.0627 385.795 29.4375 383.536 29.4377C382.979 29.4377 382.324 29.3391 381.669 29.0773L381.8 27.8664C382.225 28.0955 382.946 28.3244 383.372 28.3244C384.944 28.3244 385.01 27.1469 385.01 26.2306H384.977C384.715 26.6887 384.092 27.0812 383.307 27.0812C381.702 27.0812 381.08 25.8049 381.08 24.3322C381.08 23.0231 381.768 21.5177 383.372 21.5177ZM363.954 21.5832C365.624 21.5832 366.214 22.8922 366.214 24.3976C366.214 25.8703 365.591 27.2443 363.921 27.2443C363.332 27.2442 362.84 27.0813 362.316 26.4924H362.284V29.3068H360.876V21.714H362.251V22.467H362.284C362.612 21.9433 363.135 21.5832 363.954 21.5832ZM201.635 16.5763L212.113 8.65642H219.121L208.053 17.3947L220.267 27.3107H213.03L201.635 18.4093V27.3107H196.526V8.65642H201.635V16.5763ZM285.954 22.4015L294.402 8.65642H299.511V27.3107H294.402V16.4777L288.018 27.0158H283.629L277.211 16.4777V27.3107H272.267V8.65642H277.506L285.954 22.4015ZM323.219 12.6818H307.697V15.9543H323.219V20.0129H307.697V23.2521H323.219V27.3107H302.622V8.65642H323.219V12.6818ZM268.828 12.6818H253.635C253.242 12.6818 252.914 12.8121 252.619 13.1066C252.357 13.4012 252.193 13.729 252.193 14.1545C252.193 14.5143 252.357 14.8415 252.619 15.1359C252.914 15.3977 253.275 15.5617 253.7 15.5617H263.654C265.521 15.5617 267.027 16.118 268.141 17.2306C269.287 18.4088 269.876 19.7506 269.876 21.3215C269.876 22.9251 269.287 24.3327 268.141 25.5109C266.995 26.689 265.488 27.2775 263.654 27.2775H248.067V23.2521H263.458C263.949 23.2521 264.342 23.0891 264.67 22.7619C264.997 22.4347 265.161 22.0745 265.161 21.6164C265.161 21.1582 264.997 20.7654 264.702 20.4709C264.375 20.1437 264.015 19.9797 263.557 19.9797H253.11C251.309 19.9796 249.836 19.4229 248.723 18.2775C247.61 17.1321 247.053 15.7906 247.053 14.2199C247.053 12.6818 247.609 11.3726 248.723 10.2599C249.803 9.17999 251.277 8.65648 253.11 8.65642H268.828V12.6818ZM333.075 19.6847C333.697 19.6848 334.286 19.7829 334.843 19.9465L334.712 21.1574C334.254 20.9611 333.73 20.8303 333.206 20.8302C332.715 20.8302 332.06 21.0594 332.06 21.8449C332.06 23.1207 335.269 22.5649 335.269 25.0519C335.268 26.6553 333.992 27.2774 332.519 27.2775C331.733 27.2775 331.372 27.1789 330.619 26.9826L330.75 25.6408C331.241 25.9026 331.831 26.0988 332.42 26.0988C332.977 26.0988 333.729 25.8041 333.729 25.1496C333.729 23.7428 330.521 24.3315 330.521 21.9103C330.521 20.274 331.798 19.6847 333.075 19.6847ZM342.473 21.6164C344.143 21.6164 344.798 22.3038 344.798 23.9074V24.5939C344.798 25.1501 344.798 25.5431 344.831 25.9357C344.831 26.3611 344.864 26.7213 344.896 27.1467H343.652C343.587 26.8524 343.586 26.4931 343.586 26.3293H343.554C343.226 26.9181 342.539 27.2774 341.884 27.2775C340.934 27.2775 339.984 26.6885 339.984 25.674C339.984 24.856 340.378 24.3977 340.901 24.1359C341.425 23.8742 342.146 23.8088 342.735 23.8088H343.521C343.52 22.9253 343.128 22.6311 342.31 22.631C341.72 22.631 341.098 22.86 340.64 23.2199L340.606 22.009C341.163 21.7472 341.883 21.6164 342.473 21.6164ZM338.085 21.7472H339.329V22.7619H338.085V25.2814C338.085 25.7396 338.216 26.1652 338.74 26.1652C339.002 26.1652 339.231 26.0993 339.395 26.0011L339.428 27.1144C339.133 27.2126 338.806 27.2453 338.38 27.2453C337.267 27.2453 336.677 26.5577 336.677 25.4777V22.7619H335.629V21.7472H336.677V20.6672L338.085 20.2092V21.7472ZM352.198 21.7472H353.442V22.7619H352.198V25.2814C352.198 25.7396 352.33 26.1652 352.854 26.1652C353.115 26.1652 353.344 26.0993 353.508 26.0011L353.541 27.1144C353.246 27.2126 352.919 27.2453 352.493 27.2453C351.38 27.2453 350.79 26.5577 350.79 25.4777V22.7619H349.742V21.7472H350.79V20.6672L352.198 20.2092V21.7472ZM369.226 21.6164C369.88 21.6164 370.306 21.7145 370.765 21.8127L370.667 22.8595C370.241 22.6959 369.914 22.631 369.39 22.631C368.997 22.631 368.571 22.7617 368.571 23.2199C368.572 24.0706 371.027 23.5472 371.027 25.4777C371.027 26.754 369.914 27.2452 368.768 27.2453C368.244 27.2453 367.687 27.1467 367.163 27.0158L367.261 25.8703C367.686 26.0994 368.178 26.2306 368.637 26.2306C368.997 26.2306 369.554 26.0997 369.554 25.5763C369.554 24.5291 367.098 25.2488 367.098 23.2853C367.098 22.1072 368.112 21.6165 369.226 21.6164ZM356.062 24.5939C356.062 25.2485 356.063 26.1642 356.979 26.1642C357.994 26.164 358.224 25.0516 358.224 24.3644V21.714H359.632V27.1467H358.289V26.3937H358.256C357.83 26.9172 357.208 27.2442 356.488 27.2443C355.211 27.2443 354.654 26.3283 354.654 25.1174V21.714H356.062V24.5939ZM389.855 21.5832C391.853 21.5832 392.442 22.9575 392.442 24.8556H388.71C388.775 25.7393 389.398 26.2306 390.249 26.2306C390.936 26.2305 391.526 25.9685 392.05 25.674V26.8195H392.017C391.493 27.1139 390.903 27.2443 390.15 27.2443C388.349 27.2443 387.334 26.2299 387.334 24.4299C387.334 22.8591 388.153 21.5833 389.855 21.5832ZM401.645 21.5832C402.201 21.5832 402.627 21.6481 403.02 21.7463L402.889 22.8918C402.627 22.7609 402.364 22.6955 401.938 22.6955C401.055 22.6956 400.498 23.3832 400.498 24.3976C400.498 25.4121 400.957 26.1652 401.972 26.1652C402.364 26.1652 402.823 26.0007 403.052 25.9025L403.117 27.0812C402.692 27.212 402.299 27.2443 401.71 27.2443C399.942 27.2443 399.024 26.0339 399.024 24.3976C399.024 22.8267 399.942 21.5832 401.645 21.5832ZM348.597 21.6164C348.728 21.6164 348.892 21.6159 349.022 21.6486V22.9904C348.891 22.9577 348.629 22.9582 348.399 22.9582C347.221 23.024 347.254 24.3984 347.254 25.1838V27.1467H345.846V21.714H347.09V22.9582H347.123C347.189 22.4673 347.778 21.6164 348.597 21.6164ZM396.503 21.5832C397.78 21.5832 398.337 22.4992 398.337 23.7101V27.1467H396.929V24.2668C396.929 23.6122 396.929 22.6955 396.012 22.6955C394.997 22.6955 394.768 23.808 394.768 24.4953V27.1467H393.359V21.714H394.702V22.4338H394.734C395.16 21.812 395.783 21.5832 396.503 21.5832ZM380.752 27.1144H379.115L378.493 25.4445H375.513L374.858 27.1144H373.319L376.201 19.7834H377.871L380.752 27.1144ZM342.898 24.6271C342.276 24.6272 341.327 24.7256 341.327 25.5763C341.36 26.0344 341.753 26.2306 342.244 26.2306C342.67 26.2305 343.03 26.0339 343.227 25.7394C343.456 25.4449 343.52 25.0523 343.521 24.6271H342.898ZM363.594 22.6955C362.71 22.6956 362.35 23.6445 362.35 24.4299C362.35 25.1826 362.644 26.1974 363.594 26.1974C364.511 26.1974 364.772 25.1826 364.772 24.4299C364.772 23.7099 364.51 22.6955 363.594 22.6955ZM383.798 22.6955C382.848 22.6955 382.521 23.5794 382.521 24.3976C382.521 25.1176 382.914 26.0334 383.732 26.0334C384.616 26.0333 384.977 25.2807 384.977 24.3644C384.976 23.4483 384.616 22.6956 383.798 22.6955ZM232.775 4.89177C238.145 5.1863 242.141 8.75364 243.614 11.2082C243.811 11.5355 243.548 11.699 243.385 11.4045C240.241 7.51024 233.037 5.41582 227.962 7.93572C223.443 10.1939 221.74 13.9249 222.101 18.0158C222.297 15.2995 223.575 12.6809 225.834 11.0773C227.799 9.70294 230.55 8.78708 233.66 9.44158C233.889 9.50719 233.791 9.73552 233.627 9.73552C230.614 9.57191 228.388 10.6524 226.979 12.256C224.818 14.6451 224.294 18.278 225.08 21.0597C224.392 15.7906 227.733 13.7615 230.647 13.4015C230.745 13.4017 230.778 13.4992 230.745 13.5646C228.748 14.2846 226.947 16.7392 227.602 19.1281C228.224 21.4842 230.385 22.4008 231.924 22.6301C230.876 24.3972 229.01 25.478 226.816 25.5763C223.051 25.74 219.383 22.1725 219.153 17.8527C218.924 13.5328 221.02 9.53968 224.589 7.15056C226.881 5.51424 229.73 4.72819 232.775 4.89177ZM375.938 24.299H378.1L377.02 21.256L375.938 24.299ZM389.921 22.6301C389.135 22.6301 388.742 23.1865 388.677 23.9064H391.067C391.035 23.2192 390.707 22.6301 389.921 22.6301ZM407.047 16.3146H405.672V15.5617H405.639C405.311 16.0852 404.787 16.4455 403.969 16.4455C402.299 16.4454 401.71 15.1363 401.71 13.631C401.71 12.1583 402.332 10.7834 404.002 10.7834C404.591 10.7834 405.083 10.9473 405.606 11.5363H405.639V8.72185H407.047V16.3146ZM339.592 10.7511C341.196 10.7513 342.44 11.8312 342.44 13.631C342.44 15.2017 341.392 16.4121 339.592 16.4123C337.791 16.4123 336.775 15.1691 336.775 13.631C336.743 11.831 337.987 10.7511 339.592 10.7511ZM349.775 10.7511C351.773 10.7513 352.362 12.1255 352.362 14.0236H348.597C348.662 14.9071 349.284 15.3984 350.135 15.3986C350.822 15.3986 351.413 15.1365 351.937 14.842V15.9875C351.413 16.282 350.822 16.4123 350.069 16.4123C348.269 16.4121 347.254 15.365 347.254 13.5978C347.254 12.0271 348.073 10.7511 349.775 10.7511ZM355.506 10.7511C357.143 10.7512 357.83 11.4386 357.83 13.0422V13.7287C357.83 14.2849 357.831 14.6779 357.863 15.0705C357.863 15.4958 357.896 15.8561 357.929 16.2814H356.685C356.619 15.9872 356.619 15.6278 356.619 15.464H356.586C356.258 16.0529 355.571 16.4123 354.916 16.4123C353.966 16.4122 353.017 15.8233 353.017 14.8088C353.017 13.9908 353.41 13.5325 353.934 13.2707C354.458 13.0089 355.178 12.9435 355.768 12.9435H356.554C356.554 12.06 356.16 11.7658 355.342 11.7658C354.752 11.7658 354.13 11.9947 353.672 12.3547L353.606 11.176C354.163 10.9142 354.884 10.7511 355.506 10.7511ZM364.38 8.81951C365.002 8.81952 365.592 8.9176 366.148 9.08122L365.984 10.2922C365.526 10.0958 365.001 9.96501 364.478 9.96501C363.986 9.96515 363.332 10.1944 363.332 10.9797C363.333 12.2555 366.541 11.7324 366.541 14.1867C366.541 15.7902 365.264 16.4123 363.79 16.4123C363.004 16.4122 362.251 16.2813 361.662 15.9543L361.858 14.6779C362.317 15.0704 363.135 15.2335 363.725 15.2336C364.281 15.2336 365.034 14.9389 365.034 14.2843C365.034 12.8776 361.826 13.4663 361.825 11.0451C361.825 9.40873 363.103 8.81951 364.38 8.81951ZM384.878 10.7834C385.533 10.7834 385.959 10.8815 386.417 10.9797L386.319 12.0265C385.894 11.8956 385.566 11.798 385.042 11.798C384.649 11.798 384.224 11.9287 384.224 12.3869C384.224 13.2376 386.68 12.7142 386.68 14.6447C386.68 15.921 385.566 16.4122 384.42 16.4123C383.896 16.4123 383.339 16.3137 382.815 16.1828L382.913 15.0373C383.372 15.2664 383.831 15.3976 384.289 15.3976C384.649 15.3976 385.206 15.2666 385.206 14.7433C385.206 13.6961 382.75 14.4158 382.75 12.4523C382.75 11.2742 383.765 10.7835 384.878 10.7834ZM392.77 10.7511C394.44 10.7511 395.095 11.4385 395.095 13.0422V13.7287C395.095 14.2849 395.095 14.6779 395.128 15.0705C395.128 15.4958 395.161 15.8561 395.193 16.2814H393.948C393.883 15.9872 393.883 15.6278 393.883 15.464H393.851C393.523 16.0529 392.803 16.4122 392.181 16.4123C391.231 16.4123 390.281 15.8233 390.281 14.8088C390.281 13.9908 390.674 13.5325 391.198 13.2707C391.722 13.0089 392.443 12.9435 393.032 12.9435H393.817C393.817 12.0601 393.425 11.7659 392.606 11.7658C392.017 11.7658 391.395 11.9947 390.937 12.3547L390.871 11.176C391.428 10.9143 392.148 10.7512 392.77 10.7511ZM346.107 10.7834C346.238 10.7834 346.598 10.8484 346.795 10.9465V12.2883C346.664 12.2229 346.369 12.1574 346.107 12.1574C344.962 12.1575 344.765 13.5975 344.765 14.383V16.3791H343.357V10.881H344.602V12.1252H344.634C344.699 11.6343 345.289 10.7835 346.107 10.7834ZM399.155 10.7834C400.432 10.7834 400.989 11.6994 400.989 12.9103V16.3468H399.581V13.467C399.581 12.8124 399.581 11.8957 398.664 11.8957C397.649 11.8957 397.42 13.0082 397.42 13.6955V16.3468H396.012V10.881H397.354V11.634H397.387C397.812 11.0121 398.435 10.7834 399.155 10.7834ZM332.256 12.1242L334.908 8.95037H336.742L333.697 12.4191L336.841 16.3136H334.941L332.289 12.8771H332.256V16.3136H330.783V8.95037H332.256V12.1242ZM371.846 14.5138H371.878L373.614 8.95037H375.972V16.3136H374.563V10.2267H374.53L372.566 16.3136H371.158L369.16 10.2267V16.3136H367.753V8.95037H370.11L371.846 14.5138ZM381.865 10.1281H378.984V11.9279H381.604V13.0734H378.984V15.1359H381.865V16.3136H377.511V8.95037H381.865V10.1281ZM355.898 13.7941C355.276 13.7941 354.327 13.8927 354.327 14.7433C354.36 15.2014 354.752 15.3985 355.243 15.3986C355.669 15.3986 355.996 15.2018 356.226 14.9074C356.455 14.6129 356.521 14.2196 356.521 13.7941H355.898ZM393.195 13.7941C392.573 13.7941 391.624 13.8928 391.624 14.7433C391.657 15.2015 392.05 15.3986 392.541 15.3986C392.967 15.3985 393.327 15.2019 393.523 14.9074C393.753 14.6129 393.817 14.2195 393.817 13.7941H393.195ZM339.592 11.8635C338.675 11.8635 338.249 12.6489 338.249 13.467C338.216 14.3506 338.511 15.3332 339.592 15.3332C340.672 15.3329 340.967 14.3505 340.967 13.467C340.967 12.649 340.508 11.8637 339.592 11.8635ZM404.329 11.8635C403.412 11.8635 403.15 12.8451 403.15 13.5978C403.15 14.3177 403.412 15.2996 404.296 15.3C405.18 15.3 405.541 14.3506 405.541 13.5978C405.541 12.8451 405.246 11.8635 404.329 11.8635ZM349.841 11.798C349.055 11.798 348.662 12.3545 348.597 13.0744H350.986C350.954 12.3873 350.626 11.7982 349.841 11.798Z" fill="#A2A2A2"/>
<path d="M437.841 11.8306L438.195 12.1841L432.407 17.9829L438.195 23.7827L437.841 24.1362L437.487 24.4888L431.701 18.6899L425.915 24.4888L425.562 24.1362L425.208 23.7827L430.995 17.9829L425.208 12.1841L425.915 11.4771L431.701 17.2749L437.487 11.4771L437.841 11.8306Z" fill="#A2A2A2"/>
<path d="M590.512 8.98291C591.885 8.98292 593.142 9.20807 594.286 9.68619C595.43 10.1643 596.43 10.7832 597.259 11.5988C598.088 12.4143 598.746 13.3421 599.203 14.4388C599.689 15.5357 599.918 16.6892 599.889 17.9267V17.9829C599.889 19.2204 599.661 20.3739 599.175 21.4708C598.689 22.5676 598.031 23.5237 597.202 24.3393C596.373 25.1549 595.372 25.8015 594.2 26.2796C593.028 26.7577 591.77 26.9829 590.398 26.9829C589.026 26.9829 587.768 26.7577 586.625 26.2796C585.481 25.8015 584.48 25.1826 583.651 24.367C582.822 23.5515 582.164 22.6237 581.707 21.527C581.249 20.4583 581.021 19.2766 581.021 18.0391V17.9829C581.021 16.7454 581.25 15.5919 581.736 14.495C582.222 13.3984 582.879 12.442 583.708 11.6265C584.537 10.8109 585.538 10.1643 586.71 9.68619C587.882 9.20806 589.14 8.98291 590.512 8.98291ZM499.4 23.2424H509.234V26.7018H495.512V9.29259H499.4V23.2424ZM516.81 26.7018H512.922V9.29259H516.81V26.7018ZM524.473 16.7459L531.648 9.29259H536.337L529.132 16.6611L536.651 26.7018H531.991L526.502 19.277L524.473 21.3583V26.7018H520.556V9.29259H524.473V16.7459ZM552.833 12.6957H542.969V16.296H551.688V19.6992H542.969V23.271H552.833V26.7018H539.11V9.29259H552.833V12.6957ZM577.905 26.7018H574.016V9.29259H577.905V26.7018ZM466.465 22.2018C466.486 22.1738 478.291 22.1741 478.358 22.1741V26.6741H464.635V15.6205L454.344 9.29259H466.465V22.2018ZM560.494 23.2424H570.329V26.6741H556.606V9.29259H560.494V23.2424ZM606.893 9.46128L615.156 20.149V9.29259H619.044V26.6741H615.442L615.156 26.3082L606.893 15.649V26.6741H603.006V9.29259H606.751L606.893 9.46128ZM590.398 12.4146C589.598 12.4146 588.854 12.5547 588.197 12.8359C587.539 13.1171 586.996 13.5113 586.51 14.0175C586.024 14.5238 585.652 15.0864 585.395 15.7614C585.138 16.4364 584.994 17.1397 584.994 17.899V17.9552C584.994 18.7145 585.138 19.4179 585.395 20.0928C585.681 20.7676 586.053 21.3582 586.538 21.8644C587.024 22.3706 587.596 22.7644 588.254 23.0737C588.911 23.3831 589.655 23.5236 590.455 23.5236C591.256 23.5236 591.999 23.3827 592.657 23.1014C593.314 22.8202 593.886 22.4268 594.372 21.9206C594.858 21.4144 595.229 20.8516 595.486 20.1767C595.744 19.5017 595.887 18.7985 595.887 18.0391V17.9829C595.887 17.2236 595.744 16.5204 595.486 15.8454C595.201 15.1705 594.829 14.5799 594.343 14.0737C593.857 13.5676 593.257 13.1456 592.6 12.8644C591.913 12.555 591.199 12.4146 590.398 12.4146ZM478.358 15.6205V9.29259H488.651L478.358 15.6205Z" fill="#A2A2A2"/>
<path d="M648.828 11.8306L649.183 12.1841L643.395 17.9829L649.183 23.7827L648.828 24.1362L648.475 24.4888L642.688 18.6899L636.902 24.4888L636.549 24.1362L636.195 23.7827L641.982 17.9829L636.195 12.1841L636.902 11.4771L642.688 17.2749L648.475 11.4771L648.828 11.8306Z" fill="#A2A2A2"/>
<path d="M723.364 8.52957C724.226 8.46959 725.452 8.46835 726.316 8.5206C728.591 8.6582 730.531 10.4234 730.873 12.6484C730.966 16.0861 730.885 19.5367 730.914 22.979C730.743 25.2646 728.772 27.2868 726.442 27.438C725.543 27.4964 724.158 27.4998 723.262 27.4365C720.936 27.272 718.976 25.2312 718.819 22.9481V13.0089C719.017 10.6401 720.958 8.69651 723.364 8.52924V8.52957ZM683.004 8.52957C683.865 8.46959 685.061 8.47207 685.925 8.51906C688.497 8.65913 690.517 10.7842 690.585 13.3175C690.467 16.403 690.737 19.5973 690.585 22.6705C690.464 25.1076 688.608 27.2788 686.081 27.4383C685.178 27.4952 683.801 27.5002 682.901 27.4368C680.567 27.2717 678.583 25.1836 678.459 22.8866V13.0708C678.633 10.6819 680.574 8.6984 683.004 8.52957ZM676.558 8.70549C676.552 9.90363 676.567 11.1033 676.56 12.3018C676.537 16.1028 676.508 19.9143 676.528 23.7196C676.192 27.8032 669.651 28.2367 666.961 26.5546C666.155 26.0503 665.183 24.8256 665.183 23.8417V18.8581H669.047V23.0393C669.047 23.12 669.199 23.4332 669.253 23.5149C669.84 24.4109 671.804 24.3791 672.325 23.415C672.367 23.3374 672.476 23.0502 672.476 22.9775V8.70549H676.558ZM700.381 8.74042C702.152 8.90523 703.741 10.3947 703.862 12.1759C703.916 12.9771 703.927 14.3122 703.856 15.105C703.769 16.0907 703.105 17.0344 702.268 17.5443C702.118 17.6361 701.924 17.6853 701.803 17.8086C703.1 18.0328 704.038 19.234 704.14 20.5095C704.198 21.2386 704.19 22.2997 704.173 23.0409C704.119 25.3895 702.418 27.0966 700.043 27.1603L692.484 27.1591V8.73641H692.484L700.381 8.74042ZM740.187 8.73487C742.39 8.90524 744.15 10.8232 744.283 12.9799C744.346 14.0061 744.344 15.4399 744.285 16.468C744.217 17.6488 743.717 18.829 742.589 19.35L742.569 19.4134C742.989 19.5337 743.269 19.914 743.388 20.3162L745.031 27.1597H741.073L739.546 20.2782L736.928 21.0806V27.1597H732.845V8.73641L740.187 8.73487ZM709.782 17.3151L714.504 8.73641H718.696L713.677 17.6673L718.82 27.1591H714.566L709.782 18.4261V27.1591H705.73V8.73641H709.782V17.3151ZM755.815 12.0383H750.143V16.1424H755.441V19.3209H750.143V23.8263H755.877V27.1591H746.06V8.73641H755.815V12.0383ZM766.491 8.76609L770.183 27.1285V27.1591L766.134 27.1557L765.416 22.8213L761.163 22.8062L760.318 27.1591H756.469L760.072 8.73454L766.491 8.76609ZM696.536 19.3209V24.1658H698.671C699.292 24.1658 699.959 23.5338 700.044 22.933C699.926 21.5632 700.639 19.0352 698.732 18.6722L696.536 19.3209ZM686.456 13.456C686.267 12.5009 685.334 11.77 684.344 11.8621H684.344C683.412 11.9487 682.669 12.6908 682.546 13.6004L682.541 22.3001C682.812 24.5891 685.994 24.7384 686.461 22.4757C686.524 19.4768 686.534 16.454 686.456 13.456ZM726.831 13.5955C726.711 12.5785 725.748 11.7641 724.705 11.8621H724.704C723.779 11.949 723.045 12.6663 722.907 13.5695L722.902 22.3307C723.204 24.6314 726.416 24.705 726.826 22.4185L726.831 13.5955ZM761.767 19.6604H764.884L763.341 11.6676L761.767 19.6604ZM736.928 18.1175C737.632 17.8423 738.429 17.6887 739.126 17.4085C739.848 17.1179 740.187 16.6225 740.233 15.8508C740.281 15.0296 740.289 13.8258 740.233 13.0089C740.183 12.2808 739.629 11.6061 738.845 11.6061H736.928V18.1175ZM696.536 16.4202C697.274 16.1457 698.11 15.9877 698.833 15.6854C699.267 15.5032 699.694 15.2169 699.801 14.7309C699.896 14.2989 699.883 12.5816 699.762 12.162C699.641 11.7424 699.103 11.2054 698.671 11.2054H696.536V16.4202Z" fill="#A2A2A2"/>
</svg>
