<svg width="31" height="28" viewBox="0 0 31 28" fill="none" xmlns="http://www.w3.org/2000/svg">
<path d="M10.5 10.5004L7.5 3.50036C6.7 2.70036 3 3.50032 2 10.5002L8 14.5002L10.5 10.5004Z" fill="#ED174C"/>
<path d="M25.9854 20.8849C25.7626 22.5787 24.9307 24.1335 23.6453 25.2588C22.3598 26.3841 20.7087 27.003 19.0003 27C9.07515 27 1.00001 18.9249 1.00001 8.99981C0.996949 7.29141 1.61588 5.64031 2.74121 4.35489C3.86653 3.06947 5.4213 2.23763 7.11512 2.01475C7.54344 1.96245 7.97719 2.05008 8.35162 2.26455C8.72605 2.47902 9.02107 2.80884 9.19265 3.20476L11.8327 9.09857V9.11357C11.9641 9.41664 12.0183 9.74752 11.9906 10.0767C11.9629 10.4058 11.8541 10.723 11.6739 10.9998C11.6514 11.0336 11.6277 11.0648 11.6027 11.0961L9.00015 14.1811C9.93641 16.0836 11.9264 18.0562 13.854 18.9949L16.8965 16.4061C16.9264 16.381 16.9577 16.3576 16.9903 16.3361C17.2669 16.1516 17.5852 16.039 17.9163 16.0085C18.2474 15.9779 18.5809 16.0304 18.8866 16.1611L18.9028 16.1686L24.7917 18.8074C25.1883 18.9784 25.5189 19.2731 25.7341 19.6476C25.9493 20.0221 26.0375 20.4562 25.9854 20.8849ZM24.0004 20.6349C24.0004 20.6349 23.9917 20.6349 23.9867 20.6349L18.1116 18.0037L15.0678 20.5924C15.0382 20.6174 15.0073 20.6408 14.9753 20.6624C14.6874 20.8544 14.3547 20.9685 14.0097 20.9935C13.6646 21.0185 13.3189 20.9535 13.0065 20.8049C10.6652 19.6737 8.33139 17.3574 7.19887 15.0411C7.0489 14.7309 6.98161 14.3873 7.00351 14.0434C7.02541 13.6996 7.13576 13.3673 7.32387 13.0786C7.34507 13.0447 7.3689 13.0125 7.39512 12.9824L10.0002 9.89357L7.37512 4.01852C7.37463 4.01353 7.37463 4.0085 7.37512 4.00352C6.16292 4.16164 5.04993 4.75623 4.24458 5.67593C3.43924 6.59562 2.99677 7.77736 3.00005 8.99981C3.00468 13.2419 4.6919 17.3089 7.69153 20.3085C10.6912 23.3081 14.7582 24.9953 19.0003 25C20.222 25.0042 21.4035 24.5632 22.3237 23.7597C23.2439 22.9561 23.84 21.8448 24.0004 20.6337V20.6349Z" fill="#0F172A"/>
<path d="M18.4469 0.5089C18.351 0.644417 18.2807 0.799083 18.2399 0.96406C18.1991 1.12912 18.1888 1.30127 18.2094 1.47067C18.2301 1.64007 18.2814 1.80339 18.3604 1.9513C18.4394 2.0992 18.5445 2.22878 18.6698 2.33263C18.7951 2.43647 18.938 2.51255 19.0904 2.5565C20.9065 3.06931 22.5634 4.09749 23.8905 5.53506C25.2175 6.97262 26.1666 8.76755 26.64 10.7348C26.7081 11.0116 26.8587 11.2563 27.0684 11.4309C27.2781 11.6054 27.5351 11.7 27.7996 11.7C27.9044 11.6998 28.0087 11.685 28.1101 11.6562C28.2624 11.612 28.4051 11.5358 28.5302 11.4319C28.6553 11.328 28.7603 11.1984 28.8391 11.0505C28.918 10.9026 28.9692 10.7394 28.9897 10.57C29.0103 10.4007 28.9999 10.2287 28.9591 10.0637C28.3786 7.65384 27.2157 5.45512 25.59 3.69402C23.9643 1.93292 21.9346 0.673113 19.7099 0.0443435C19.5577 0.000119366 19.3989 -0.0111695 19.2426 0.0111218C19.0863 0.0334132 18.9355 0.0888481 18.799 0.174259C18.6625 0.259669 18.5429 0.373382 18.4469 0.5089Z" fill="#ED174C"/>
<path d="M21.84 12.0348C21.288 9.79399 19.959 8.35429 17.8904 7.75632C17.5829 7.66732 17.3206 7.44964 17.1613 7.15115C17.0019 6.85266 16.9585 6.49782 17.0407 6.16468C17.1228 5.83155 17.3238 5.54742 17.5993 5.37478C17.8748 5.20215 18.2024 5.15516 18.5099 5.24415C21.384 6.07613 23.391 8.2503 24.159 11.3637C24.1998 11.5286 24.2102 11.7007 24.1897 11.87C24.1691 12.0393 24.1179 12.2026 24.0391 12.3505C23.9602 12.4984 23.8553 12.628 23.7302 12.7319C23.6051 12.8358 23.4623 12.912 23.31 12.9561C23.2086 12.985 23.1043 12.9997 22.9995 13C22.7351 13 22.478 12.9054 22.2683 12.7308C22.0587 12.5563 21.9081 12.3116 21.84 12.0348Z" fill="#ED174C"/>
</svg>
