<svg width="38" height="38" viewBox="0 0 38 38" fill="none" xmlns="http://www.w3.org/2000/svg">
<path d="M33.25 9.5H26.125V8.3125C26.125 7.36767 25.7497 6.46153 25.0816 5.79343C24.4135 5.12533 23.5073 4.75 22.5625 4.75H15.4375C14.4927 4.75 13.5865 5.12533 12.9184 5.79343C12.2503 6.46153 11.875 7.36767 11.875 8.3125V9.5H4.75C4.12011 9.5 3.51602 9.75022 3.07062 10.1956C2.62522 10.641 2.375 11.2451 2.375 11.875V28.5C2.375 29.1299 2.62522 29.734 3.07062 30.1794C3.51602 30.6248 4.12011 30.875 4.75 30.875H33.25C33.8799 30.875 34.484 30.6248 34.9294 30.1794C35.3748 29.734 35.625 29.1299 35.625 28.5V11.875C35.625 11.2451 35.3748 10.641 34.9294 10.1956C34.484 9.75022 33.8799 9.5 33.25 9.5ZM14.25 8.3125C14.25 7.99756 14.3751 7.69551 14.5978 7.47281C14.8205 7.25011 15.1226 7.125 15.4375 7.125H22.5625C22.8774 7.125 23.1795 7.25011 23.4022 7.47281C23.6249 7.69551 23.75 7.99756 23.75 8.3125V9.5H14.25V8.3125ZM33.25 11.875V16.625H28.5V15.4375C28.5 15.1226 28.3749 14.8205 28.1522 14.5978C27.9295 14.3751 27.6274 14.25 27.3125 14.25C26.9976 14.25 26.6955 14.3751 26.4728 14.5978C26.2501 14.8205 26.125 15.1226 26.125 15.4375V16.625H11.875V15.4375C11.875 15.1226 11.7499 14.8205 11.5272 14.5978C11.3045 14.3751 11.0024 14.25 10.6875 14.25C10.3726 14.25 10.0705 14.3751 9.84781 14.5978C9.62511 14.8205 9.5 15.1226 9.5 15.4375V16.625H4.75V11.875H33.25ZM33.25 28.5H4.75V19H9.5V20.1875C9.5 20.5024 9.62511 20.8045 9.84781 21.0272C10.0705 21.2499 10.3726 21.375 10.6875 21.375C11.0024 21.375 11.3045 21.2499 11.5272 21.0272C11.7499 20.8045 11.875 20.5024 11.875 20.1875V19H26.125V20.1875C26.125 20.5024 26.2501 20.8045 26.4728 21.0272C26.6955 21.2499 26.9976 21.375 27.3125 21.375C27.6274 21.375 27.9295 21.2499 28.1522 21.0272C28.3749 20.8045 28.5 20.5024 28.5 20.1875V19H33.25V28.5Z" fill="#0F172A"/>
</svg>
