<svg width="38" height="38" viewBox="0 0 38 38" fill="none" xmlns="http://www.w3.org/2000/svg">
<path fill-rule="evenodd" clip-rule="evenodd" d="M14.2502 5.9375C11.4082 5.9375 9.10433 8.24137 9.10433 11.0833C9.10433 13.9253 11.4082 16.2292 14.2502 16.2292C17.0921 16.2292 19.396 13.9253 19.396 11.0833C19.396 8.24137 17.0921 5.9375 14.2502 5.9375ZM6.72933 11.0833C6.72933 6.92969 10.0965 3.5625 14.2502 3.5625C18.4038 3.5625 21.771 6.92969 21.771 11.0833C21.771 15.237 18.4038 18.6042 14.2502 18.6042C10.0965 18.6042 6.72933 15.237 6.72933 11.0833ZM24.1831 4.66129C24.3458 4.02594 24.9927 3.64277 25.628 3.80544C27.2458 4.21965 28.6797 5.16051 29.7037 6.47968C30.7276 7.79885 31.2834 9.4213 31.2834 11.0913C31.2834 12.7612 30.7276 14.3836 29.7037 15.7028C28.6797 17.022 27.2458 17.9628 25.628 18.3771C24.9927 18.5397 24.3458 18.1566 24.1831 17.5212C24.0204 16.8859 24.4036 16.239 25.0389 16.0763C26.1458 15.7929 27.1269 15.1491 27.8275 14.2465C28.5281 13.3439 28.9084 12.2338 28.9084 11.0913C28.9084 9.94866 28.5281 8.83856 27.8275 7.93597C27.1269 7.03338 26.1458 6.38963 25.0389 6.10622C24.4036 5.94355 24.0204 5.29663 24.1831 4.66129ZM2.5988 24.7653C4.00923 23.3549 5.92218 22.5625 7.91683 22.5625H20.5835C22.5781 22.5625 24.4911 23.3549 25.9015 24.7653C27.312 26.1757 28.1043 28.0887 28.1043 30.0833V33.25C28.1043 33.9058 27.5727 34.4375 26.9168 34.4375C26.261 34.4375 25.7293 33.9058 25.7293 33.25V30.0833C25.7293 28.7186 25.1872 27.4097 24.2222 26.4447C23.2571 25.4796 21.9483 24.9375 20.5835 24.9375H7.91683C6.55207 24.9375 5.24321 25.4796 4.27818 26.4447C3.31314 27.4097 2.771 28.7186 2.771 30.0833V33.25C2.771 33.9058 2.23933 34.4375 1.5835 34.4375C0.927658 34.4375 0.395996 33.9058 0.395996 33.25V30.0833C0.395996 28.0887 1.18837 26.1757 2.5988 24.7653ZM30.517 23.659C30.681 23.0239 31.3287 22.6421 31.9637 22.806C33.5772 23.2226 35.0066 24.1633 36.0275 25.4803C37.0485 26.7973 37.6031 28.4161 37.6043 30.0824V33.25C37.6043 33.9058 37.0727 34.4375 36.4168 34.4375C35.761 34.4375 35.2293 33.9058 35.2293 33.25V30.0842C35.2285 28.9441 34.849 27.8365 34.1505 26.9354C33.4519 26.0343 32.4739 25.3907 31.37 25.1056C30.7349 24.9417 30.3531 24.294 30.517 23.659Z" fill="#0F172A"/>
</svg>
