<svg width="38" height="38" viewBox="0 0 38 38" fill="none" xmlns="http://www.w3.org/2000/svg">
<path d="M4.0375 18.7626C4.16226 18.8561 4.30422 18.9242 4.45529 18.9629C4.60635 19.0016 4.76356 19.0102 4.91794 18.9881C5.07232 18.9661 5.22084 18.9138 5.35502 18.8344C5.48921 18.7549 5.60643 18.6498 5.7 18.5251C6.41898 17.5664 7.35128 16.7884 8.42307 16.2525C9.49486 15.7166 10.6767 15.4376 11.875 15.4376C13.0733 15.4376 14.2551 15.7166 15.3269 16.2525C16.3987 16.7884 17.331 17.5664 18.05 18.5251C18.2392 18.7768 18.5206 18.9431 18.8324 18.9873C19.1441 19.0316 19.4607 18.9502 19.7125 18.7611C19.8023 18.6943 19.8818 18.6148 19.9485 18.5251C20.6675 17.5664 21.5998 16.7884 22.6716 16.2525C23.7434 15.7166 24.9252 15.4376 26.1235 15.4376C27.3218 15.4376 28.5037 15.7166 29.5754 16.2525C30.6472 16.7884 31.5795 17.5664 32.2985 18.5251C32.4877 18.777 32.7692 18.9435 33.0811 18.9879C33.393 19.0323 33.7098 18.951 33.9618 18.7618C34.2137 18.5727 34.3802 18.2912 34.4246 17.9792C34.469 17.6673 34.3877 17.3505 34.1985 17.0986C33.1474 15.6894 31.7457 14.5799 30.1328 13.8805C31.017 13.0732 31.6365 12.0174 31.91 10.8517C32.1835 9.68608 32.0981 8.46496 31.6652 7.34866C31.2323 6.23235 30.4719 5.27302 29.484 4.59655C28.4961 3.92009 27.3268 3.55811 26.1294 3.55811C24.9321 3.55811 23.7628 3.92009 22.7749 4.59655C21.787 5.27302 21.0266 6.23235 20.5937 7.34866C20.1608 8.46496 20.0754 9.68608 20.3489 10.8517C20.6224 12.0174 21.2419 13.0732 22.1261 13.8805C20.9615 14.384 19.9036 15.1049 19.0089 16.0046C18.1142 15.1049 17.0563 14.384 15.8917 13.8805C16.7759 13.0732 17.3954 12.0174 17.6689 10.8517C17.9424 9.68608 17.857 8.46496 17.4241 7.34866C16.9912 6.23235 16.2308 5.27302 15.2429 4.59655C14.255 3.92009 13.0857 3.55811 11.8884 3.55811C10.691 3.55811 9.52169 3.92009 8.53378 4.59655C7.54587 5.27302 6.78555 6.23235 6.35261 7.34866C5.91967 8.46496 5.83434 9.68608 6.10781 10.8517C6.38128 12.0174 7.00078 13.0732 7.885 13.8805C6.26503 14.5777 4.85643 15.6879 3.8 17.1001C3.70643 17.2248 3.63835 17.3668 3.59965 17.5179C3.56095 17.6689 3.55238 17.8261 3.57444 17.9805C3.59649 18.1349 3.64873 18.2834 3.72819 18.4176C3.80764 18.5518 3.91274 18.669 4.0375 18.7626ZM26.125 5.93758C26.8296 5.93758 27.5184 6.14651 28.1042 6.53797C28.6901 6.92942 29.1467 7.48581 29.4163 8.13677C29.686 8.78773 29.7565 9.50403 29.619 10.1951C29.4816 10.8861 29.1423 11.5209 28.6441 12.0191C28.1458 12.5174 27.5111 12.8567 26.82 12.9941C26.129 13.1316 25.4126 13.061 24.7617 12.7914C24.1107 12.5218 23.5543 12.0651 23.1629 11.4793C22.7714 10.8934 22.5625 10.2047 22.5625 9.50008C22.5625 8.55524 22.9378 7.64911 23.6059 6.98101C24.274 6.31291 25.1802 5.93758 26.125 5.93758ZM11.875 5.93758C12.5796 5.93758 13.2684 6.14651 13.8542 6.53797C14.4401 6.92942 14.8967 7.48581 15.1663 8.13677C15.436 8.78773 15.5065 9.50403 15.369 10.1951C15.2316 10.8861 14.8923 11.5209 14.3941 12.0191C13.8958 12.5174 13.2611 12.8567 12.57 12.9941C11.879 13.1316 11.1627 13.061 10.5117 12.7914C9.86073 12.5218 9.30434 12.0651 8.91289 11.4793C8.52144 10.8934 8.3125 10.2047 8.3125 9.50008C8.3125 8.55524 8.68783 7.64911 9.35593 6.98101C10.024 6.31291 10.9302 5.93758 11.875 5.93758ZM30.1328 29.318C31.017 28.5107 31.6365 27.4549 31.91 26.2892C32.1835 25.1236 32.0981 23.9025 31.6652 22.7862C31.2323 21.6698 30.4719 20.7105 29.484 20.0341C28.4961 19.3576 27.3268 18.9956 26.1294 18.9956C24.9321 18.9956 23.7628 19.3576 22.7749 20.0341C21.787 20.7105 21.0266 21.6698 20.5937 22.7862C20.1608 23.9025 20.0754 25.1236 20.3489 26.2892C20.6224 27.4549 21.2419 28.5107 22.1261 29.318C20.9615 29.8215 19.9036 30.5424 19.0089 31.4421C18.1142 30.5424 17.0563 29.8215 15.8917 29.318C16.7759 28.5107 17.3954 27.4549 17.6689 26.2892C17.9424 25.1236 17.857 23.9025 17.4241 22.7862C16.9912 21.6698 16.2308 20.7105 15.2429 20.0341C14.255 19.3576 13.0857 18.9956 11.8884 18.9956C10.691 18.9956 9.52169 19.3576 8.53378 20.0341C7.54587 20.7105 6.78555 21.6698 6.35261 22.7862C5.91967 23.9025 5.83434 25.1236 6.10781 26.2892C6.38128 27.4549 7.00078 28.5107 7.885 29.318C6.26503 30.0152 4.85643 31.1254 3.8 32.5376C3.70643 32.6623 3.63835 32.8043 3.59965 32.9554C3.56095 33.1064 3.55238 33.2636 3.57444 33.418C3.59649 33.5724 3.64873 33.7209 3.72819 33.8551C3.80764 33.9893 3.91274 34.1065 4.0375 34.2001C4.16226 34.2936 4.30422 34.3617 4.45529 34.4004C4.60635 34.4391 4.76356 34.4477 4.91794 34.4256C5.07232 34.4036 5.22084 34.3513 5.35502 34.2719C5.48921 34.1924 5.60643 34.0873 5.7 33.9626C6.41898 33.0039 7.35128 32.2259 8.42307 31.69C9.49486 31.1541 10.6767 30.8751 11.875 30.8751C13.0733 30.8751 14.2551 31.1541 15.3269 31.69C16.3987 32.2259 17.331 33.0039 18.05 33.9626C18.2392 34.2143 18.5206 34.3806 18.8324 34.4248C19.1441 34.4691 19.4607 34.3877 19.7125 34.1986C19.8023 34.1318 19.8818 34.0523 19.9485 33.9626C20.6675 33.0039 21.5998 32.2259 22.6716 31.69C23.7434 31.1541 24.9252 30.8751 26.1235 30.8751C27.3218 30.8751 28.5037 31.1541 29.5754 31.69C30.6472 32.2259 31.5795 33.0039 32.2985 33.9626C32.4877 34.2145 32.7692 34.381 33.0811 34.4254C33.393 34.4698 33.7098 34.3885 33.9618 34.1993C34.2137 34.0102 34.3802 33.7287 34.4246 33.4167C34.469 33.1048 34.3877 32.788 34.1985 32.5361C33.1474 31.1269 31.7457 30.0174 30.1328 29.318ZM11.875 21.3751C12.5796 21.3751 13.2684 21.584 13.8542 21.9755C14.4401 22.3669 14.8967 22.9233 15.1663 23.5743C15.436 24.2252 15.5065 24.9415 15.369 25.6326C15.2316 26.3236 14.8923 26.9584 14.3941 27.4566C13.8958 27.9549 13.2611 28.2942 12.57 28.4316C11.879 28.5691 11.1627 28.4985 10.5117 28.2289C9.86073 27.9593 9.30434 27.5026 8.91289 26.9168C8.52144 26.3309 8.3125 25.6422 8.3125 24.9376C8.3125 23.9927 8.68783 23.0866 9.35593 22.4185C10.024 21.7504 10.9302 21.3751 11.875 21.3751ZM26.125 21.3751C26.8296 21.3751 27.5184 21.584 28.1042 21.9755C28.6901 22.3669 29.1467 22.9233 29.4163 23.5743C29.686 24.2252 29.7565 24.9415 29.619 25.6326C29.4816 26.3236 29.1423 26.9584 28.6441 27.4566C28.1458 27.9549 27.5111 28.2942 26.82 28.4316C26.129 28.5691 25.4126 28.4985 24.7617 28.2289C24.1107 27.9593 23.5543 27.5026 23.1629 26.9168C22.7714 26.3309 22.5625 25.6422 22.5625 24.9376C22.5625 23.9927 22.9378 23.0866 23.6059 22.4185C24.274 21.7504 25.1802 21.3751 26.125 21.3751Z" fill="#0F172A"/>
</svg>
