<svg width="38" height="38" viewBox="0 0 38 38" fill="none" xmlns="http://www.w3.org/2000/svg">
<path d="M36.3375 22.3249C36.2127 22.4185 36.0707 22.4866 35.9197 22.5253C35.7686 22.564 35.6114 22.5726 35.457 22.5505C35.3026 22.5285 35.1541 22.4762 35.0199 22.3968C34.8858 22.3173 34.7685 22.2122 34.675 22.0874C33.9592 21.1254 33.0276 20.3448 31.9551 19.8085C30.8825 19.2722 29.6991 18.9953 28.5 18.9999C28.2664 18.9999 28.0381 18.931 27.8435 18.8019C27.649 18.6728 27.4968 18.4892 27.406 18.2741C27.3443 18.128 27.3126 17.971 27.3126 17.8124C27.3126 17.6539 27.3443 17.4969 27.406 17.3508C27.4968 17.1356 27.649 16.952 27.8435 16.8229C28.0381 16.6938 28.2664 16.625 28.5 16.6249C29.1663 16.6249 29.8192 16.438 30.3846 16.0854C30.95 15.7329 31.4052 15.2289 31.6984 14.6306C31.9917 14.0323 32.1114 13.3638 32.0438 12.7009C31.9762 12.0381 31.724 11.4075 31.316 10.8807C30.9079 10.354 30.3603 9.95226 29.7354 9.72114C29.1105 9.49001 28.4333 9.43877 27.7807 9.57324C27.1281 9.70771 26.5263 10.0225 26.0437 10.4818C25.561 10.9412 25.2168 11.5267 25.0503 12.1718C25.0113 12.3229 24.9429 12.4648 24.8491 12.5895C24.7553 12.7141 24.6378 12.8191 24.5034 12.8983C24.369 12.9776 24.2203 13.0296 24.0658 13.0514C23.9114 13.0732 23.7541 13.0643 23.603 13.0253C23.4519 12.9863 23.31 12.918 23.1854 12.8242C23.0607 12.7303 22.9558 12.6129 22.8765 12.4785C22.7973 12.3441 22.7452 12.1954 22.7235 12.0409C22.7017 11.8864 22.7105 11.7291 22.7495 11.5781C22.9807 10.6835 23.4175 9.85515 24.0252 9.15905C24.6328 8.46296 25.3945 7.9183 26.2497 7.5684C27.1049 7.2185 28.03 7.07302 28.9513 7.14354C29.8726 7.21406 30.7647 7.49863 31.5567 7.97461C32.3487 8.45059 33.0186 9.10485 33.5133 9.88531C34.0079 10.6658 34.3135 11.5509 34.4059 12.4703C34.4982 13.3897 34.3747 14.3179 34.0452 15.1812C33.7157 16.0444 33.1893 16.8188 32.5078 17.4428C34.1225 18.142 35.5262 19.2514 36.5794 20.661C36.673 20.786 36.7409 20.9283 36.7794 21.0797C36.8179 21.2311 36.8261 21.3886 36.8037 21.5431C36.7812 21.6977 36.7284 21.8463 36.6484 21.9805C36.5684 22.1146 36.4628 22.2317 36.3375 22.3249ZM28.3396 31.4687C28.4256 31.6038 28.4833 31.755 28.5093 31.913C28.5352 32.0711 28.529 32.2327 28.4909 32.3883C28.4528 32.5438 28.3836 32.6901 28.2875 32.8182C28.1915 32.9463 28.0704 33.0537 27.9318 33.1339C27.7931 33.214 27.6397 33.2653 27.4807 33.2846C27.3217 33.3039 27.1605 33.2908 27.0066 33.2462C26.8528 33.2016 26.7096 33.1263 26.5857 33.0249C26.4617 32.9235 26.3595 32.7981 26.2853 32.6562C25.5372 31.3895 24.4718 30.3398 23.1943 29.6105C21.9167 28.8813 20.471 28.4978 19 28.4978C17.5289 28.4978 16.0833 28.8813 14.8057 29.6105C13.5281 30.3398 12.4627 31.3895 11.7146 32.6562C11.6404 32.7981 11.5382 32.9235 11.4143 33.0249C11.2903 33.1263 11.1471 33.2016 10.9933 33.2462C10.8395 33.2908 10.6782 33.3039 10.5192 33.2846C10.3602 33.2653 10.2068 33.214 10.0681 33.1339C9.92949 33.0537 9.80847 32.9463 9.71239 32.8182C9.6163 32.6901 9.54712 32.5438 9.50902 32.3883C9.47092 32.2327 9.46467 32.0711 9.49067 31.913C9.51666 31.755 9.57435 31.6038 9.66027 31.4687C10.8116 29.4906 12.567 27.9339 14.6686 27.0274C13.486 26.122 12.6169 24.8688 12.1834 23.4439C11.7499 22.019 11.7739 20.4941 12.2519 19.0835C12.7299 17.6729 13.6379 16.4476 14.8483 15.5798C16.0587 14.7119 17.5106 14.2452 19 14.2452C20.4893 14.2452 21.9413 14.7119 23.1517 15.5798C24.3621 16.4476 25.2701 17.6729 25.7481 19.0835C26.226 20.4941 26.25 22.019 25.8165 23.4439C25.383 24.8688 24.5139 26.122 23.3314 27.0274C25.433 27.9339 27.1884 29.4906 28.3396 31.4687ZM19 26.1249C19.9394 26.1249 20.8578 25.8464 21.6389 25.3244C22.4201 24.8025 23.0289 24.0606 23.3884 23.1927C23.7479 22.3247 23.842 21.3697 23.6587 20.4483C23.4754 19.5268 23.023 18.6805 22.3587 18.0162C21.6944 17.3519 20.8481 16.8995 19.9266 16.7162C19.0052 16.5329 18.0502 16.627 17.1822 16.9865C16.3143 17.346 15.5724 17.9548 15.0505 18.736C14.5285 19.5171 14.25 20.4355 14.25 21.3749C14.25 22.6347 14.7504 23.8429 15.6412 24.7337C16.532 25.6245 17.7402 26.1249 19 26.1249ZM10.6875 17.8124C10.6875 17.4975 10.5624 17.1954 10.3397 16.9727C10.117 16.7501 9.81491 16.6249 9.49996 16.6249C8.83367 16.6249 8.18074 16.438 7.61535 16.0854C7.04996 15.7329 6.59477 15.2289 6.30148 14.6306C6.00819 14.0323 5.88855 13.3638 5.95616 12.7009C6.02377 12.0381 6.27592 11.4075 6.68397 10.8807C7.09201 10.354 7.63959 9.95226 8.26452 9.72114C8.88944 9.49001 9.56666 9.43877 10.2192 9.57324C10.8718 9.70771 11.4736 10.0225 11.9563 10.4818C12.4389 10.9412 12.7831 11.5267 12.9496 12.1718C13.0284 12.4769 13.2251 12.7382 13.4965 12.8983C13.7679 13.0584 14.0918 13.1041 14.3969 13.0253C14.702 12.9466 14.9633 12.7499 15.1234 12.4785C15.2835 12.2071 15.3292 11.8832 15.2504 11.5781C15.0192 10.6835 14.5824 9.85515 13.9748 9.15905C13.3671 8.46296 12.6054 7.9183 11.7502 7.5684C10.895 7.2185 9.96996 7.07302 9.04865 7.14354C8.12734 7.21406 7.2352 7.49863 6.44323 7.97461C5.65125 8.45059 4.98129 9.10485 4.48666 9.88531C3.99203 10.6658 3.68638 11.5509 3.59403 12.4703C3.50168 13.3897 3.62518 14.3179 3.9547 15.1812C4.28422 16.0444 4.81066 16.8188 5.49215 17.4428C3.87905 18.1426 2.47696 19.252 1.42496 20.661C1.2358 20.9129 1.15447 21.2297 1.19887 21.5416C1.24327 21.8535 1.40976 22.135 1.66172 22.3242C1.91368 22.5134 2.23046 22.5947 2.54238 22.5503C2.85429 22.5059 3.1358 22.3394 3.32496 22.0874C4.04071 21.1254 4.97234 20.3448 6.04487 19.8085C7.1174 19.2722 8.30085 18.9953 9.49996 18.9999C9.81491 18.9999 10.117 18.8748 10.3397 18.6521C10.5624 18.4294 10.6875 18.1274 10.6875 17.8124Z" fill="#0F172A"/>
</svg>
