<?xml version="1.0" encoding="UTF-8"?>
<svg id="Layer_1" data-name="Layer 1" xmlns="http://www.w3.org/2000/svg" viewBox="0 0 1926.57 526.55">
  <defs>
    <style>
      .cls-1 {
        fill: #39418a;
      }

      .cls-1, .cls-2, .cls-3, .cls-4, .cls-5, .cls-6, .cls-7, .cls-8, .cls-9 {
        stroke-width: 0px;
      }

      .cls-2 {
        fill: #211f20;
      }

      .cls-3 {
        fill: #201e1f;
      }

      .cls-4 {
        fill: #1f1e1e;
      }

      .cls-5 {
        fill: #1f1d1e;
      }

      .cls-6 {
        fill: #fff;
      }

      .cls-7 {
        fill: #fe0000;
      }

      .cls-8 {
        fill: #ec3436;
      }

      .cls-9 {
        fill: #ec3237;
      }
    </style>
  </defs>
  <g>
    <path class="cls-6" d="m1083.84,277.64c3.71.32,7.48.81,10.89,2.44,4.08,8.37,4.61,18.66.86,27.22-1.93,4.65-7.51,5.13-11.83,5.51-.08-11.73-.21-23.46.08-35.18Z"/>
    <path class="cls-6" d="m1273.97,277.59c3.6.22,7.24.8,10.47,2.53.27,3.08,1.45,6.55-.43,9.37-1.96,3.6-6.57,3.2-10.03,3.98-.06-5.31-.05-10.6-.02-15.89Z"/>
    <path class="cls-6" d="m1356.98,279.39c1.47,7.32,3.25,14.58,4.45,21.95-3.19.06-6.39.1-9.56.1,1.1-7.48,2.98-14.81,5.12-22.04Z"/>
    <path class="cls-6" d="m1227.53,351.42c3.81-.11,7.55.67,10.84,2.68.27,3.52,1.48,7.92-1.63,10.58-2.33,2.47-6.02,2.14-9.07,2.84-.4-5.36-.32-10.74-.14-16.1Z"/>
    <path class="cls-6" d="m1456.9,351.48c3.6.29,7.54,2.01,8.27,5.95,2.02,8.16,2.14,17.2-.84,25.15-1.66,3.78-5.87,3.46-9.29,3.32-5.48-7.75-4.8-17.92-3.38-26.81.33-3.3,3.16-5.36,5.24-7.6Z"/>
    <path class="cls-6" d="m1053.51,431.7c.91-4.21,5.61-8.48,9.87-5.5,4.75,4.43,4.48,11.6,4.51,17.6-.32,4.88-.49,10.63-4.24,14.25-2.52,2.06-5.64.48-8.27-.37-3.78-8.05-3.86-17.45-1.86-25.98Z"/>
  </g>
  <g>
    <path class="cls-7" d="m639.2,51.12c11.43-17.69,23.7-34.87,37.12-51.12,31.62,39.48,60.57,82.58,75.29,131.43,6.17,20.67,8.51,42.56,5.55,63.98-3.03,17.84-11.25,34.79-24.15,47.58,3.9-14.5,4.18-30.43-2.36-44.21-8.06-18.43-26.14-31.96-46.08-34.54-25.04-3.98-51.43,10.3-62.02,33.28-7.03,14.03-7.08,30.59-2.84,45.44-20.35-19.46-27.88-49-25.28-76.43,3.62-41.81,22.7-80.39,44.76-115.41Z"/>
    <path class="cls-7" d="m469.31,122.43c12.64,12.67,25.69,24.91,39.42,36.42,26.82,22.6,55.61,42.91,80.98,67.21,14.01,13.4,26.63,28.32,37.14,44.64-15.73.24-31.46-.14-47.19.19-.29,48.36-.02,96.73-.13,145.09-41.98-28.05-77.86-66.69-97.86-113.44-24.55-56.49-24.91-120.64-12.35-180.12Z"/>
    <path class="cls-7" d="m338.61,322.31c24.82-10.76,53.17-14.97,79.57-7.84,18.74,4.59,35.8,14.31,51.27,25.61,33.55,25.09,59.61,58.24,89.3,87.46,13.17,13.01,27.3,25.55,44.12,33.61,9.69,4.7,20.39,6.47,30.89,8.35,20.78,3.38,42.14,2.73,62.81-1.26,13.42-2.22,26.81-5.4,40.5-5.24,11.59-.05,23.06,2.47,34,6.18-17.56,3.59-34.95,8.61-51.08,16.56-19.3,9.09-36.74,21.84-56.76,29.41-24.61,9.77-51.45,11.91-77.7,11.3-35.83-.38-70.77-14.33-98.33-36.99-40.17-32.75-66.78-77.99-98.72-118.06-14.55-18.28-30.55-35.72-49.87-49.09Z"/>
  </g>
  <path class="cls-8" d="m669.13,172.66c4.83-.19,9.66-.16,14.47.29l1.53,7.75c1.23.3,3.7.91,4.94,1.21,1.74-1.96,3.49-3.9,5.24-5.87,4.4,2.12,8.65,4.53,12.59,7.41-1.08,2.5-2.15,5-3.22,7.51,3.27,3.57,7.79,2.33,11.91,1.31,2.6,3.84,4.83,7.91,6.97,12-1.96,1.64-3.92,3.3-5.9,4.96.48,1.85.94,3.71,1.43,5.56,2.45.33,4.93.65,7.4.99.72,4.93.7,9.93.11,14.89-2.68.38-5.36.75-8.02,1.13-1.55,4.7,1.4,8.08,5,10.68-2.28,4.11-4.62,8.18-7.22,12.1-2.37-.77-4.75-1.51-7.11-2.25l-5.55,3c.84-2.6,2.22-4.96,3.44-7.38,2.66.86,5.34,1.72,8,2.6,1.34-2.53,2.61-5.08,3.84-7.65-1.72-1.59-3.44-3.17-5.16-4.73.61-2.93,1.23-5.87,1.85-8.78,2.65-.7,5.31-1.4,7.97-2.07,0-2.79-.02-5.59-.05-8.38-2.6-.56-5.2-1.1-7.79-1.63-.7-3.04-1.39-6.09-2.04-9.13,1.9-1.63,3.79-3.25,5.69-4.86-1.39-2.33-2.77-4.62-4.19-6.9-2.41.54-4.8,1.18-7.24,1.55-2.52-1.74-4.64-3.98-6.95-5.96.86-2.52,1.72-5.04,2.55-7.55-2.45-1.42-4.93-2.81-7.43-4.14-1.8,1.83-3.6,3.68-5.39,5.53-2.93-.81-5.85-1.58-8.78-2.33-.48-2.44-.97-4.88-1.45-7.32-2.79-.02-5.58-.02-8.37-.02-.59,2.42-1.16,4.86-1.72,7.3-2.98.8-5.98,1.59-8.94,2.45-1.59-1.86-3.17-3.75-4.75-5.61-2.57,1.21-5.1,2.47-7.62,3.76.65,2.61,1.32,5.21,2.02,7.81-2.09,2.1-4.16,4.24-6.18,6.39-2.5-.7-5-1.4-7.51-2.09-1.48,2.3-2.95,4.61-4.38,6.92,1.96,1.86,3.9,3.71,5.88,5.55-.8,2.76-1.58,5.5-2.31,8.27-2.44.8-4.97,1.31-7.28,2.42-.45,2.61-.49,5.26-.67,7.89,2.63.67,5.24,1.34,7.87,2.01.77,2.88,1.56,5.75,2.33,8.65-1.93,1.75-3.86,3.51-5.79,5.28,1.48,2.47,3,4.91,4.56,7.35,2.41-.83,4.81-1.66,7.24-2.49,1.64,2.04,3.32,4.08,5,6.12-2.55-.3-4.97-1.1-7.48-1.56-2.06.72-4.13,1.37-6.18,2.01-2.74-4.02-5.16-8.22-7.36-12.54,1.94-1.51,3.9-3.01,5.87-4.53-.3-1.88-.62-3.75-.94-5.61-2.68-.45-5.36-.86-8.02-1.31-.27-4.78-.22-9.56.05-14.33,4.42-.46,8.58-1.72,9.66-6.55-2.15-1.77-4.3-3.57-6.44-5.34,2.06-4.3,4.42-8.45,7.01-12.45,2.5.75,5,1.5,7.52,2.25,1.32-1.2,2.66-2.39,3.98-3.59-.97-2.39-1.96-4.77-2.92-7.16,4.05-2.84,8.34-5.31,12.77-7.51,1.59,1.99,3.19,3.98,4.78,6.01,1.8-.46,3.6-.91,5.4-1.35.48-2.65.96-5.28,1.45-7.92Z"/>
  <g>
    <path class="cls-9" d="m646.35,227.21c-2.52-15.7,9.61-31.81,25.36-33.85,12.24-2.06,25.15,4.42,31.06,15.25,5.96,10.49,4.72,24.56-3.14,33.74-1.12,1.79-3.46,1.58-5.16,2.34,2.85-5.08,6.65-9.79,7.94-15.59,3.71-14.06-6.61-29.93-21.02-32.1-13.29-2.96-27.59,5.98-30.98,19.08-1.29,6.25-1.35,13.25,2.01,18.9,1.8,3.65,5.18,6.87,4.48,11.32-5.53-4.96-9.71-11.6-10.54-19.09Z"/>
    <path class="cls-9" d="m672.25,207.11c11.92-3.75,24.47,9.37,19.88,21.12-3.12,11.2-18.87,15.64-27.1,7.12-9.79-8.1-5.16-25.76,7.22-28.24Z"/>
  </g>
  <g>
    <path class="cls-1" d="m644.74,271.52c21.09.16,42.19-.46,63.26.38.29,41.89.02,83.79.14,125.69.08,8.08-1.91,16.42-7.19,22.74-9.61,12.78-29.53,15.6-42.49,6.36-9.5-6.33-14.55-17.98-13.98-29.23.19-41.98-.3-83.97.26-125.95Z"/>
    <path class="cls-1" d="m773.21,271.52c21.07,0,42.16-.02,63.23,0,.13,22.28,0,44.58.1,66.88,21.63.1,43.26.18,64.89-.02.24-22.14-.41-44.29.32-66.42,20.99-.92,42.08-.43,63.1-.21.41,48.82.06,97.66.18,146.48-.13,16.9.27,33.81-.22,50.7-21.07.22-42.14.26-63.21-.02-.33-22.31-.05-44.64-.14-66.96-21.63.3-43.24.11-64.85.1-.19,22.27-.02,44.55-.11,66.83-21.09.43-42.17.05-63.26.19,0-65.86-.02-131.7,0-197.56Z"/>
  </g>
  <g>
    <path class="cls-2" d="m988.92,271.44c3.92-.02,7.84-.02,11.78-.02-.02,15.84.1,31.67-.06,47.51-3.9,0-7.81-.03-11.7-.08-.05-15.81-.02-31.61-.02-47.42Z"/>
    <path class="cls-2" d="m1390.05,271.44c3.79-.02,7.6,0,11.41,0,.05,13.31,0,26.62.05,39.93,5.37.22,10.76.22,16.16.21-.06,2.47-.11,4.96-.16,7.46-9.13.13-18.28.14-27.4-.02-.11-15.86-.05-31.72-.06-47.58Z"/>
  </g>
  <g>
    <path class="cls-3" d="m1018.33,271.44c3.51,0,7.04-.02,10.58-.03,5.58,10.84,11.2,21.63,16.64,32.53-.24-10.82-1.04-21.64-.72-32.48,3.35-.02,6.71-.03,10.07-.03.06,15.83.06,31.67-.02,47.51-3.51-.03-7.01-.05-10.5-.02-5.75-10.58-11.44-21.2-16.32-32.21-.46,10.73.78,21.42.29,32.15-3.33.06-6.66.1-9.98.11-.14-15.84-.1-31.69-.05-47.53Z"/>
    <path class="cls-3" d="m1072.6,271.87c9.31-.62,19.43-1.94,27.99,2.69,6.84,3.79,9.34,12.07,9.32,19.43.05,7.81-2.12,16.66-9.16,21.09-8.42,5.1-18.76,4.42-28.2,3.79-.08-15.67-.14-31.34.05-47Zm11.24,5.77c-.29,11.71-.16,23.45-.08,35.18,4.32-.38,9.9-.86,11.83-5.51,3.75-8.56,3.22-18.86-.86-27.22-3.41-1.63-7.17-2.12-10.89-2.44Z"/>
    <path class="cls-3" d="m1123.97,271.44c3.83,0,7.65-.02,11.49-.03.27,10.76-.18,21.53.08,32.29-.18,3.68,1.85,8.85,6.39,8.02,3.71.65,6.01-3.27,6.07-6.49.32-11.25.03-22.52.1-33.79,3.86-.02,7.7-.02,11.56-.02-.03,10.71.21,21.44-.1,32.13-.03,6.66-4.32,13.48-11.05,15.05-6.3,1.51-13.61,1.28-19.03-2.61-4.37-3.25-5.48-9.07-5.48-14.2-.1-10.11-.02-20.23-.03-30.35Z"/>
    <path class="cls-3" d="m1181.02,273.94c6.74-3.81,14.92-3.3,22.27-1.8-.45,2.49-.89,4.97-1.35,7.46-5.2-1.23-13.64-3.11-15.94,3.36.03,7.09,8.94,7.59,13.36,11.25,7.12,3.81,8.93,14.5,2.57,19.84-7.63,6.65-18.79,5.8-28.04,3.81.49-2.42.99-4.85,1.5-7.25,5.12.77,10.44,1.71,15.57.45,3.62-1.2,4.83-6.52,1.83-8.96-5.21-4.54-13.02-5.95-16.69-12.22-3.6-5.45-.51-13.02,4.93-15.94Z"/>
    <path class="cls-3" d="m1215.27,271.39c11.32.05,22.63.03,33.95.03-.03,2.66-.06,5.34-.08,8-3.7.02-7.38,0-11.06.03-.1,13.17-.02,26.33-.05,39.5-3.84-.03-7.67-.05-11.48-.06-.11-13.15,0-26.28-.08-39.42-3.75-.02-7.48-.05-11.2-.13-.02-2.66-.02-5.31,0-7.95Z"/>
    <path class="cls-3" d="m1262.51,271.83c9.39-.4,19.49-2.02,28.31,2.14,5.88,2.6,7.6,10.49,4.61,15.84-1.51,2.96-4.69,4.46-7.2,6.39,7.35,5.34,7.19,14.92,10.12,22.7-4.03.03-8.03.02-12.05-.03-1.58-5.08-2.22-10.44-4.05-15.44-1.26-3.44-5.13-3.76-8.21-4.24-.16,6.61.02,13.23-.29,19.84-3.78.03-7.55-.05-11.32-.1-.05-15.7-.16-31.4.08-47.1Zm11.46,5.75c-.03,5.29-.05,10.58.02,15.89,3.46-.78,8.06-.38,10.03-3.98,1.88-2.82.7-6.3.43-9.37-3.24-1.74-6.87-2.31-10.47-2.53Z"/>
    <path class="cls-3" d="m1312.19,271.44c3.84-.02,7.7,0,11.56.03-.08,15.83,0,31.65-.03,47.5-3.86-.02-7.7-.06-11.54-.19,0-15.78-.03-31.56.02-47.34Z"/>
    <path class="cls-3" d="m1336.74,318.87c4.42-15.83,8.77-31.69,13.42-47.43,4.57.02,9.15-.16,13.72.13,5,15.49,7.95,31.65,12.58,47.29-3.73.05-7.44.06-11.14.02-.99-3.62-1.94-7.25-2.9-10.87-3.97-.02-7.92,0-11.86-.02-.97,3.67-1.93,7.33-2.92,11-3.63.03-7.28-.03-10.9-.11Zm20.24-39.48c-2.14,7.24-4.02,14.57-5.12,22.04,3.17,0,6.38-.03,9.56-.1-1.2-7.36-2.98-14.63-4.45-21.95Z"/>
    <path class="cls-3" d="m1041.9,344.99c3.47.03,6.97-.16,10.42.33,6.18,10.57,11.27,21.77,16.94,32.63-.45-10.93-1.02-21.87-.8-32.83,3.32-.06,6.63-.11,9.96-.14.03,15.99.08,31.99-.02,47.98-3.54-.14-7.08-.27-10.62-.4-5.37-10.66-11.54-20.96-15.99-32.05-.35,10.77.3,21.57-.02,32.36-3.3,0-6.6.02-9.9.02-.14-15.95-.14-31.93,0-47.88Z"/>
    <path class="cls-3" d="m1096.14,345.1c3.84-.06,7.68-.06,11.54-.05.05,15.89-.02,31.78,0,47.67-3.86.13-7.71.13-11.56.03-.08-15.89,0-31.78.02-47.66Z"/>
    <path class="cls-3" d="m1120.05,345.12c4.19-.1,8.42-.13,12.62-.1,2.87,12.43,5.48,24.93,7.89,37.46,3.16-12.37,5.15-25.01,8.03-37.44,4.18-.02,8.35-.02,12.54.13-4.54,15.91-9.44,31.69-14.12,47.55-4.35.14-8.72.16-13.05.21-4.8-15.89-9.45-31.83-13.91-47.8Z"/>
    <path class="cls-3" d="m1173.33,345.01c8.88.05,17.76.02,26.63.03-.02,2.55-.03,5.12-.05,7.68-4.96.03-9.91.02-14.85.02-.05,3.84-.11,7.7-.08,11.54,4.67.06,9.34.05,14.03.13.02,2.37.03,4.75.05,7.12-4.72.11-9.42.11-14.12.16-.22,4.53-.16,9.07.13,13.6,5.31.11,10.6.08,15.92.06-.03,2.5-.05,5-.03,7.51-9.21-.02-18.41.03-27.61,0-.05-15.94-.02-31.89-.02-47.85Z"/>
    <path class="cls-3" d="m1216.02,345.69c9.37-.83,19.51-2.17,28.29,2.04,6.12,2.61,7.97,11.06,4.54,16.48-1.66,2.69-4.59,4.16-7.09,5.95,7.73,5.05,7.27,14.98,10.25,22.76-4.03-.1-8.1.16-12.07-.56-2.1-5.31-1.88-11.41-4.78-16.4-1.4-2.73-5-1.99-7.44-2.81-.16,6.57.03,13.13-.3,19.7-3.79,0-7.6-.02-11.4,0-.08-15.73-.03-31.45,0-47.16Zm11.51,5.72c-.18,5.36-.26,10.74.14,16.1,3.04-.7,6.74-.37,9.07-2.84,3.11-2.66,1.9-7.06,1.63-10.58-3.28-2.01-7.03-2.79-10.84-2.68Z"/>
    <path class="cls-3" d="m1308.65,345.03c3.83,0,7.65.03,11.49.11.03,15.91.24,31.81-.1,47.72h-11.4c.02-15.94-.03-31.89,0-47.83Z"/>
    <path class="cls-3" d="m1333.23,345.07c11.28-.1,22.57-.02,33.85-.03.02,2.69.05,5.39.08,8.08-3.68.02-7.36.03-11.03.11-.26,13.2.08,26.41-.16,39.61-3.81,0-7.6,0-11.4.02-.26-13.18-.06-26.38-.13-39.58-3.76-.11-7.52-.14-11.27-.18,0-2.68.02-5.36.05-8.03Z"/>
    <path class="cls-3" d="m1376.89,345.09c4.05-.05,8.11-.06,12.18-.1,2.5,7.25,5.5,14.3,7.87,21.6,2.31-7.22,4.88-14.34,7.12-21.57,3.94,0,7.86.02,11.79.08-4.21,9.77-9.45,19.06-13.55,28.88-.86,6.23-.16,12.59-.37,18.89-3.84-.02-7.67-.02-11.51-.02-.57-7.75,1.74-16.16-2.22-23.3-3.83-8.13-7.7-16.24-11.33-24.47Z"/>
    <path class="cls-3" d="m1453.14,345.39c5.67-1.28,12.3-1.24,17.12,2.49,6.46,4.77,8.13,13.45,8.13,21.02-.18,7.48-1.75,16-8.03,20.85-9.01,6.49-24.1,4.27-28.74-6.55-5.5-12.8-3.62-32.79,11.52-37.81Zm3.76,6.09c-2.09,2.25-4.91,4.3-5.24,7.6-1.42,8.89-2.1,19.06,3.38,26.81,3.43.14,7.63.46,9.29-3.32,2.98-7.95,2.87-16.99.84-25.15-.73-3.94-4.67-5.66-8.27-5.95Z"/>
    <path class="cls-3" d="m988.96,418.49c3.89-.03,7.78-.03,11.67-.02.16,6.42,0,12.86.14,19.29,4.45.02,8.91.02,13.36-.03.18-6.38.13-12.75.11-19.11,3.83-.13,7.65-.16,11.49-.14.05,15.87.02,31.77,0,47.66-3.84-.03-7.67-.08-11.51-.14.02-6.71.05-13.4-.02-20.11-4.43-.13-8.88-.16-13.29-.06-.33,6.76-.19,13.52-.19,20.29-3.94,0-7.87.02-11.79.02.03-15.87-.05-31.75.03-47.62Z"/>
    <path class="cls-3" d="m1054.8,418.66c6.02-1.45,13.18-1.04,17.98,3.32,5.55,5.08,7.22,12.99,7.12,20.23-.18,7.17-1.71,14.95-7.12,20.1-7.49,6.06-19.65,5.98-26.49-1.07-5.77-6.89-7.03-16.59-5.61-25.22,1.29-7.67,6.2-15.38,14.12-17.36Zm-1.29,13.04c-1.99,8.53-1.91,17.93,1.86,25.98,2.63.84,5.75,2.42,8.27.37,3.75-3.62,3.92-9.37,4.24-14.25-.03-5.99.24-13.17-4.51-17.6-4.26-2.98-8.96,1.29-9.87,5.5Z"/>
    <path class="cls-3" d="m1103.2,421.04c6.42-3.38,13.98-3.36,20.99-2.2-.53,2.31-1.05,4.64-1.56,6.98-5.69-.54-12.61-.49-16.08,4.88-4.43,7.12-4.54,17.42.65,24.21,3.78,4.57,10.31,3.9,15.62,3.63.18,2.42.38,4.86.57,7.3-8.69,1.05-18.71,1.28-25.57-5.07-10.74-10.85-8.77-32.59,5.37-39.74Z"/>
    <path class="cls-3" d="m1191.14,418.47c3.83-.02,7.65,0,11.49.1.05,15.81,0,31.64.02,47.47-3.84.03-7.7.06-11.52.08.03-15.87,0-31.75.02-47.64Z"/>
    <path class="cls-3" d="m1222.35,418.49c4.08-.05,8.16-.03,12.26.03,3.84,11.28,5.88,23.14,10.55,34.14,1.8-11.67,5.58-22.89,8.81-34.19,4.08-.02,8.16-.02,12.24.1,1.39,15.84,2.5,31.7,3.68,47.56-3.39-.03-6.77-.06-10.15-.11-.46-10.87-1.69-21.68-2.55-32.5-2.12,10.82-6.42,21.06-9.44,31.64-2.76-.03-5.47-.03-8.19-.03-3.11-10.55-6.9-20.93-9.07-31.73-1.45,10.85-2.2,21.79-2.92,32.72-3.24,0-6.46-.02-9.66,0,1.4-15.87,2.66-31.77,4.43-47.62Z"/>
    <path class="cls-3" d="m1285.67,418.55c3.81-.08,7.6-.08,11.43-.06.11,15.89.05,31.77.03,47.64-3.87-.02-7.71-.05-11.56-.1.03-15.83-.13-31.65.1-47.48Z"/>
    <path class="cls-3" d="m1314.77,418.42c3.43.03,6.9-.14,10.33.32,6.28,10.5,11.44,21.71,17.02,32.63-.21-10.93-1.28-21.85-.72-32.79,3.33-.1,6.68-.13,10.04-.14.1,15.89.05,31.77-.02,47.66h-10.62c-5.66-10.71-11.56-21.33-16.38-32.45-.06,10.82.62,21.63.3,32.45h-10.09c.13-15.89-.06-31.78.13-47.67Z"/>
    <path class="cls-3" d="m1369.05,418.49c3.81-.02,7.63-.02,11.48.05.14,6.44.05,12.89.19,19.35,4.37-.14,8.77-.24,13.15-.27,0-6.36-.03-12.7.11-19.06,3.78-.08,7.55-.11,11.36-.11.13,15.89.05,31.78.05,47.67-3.84,0-7.65-.02-11.48,0-.08-6.76-.03-13.52-.06-20.27-4.38-.1-8.75-.08-13.12-.05-.24,6.77-.08,13.55-.1,20.32-3.89,0-7.76,0-11.64-.02-.03-15.86-.13-31.73.05-47.61Z"/>
    <path class="cls-3" d="m1444.24,422.69c6.77-4.94,15.67-5.28,23.65-3.84-.56,2.36-1.08,4.7-1.61,7.08-4.53-.24-9.67-1.04-13.44,2.1-6.95,5.67-7,16.51-3.79,24.19,3,6.77,11.14,6.92,17.47,6.3.13,2.39.27,4.81.38,7.22-10.15,1.77-23.03.81-28.74-9.12-5.77-10.74-4.51-26.55,6.07-33.93Z"/>
    <path class="cls-3" d="m1549.01,418.49c4.06-.03,8.13-.02,12.19.11,2.68,7.06,5.28,14.14,7.86,21.23,2.52-7.06,4.57-14.28,7.16-21.31,3.89-.08,7.81-.08,11.75-.06-3.84,8.26-7.81,16.46-11.81,24.64-3.9,7.03-1.56,15.38-2.14,23.03-3.86-.03-7.7-.08-11.51-.18-.59-7.67,1.75-16.03-2.17-23.08-3.78-8.13-7.68-16.19-11.33-24.39Z"/>
  </g>
  <g>
    <path class="cls-5" d="m988.8,345.03c3.84.02,7.68.02,11.54.03.03,10.06-.05,20.13,0,30.19.03,3.36.27,7.2,3,9.6,3.59,2.63,9.63-.03,9.37-4.75.57-11.65,0-23.35.32-35.03,3.86-.03,7.7-.03,11.57,0-.08,11.11.41,22.23-.21,33.34-.32,6.57-4.85,13.02-11.54,14.27-6.02,1.04-12.93,1.12-18.14-2.55-3.67-3.3-5.83-8.27-5.87-13.2-.16-10.63.03-21.26-.05-31.89Z"/>
    <path class="cls-5" d="m1271.74,346.87c6.39-3.04,13.79-2.26,20.53-.94-.46,2.47-.92,4.96-1.37,7.44-5.98-1.64-13.82-2.31-16.86,4.38,4.34,7.91,15.57,7.89,19.59,16.11,3.06,5.5.24,12.67-4.97,15.72-7.76,4.85-17.5,3.92-26.03,2.04.54-2.41,1.15-4.8,1.75-7.19,5.51.88,12.07,2.85,17.12-.56,3.06-2.3,2.31-6.92-.73-8.85-5.58-3.84-13.13-5.79-16.26-12.37-3.27-6.07,1.29-13.53,7.24-15.8Z"/>
    <path class="cls-5" d="m1492.79,345.09c8.88-.13,17.77-.02,26.67.02-.05,2.52-.1,5.04-.13,7.55-5,.06-10.01.05-14.98.1-.1,4.27-.1,8.54.03,12.83,4.69.27,9.39.29,14.09.38-.03,2.3-.05,4.59-.05,6.89-4.7-.02-9.4-.03-14.09.11-.14,6.65-.08,13.31-.13,19.97-3.83-.08-7.65-.21-11.44-.37-.02-15.83-.11-31.65.03-47.48Z"/>
    <path class="cls-5" d="m1137.25,418.52c3.75-.05,7.51-.05,11.27,0,.03,6.39-.05,12.8.13,19.19,4.46-.02,8.94-.03,13.42-.1.16-6.39.08-12.78.16-19.16,3.78,0,7.55.03,11.35.1.13,15.84.03,31.7.06,47.56-3.83-.02-7.65-.02-11.46,0-.03-6.76.05-13.52-.13-20.26-4.48-.13-8.94-.14-13.4-.02-.21,6.76-.1,13.52-.08,20.29-3.86-.03-7.71-.05-11.56-.11.1-15.83-.29-31.67.24-47.5Z"/>
    <path class="cls-5" d="m1480.89,418.42c3.76.02,7.54.05,11.32.18.19,15.83.16,31.64.02,47.47-3.81.03-7.62.03-11.41.05.06-15.89-.13-31.8.08-47.69Z"/>
  </g>
  <path class="cls-4" d="m1505.48,418.6c11.24-.29,22.47-.08,33.73-.14,0,2.65,0,5.28.03,7.92-3.71.03-7.4.06-11.06.16-.24,13.15-.05,26.31-.11,39.48-3.84.05-7.65.05-11.48.03-.06-13.17-.02-26.33-.02-39.5-3.67-.11-7.33-.14-10.97-.16-.08-2.6-.13-5.2-.13-7.79Z"/>
</svg>