<?xml version="1.0" encoding="UTF-8"?>
<svg id="Layer_1" data-name="Layer 1" xmlns="http://www.w3.org/2000/svg" viewBox="0 0 1926.57 526.55">
  <defs>
    <style>
      .cls-1 {
        fill: #81878d;
      }

      .cls-1, .cls-2 {
        stroke-width: 0px;
      }

      .cls-2 {
        fill: #03cf5d;
      }
    </style>
  </defs>
  <g>
    <polygon class="cls-1" points="528.81 390.87 557.6 390.87 591.67 495.46 625.75 390.87 655.13 390.87 607.54 523.07 576.98 523.07 528.81 390.87"/>
    <rect class="cls-1" x="676.28" y="390.87" width="25.85" height="132.19"/>
    <polygon class="cls-1" points="736.21 390.87 736.21 523.07 827.27 523.07 827.27 506.03 761.47 506.03 761.47 463.73 817.87 463.73 817.87 444.34 761.47 444.34 761.47 408.5 827.27 408.5 827.27 390.87 736.21 390.87"/>
    <polygon class="cls-1" points="843.14 390.87 843.14 407.91 883.09 407.91 883.09 523.07 909.53 523.07 909.53 408.5 950.65 408.5 950.65 390.87 843.14 390.87"/>
    <polygon class="cls-1" points="972.39 390.87 972.39 523.07 1000.01 523.07 1000.01 432 1058.76 523.07 1085.2 523.07 1085.2 390.87 1058.17 390.87 1058.17 481.35 999.42 390.87 972.39 390.87"/>
    <path class="cls-1" d="m1182.7,390.94h-29.95l-47,132.14h29.4l9.98-28.84h47.56l8.87,28.84h29.95l-48.81-132.14Zm-31.75,83.33l17.75-47.56,17.61,47.56h-35.36Z"/>
    <polygon class="cls-1" points="1250.3 523.07 1277.91 523.07 1277.91 433.18 1315.51 523.07 1334.31 523.07 1369.57 433.18 1369.57 523.07 1397.77 523.07 1397.77 390.87 1361.34 390.87 1324.03 490.76 1287.31 390.87 1250.3 390.87 1250.3 523.07"/>
  </g>
  <g>
    <path class="cls-2" d="m663.68,3.47l-106.29,271.04h90.35l12.84-35.87h101.87l12.84,35.87h90.35L759.34,3.47h-95.66Zm17.53,170.06l30.3-84.67,30.3,84.67h-60.6Z"/>
    <polygon class="cls-2" points="1241.63 171.54 1365.19 171.54 1365.19 106.44 1241.63 106.44 1241.63 69.9 1366.52 69.9 1366.52 3.47 1155.27 3.47 1155.27 274.51 1369.18 274.51 1369.18 208.08 1241.63 208.08 1241.63 171.54"/>
    <polygon class="cls-2" points="973.25 181.69 909.48 3.47 819.13 3.47 925.42 274.51 1021.08 274.51 1127.37 3.47 1037.02 3.47 973.25 181.69"/>
    <polygon class="cls-2" points="441.8 148.53 340.83 3.47 257.13 3.47 257.13 274.51 344.82 274.51 344.82 129.45 445.79 274.51 529.49 274.51 529.49 3.47 441.8 3.47 441.8 148.53"/>
    <path class="cls-2" d="m1600.92,181.53l8.22-3.44c31.5-13.18,47.52-41.71,47.52-77.92,0-34.24-12.49-59.57-37.12-75.28-22.89-14.61-52.59-21.42-93.44-21.42h-114.41v271.04h85.03v-75.73h30.56l51.82,75.73h90.35l-68.52-92.98Zm-59.02-51.84h-46.5v-57.13h46.5c15.78,0,28.57,12.79,28.57,28.57s-12.79,28.57-28.57,28.57Z"/>
  </g>
</svg>