<?xml version="1.0" encoding="UTF-8"?>
<svg id="Layer_1" data-name="Layer 1" xmlns="http://www.w3.org/2000/svg" xmlns:xlink="http://www.w3.org/1999/xlink" viewBox="0 0 1926.57 526.55">
  <defs>
    <style>
      .cls-1 {
        clip-path: url(#clippath);
      }

      .cls-2 {
        fill: none;
      }

      .cls-2, .cls-3, .cls-4, .cls-5 {
        stroke-width: 0px;
      }

      .cls-3 {
        fill: url(#radial-gradient);
      }

      .cls-6 {
        clip-path: url(#clippath-1);
      }

      .cls-4 {
        fill: url(#radial-gradient-2);
      }

      .cls-5 {
        fill: #231f20;
      }
    </style>
    <clipPath id="clippath">
      <path class="cls-2" d="m418.05,64.48c-109.77,4.97-194.76,97.98-189.78,207.83,4.99,109.77,98.03,194.72,207.79,189.8,109.82-5.01,194.78-98.01,189.82-207.82-4.85-106.7-92.82-190.01-198.62-190.03-3.04,0-6.11.09-9.2.22"/>
    </clipPath>
    <radialGradient id="radial-gradient" cx="-289.06" cy="1279.09" fx="-289.06" fy="1279.09" r="5.87" gradientTransform="translate(9754.83 41364.89) scale(32.18 -32.18)" gradientUnits="userSpaceOnUse">
      <stop offset="0" stop-color="#fff"/>
      <stop offset="1" stop-color="#d0a044"/>
    </radialGradient>
    <clipPath id="clippath-1">
      <path class="cls-2" d="m381.59,434.24c-22.26-2.17-48.84-9.2-72.03-29.26-21.32-18.37-34.52-43.71-40.91-66.01-6.57-22.77-9.33-49.38,1.51-47.28,3.33.64,9.1,15.26,15.36,25.93,6.47,10.99,11.71,17.11,16.66,20.84,2.22,1.66,9.82-15.24,20.92-24.85,6.43-5.34,13.42-7.13,14.63,8.69,1.34,19.43-2.17,42.55,3.53,42.55,5.24,0,17.21-3.99,43.49-6.24,9.87-.82,15.52,1.05,6.08,14.27-4.7,6.65-10.97,16.02-25.89,26.71,22.34,20.9,49.09,18.37,49.61,27.27.31,5.11-9.68,7.93-22.8,7.93-3.21,0-6.64-.18-10.15-.54m75.16-187.83c-20.47-4.28-24.64-22.83-24.64-22.83-1.67-6.56-2.11-14.83-.7-25.34,2.75-22.05,8.72-32.35,15.48-49.45,9.1-22.9-13.01-36.33-9.4-44.75,4.97-11.4,20.78,3.09,38.44,4.17,15.21.83,24.33.09,36.13,1.64,15.7,2.1,34.49,7.43,42.85,17.23,7.67,8.99-4.09,19.94-18.12,13.09-10.32-5.04-23.26-1.94-15.64,8.77,9.1,10.2,13.49,10.48,22.86,12.94,25.67,6.75,26.21,31.4,8.79,44.11-19.74,14.48-39.84,8.48-47.84-19.92-4.03-14.19-14-21.4-24.29-17.34-10.16,3.99-4.14,22.66,3.63,39.93,13.42,34.29-13.73,37.91-24.15,37.91-1.62,0-2.85-.1-3.43-.15m-14.77,194.28c-.2-4.54,6.47-5.68,6.47-5.68,59.67-11.79,42.22-50.88,21.12-70.85-8.9-8.36-91.95-80.06-91.95-80.06-79.16-68.19-72.83-121.38-72.83-121.38,3.9-65.52,61.17-81.73,104.57-77.96,5.09.43,7.93,3.48,6.97,7.75-.91,4.61-7.65,4.93-7.65,4.93-13.79.82-26.15,2.2-35.53,8.55-34.94,23.51-24.69,63.51,21.94,108.07,5.87,5.6,12.12,11.49,18.55,17.53,0,0,9.3,8.25,27.97,25.94,35.86,33.02,55.47,50.83,55.47,50.83,63.23,52.62,41.55,100.74,17.49,117.44-18.45,12.77-38.84,18.77-65.61,20.2-.21.03-.46.05-.7.05-2.47,0-6.12-1.5-6.28-5.37m-24.09-378.88c-111.21,5.02-197.33,99.32-192.31,210.58,5.04,111.25,99.32,197.38,210.59,192.36,111.24-5.01,197.41-99.29,192.39-210.58-4.88-108.2-94.17-192.55-201.41-192.56-3.09,0-6.16.06-9.26.21"/>
    </clipPath>
    <radialGradient id="radial-gradient-2" cx="-296.53" cy="1270.3" fx="-296.53" fy="1270.3" r="5.87" gradientTransform="translate(21809.26 91673.33) scale(72 -72)" gradientUnits="userSpaceOnUse">
      <stop offset="0" stop-color="#18b6ea"/>
      <stop offset=".22" stop-color="#0f91d0"/>
      <stop offset=".29" stop-color="#0c7cc0"/>
      <stop offset=".37" stop-color="#096bb3"/>
      <stop offset=".47" stop-color="#0860ab"/>
      <stop offset=".57" stop-color="#085da9"/>
      <stop offset="1" stop-color="#085da9"/>
    </radialGradient>
  </defs>
  <g>
    <g class="cls-1">
      <rect class="cls-3" x="223.29" y="64.26" width="407.55" height="402.77"/>
    </g>
    <g class="cls-6">
      <rect class="cls-4" x="220.57" y="61.6" width="413.02" height="408.17"/>
    </g>
  </g>
  <g>
    <path class="cls-5" d="m731.11,239.65c2.3,1.88,4.95,3.59,7.93,5.11,2.98,1.52,6.02,2.8,9.11,3.85,3.09,1.05,6.15,1.86,9.19,2.43,3.04.58,5.86.86,8.48.86,6.39,0,11.39-1.34,15-4.01,3.61-2.67,5.42-6.68,5.42-12.02,0-4.09-.97-7.54-2.91-10.37-1.94-2.83-5.53-5.55-10.76-8.17-3.04-1.57-5.92-2.98-8.64-4.24-2.73-1.26-5.34-2.57-7.85-3.93-2.51-1.36-4.95-2.8-7.31-4.32-2.36-1.52-4.69-3.22-6.99-5.11-4.08-3.66-7.44-7.78-10.05-12.33-2.62-4.56-3.93-10.13-3.93-16.73,0-4.5.92-8.66,2.75-12.49,1.83-3.82,4.48-7.09,7.93-9.82,3.46-2.72,7.67-4.84,12.65-6.36,4.97-1.52,10.6-2.28,16.89-2.28,13.61,0,25.71,2.3,36.29,6.91v19.32c0,1.47-.52,2.38-1.57,2.75-1.05.37-2.15.08-3.3-.86-8.59-7.23-18.02-10.84-28.28-10.84-5.66,0-9.98,1.21-12.96,3.61-2.98,2.41-4.48,5.76-4.48,10.05,0,3.04.52,5.66,1.57,7.86,1.05,2.2,2.62,4.14,4.71,5.81,3.98,3.25,8.25,6.08,12.8,8.48,4.56,2.41,9.03,4.66,13.43,6.76,4.08,1.89,7.72,3.93,10.92,6.13,3.19,2.2,5.92,4.71,8.17,7.54,2.25,2.83,3.95,6.05,5.1,9.66,1.15,3.61,1.73,7.83,1.73,12.65,0,5.97-1.18,11.08-3.53,15.32-2.36,4.24-5.63,7.75-9.82,10.53-4.19,2.78-9.09,4.79-14.69,6.05-5.6,1.26-11.6,1.88-17.99,1.88-4.71,0-9.61-.52-14.69-1.57-5.08-1.05-9.61-2.38-13.59-4.01-3.98-1.62-7.12-3.43-9.43-5.42-2.3-1.99-3.04-3.98-2.2-5.97l4.87-12.73Z"/>
    <path class="cls-5" d="m921.36,143.19v122.54h-25.61v-54.2h-45.72v54.2h-25.61v-106.67c0-2.72-.29-4.87-.86-6.44-.58-1.57-1.6-3.19-3.06-4.87-.94-1.15-1.21-2.2-.79-3.14.42-.94,1.2-1.41,2.36-1.41h27.96v49.64h45.72v-49.64h25.61Z"/>
    <path class="cls-5" d="m945.4,265.73v-106.67c0-2.72-.29-4.87-.86-6.44-.58-1.57-1.6-3.19-3.06-4.87-.94-1.15-1.2-2.2-.78-3.14.42-.94,1.2-1.41,2.36-1.41h27.96v122.54h-25.61Z"/>
    <path class="cls-5" d="m993.31,265.73v-106.67c0-2.72-.29-4.87-.86-6.44-.58-1.57-1.6-3.19-3.06-4.87-.94-1.15-1.21-2.2-.79-3.14.42-.94,1.2-1.41,2.36-1.41h27.18l37.39,64.88,12.41,22.94-1.57-26.55v-61.27h25.45v122.54h-25.14l-37.86-66.61-11.31-21.84,1.41,27.18v61.27h-25.61Z"/>
    <path class="cls-5" d="m1208.06,143.19v122.54h-25.61v-54.2h-45.72v54.2h-25.61v-106.67c0-2.72-.29-4.87-.86-6.44-.58-1.57-1.6-3.19-3.06-4.87-.94-1.15-1.21-2.2-.79-3.14.42-.94,1.2-1.41,2.36-1.41h27.96v49.64h45.72v-49.64h25.61Z"/>
    <path class="cls-5" d="m1258.96,163.14c1.26-3.35,1.81-6.15,1.65-8.4-.16-2.25-.71-4.27-1.65-6.05-2.2-3.66-1.21-5.5,2.98-5.5h23.41l47.13,122.54h-25.61l-12.41-34.09h-38.02l-12.25,34.09h-25.45l40.22-102.59Zm4.08,49.8h24.67l-12.41-35.19-12.25,35.19Z"/>
    <path class="cls-5" d="m1341.91,265.73v-106.67c0-2.72-.29-4.87-.86-6.44-.58-1.57-1.6-3.19-3.06-4.87-.94-1.15-1.21-2.2-.79-3.14.42-.94,1.2-1.41,2.36-1.41h27.18l37.39,64.88,12.41,22.94-1.57-26.55v-61.27h25.45v122.54h-25.14l-37.86-66.61-11.31-21.84,1.41,27.18v61.27h-25.61Z"/>
    <path class="cls-5" d="m1500.58,143.19h47.13c8.48,0,16.47,1.2,23.96,3.61,7.49,2.41,14.03,6.13,19.64,11.15,5.6,5.03,10,11.39,13.2,19.09,3.19,7.7,4.79,16.84,4.79,27.41s-1.6,19.72-4.79,27.41c-3.2,7.7-7.59,14.06-13.2,19.09-5.6,5.03-12.15,8.75-19.64,11.15-7.49,2.41-15.47,3.61-23.96,3.61h-44.77v-106.67c0-2.72-.29-4.87-.86-6.44-.58-1.57-1.6-3.19-3.06-4.87-.94-1.15-1.21-2.2-.79-3.14.42-.94,1.2-1.41,2.36-1.41Zm43.2,104.31c7.75,0,14.19-1.05,19.32-3.14,5.13-2.09,9.21-5.03,12.25-8.8,3.04-3.77,5.18-8.3,6.44-13.59,1.26-5.29,1.88-11.13,1.88-17.52s-.63-12.23-1.88-17.52c-1.26-5.29-3.4-9.82-6.44-13.59-3.04-3.77-7.12-6.68-12.25-8.72-5.13-2.04-11.57-3.06-19.32-3.06h-15.24v85.93h15.24Z"/>
    <path class="cls-5" d="m1620.12,239.65c2.3,1.88,4.95,3.59,7.93,5.11,2.98,1.52,6.02,2.8,9.11,3.85,3.09,1.05,6.15,1.86,9.19,2.43,3.04.58,5.86.86,8.48.86,6.39,0,11.39-1.34,15-4.01s5.42-6.68,5.42-12.02c0-4.09-.97-7.54-2.91-10.37-1.94-2.83-5.53-5.55-10.76-8.17-3.04-1.57-5.92-2.98-8.64-4.24-2.73-1.26-5.34-2.57-7.85-3.93-2.51-1.36-4.95-2.8-7.31-4.32-2.36-1.52-4.69-3.22-6.99-5.11-4.08-3.66-7.44-7.78-10.05-12.33-2.62-4.56-3.93-10.13-3.93-16.73,0-4.5.92-8.66,2.75-12.49,1.83-3.82,4.48-7.09,7.93-9.82,3.46-2.72,7.67-4.84,12.65-6.36,4.97-1.52,10.6-2.28,16.89-2.28,13.61,0,25.71,2.3,36.29,6.91v19.32c0,1.47-.52,2.38-1.57,2.75-1.05.37-2.15.08-3.3-.86-8.59-7.23-18.02-10.84-28.28-10.84-5.66,0-9.98,1.21-12.96,3.61-2.98,2.41-4.48,5.76-4.48,10.05,0,3.04.52,5.66,1.57,7.86,1.05,2.2,2.62,4.14,4.71,5.81,3.98,3.25,8.25,6.08,12.8,8.48,4.56,2.41,9.03,4.66,13.43,6.76,4.08,1.89,7.72,3.93,10.92,6.13,3.19,2.2,5.92,4.71,8.17,7.54,2.25,2.83,3.95,6.05,5.1,9.66,1.15,3.61,1.73,7.83,1.73,12.65,0,5.97-1.18,11.08-3.53,15.32-2.36,4.24-5.63,7.75-9.82,10.53-4.19,2.78-9.09,4.79-14.69,6.05-5.6,1.26-11.6,1.88-17.99,1.88-4.71,0-9.61-.52-14.69-1.57-5.08-1.05-9.61-2.38-13.59-4.01-3.98-1.62-7.12-3.43-9.43-5.42-2.3-1.99-3.04-3.98-2.2-5.97l4.87-12.73Z"/>
    <path class="cls-5" d="m755.04,358.1l2.93,10.36,2.84-10.36,15.03-46h15.3l-24.19,71.48h-18.14l-21.44-63.23c-.37-1.1-.86-2.11-1.47-3.02-.61-.92-1.25-1.71-1.92-2.38-.67-.67-.92-1.31-.73-1.92.18-.61.61-.92,1.28-.92h15.4l15.12,46Z"/>
    <path class="cls-5" d="m799.95,383.58v-62.22c0-1.59-.17-2.84-.5-3.76-.34-.92-.93-1.86-1.79-2.84-.55-.67-.7-1.28-.46-1.83.24-.55.7-.83,1.37-.83h16.31v71.48h-14.94Z"/>
    <path class="cls-5" d="m827.9,383.58v-62.22c0-1.59-.17-2.84-.5-3.76-.34-.92-.93-1.86-1.79-2.84-.55-.67-.7-1.28-.46-1.83.24-.55.7-.83,1.37-.83h44.08v10.72h-27.77v19.61h25.2v10.72h-25.2v19.79h29.78v10.63h-44.72Z"/>
    <path class="cls-5" d="m876.37,312.1h52.05v11h-18.51v60.48h-14.94v-60.48h-18.6v-11Z"/>
    <path class="cls-5" d="m935.12,383.58v-62.22c0-1.59-.17-2.84-.5-3.76-.34-.92-.93-1.86-1.79-2.84-.55-.67-.7-1.28-.46-1.83.24-.55.7-.83,1.37-.83h15.85l21.81,37.85,7.24,13.38-.92-15.49v-35.74h14.85v71.48h-14.66l-22.09-38.86-6.6-12.74.82,15.85v35.74h-14.94Z"/>
    <path class="cls-5" d="m1021.44,323.74c.73-1.95,1.05-3.59.96-4.9-.09-1.31-.41-2.49-.96-3.53-1.28-2.14-.7-3.21,1.74-3.21h13.65l27.49,71.48h-14.94l-7.24-19.89h-22.18l-7.15,19.89h-14.85l23.46-59.84Zm2.38,29.05h14.39l-7.24-20.53-7.15,20.53Z"/>
    <path class="cls-5" d="m1112.81,380.46h-11.55l-14.85-41.33-2.57-7.88.28,8.43v43.9h-14.3v-63.23c-.06-1.22-.26-2.25-.6-3.07-.34-.83-.9-1.66-1.7-2.52-.55-.67-.7-1.28-.46-1.83.24-.55.7-.83,1.37-.83h19.79l18.79,51.5,18.79-51.5h18.42v71.48h-14.3v-43.9l.27-8.43-2.57,7.88-14.85,41.33Z"/>
  </g>
</svg>