<?xml version="1.0" encoding="UTF-8"?>
<svg id="Layer_1" data-name="Layer 1" xmlns="http://www.w3.org/2000/svg" viewBox="0 0 1926.57 526.55">
  <defs>
    <style>
      .cls-1 {
        fill: #f26f33;
      }

      .cls-1, .cls-2 {
        stroke-width: 0px;
      }

      .cls-2 {
        fill: #005e69;
      }
    </style>
  </defs>
  <path class="cls-2" d="m654.6,378.68c-19.7,0-38.08-3.17-55.14-9.51-17.07-6.33-32.11-15.39-45.12-27.18-13.02-11.78-23.22-25.95-30.6-42.49-7.39-16.53-11.08-35.18-11.08-55.94l.03-200.27c0-24.05,19.5-43.54,43.55-43.54h48.81s-.04,241.71-.04,241.71c0,17.6,4.39,31.14,13.19,40.64,8.79,9.5,20.92,14.25,36.41,14.26,15.48,0,27.79-4.74,36.95-14.24,9.15-9.5,13.72-23.04,13.73-40.63l.04-241.7,92.35.02-.04,243.81c0,20.76-3.79,39.41-11.35,55.93-7.57,16.54-17.87,30.7-30.88,42.48-13.02,11.79-28.24,20.84-45.65,27.17-17.42,6.33-35.81,9.49-55.15,9.49Z"/>
  <path class="cls-2" d="m879.71-.2l211.88.03-.02,82.33-163.07-.03v62.8s139.31.02,139.31.02v82.33s-139.33-.02-139.33-.02v65.97s163.06.03,163.06.03v38.78c0,24.05-19.51,43.54-43.56,43.54l-211.88-.03.05-332.2c0-24.05,19.5-43.54,43.55-43.54Z"/>
  <g>
    <path class="cls-1" d="m555.99,526.71c-6.02,0-11.64-.95-16.86-2.85-5.22-1.9-9.82-4.62-13.79-8.15-3.98-3.53-7.1-7.78-9.35-12.74-2.26-4.96-3.39-10.55-3.39-16.77v-73.1s28.25,0,28.25,0v72.46c-.01,5.27,1.33,9.33,4.02,12.18,2.69,2.85,6.4,4.27,11.13,4.27,4.73,0,8.5-1.42,11.29-4.27,2.8-2.85,4.2-6.91,4.2-12.18v-72.46s28.25,0,28.25,0v73.1c-.01,6.22-1.17,11.81-3.48,16.77-2.31,4.96-5.46,9.2-9.44,12.73-3.98,3.54-8.63,6.25-13.96,8.15-5.32,1.9-10.95,2.85-16.86,2.85Z"/>
    <path class="cls-1" d="m620.86,413.13h24.69s36.78,56.65,36.78,56.65v-56.64s28.24,0,28.24,0l-.02,112.65h-24.69s-36.77-56.65-36.77-56.65v56.64s-28.25,0-28.25,0l.02-112.65Z"/>
    <path class="cls-1" d="m733.64,413.14h28.24s-.02,112.65-.02,112.65h-28.24s.02-112.65.02-112.65Z"/>
    <path class="cls-1" d="m773.33,413.15h29.2s19.35,62.98,19.35,62.98l19.05-62.96h29.36s-38.09,112.64-38.09,112.64h-20.97s-37.9-112.66-37.9-112.66Z"/>
    <path class="cls-1" d="m881.75,413.17h78.09s0,24.69,0,24.69h-49.85s0,18.82,0,18.82h42.59s0,24.69,0,24.69h-42.59s0,19.77,0,19.77h49.85s0,24.69,0,24.69h-78.09s.02-112.66.02-112.66Z"/>
    <path class="cls-1" d="m979.68,413.18h45.5c6.34,0,11.96,1.04,16.86,3.09,4.89,2.06,8.98,4.78,12.26,8.15,3.28,3.38,5.78,7.23,7.5,11.55,1.72,4.33,2.58,8.81,2.58,13.45,0,3.8-.57,7.28-1.7,10.44-1.13,3.16-2.58,5.96-4.36,8.39-1.78,2.43-3.77,4.54-5.97,6.33-2.21,1.79-4.44,3.21-6.7,4.27l24.84,46.99h-32.75s-20.32-41.94-20.32-41.94h-9.52s0,41.92,0,41.92h-28.24s.02-112.65.02-112.65Zm44.2,47.47c3.87,0,6.88-1.16,9.03-3.48,2.15-2.32,3.23-4.96,3.23-7.91s-1.08-5.59-3.23-7.91c-2.15-2.32-5.16-3.48-9.03-3.48h-15.97s0,22.78,0,22.78h15.97Z"/>
    <path class="cls-1" d="m1117.44,526.8c-4.41,0-8.61-.24-12.59-.72-3.98-.48-7.8-1.27-11.46-2.37-3.66-1.11-7.1-2.61-10.33-4.51-3.23-1.9-6.29-4.32-9.2-7.28l18.07-17.72c3.01,2.96,6.88,5.01,11.62,6.17,4.73,1.16,9.41,1.74,14.04,1.74,10.97,0,16.46-3.37,16.46-10.12,0-2.85-.75-5.06-2.26-6.65-1.61-1.58-4.14-2.58-7.58-3.01l-13.87-1.9c-10.22-1.48-17.91-4.8-23.07-9.97-5.27-5.27-7.9-12.82-7.9-22.63,0-5.17.97-9.91,2.91-14.24,1.94-4.32,4.71-8.07,8.31-11.23,3.6-3.16,7.99-5.64,13.15-7.44,5.16-1.79,11.02-2.69,17.59-2.69,8.28,0,15.57,1.03,21.86,3.09,6.29,2.06,11.91,5.51,16.86,10.37l-17.75,17.4c-3.01-2.95-6.24-4.8-9.68-5.54-3.44-.74-7.47-1.11-12.1-1.11-2.48,0-4.57.31-6.29.95-1.72.63-3.15,1.45-4.28,2.45-1.13,1-1.96,2.11-2.5,3.32-.54,1.22-.81,2.45-.81,3.72,0,.74.16,1.58.48,2.53.32.95.91,1.84,1.78,2.69.75.74,1.75,1.42,2.98,2.06,1.24.63,2.88,1.06,4.92,1.27l13.87,1.9c10.11,1.37,17.64,4.49,22.59,9.34,3.12,2.96,5.32,6.49,6.61,10.6,1.29,4.11,1.94,8.81,1.94,14.08,0,5.7-1.19,10.76-3.55,15.19-2.37,4.43-5.57,8.15-9.6,11.15-4.03,3.01-8.74,5.27-14.12,6.8-5.38,1.53-11.08,2.29-17.1,2.29Z"/>
    <path class="cls-1" d="m1180.22,413.21h28.24s-.02,112.65-.02,112.65h-28.24s.02-112.65.02-112.65Z"/>
    <path class="cls-1" d="m1252.97,437.9h-28.23s0-24.68,0-24.68h84.7s0,24.69,0,24.69h-28.24s-.01,87.96-.01,87.96h-28.23s.01-87.97.01-87.97Z"/>
    <path class="cls-1" d="m1350.41,480.01l-34.67-66.77h30.81s18.07,40.51,18.07,40.51l17.91-40.5h30.81s-34.7,66.77-34.7,66.77v45.88s-28.24,0-28.24,0v-45.88Z"/>
  </g>
  <path class="cls-2" d="m1131.11-.16l92.36.02-.02,144.6,98.16.02.02-144.6,92.36.02-.05,332.2c0,24.05-19.5,43.54-43.55,43.54h-48.81s.02-148.83.02-148.83l-98.16-.02-.02,148.82-92.36-.02.06-375.75Z"/>
</svg>