<?xml version="1.0" encoding="UTF-8"?>
<svg id="Layer_1" data-name="Layer 1" xmlns="http://www.w3.org/2000/svg" viewBox="0 0 1926.57 526.55">
  <defs>
    <style>
      .cls-1 {
        fill: #f8ea07;
      }

      .cls-1, .cls-2, .cls-3, .cls-4, .cls-5, .cls-6 {
        stroke-width: 0px;
      }

      .cls-2 {
        fill: #27296e;
      }

      .cls-3 {
        fill: #094398;
      }

      .cls-4 {
        fill: #0f42a0;
      }

      .cls-5 {
        fill: #fff;
      }

      .cls-6 {
        fill: #e7000d;
      }
    </style>
  </defs>
  <g id="g8">
    <g id="g10">
      <path id="path12" class="cls-5" d="m277.05,87.33c1.43-.02,2.87-.02,4.32-.02.72,1.09,1.44,2.17,2.16,3.26-1.09,0-2.18,0-3.27.01-1.1-1.06-2.18-2.13-3.21-3.25"/>
      <path id="path14" class="cls-5" d="m265.69,91.66c1.37-.24,2.77-.25,4.16-.22.14,5.84.36,11.67.58,17.5-1.33.1-2.66.13-3.99.13-.16-2.42-.21-4.85-.34-7.27-2.14.06-4.27.24-6.41.21.17,2.43.16,4.87.36,7.3-1.37.06-2.73.14-4.1.18-.18-5.87-.43-11.73-.63-17.6,1.37,0,2.74-.02,4.11-.08.02,2.23.12,4.46.15,6.69,2.14-.08,4.29-.15,6.44-.26-.11-2.2-.07-4.41-.32-6.6"/>
      <path id="path16" class="cls-5" d="m279.48,101.43c1.23.06,2.47.16,3.71.2-.63-2.28-1.34-4.55-1.77-6.88-.67,2.22-1.23,4.47-1.93,6.68h0Zm-.57-9.98c1.78-.02,3.57-.07,5.35.2,1.66,5.89,3.45,11.74,5.21,17.6-1.5.02-2.98-.03-4.46-.19-.42-1.48-.86-2.95-1.27-4.44-1.65,0-3.29,0-4.93,0-.43,1.48-.87,2.97-1.28,4.46-1.4-.02-2.79-.1-4.19-.18,1.87-5.81,3.7-11.64,5.57-17.46"/>
      <path id="path18" class="cls-5" d="m293.58,91.72c1.57.12,3.14.21,4.71.29,1.86,4.16,4.22,8.1,5.52,12.5.02-4.04.28-8.07.58-12.09,1.23.05,2.45.11,3.68.16-.36,5.84-.66,11.68-1.11,17.51-1.42.07-2.82-.12-4.22-.22-2.02-4.31-4.21-8.54-5.88-13-.1,4.21-.48,8.4-.65,12.62-1.25-.07-2.5-.14-3.74-.19.33-5.86.69-11.72,1.1-17.58"/>
      <path id="path20" class="cls-5" d="m238.2,93.32c4.5-.31,8.99-.8,13.49-1.04.08,1.13.16,2.26.24,3.38-1.57.1-3.15.24-4.71.37.36,4.7.74,9.4,1.16,14.1-1.34.12-2.67.23-4.01.34-.46-4.69-.81-9.38-1.18-14.06-1.6.09-3.18.19-4.78.26-.07-1.12-.14-2.23-.21-3.35"/>
      <path id="path22" class="cls-5" d="m313.12,93.27c1.3-.28,2.68.22,4.01.31-.25,2.21-.47,4.42-.74,6.63,2.11.25,4.21.53,6.34.72.28-2.2.57-4.4.71-6.62,1.36.13,2.73.28,4.1.41-.67,5.81-1.34,11.63-1.97,17.45-1.35-.11-2.68-.24-4.01-.42.14-2.45.66-4.86.66-7.33-2.06-.16-4.12-.42-6.16-.69-.41,2.42-.57,4.88-.91,7.31-1.33-.16-2.66-.32-3.98-.47.64-5.77,1.26-11.54,1.97-17.3"/>
      <path id="path24" class="cls-5" d="m222.52,98.46c-.13,2.36-.4,4.71-.81,7.05,1.23-.17,2.47-.33,3.71-.51-.99-2.17-1.97-4.35-2.9-6.54h0Zm-2.86-2.77c1.74-.24,3.49-.48,5.22-.75,2.62,5.55,5.32,11.06,7.87,16.64-1.39.19-2.78.42-4.16.67-.84-1.36-1.47-2.83-2.12-4.28-1.63.22-3.27.44-4.9.72-.19,1.51-.38,3.01-.52,4.52-1.39.25-2.78.47-4.17.66.87-6.07,1.87-12.12,2.78-18.18"/>
      <path id="path26" class="cls-5" d="m342.33,100.26c-.32,1.7-.62,3.4-.93,5.1,1,.13,2.05.58,3.06.24,1.69-.31,2.65-2.59,1.59-3.97-.89-1.13-2.43-1.17-3.72-1.37h0Zm-6.56,13.58c1.02-5.7,2.06-11.41,3.11-17.1,3.15.31,6.53.39,9.33,2.03,3.57,2.15,2.71,8.31-1.13,9.65-1.99.81-4.19.49-6.22.03-.41,2.02-.76,4.06-1.14,6.09-1.32-.22-2.64-.44-3.95-.69"/>
      <path id="path28" class="cls-5" d="m206.87,97.88c1.33-.23,2.65-.46,3.98-.69,1.02,5.77,2.1,11.53,3.12,17.3-1.33.24-2.66.48-3.98.73-1.03-5.78-2.12-11.54-3.13-17.33"/>
      <path id="path30" class="cls-5" d="m191.47,102.4c2.8-2.63,6.86-3.47,10.6-3.12-.08,1.13-.16,2.26-.22,3.38-2.35-.24-4.94,0-6.87,1.48-3.34,2.65-1.79,8.84,2.27,9.84,1.49.43,3-.16,4.42-.54-.23-1.22-.51-2.44-.83-3.64-.86.21-1.71.42-2.56.63-.12-1.04-.78-2.17-.49-3.17,2.08-.53,4.19-.98,6.3-1.36.59,3.06,1.39,6.07,1.95,9.14-3.65,1.9-8.06,3.47-12.11,1.88-5.31-2.37-6.66-10.5-2.46-14.52"/>
      <path id="path32" class="cls-5" d="m355.5,99.51c1.31.31,2.62.63,3.93.96-.53,2.16-1.02,4.32-1.54,6.48,2.05.54,4.13.98,6.2,1.5.53-2.18,1.04-4.36,1.56-6.55,1.29.33,2.58.62,3.89.9-1.19,5.75-2.68,11.43-3.97,17.16-1.33-.31-2.65-.63-3.99-.91.61-2.38,1.15-4.77,1.7-7.16-2.08-.47-4.17-.94-6.24-1.46-.51,2.38-1.12,4.74-1.61,7.13-1.33-.29-2.66-.6-3.99-.92,1.33-5.71,2.67-11.43,4.06-17.14"/>
      <path id="path34" class="cls-5" d="m381.86,102.05c.86.24,1.71.49,2.58.73.56,1.28,1.03,2.6,1.48,3.94-.86-.26-1.72-.52-2.57-.78-.22-.62-.43-1.23-.65-1.85-.53.39-1.06.79-1.58,1.19-.84-.26-1.7-.52-2.54-.77,1.09-.82,2.18-1.64,3.28-2.45"/>
      <path id="path36" class="cls-5" d="m385.13,104.1c.87-.9,1.83-1.72,2.83-2.47,1.12.34,2.25.68,3.38,1.03-2,.74-3.99,2.52-6.21,1.44"/>
      <path id="path38" class="cls-5" d="m155.41,104.88c1.13-.41,2.26-.83,3.39-1.25-.78,1.4-1.57,2.8-2.37,4.19-.47.17-1.4.49-1.87.66.27-1.2.56-2.4.85-3.6"/>
      <path id="path40" class="cls-5" d="m168.96,108.23c2.36-2.44,5.85-3.46,9.18-3.31v3.27c-1.88.03-3.91.26-5.41,1.51-3.8,2.82-1.43,10.14,3.32,10.1,1.86.1,3.5-.88,5.07-1.72.54.94,1.06,1.9,1.57,2.85-3,2.06-6.9,3.24-10.47,2.07-5.59-2.15-7.45-10.47-3.27-14.77"/>
      <path id="path42" class="cls-5" d="m378.08,109.53c-2.34,1.59-3.34,4.69-3.14,7.41.13,2.57,3.18,4.54,5.48,3.13,2.51-1.68,3.71-5.1,3.11-8.02-.38-2.38-3.38-3.89-5.45-2.53h0Zm-1.67-3.26c4.16-1.64,9.69.44,11.07,4.86,1.17,4.01-.25,8.78-3.61,11.33-4.11,2.88-10.83,1.09-12.62-3.7-1.65-4.59.52-10.61,5.17-12.49"/>
      <path id="path44" class="cls-5" d="m150.75,108.88c.89-.33,1.78-.66,2.67-.98,1.13.76,2.25,1.51,3.38,2.26-.83.31-1.66.61-2.49.92-.56-.37-1.11-.74-1.66-1.11-.18.64-.36,1.29-.53,1.93-.82.28-1.63.56-2.45.83.35-1.29.72-2.58,1.09-3.86"/>
      <path id="path46" class="cls-5" d="m154.09,115.19c-1.92.82-2.54,3.16-2.16,5.06.49,2.67,2.11,5.82,5.14,6.11,2.95-.05,4.47-3.43,3.54-5.98-.54-2.9-3.17-6.56-6.51-5.2Zm-.03-3.42c3.02-.95,6.56.15,8.45,2.7,2.17,2.84,3.2,6.84,1.82,10.25-1.45,3.38-5.35,5.3-8.92,5-5.22-.59-8.34-6.46-7.55-11.31.46-3.23,3.08-5.86,6.2-6.64"/>
      <path id="path48" class="cls-5" d="m400.23,112.35c1.25.5,2.5,1,3.76,1.48-.8,2.1-1.67,4.17-2.43,6.28,1.98.74,3.94,1.55,5.91,2.3.81-2.08,1.63-4.16,2.46-6.24,1.25.5,2.51.99,3.77,1.47-2.12,5.46-4.27,10.91-6.42,16.35-1.28-.43-2.55-.91-3.79-1.44.86-2.26,1.73-4.52,2.66-6.76-1.95-.85-3.95-1.57-5.93-2.37-.91,2.26-1.78,4.54-2.68,6.8-1.27-.49-2.53-.99-3.79-1.51,2.19-5.44,4.26-10.92,6.46-16.36"/>
      <path id="path50" class="cls-5" d="m137.5,118.73c1.23-.59,2.47-1.15,3.72-1.68,1.42,3.33,3,6.6,4.36,9.96.96,2.42.97,5.52-.98,7.46-2.03,1.98-5.1,3.21-7.92,2.44-2.36-.83-3.79-3.08-4.74-5.27-1.28-2.93-2.67-5.83-3.82-8.83,1.22-.5,2.43-1.03,3.63-1.58,1.5,3.18,2.84,6.44,4.32,9.62.67,1.47,2.03,3.1,3.85,2.7,1.9-.34,2.93-2.51,2.16-4.25-1.32-3.61-3.09-7.04-4.58-10.58"/>
      <path id="path52" class="cls-5" d="m422.5,120.57c1.17-.61,2.34-1.23,3.51-1.85.83.39,1.65.78,2.49,1.18.31,1.33.57,2.68.82,4.03-1.47-.51-3.01-1.23-2.74-3.08-.65.33-1.3.66-1.93.98-.72-.42-1.44-.83-2.14-1.26"/>
      <path id="path54" class="cls-5" d="m428.68,118.06c1.03.47,2.08.94,3.12,1.4.13,1.2.26,2.4.41,3.6-2.55-.36-2.7-3.11-3.53-5"/>
      <path id="path56" class="cls-5" d="m420.9,125.73c-2.25,1.26-3.48,3.8-3.89,6.25-.4,2.27,1.38,4.57,3.7,4.66,3.46-.42,5.49-4.25,5.51-7.45.27-2.7-2.95-4.85-5.32-3.46Zm-1.68-3.36c4.16-1.56,9.44.9,10.81,5.16,1.15,4.15-.78,8.82-4.25,11.26-4.63,3.13-12.05,0-12.79-5.61-.61-4.39,1.98-9.26,6.23-10.81"/>
      <path id="path58" class="cls-5" d="m118.47,131.11c-1.65.68-2.67,2.51-2.37,4.27.39,2.8,2.13,5.83,5,6.61,2.83.66,5.15-2.45,4.24-5.06-.68-3.01-3.32-6.85-6.86-5.83Zm-6.37,3.67c.46-5.11,6.36-8.77,11.14-6.98,4.97,1.98,7.86,8.66,5.06,13.44,1.36-.36,2.71-.72,4.05-1.13.18,1.1.36,2.2.53,3.3-2.1.52-4.24.79-6.38,1.02-2.04.2-3.9,1.42-6,1.19-5.27-.21-8.84-5.92-8.41-10.83"/>
      <path id="path60" class="cls-5" d="m420.67,267.64c-.24,2.2-.28,4.41-.45,6.61-1.77,22.48-9.58,44.43-22.29,63.05,19.41-.08,38.83.09,58.24-.09,5.16-4.08,9.59-9.06,13.92-14.01,13.27-15.55,22.72-34.96,23.94-55.57h-73.36Zm-360.16.03c.82,11.22,3.79,22.27,8.75,32.38,6.7,13.89,16.65,26.02,28.01,36.36.54.61,1.27.97,2.11.87,20.99.02,41.99-.01,62.99.02-13.98-20.42-22.01-44.89-22.67-69.65-26.4-.02-52.8-.05-79.19.02Zm334.51-81.74c16.76,22.69,26.01,50.86,25.62,79.1,24.51,0,49.02,0,73.54,0,.31-12.08-2.06-24.18-6.73-35.32-7.16-17.09-19.23-31.7-33.17-43.74-19.75-.07-39.51-.01-59.26-.03Zm-295.82.98c-9.87,8.69-18.72,18.65-25.52,29.94-8.76,14.41-13.85,31.25-13.21,48.18,26.41,0,52.81,0,79.22.01-.48-28.24,8.81-56.43,25.59-79.1-21.42-.02-42.84-.01-64.26,0-.78-.13-1.27.57-1.82.97h0Zm207.81-55.88c15.06,2.84,29.68,8.06,43.09,15.49,16.71,9.2,31.39,21.94,43.14,36.95,19.37.04,38.75-.01,58.12.03-20.35-16.62-44.22-28.52-69-36.96-24.33-8.35-49.77-13.13-75.35-15.5h0Zm-155.2,23.38c-17.37,7.56-33.93,17.13-48.65,29.1,21.14-.08,42.28.02,63.42-.04.72.06,1.03-.77,1.47-1.19,21.66-27.6,54.1-46.5,88.79-51.74-1.51-.04-3.01.06-4.5.22-34.46,2.48-68.77,9.88-100.53,23.66h0Zm125.7-26.42c0,.96.02,1.91.03,2.87-2.28.16-4.57.33-6.85.45h.06c-17.27,1.22-34.37,5.39-50.12,12.63-19.71,8.97-37.25,22.63-50.78,39.54,13.79,0,27.58-.02,41.38.01-.01.81-.02,1.62-.02,2.44-14.42,0-28.84,0-43.26,0-17.14,22.51-26.87,50.74-26.31,79.09,23.19,0,46.38,0,69.58,0,0,.87,0,1.73,0,2.61h-69.6c.72,24.83,9,49.34,23.31,69.63,15.42.05,30.84.03,46.26.01,0,.82,0,1.63-.01,2.46-14.84-.05-29.67,0-44.51-.03,8.35,11.4,18.52,21.47,29.98,29.74,0,.96,0,1.92,0,2.88-12.14-8.67-22.94-19.24-31.69-31.33-.46-.48-.78-1.42-1.61-1.27-20.77-.04-41.55.02-62.33-.03,19.03,16.12,41.41,27.91,64.73,36.52,23.82,8.72,48.79,14.31,74.01,16.89-14.56-4.14-28.41-10.71-40.91-19.24,1.31-.29,2.66-.21,3.99-.2,14.05,9.15,29.8,15.65,46.16,19.28,5.07,1.17,10.24,1.95,15.45,1.95,7.58.33,15.15.35,22.73.13,8.53-.41,17.19-.32,25.52-2.41,15.81-3.69,31.08-10,44.66-18.93,1.27.12,2.75-.41,3.86.39-11.41,7.6-23.81,13.76-36.88,17.9,27.42-3.67,54.47-10.79,79.82-21.96,17.7-7.84,34.59-17.76,49.38-30.31-19.1.06-38.21-.07-57.32.06-9.25,13.13-20.95,24.42-34.07,33.67l-.31-.18c-.15-.49-.43-1.49-.57-1.99.22-.18.65-.56.87-.74,12.08-8.48,22.73-18.96,31.51-30.82-16.84.03-33.67.02-50.51,0,0-.61,0-1.81.01-2.42,17.43-.07,34.87.12,52.3-.09,14.18-20.32,22.56-44.76,23.19-69.57h-73.26c0-.87-.01-1.73-.01-2.6,24.46-.02,48.91.01,73.37-.01.38-28.35-9.24-56.57-26.39-79.09h-46.97c0-.82-.01-1.64,0-2.46,15.02-.01,30.04.03,45.06-.02-10.34-12.91-23.01-23.96-37.24-32.4-19.34-11.58-41.51-18.36-64-19.72l.33.02c-2.61-.27-5.24-.24-7.86-.44-.53,0-.98-.18-1.34-.56.08-.59.23-1.78.3-2.37-1.04,0-2.08,0-3.11.01h0Zm-14.08-.34c28.25-1,56.65,1.06,84.33,6.88,21.66,4.54,42.9,11.31,62.94,20.76,20.63,9.79,40.15,22.49,55.99,39.06,14.11,14.75,25.13,33.08,28.68,53.37,3.46,19.03-.1,39.02-9.13,56.05-8.24,15.75-20.38,29.18-34.13,40.33-16.33,13.22-34.94,23.42-54.37,31.33-24.48,9.92-50.37,16.2-76.55,19.5-5.4.72-10.83,1.09-16.22,1.82-11.34,1.85-22.88,2.56-34.34,1.75-5.61-.24-11.14-1.3-16.75-1.61-26.41-1.73-52.67-6.42-77.88-14.51-21.62-6.98-42.54-16.48-61.36-29.26-18.32-12.51-34.89-28.35-45.55-47.99-6.64-12.16-10.58-25.81-11.17-39.66.23-2.97-.02-5.95.23-8.92,1.16-17.14,7.83-33.58,17.69-47.53,10.7-15.21,24.82-27.75,40.21-38.06,19.52-12.98,41.16-22.52,63.52-29.41,27.18-8.35,55.49-12.77,83.87-13.9"/>
      <path id="path62" class="cls-5" d="m436.46,146.7c-1.76-5.29,2.46-11.75,8.09-12.02,3.62-.2,7.01,1.77,9.33,4.43-.79.8-1.59,1.6-2.38,2.4-1.73-1.96-4.38-3.92-7.13-2.95-2.54,1.09-4.44,3.95-4.08,6.74.54,2.84,3.41,4.31,5.96,4.99-.41,1.01-.79,2.03-1.17,3.06-3.59-.89-7.29-3.01-8.62-6.65"/>
      <path id="path64" class="cls-5" d="m93.16,144.19c1.47-3.01,4.54-5.01,7.73-5.8.32,1.04.65,2.08.98,3.12-2.58.77-5.47,2.53-5.64,5.52.01,2.97,2.31,6.03,5.35,6.43,2.49.06,4.56-1.67,6.09-3.47.78.78,1.56,1.57,2.33,2.37-2.27,2.64-5.35,5.01-8.99,4.99-6.24.06-10.69-7.73-7.85-13.16"/>
      <path id="path66" class="cls-5" d="m447.58,155.42c3.37-4.8,6.84-9.53,10.19-14.34,1.12.78,2.24,1.56,3.36,2.35-1.3,1.84-2.65,3.64-3.88,5.52,1.73,1.2,3.42,2.45,5.14,3.66,1.3-1.82,2.61-3.64,3.9-5.46,1.11.78,2.22,1.57,3.36,2.33-3.43,4.79-6.81,9.62-10.27,14.38-1.1-.8-2.2-1.6-3.3-2.38,1.4-1.98,2.85-3.94,4.21-5.95-1.7-1.26-3.42-2.48-5.16-3.69-1.42,1.98-2.81,3.98-4.27,5.94-1.09-.8-2.18-1.58-3.28-2.36"/>
      <path id="path68" class="cls-5" d="m81.82,155.14c-1.66.83-2.7,2.85-2,4.65.82,2.6,2.87,5.12,5.62,5.72,2.75.55,5.16-2.6,4.01-5.14-1.08-3-4.16-6.42-7.64-5.22h0Zm-.55-3.44c5.69-2.43,11.86,3,12.25,8.65.58,5.42-5.41,10.29-10.61,8.63-4.22-1.36-7.46-5.81-6.99-10.3.16-3.13,2.58-5.76,5.35-6.98"/>
      <path id="path70" class="cls-5" d="m474.1,152.29c1.28-.38,2.57-.74,3.87-1.1,1.1.89,2.2,1.79,3.28,2.7-1.53.18-3.06.36-4.59.52-.87-.69-1.72-1.4-2.56-2.12"/>
      <path id="path72" class="cls-5" d="m462.43,166.55c3.67-4.56,7.42-9.06,11.13-13.6,1.07.83,2.12,1.68,3.17,2.55-3.7,4.57-7.44,9.1-11.17,13.64-1.06-.85-2.1-1.71-3.13-2.58"/>
      <path id="path74" class="cls-5" d="m69.01,162.08c4.17,4.16,8.38,8.28,12.47,12.51-.97.93-1.92,1.87-2.86,2.81-1.75-1.68-3.44-3.43-5.17-5.12-1.48,1.5-3,2.98-4.46,4.51,1.72,1.7,3.43,3.41,5.13,5.12-.96.96-1.92,1.92-2.88,2.88-4.16-4.16-8.31-8.33-12.48-12.47.96-.96,1.91-1.92,2.88-2.87,1.59,1.55,3.15,3.11,4.7,4.7,1.53-1.47,3.02-2.98,4.51-4.49-1.57-1.57-3.15-3.15-4.71-4.72.95-.96,1.91-1.92,2.88-2.87"/>
      <path id="path76" class="cls-5" d="m472.99,175.22c4.5-3.82,9.05-7.59,13.56-11.41,1.22,1.31,2.42,2.63,3.71,3.88-2.01,3.59-4.07,7.15-6.39,10.55,3.59-2.05,7.29-3.87,11-5.68,1.23,1.28,2.42,2.58,3.66,3.86-4.02,4.28-8.08,8.53-12.07,12.84-.97-.93-1.88-1.91-2.73-2.95,3.05-3.18,6.12-6.33,9.24-9.44-4.04,2.06-8.08,4.11-12.19,6.03-.72-.73-1.46-1.47-2.18-2.19,2.26-3.92,4.56-7.82,7.14-11.54-3.35,2.92-6.67,5.87-10.08,8.73-.9-.89-1.8-1.78-2.67-2.67"/>
      <path id="path78" class="cls-5" d="m91.77,168.35c1.02-.68,2,.23,2.69.92.05,1.13-.36,2.6-1.76,2.55-1.96.39-2.7-2.77-.93-3.47"/>
      <path id="path80" class="cls-5" d="m488.94,191.93c4.61-3.65,9.27-7.24,13.9-10.85.83,1.07,1.67,2.15,2.51,3.23-4.61,3.62-9.27,7.16-13.85,10.82-.87-1.05-1.73-2.12-2.56-3.2"/>
      <path id="path82" class="cls-5" d="m48.36,184.93c.83-1.07,1.67-2.15,2.51-3.21,4.64,3.6,9.29,7.17,13.91,10.78-.83,1.08-1.66,2.16-2.51,3.22-4.62-3.61-9.29-7.18-13.91-10.79"/>
      <path id="path84" class="cls-5" d="m493.44,198.45c4.99-3.07,9.9-6.26,14.87-9.37.84,1.34,1.69,2.68,2.55,4.02-2.22,3.93-4.12,8.05-6.77,11.72,3.23-2.34,6.62-4.47,10.02-6.56.71,1.04,1.37,2.11,1.99,3.21-4.99,3.07-9.88,6.29-14.87,9.35-.78-1.21-1.55-2.42-2.27-3.67,2.41-4.09,4.45-8.39,7.1-12.33-3.5,2.37-7.05,4.65-10.66,6.85-.66-1.07-1.32-2.14-1.96-3.22"/>
      <path id="path86" class="cls-5" d="m43.84,197.16c1.64,1.65,3.15,3.43,4.77,5.09.65-1.01,1.29-2.02,1.92-3.04-2.23-.7-4.49-1.28-6.7-2.05Zm-4.12.4c1.05-1.43,1.72-3.23,3.01-4.41,5.89,1.53,11.76,3.15,17.64,4.72-.8,1.23-1.58,2.48-2.35,3.73-1.51-.43-3.02-.86-4.54-1.27-.85,1.38-1.72,2.75-2.6,4.11,1.05,1.17,2.1,2.33,3.1,3.54-.76,1.16-1.5,2.33-2.23,3.51-4.03-4.63-7.99-9.32-12.03-13.93"/>
      <path id="path88" class="cls-5" d="m58.5,205.07c2.02-.79,3.72,2.25,1.72,3.37-2.21,1.56-4.25-2.53-1.72-3.37"/>
      <path id="path90" class="cls-5" d="m502.9,214.08c5.39-2.33,10.74-4.72,16.12-7.06.54,1.25,1.09,2.48,1.63,3.74-2.06.88-4.09,1.81-6.14,2.68.84,1.95,1.68,3.89,2.56,5.82,2.06-.86,4.08-1.8,6.15-2.66.53,1.22,1.08,2.44,1.65,3.65-5.34,2.47-10.76,4.75-16.12,7.14-.56-1.24-1.11-2.48-1.65-3.73,2.22-.99,4.46-1.95,6.69-2.93-.85-1.95-1.69-3.9-2.56-5.83-2.25.94-4.45,1.97-6.7,2.92-.56-1.24-1.1-2.49-1.63-3.74"/>
      <path id="path92" class="cls-5" d="m33.18,216.98c1.2.58,2.41,1.13,3.63,1.67.49-1.06.97-2.12,1.45-3.18.98.43,1.96.88,2.92,1.36-.47,1.02-.94,2.06-1.41,3.08,1.31.64,2.63,1.25,3.99,1.8.5-1.12,1.14-2.24,1.17-3.5.46-3.63-3.49-6.13-6.71-6.16-2.77-.09-4.27,2.66-5.04,4.94h0Zm.9-7.43c4.74-3.97,12.82-.47,14.17,5.27.68,4.26-1.42,8.27-3.41,11.87-2.26-1-4.49-2.07-6.78-3-.19.41-.56,1.24-.74,1.65-.95-.44-1.9-.87-2.85-1.3.17-.44.5-1.31.67-1.75-2.08-.88-4.16-1.81-6.22-2.74,1.17-3.56,2.35-7.4,5.17-10.02"/>
      <path id="path94" class="cls-5" d="m24.54,251.21c3.31-1.27,7.45.37,8.72,3.75,1.91,3.99-1.17,9.19-5.57,9.45-3.85.54-7.77-2.85-7.5-6.79-.18-2.8,1.75-5.49,4.36-6.41"/>
      <path id="path96" class="cls-5" d="m523.16,251.34c3.87-1.81,8.93.84,9.5,5.11.84,4.09-2.77,8.34-6.97,7.99-4.21.1-7.57-4.45-6.43-8.44.44-2.07,1.97-3.81,3.9-4.65"/>
      <path id="path98" class="cls-5" d="m30.25,284.66c1.1-.37,2.22-.68,3.35-.93,1.13,4.34,2.36,8.65,3.56,12.96-1.09.37-2.2.69-3.32.99-.41-1.53-.83-3.06-1.28-4.59-4.57,1.18-9.09,2.57-13.68,3.7-.33-1.3-.68-2.59-1.03-3.87,4.55-1.25,9.1-2.51,13.65-3.77-.43-1.5-.84-3-1.26-4.49"/>
      <path id="path100" class="cls-5" d="m516.1,287.69c.33-1.21.68-2.41,1.06-3.6,5.63,1.61,11.23,3.27,16.88,4.79-.38,1.39-.77,2.77-1.19,4.15-4.63,1.02-9.23,2.21-13.92,2.97,4.06,1.01,8.07,2.17,12.1,3.31-.31,1.22-.65,2.44-.97,3.66-5.63-1.62-11.26-3.22-16.89-4.83.39-1.53.82-3.05,1.26-4.56,4.51-1.07,8.99-2.29,13.6-2.9-4.08-.52-7.97-1.92-11.92-2.99"/>
      <path id="path102" class="cls-5" d="m32.13,305.16c.56,1.26,1.04,2.83,2.47,3.34,1.02.43,2.12-.33,2.75-1.11.69-1.38-.3-2.82-.8-4.09-1.49.57-2.97,1.19-4.42,1.85h0Zm-10.58,0c5.32-2.16,10.61-4.42,15.89-6.69,1.72,3.11,3.89,6.49,3.48,10.19-.57,3.6-5.5,4.86-8.01,2.37-.67,3.22-4.19,4.31-6.22,6.51-.55-1.28-1.1-2.57-1.64-3.85,1.43-1.5,3.32-2.48,4.7-4.01.78-1.04.03-2.32-.33-3.36-2.13.83-4.22,1.77-6.34,2.66-.57-1.25-1.11-2.51-1.53-3.81"/>
      <path id="path104" class="cls-5" d="m506.86,301.96c2.85,1.3,2.36,5.39-.04,6.86-.96.57-2.09.28-3.1.06.26-.63.56-1.25.91-1.83,1-.21,2.29-.96,1.84-2.18-.59-.99,0-1.98.38-2.91"/>
      <path id="path106" class="cls-5" d="m512.01,308.76c1.82,1.4,3.57,2.9,5.34,4.38.52-1.11,1.03-2.22,1.55-3.33-2.3-.33-4.6-.68-6.89-1.05h0Zm-4.09.88c.76-1.6,1.49-3.21,2.25-4.81,6.11.79,12.22,1.62,18.34,2.33-.67,1.29-1.29,2.61-1.82,3.96-1.58-.12-3.14-.36-4.7-.61-.68,1.48-1.37,2.96-2.05,4.45,1.13,1.03,2.31,2.02,3.52,2.97-.56,1.32-1.14,2.63-1.75,3.92-4.57-4.1-9.18-8.17-13.8-12.22"/>
      <path id="path108" class="cls-5" d="m34.57,317.36c3.01-1.83,6.08-3.59,9.09-5.41.69,1.17,1.37,2.34,2.07,3.51-3.05,1.86-6.15,3.62-9.19,5.49-1.08.79-2.37,1.87-2.2,3.37.01,1.14.95,2.03,1.85,2.61,1.35.33,2.69-.14,3.84-.83,2.98-1.73,5.93-3.51,8.89-5.27.7,1.14,1.3,2.36,2.17,3.39,1.05.29,1.53-.89,2.18-1.46.62.74,1.24,1.49,1.88,2.23-.9,1.07-2.02,2.22-3.52,2.25-1.15-.01-1.85-1.01-2.58-1.72-3.39,1.75-6.4,4.43-10.18,5.28-4.26.94-7.75-3.18-8.18-7.08-.24-2.72,1.73-5,3.9-6.36"/>
      <path id="path110" class="cls-5" d="m503.96,317.18c.74-1.23,1.48-2.45,2.24-3.67,4,4.72,7.91,9.52,11.91,14.23-.81,1.36-1.64,2.71-2.49,4.05-5.93-1.47-11.86-2.96-17.81-4.35.53-1.4,1.42-2.61,2.22-3.86,4.46,1.26,8.96,2.39,13.37,3.87-3.36-3.22-6.39-6.78-9.44-10.28"/>
      <path id="path112" class="cls-5" d="m58.58,328.16c1.02.97,1.87,2.1,2.68,3.25-.41,1.24-.8,2.48-1.2,3.72-.68-.84-1.36-1.69-2.03-2.53.16-1.48.32-2.97.56-4.44"/>
      <path id="path114" class="cls-5" d="m51.25,334.67c-2.55.95-4.99,2.97-5.47,5.77-.28,2.25,1.92,4.35,4.17,3.92,2.9-.43,5.62-2.69,6.46-5.52.76-2.86-2.55-5.35-5.17-4.17Zm-9.22,4.66c.55-5.42,6.36-9.73,11.71-8.53,3.25.76,5.71,3.61,6.41,6.82.32.75.34,1.99,1.39,2.08.82-.41,1.25-1.26,1.78-1.96.72.64,1.45,1.28,2.18,1.91-.86,2.25-3.64,3.96-5.74,2.1-1.76,4.11-6.43,7.29-10.97,6.4-3.91-.88-7-4.79-6.76-8.82"/>
      <path id="path116" class="cls-5" d="m491.5,335.1c.81-.93,1.61-1.86,2.41-2.81,4.55,3.7,8.93,7.6,13.48,11.3-.89,1.12-1.82,2.22-2.77,3.28-4.69-.93-9.4-1.75-14-3.02,3.34,2.6,6.58,5.32,9.78,8.09-.81.95-1.63,1.89-2.45,2.83-4.49-3.75-8.93-7.56-13.42-11.31.97-1.25,1.98-2.45,3-3.66,4.43.89,8.93,1.51,13.24,2.9-3.19-2.41-6.28-4.95-9.27-7.61"/>
      <path id="path118" class="cls-5" d="m52.47,354.68c4.14-4.15,8.39-8.18,12.5-12.36,1.13,1.08,2.24,2.2,3.32,3.34-1.22,4.31-2.3,8.68-3.99,12.84,2.65-2.92,5.45-5.71,8.26-8.49.9.88,1.78,1.77,2.67,2.67-4.17,4.14-8.25,8.39-12.55,12.39-.99-.98-1.97-1.96-2.96-2.95,1.37-4.57,2.56-9.19,4.26-13.65-2.93,2.99-5.91,5.94-8.88,8.9-.89-.89-1.77-1.78-2.64-2.7"/>
      <path id="path120" class="cls-5" d="m473.59,348.5c.72-.64,1.41-1.3,2.1-1.98,1.4.14,2.8.31,4.2.51-.66.69-1.34,1.37-2.04,2.01-.69-.1-1.38-.19-2.07-.27.06.74.12,1.48.17,2.23-.68.58-1.35,1.17-2.02,1.76-.14-1.42-.26-2.83-.33-4.25"/>
      <path id="path122" class="cls-5" d="m479.53,353.05c1.22,1.98,2.35,4.01,3.4,6.08.92-.81,1.81-1.65,2.69-2.51-2.04-1.17-4.09-2.33-6.09-3.57Zm-.26-4.3c5.41,2.96,10.79,5.95,16.2,8.92-1.05,1.04-2.13,2.05-3.22,3.05-1.36-.76-2.7-1.52-4.03-2.31-1.16,1.15-2.33,2.28-3.57,3.35.73,1.39,1.48,2.78,2.21,4.19-1.03.93-2.03,1.91-3,2.9-2.83-5.45-5.56-10.94-8.38-16.4,1.25-1.25,2.56-2.42,3.79-3.69"/>
      <path id="path124" class="cls-5" d="m69.49,369.75c-2.22-5.56,2.96-12.22,8.83-11.88,4.12.25,7.63,3.13,9.73,6.53-.92.68-1.87,1.33-2.83,1.96-1.21-2.05-3.01-3.95-5.37-4.59-3.48-.79-6.74,2.62-6.78,5.96.03,2.27,1.86,3.89,3.6,5.06.77-.95,1.55-1.9,2.32-2.84-.68-.57-1.37-1.13-2.06-1.7.69-.83,1.38-1.66,2.06-2.49,1.74,1.37,3.41,2.84,5.13,4.23-1.97,2.42-4,4.81-5.98,7.23-3.52-1.52-7.09-3.81-8.65-7.45"/>
      <path id="path126" class="cls-5" d="m466.85,359.98c1.04-.86,2.11-1.71,3.2-2.53,3.65,4.59,7.31,9.15,10.95,13.75-1.04.86-2.1,1.69-3.16,2.52-1.55-1.87-3.03-3.77-4.55-5.65-1.71,1.26-3.32,2.63-5,3.93,1.51,1.9,3.03,3.8,4.55,5.7-1.04.88-2.11,1.73-3.21,2.55-3.67-4.57-7.3-9.17-10.96-13.74,1.05-.86,2.11-1.71,3.17-2.56,1.39,1.75,2.78,3.49,4.18,5.22,1.69-1.28,3.33-2.65,5.01-3.95-1.42-1.73-2.82-3.47-4.18-5.24"/>
      <path id="path128" class="cls-5" d="m452.91,370.55c1.03-.7,2.05-1.41,3.06-2.13,3.35,4.84,6.52,9.8,9.86,14.65-1.19.78-2.37,1.57-3.56,2.36-4.22-2.15-8.44-4.29-12.54-6.65,2.46,3.36,4.76,6.84,7.05,10.33-1.06.68-2.11,1.38-3.15,2.08-3.24-4.89-6.44-9.8-9.78-14.61,1.31-.89,2.63-1.77,3.95-2.64,3.97,2.01,8.05,3.85,11.78,6.31-2.31-3.18-4.52-6.42-6.68-9.7"/>
      <path id="path130" class="cls-5" d="m97.79,374.26c-.72,1.11-1.43,2.22-2.16,3.33.96.63,1.91,1.27,2.87,1.91-.59.9-1.18,1.8-1.76,2.71-.97-.65-1.94-1.3-2.92-1.92-.79,1.22-1.58,2.43-2.38,3.64,1.72,1.18,3.84,2.56,6,1.74,2.37-.94,4-3.3,4.53-5.74.38-2.7-2.07-4.56-4.18-5.67h0Zm-1.81-4.64c3.23,1.69,6.73,3.41,8.85,6.49,3.95,5.9-2.6,14.84-9.4,13.17-3.45-.77-6.36-2.93-9.07-5.1,1.36-2.05,2.7-4.1,4.04-6.15-.51-.34-1.02-.68-1.53-1.01.59-.9,1.18-1.8,1.76-2.69.53.33,1.05.67,1.58,1.02,1.21-1.94,2.49-3.82,3.76-5.73"/>
      <path id="path132" class="cls-5" d="m110.1,390.08c1.07.61,2.15,1.19,3.26,1.73.51-2.27,1.07-4.52,1.57-6.78-1.49,1.8-3.19,3.4-4.83,5.05h0Zm-8.99,3.64c4.48-4.2,8.83-8.54,13.31-12.73,1.54.87,3.1,1.71,4.61,2.65-1.34,5.96-2.57,11.96-3.8,17.95-1.31-.68-2.6-1.39-3.88-2.12.33-1.53.67-3.06,1.01-4.59-1.42-.78-2.84-1.58-4.26-2.37-1.09,1.09-2.19,2.18-3.28,3.28-1.25-.67-2.48-1.37-3.71-2.07"/>
      <path id="path134" class="cls-5" d="m424.13,383.06c1.21-.76,2.46-1.45,3.74-2.08,1.18.59,2.37,1.19,3.55,1.82-.98.53-1.96,1.06-2.93,1.59-1.45-.47-2.91-.9-4.36-1.32"/>
      <path id="path136" class="cls-5" d="m431.41,387.48c.64,2.23,1.16,4.5,1.65,6.78,1.07-.58,2.15-1.15,3.22-1.75-1.7-1.61-3.26-3.34-4.87-5.03Zm-3.73-1.68c1.54-.87,3.12-1.71,4.68-2.55,4.4,4.3,8.77,8.63,13.19,12.91-1.32.73-2.65,1.44-4,2.1-1.07-1.11-2.15-2.2-3.22-3.28-1.46.75-2.91,1.52-4.34,2.32.33,1.5.68,2.98,1.02,4.48-1.22.69-2.46,1.37-3.69,2.06-1.17-6.03-2.38-12.04-3.65-18.04"/>
      <path id="path138" class="cls-5" d="m126.02,387.25c1.22.58,2.43,1.17,3.64,1.77-2.61,5.25-5.14,10.54-7.8,15.76-1.23-.59-2.47-1.17-3.72-1.72,2.61-5.29,5.27-10.53,7.88-15.81"/>
      <path id="path140" class="cls-5" d="m423.65,387.95c.73,6.16,1.38,12.32,2.04,18.49-1.43.66-2.85,1.33-4.3,1.97-4.12-4.56-8.29-9.07-12.5-13.56,1.35-.66,2.7-1.3,4.06-1.94,3.01,3.51,6.16,6.91,8.97,10.6-.87-4.56-1.54-9.15-2.13-13.75,1.29-.59,2.58-1.2,3.86-1.82"/>
      <path id="path142" class="cls-5" d="m137.99,393.12c1.23.5,2.46,1.01,3.7,1.5-.68,2.13-1.65,4.16-2.47,6.25,1.93.84,3.88,1.63,5.82,2.45.93-2.03,1.73-4.13,2.64-6.17,1.25.52,2.49,1.03,3.74,1.55-2.21,5.42-4.53,10.79-6.71,16.22-1.28-.48-2.55-1-3.8-1.54.94-2.25,1.87-4.49,2.8-6.74-1.95-.82-3.9-1.65-5.85-2.45-.99,2.23-1.89,4.5-2.85,6.74-1.25-.53-2.49-1.04-3.74-1.56,2.19-5.44,4.52-10.82,6.72-16.25"/>
      <path id="path144" class="cls-5" d="m398.83,398.77c1.27-.54,2.57-1.02,3.9-1.42,1.96,5.5,4.3,10.86,6.31,16.34-1.26.49-2.51.98-3.78,1.44-2.13-5.46-4.29-10.9-6.42-16.35"/>
      <path id="path146" class="cls-5" d="m385.57,399.18c.94-.35,1.88-.69,2.83-1.03,1.21.75,2.43,1.5,3.64,2.27-1.5.71-3.12,1.24-4.47-.04-.23,1.85-1.91,2.4-3.48,2.81.47-1.35.97-2.67,1.48-4"/>
      <path id="path148" class="cls-5" d="m105.05,399.4c1.18-.84,3.27.05,2.98,1.61-.03,1.24-1.35,2.2-2.52,1.75-1.42-.42-1.68-2.57-.46-3.36"/>
      <path id="path150" class="cls-5" d="m158.03,405.31c-2.67,1.7-4.01,5.24-3.34,8.3.55,2.34,3.6,3.6,5.57,2.15,2.35-1.78,3.55-5.06,2.97-7.94-.37-2.29-3.2-3.64-5.21-2.5Zm-.22-3.66c3.7-.52,7.93,1.37,9.27,5.02,1.35,3.89-.03,8.48-3.06,11.21-4.11,3.67-11.79,1.56-13.33-3.78-1.46-5.07,1.62-11.57,7.12-12.44"/>
      <path id="path152" class="cls-5" d="m388.63,405.66c-2.64,1.68-2.1,5.37-.88,7.78.92,2.15,3.49,4.04,5.81,2.76,2.97-1.65,2.31-5.84.82-8.3-1.02-2.04-3.6-3.61-5.75-2.23h0Zm-.17-3.49c2.9-.97,6.41-.33,8.45,2.03,2.87,3.12,3.94,8.28,1.61,11.99-2.04,2.95-6.06,4.49-9.53,3.56-4.49-1.34-6.87-6.49-6.3-10.91.37-3.13,2.78-5.77,5.76-6.68"/>
      <path id="path154" class="cls-5" d="m373.81,407.19c1.31-.37,2.61-.73,3.92-1.1,1.55,5.67,3.16,11.32,4.72,16.98-1.32.34-2.63.69-3.95,1.04-.6-2.34-1.28-4.66-1.92-6.99-2.06.53-4.12,1.1-6.16,1.71.65,2.35,1.37,4.67,1.92,7.05-1.27.32-2.52.68-3.77,1.07-1.76-5.61-3.22-11.31-4.8-16.98,1.31-.37,2.62-.73,3.96-1.01.51,2.15,1.14,4.27,1.73,6.4,2.06-.58,4.12-1.13,6.17-1.75-.64-2.14-1.22-4.29-1.82-6.44"/>
      <path id="path156" class="cls-5" d="m172.21,409.43c3.67-2.9,9.09-2.1,12.68.54-.56.96-1.12,1.92-1.68,2.88-1.97-1.32-4.5-2.42-6.85-1.43-3.01,1.45-4.37,5.78-2.59,8.64,1.46,2.1,4.21,2.64,6.61,2.59-.18,1.06.04,2.27-.46,3.23-3.21.18-6.59-.79-8.98-2.98-3.67-3.69-2.56-10.31,1.26-13.46"/>
      <path id="path158" class="cls-5" d="m348.72,409.94c-.05-1.3,1.07-1.44,2.08-1.63.01,1.04.34,2.21-.25,3.17-1.18,1.17-2.86.41-4.24.16-.1.33-.29,1.01-.39,1.34-.61.08-1.21.17-1.81.26.03-1.26-.36-2.88.98-3.63,1.21-.21,2.42.15,3.62.33"/>
      <path id="path160" class="cls-5" d="m189.3,428.56c1.34-5.71,2.39-11.48,3.8-17.17,1.28.29,2.56.57,3.85.83-.45,2.46-1.09,4.88-1.51,7.34,2.16-2.1,4.33-4.17,6.51-6.25,1.61.36,3.22.68,4.83,1.05-2.28,2.16-4.77,4.09-7.17,6.11,1.32,3.72,2.53,7.47,3.87,11.18-1.55-.37-3.1-.7-4.65-1.03-.87-2.73-1.76-5.46-2.58-8.21-.59.47-1.18.96-1.77,1.44-.41,1.85-.8,3.71-1.2,5.57-1.33-.27-2.65-.55-3.97-.87"/>
      <path id="path162" class="cls-5" d="m348.24,416.6c.04,2.37-.13,4.75-.32,7.12,1.2-.26,2.4-.5,3.61-.73-1.12-2.12-2.18-4.27-3.3-6.39Zm-2.96-2.63c1.72-.29,3.43-.64,5.15-.98,2.95,5.37,5.91,10.73,8.84,16.11-1.43.29-2.85.57-4.26.89-.78-1.37-1.53-2.75-2.26-4.14-1.59.34-3.18.68-4.77.98-.13,1.55-.24,3.11-.34,4.67-1.37.26-2.75.53-4.11.82.62-6.12,1.12-12.24,1.76-18.36"/>
      <path id="path164" class="cls-5" d="m208.84,414.73c1.34.21,2.68.44,4.02.68-.39,2.2-.74,4.4-1.12,6.6,2.1.36,4.21.67,6.31,1.03.41-2.21.67-4.45,1.16-6.65,1.3.24,2.61.48,3.92.7-.92,5.78-1.94,11.55-2.81,17.34-1.35-.22-2.7-.44-4.04-.66.38-2.42.87-4.82,1.14-7.25-2.07-.31-4.14-.64-6.2-1-.49,2.39-.84,4.81-1.26,7.23-1.33-.24-2.67-.46-4.01-.65.99-5.79,1.91-11.58,2.87-17.37"/>
      <path id="path166" class="cls-5" d="m334.73,415.97c1.53-.24,3.06-.49,4.59-.72-1.17,3.08-2.4,6.15-3.56,9.25,2.17,2.7,4.37,5.37,6.53,8.08-1.58.14-3.16.74-4.74.59-1.37-1.81-2.67-3.68-3.93-5.56-.56,2.2-1.23,4.37-1.78,6.57-1.56.28-3.12.52-4.67.79,1.26-3.17,2.46-6.38,3.67-9.57-2.02-2.64-4.1-5.23-6.16-7.83,1.56-.3,3.12-.53,4.7-.72,1.2,1.82,2.42,3.61,3.67,5.4.5-2.11,1.07-4.21,1.7-6.29"/>
      <path id="path168" class="cls-5" d="m231.86,421.73c-2.53,1.47-3.15,4.92-2.71,7.59.28,2.4,2.85,4.5,5.24,3.41,2.91-1.57,3.46-5.45,2.76-8.39-.47-2.24-3.21-3.86-5.29-2.61h0Zm-1.63-3.11c3.2-1.17,7.17-.47,9.5,2.12,2.68,3.23,2.51,8.09.56,11.65-2.83,5.17-11.47,5.11-14.33.01-2.61-4.64-.96-11.77,4.28-13.78"/>
      <path id="path170" class="cls-5" d="m307.78,420.54c2.77-2.13,6.58-2.51,9.9-1.73-.18,1.11-.34,2.22-.48,3.34-2-.55-4.23-.58-6.06.48-3.63,2.24-3,8.69.96,10.22,2.01.73,4.16.07,6.13-.51.26,1.04.54,2.09.83,3.14-3.66,1.44-8.3,1.9-11.55-.72-4-3.57-4.07-10.88.28-14.22"/>
      <path id="path172" class="cls-5" d="m249.17,429.82c1.23.08,2.46.17,3.69.29-.52-2.31-1.08-4.6-1.46-6.93-.72,2.22-1.46,4.44-2.23,6.64Zm-.1-10.02c1.76.07,3.52.2,5.29.31,1.44,5.96,2.92,11.92,4.36,17.88-1.46-.08-2.92-.17-4.37-.26-.37-1.53-.73-3.06-1.09-4.58-1.62-.08-3.25-.19-4.86-.33-.52,1.49-1.03,2.99-1.56,4.47-1.4-.11-2.8-.21-4.18-.34,2.19-5.7,4.29-11.44,6.43-17.16"/>
      <path id="path174" class="cls-5" d="m292.45,423.51c-3.29,1.62-3.33,6.33-1.9,9.24.91,2.19,4.07,3,5.79,1.28,2.05-1.91,1.93-5.16,1.2-7.64-.59-2.1-2.91-3.81-5.09-2.88h0Zm-1.02-3.15c2.76-.65,6-.35,8.13,1.7,2.91,2.82,3.36,7.48,2.05,11.16-1.88,5.21-9.44,6.68-13.41,3.02-4.69-4.41-3.46-14.13,3.23-15.87"/>
      <path id="path176" class="cls-5" d="m267.96,420.66c1.38,0,2.76,0,4.15,0-.22,2.21-.22,4.44-.16,6.66,2.13-.04,4.27.04,6.4.18.01-2.3,0-4.59.02-6.88,1.38.06,2.75.15,4.14.21-.26,5.81,0,11.63-.27,17.44-1.33,0-2.66,0-3.99,0-.02-2.47-.04-4.93.12-7.39-2.15,0-4.29-.01-6.43,0,.03,2.46-.18,4.92-.16,7.39-1.33-.14-2.66-.19-3.99-.18-.1-5.82.29-11.63.16-17.44"/>
      <path id="path178" class="cls-5" d="m154.03,424.18c-1.78-.69-1.04-3.89.94-3.47,1.4-.04,1.79,1.41,1.75,2.53-.69.69-1.66,1.61-2.69.93"/>
      <path id="path180" class="cls-5" d="m394.16,421.29c1.3-1.12,3.37.36,2.91,1.95-.23,1.63-2.86,1.92-3.42.41-.52-.77-.17-1.83.52-2.36"/>
      <path id="path182" class="cls-5" d="m293.56,440.06c2-1.21,3.84,1.97,1.93,3.21-2.06,1.46-4.15-2.12-1.93-3.21"/>
      <path id="path184" class="cls-3" d="m293.56,440.06c-2.22,1.09-.13,4.66,1.93,3.21,1.91-1.24.07-4.42-1.93-3.21Zm100.59-18.76c-.68.53-1.03,1.59-.52,2.36.56,1.51,3.19,1.23,3.42-.41.47-1.59-1.61-3.07-2.91-1.95Zm-240.12,2.89c1.03.67,2-.24,2.69-.93.04-1.12-.36-2.58-1.75-2.53-1.98-.42-2.72,2.78-.94,3.47Zm113.93-3.52c.13,5.81-.26,11.62-.16,17.44,1.33-.01,2.66.04,3.99.18-.02-2.46.18-4.92.16-7.39,2.14-.01,4.29,0,6.43,0-.16,2.46-.14,4.92-.12,7.39,1.32,0,2.65,0,3.99,0,.27-5.81,0-11.63.27-17.44-1.38-.06-2.76-.16-4.14-.21-.02,2.29,0,4.59-.02,6.88-2.13-.14-4.27-.22-6.4-.18-.06-2.23-.06-4.45.16-6.66-1.38-.01-2.77-.01-4.15,0Zm23.47-.3c-6.69,1.73-7.92,11.46-3.23,15.87,3.97,3.66,11.52,2.19,13.41-3.02,1.31-3.68.86-8.33-2.05-11.16-2.13-2.05-5.37-2.35-8.13-1.7Zm-42.36-.56c-2.14,5.72-4.24,11.46-6.43,17.16,1.39.13,2.78.23,4.18.34.53-1.49,1.04-2.98,1.56-4.47,1.62.13,3.24.24,4.86.33.36,1.52.72,3.05,1.09,4.58,1.46.09,2.91.17,4.37.26-1.44-5.96-2.92-11.92-4.36-17.88-1.76-.11-3.52-.23-5.29-.31Zm58.71.74c-4.35,3.34-4.27,10.65-.28,14.22,3.25,2.62,7.89,2.16,11.55.72-.29-1.05-.57-2.1-.83-3.14-1.97.58-4.11,1.24-6.13.51-3.96-1.53-4.59-7.98-.96-10.22,1.83-1.06,4.06-1.03,6.06-.48.14-1.12.3-2.23.48-3.34-3.33-.78-7.13-.41-9.9,1.73h0Zm-77.55-1.92c-5.24,2.01-6.89,9.14-4.28,13.78,2.87,5.1,11.51,5.16,14.33-.01,1.96-3.56,2.13-8.42-.56-11.65-2.33-2.58-6.3-3.28-9.5-2.12Zm104.51-2.65c-.63,2.07-1.2,4.17-1.7,6.29-1.24-1.79-2.47-3.59-3.67-5.4-1.57.18-3.14.42-4.7.72,2.06,2.6,4.15,5.19,6.16,7.83-1.21,3.2-2.41,6.4-3.67,9.57,1.55-.27,3.12-.51,4.67-.79.54-2.2,1.22-4.37,1.78-6.57,1.27,1.88,2.56,3.75,3.93,5.56,1.58.14,3.16-.45,4.74-.59-2.16-2.71-4.36-5.38-6.53-8.08,1.16-3.1,2.39-6.16,3.56-9.25-1.53.23-3.06.48-4.59.72h0Zm-125.89-1.24c-.96,5.79-1.88,11.58-2.87,17.37,1.34.19,2.67.41,4.01.65.42-2.41.77-4.84,1.26-7.23,2.06.36,4.12.69,6.2,1-.27,2.43-.76,4.84-1.14,7.25,1.34.21,2.69.44,4.04.66.87-5.79,1.89-11.56,2.81-17.34-1.31-.22-2.62-.46-3.92-.7-.49,2.2-.75,4.44-1.16,6.65-2.1-.36-4.21-.67-6.31-1.03.38-2.2.72-4.4,1.12-6.6-1.34-.24-2.68-.48-4.02-.68Zm136.44-.76c-.63,6.11-1.14,12.24-1.76,18.36,1.37-.28,2.74-.56,4.11-.82.1-1.56.22-3.12.34-4.67,1.6-.31,3.18-.64,4.77-.98.73,1.38,1.48,2.77,2.26,4.14,1.41-.32,2.83-.59,4.26-.89-2.93-5.38-5.9-10.74-8.84-16.11-1.72.33-3.43.68-5.15.98h0Zm-155.98,14.6c1.32.32,2.64.6,3.97.87.4-1.86.79-3.72,1.2-5.57.59-.48,1.18-.97,1.77-1.44.82,2.75,1.71,5.47,2.58,8.21,1.55.33,3.1.67,4.65,1.03-1.33-3.71-2.55-7.46-3.87-11.18,2.4-2.02,4.89-3.95,7.17-6.11-1.61-.37-3.22-.69-4.83-1.05-2.18,2.07-4.36,4.15-6.51,6.25.42-2.46,1.06-4.89,1.51-7.34-1.29-.27-2.57-.54-3.85-.83-1.41,5.69-2.46,11.46-3.8,17.17h0Zm159.42-18.63c-1.2-.18-2.41-.54-3.62-.33-1.34.74-.95,2.37-.98,3.63.6-.09,1.21-.17,1.81-.26.09-.33.29-1.01.39-1.34,1.38.25,3.05,1.01,4.24-.16.6-.96.26-2.13.25-3.17-1.02.18-2.13.33-2.08,1.63Zm-176.52-.51c-3.82,3.16-4.93,9.77-1.26,13.46,2.39,2.19,5.77,3.17,8.98,2.98.51-.96.28-2.17.46-3.23-2.4.05-5.15-.49-6.61-2.59-1.78-2.86-.42-7.19,2.59-8.64,2.35-.98,4.88.12,6.85,1.43.56-.96,1.12-1.92,1.68-2.88-3.6-2.63-9.01-3.44-12.68-.54h0Zm201.61-2.23c.6,2.15,1.18,4.3,1.82,6.44-2.05.61-4.11,1.17-6.17,1.75-.59-2.13-1.23-4.25-1.73-6.4-1.34.28-2.66.63-3.96,1.01,1.58,5.66,3.04,11.37,4.8,16.98,1.24-.39,2.5-.74,3.77-1.07-.54-2.38-1.27-4.71-1.92-7.05,2.04-.61,4.1-1.18,6.16-1.71.64,2.32,1.33,4.65,1.92,6.99,1.32-.34,2.63-.69,3.95-1.04-1.56-5.66-3.17-11.31-4.72-16.98-1.31.37-2.62.73-3.92,1.1Zm14.65-5.02c-2.98.91-5.39,3.55-5.76,6.68-.57,4.42,1.81,9.57,6.3,10.91,3.47.93,7.49-.61,9.53-3.56,2.32-3.71,1.26-8.87-1.61-11.99-2.05-2.37-5.55-3.01-8.45-2.03h0Zm-230.66-.52c-5.5.87-8.58,7.38-7.12,12.44,1.54,5.34,9.22,7.45,13.33,3.78,3.03-2.72,4.41-7.31,3.06-11.21-1.34-3.65-5.57-5.54-9.27-5.02Zm-52.75-2.25c-1.22.79-.96,2.93.46,3.36,1.18.44,2.49-.51,2.52-1.75.28-1.56-1.81-2.45-2.98-1.61h0Zm280.52-.22c-.51,1.33-1.01,2.66-1.48,4,1.57-.41,3.25-.96,3.48-2.81,1.36,1.28,2.97.75,4.47.04-1.21-.77-2.43-1.52-3.64-2.27-.95.34-1.89.68-2.83,1.03h0Zm13.25-.41c2.14,5.45,4.3,10.89,6.42,16.35,1.27-.46,2.52-.95,3.78-1.44-2.01-5.48-4.35-10.84-6.31-16.34-1.33.4-2.62.88-3.9,1.42Zm-260.83-5.65c-2.2,5.43-4.53,10.82-6.72,16.25,1.25.51,2.49,1.03,3.74,1.56.96-2.25,1.86-4.51,2.85-6.74,1.96.8,3.9,1.63,5.85,2.45-.93,2.25-1.86,4.49-2.8,6.74,1.25.54,2.51,1.06,3.8,1.54,2.18-5.43,4.5-10.81,6.71-16.22-1.25-.51-2.49-1.03-3.74-1.55-.91,2.04-1.71,4.14-2.64,6.17-1.94-.82-3.89-1.61-5.82-2.45.82-2.08,1.8-4.11,2.47-6.25-1.24-.49-2.47-.99-3.7-1.5h0Zm285.66-5.17c-1.28.62-2.57,1.22-3.86,1.82.59,4.6,1.26,9.19,2.13,13.75-2.81-3.69-5.96-7.09-8.97-10.6-1.36.64-2.71,1.28-4.06,1.94,4.2,4.49,8.38,9,12.5,13.56,1.45-.63,2.87-1.31,4.3-1.97-.66-6.17-1.31-12.33-2.04-18.49h0Zm-297.63-.69c-2.61,5.28-5.27,10.53-7.88,15.81,1.25.56,2.48,1.13,3.72,1.72,2.66-5.22,5.19-10.51,7.8-15.76-1.21-.6-2.42-1.2-3.64-1.77h0Zm301.65-1.45c1.26,6,2.47,12.01,3.65,18.04,1.22-.69,2.46-1.37,3.69-2.06-.34-1.5-.68-2.98-1.02-4.48,1.43-.8,2.88-1.57,4.34-2.32,1.07,1.09,2.15,2.18,3.22,3.28,1.35-.66,2.68-1.37,4-2.1-4.42-4.27-8.79-8.6-13.19-12.91-1.56.84-3.14,1.68-4.68,2.55h0Zm-3.55-2.75c1.45.42,2.91.86,4.36,1.32.98-.53,1.95-1.06,2.93-1.59-1.18-.63-2.37-1.22-3.55-1.82-1.28.64-2.53,1.33-3.74,2.08h0Zm-323.02,10.67c1.23.7,2.46,1.4,3.71,2.07,1.09-1.1,2.18-2.2,3.28-3.28,1.42.79,2.84,1.58,4.26,2.37-.33,1.53-.68,3.06-1.01,4.59,1.28.73,2.57,1.44,3.88,2.12,1.23-5.99,2.46-11.98,3.8-17.95-1.51-.94-3.07-1.78-4.61-2.65-4.49,4.2-8.83,8.54-13.31,12.73Zm-5.12-24.1c-1.27,1.9-2.55,3.79-3.76,5.73-.53-.34-1.05-.68-1.58-1.02-.58.89-1.17,1.79-1.76,2.69.51.33,1.02.67,1.53,1.01-1.35,2.05-2.68,4.11-4.04,6.15,2.71,2.17,5.61,4.34,9.07,5.1,6.8,1.66,13.35-7.28,9.4-13.17-2.13-3.08-5.62-4.8-8.85-6.49h0Zm356.93.92c2.16,3.28,4.37,6.52,6.68,9.7-3.73-2.46-7.8-4.3-11.78-6.31-1.32.87-2.64,1.75-3.95,2.64,3.34,4.81,6.54,9.73,9.78,14.61,1.05-.7,2.1-1.4,3.15-2.08-2.3-3.49-4.59-6.96-7.05-10.33,4.1,2.36,8.32,4.5,12.54,6.65,1.18-.79,2.37-1.57,3.56-2.36-3.34-4.85-6.51-9.82-9.86-14.65-1.01.72-2.03,1.43-3.06,2.13h0Zm13.94-10.57c1.36,1.77,2.76,3.51,4.18,5.24-1.68,1.31-3.31,2.67-5.01,3.95-1.4-1.73-2.79-3.48-4.18-5.22-1.06.85-2.12,1.7-3.17,2.56,3.66,4.57,7.29,9.17,10.96,13.74,1.1-.81,2.16-1.66,3.21-2.55-1.52-1.9-3.04-3.8-4.55-5.7,1.68-1.3,3.29-2.67,5-3.93,1.52,1.88,3.01,3.79,4.55,5.65,1.06-.83,2.11-1.67,3.16-2.52-3.64-4.6-7.3-9.16-10.95-13.75-1.08.82-2.15,1.67-3.2,2.53h0Zm-397.36,9.77c1.57,3.65,5.14,5.93,8.65,7.45,1.98-2.42,4-4.8,5.98-7.23-1.72-1.39-3.39-2.86-5.13-4.23-.68.83-1.37,1.66-2.06,2.49.68.57,1.37,1.13,2.06,1.7-.77.94-1.55,1.89-2.32,2.84-1.75-1.17-3.57-2.78-3.6-5.06.04-3.33,3.3-6.75,6.78-5.96,2.36.64,4.17,2.54,5.37,4.59.96-.62,1.91-1.28,2.83-1.96-2.11-3.39-5.61-6.28-9.73-6.53-5.87-.34-11.05,6.31-8.83,11.88h0Zm409.78-20.99c-1.23,1.26-2.55,2.43-3.79,3.69,2.81,5.46,5.54,10.95,8.38,16.4.97-.99,1.97-1.96,3-2.9-.73-1.4-1.47-2.8-2.21-4.19,1.23-1.07,2.41-2.2,3.57-3.35,1.33.78,2.67,1.55,4.03,2.31,1.08-1,2.17-2.01,3.22-3.05-5.4-2.97-10.79-5.96-16.2-8.92h0Zm-5.68-.26c.07,1.42.19,2.83.33,4.25.67-.59,1.34-1.17,2.02-1.76-.05-.74-.11-1.49-.17-2.23.68.08,1.37.17,2.07.27.71-.64,1.39-1.32,2.04-2.01-1.4-.2-2.8-.37-4.2-.51-.68.68-1.38,1.34-2.1,1.98h0Zm-421.13,6.18c.87.91,1.75,1.8,2.64,2.7,2.96-2.97,5.94-5.91,8.88-8.9-1.7,4.46-2.88,9.08-4.26,13.65.98.99,1.97,1.97,2.96,2.95,4.3-4,8.38-8.25,12.55-12.39-.89-.9-1.78-1.79-2.67-2.67-2.81,2.78-5.61,5.56-8.26,8.49,1.69-4.16,2.76-8.53,3.99-12.84-1.08-1.15-2.18-2.26-3.32-3.34-4.11,4.18-8.36,8.22-12.5,12.36Zm439.03-19.58c2.98,2.66,6.07,5.2,9.27,7.61-4.31-1.38-8.81-2.01-13.24-2.9-1.01,1.21-2.03,2.41-3,3.66,4.49,3.74,8.93,7.55,13.42,11.31.82-.94,1.64-1.88,2.45-2.83-3.2-2.77-6.44-5.5-9.78-8.09,4.6,1.27,9.32,2.09,14,3.02.96-1.06,1.88-2.16,2.77-3.28-4.55-3.7-8.93-7.6-13.48-11.3-.8.94-1.6,1.88-2.41,2.81Zm-449.47,4.23c-.24,4.03,2.85,7.94,6.76,8.82,4.54.89,9.21-2.28,10.97-6.4,2.1,1.87,4.88.16,5.74-2.1-.73-.63-1.46-1.26-2.18-1.91-.53.69-.96,1.55-1.78,1.96-1.05-.09-1.07-1.33-1.39-2.08-.7-3.21-3.17-6.06-6.41-6.82-5.35-1.2-11.16,3.11-11.71,8.53h0Zm16.55-11.17c-.23,1.47-.4,2.96-.56,4.44.68.84,1.35,1.69,2.03,2.53.4-1.25.79-2.48,1.2-3.72-.81-1.15-1.66-2.28-2.68-3.25Zm445.38-10.98c3.05,3.51,6.08,7.06,9.44,10.28-4.4-1.48-8.9-2.61-13.37-3.87-.8,1.25-1.68,2.46-2.22,3.86,5.95,1.39,11.88,2.88,17.81,4.35.84-1.34,1.67-2.69,2.49-4.05-4-4.72-7.92-9.52-11.91-14.23-.76,1.22-1.5,2.44-2.24,3.67h0Zm-469.39.18c-2.17,1.36-4.14,3.64-3.9,6.36.43,3.89,3.92,8.02,8.18,7.08,3.78-.85,6.79-3.54,10.18-5.28.74.72,1.43,1.71,2.58,1.72,1.5-.03,2.62-1.18,3.52-2.25-.63-.74-1.26-1.49-1.88-2.23-.65.57-1.13,1.76-2.18,1.46-.87-1.03-1.47-2.25-2.17-3.39-2.96,1.76-5.91,3.54-8.89,5.27-1.15.68-2.49,1.16-3.84.83-.89-.58-1.83-1.47-1.85-2.61-.17-1.5,1.12-2.57,2.2-3.37,3.04-1.87,6.15-3.63,9.19-5.49-.7-1.17-1.38-2.34-2.07-3.51-3.02,1.82-6.08,3.57-9.09,5.41Zm473.35-7.71c4.61,4.06,9.22,8.12,13.8,12.22.6-1.3,1.19-2.6,1.75-3.92-1.21-.96-2.38-1.94-3.52-2.97.67-1.49,1.36-2.97,2.05-4.45,1.56.25,3.12.49,4.7.61.53-1.36,1.15-2.67,1.82-3.96-6.13-.71-12.23-1.53-18.34-2.33-.76,1.6-1.49,3.21-2.25,4.81h0Zm-1.07-7.68c-.38.93-.97,1.92-.38,2.91.45,1.22-.84,1.98-1.84,2.18-.35.58-.66,1.2-.91,1.83,1.01.22,2.14.51,3.1-.06,2.4-1.47,2.89-5.56.04-6.86Zm-485.31,3.2c.42,1.3.96,2.56,1.53,3.81,2.12-.88,4.21-1.83,6.34-2.66.36,1.04,1.11,2.32.33,3.36-1.38,1.53-3.27,2.52-4.7,4.01.54,1.28,1.09,2.57,1.64,3.85,2.03-2.2,5.55-3.29,6.22-6.51,2.51,2.49,7.44,1.23,8.01-2.37.41-3.7-1.76-7.09-3.48-10.19-5.28,2.27-10.57,4.53-15.89,6.69h0Zm494.55-17.46c3.95,1.07,7.84,2.47,11.92,2.99-4.61.61-9.09,1.82-13.6,2.9-.44,1.51-.87,3.03-1.26,4.56,5.63,1.61,11.27,3.21,16.89,4.83.33-1.22.67-2.43.97-3.66-4.02-1.14-8.04-2.3-12.1-3.31,4.69-.76,9.29-1.95,13.92-2.97.42-1.37.81-2.76,1.19-4.15-5.65-1.52-11.26-3.18-16.88-4.79-.37,1.2-.72,2.4-1.06,3.6Zm-485.84-3.03c.42,1.5.83,3,1.26,4.49-4.55,1.26-9.1,2.52-13.65,3.77.35,1.28.7,2.58,1.03,3.87,4.59-1.12,9.1-2.51,13.68-3.7.44,1.52.87,3.05,1.28,4.59,1.12-.31,2.22-.62,3.32-.99-1.21-4.31-2.43-8.63-3.56-12.96-1.13.26-2.25.56-3.35.93h0Zm492.91-33.32c-1.92.84-3.45,2.58-3.9,4.65-1.14,3.99,2.22,8.54,6.43,8.44,4.2.36,7.81-3.9,6.97-7.99-.57-4.26-5.62-6.92-9.5-5.11h0Zm-498.62-.13c-2.61.93-4.54,3.61-4.36,6.41-.27,3.94,3.65,7.33,7.5,6.79,4.4-.26,7.48-5.47,5.57-9.45-1.27-3.38-5.4-5.01-8.72-3.75Zm9.54-41.66c-2.82,2.62-4.01,6.46-5.17,10.02,2.06.93,4.14,1.86,6.22,2.74-.17.44-.5,1.31-.67,1.75.95.42,1.9.85,2.85,1.3.18-.41.56-1.24.74-1.65,2.29.92,4.52,2,6.78,3,2-3.61,4.1-7.61,3.41-11.87-1.35-5.75-9.43-9.25-14.17-5.27h0Zm468.83,4.53c.53,1.25,1.08,2.5,1.63,3.74,2.25-.94,4.45-1.98,6.7-2.92.87,1.93,1.71,3.89,2.56,5.83-2.23.98-4.47,1.95-6.69,2.93.54,1.25,1.09,2.49,1.65,3.73,5.37-2.4,10.79-4.67,16.12-7.14-.57-1.21-1.12-2.43-1.65-3.65-2.06.87-4.09,1.81-6.15,2.66-.87-1.93-1.72-3.87-2.56-5.82,2.05-.88,4.08-1.81,6.14-2.68-.54-1.25-1.08-2.49-1.63-3.74-5.38,2.33-10.74,4.73-16.12,7.06h0Zm-444.4-9.01c-2.52.84-.48,4.93,1.72,3.37,2-1.12.3-4.17-1.72-3.37Zm-18.78-7.51c4.04,4.62,8,9.3,12.03,13.93.73-1.18,1.48-2.35,2.23-3.51-1.01-1.2-2.06-2.37-3.1-3.54.88-1.36,1.76-2.73,2.6-4.11,1.52.41,3.03.83,4.54,1.27.77-1.25,1.54-2.5,2.35-3.73-5.88-1.58-11.76-3.19-17.64-4.72-1.29,1.18-1.96,2.98-3.01,4.41h0Zm453.72.89c.64,1.08,1.29,2.15,1.96,3.22,3.61-2.2,7.16-4.48,10.66-6.85-2.66,3.94-4.69,8.24-7.1,12.33.72,1.25,1.48,2.46,2.27,3.67,4.99-3.06,9.88-6.28,14.87-9.35-.62-1.1-1.28-2.17-1.99-3.21-3.4,2.1-6.78,4.22-10.02,6.56,2.65-3.67,4.55-7.79,6.77-11.72-.85-1.34-1.7-2.68-2.55-4.02-4.97,3.11-9.88,6.3-14.87,9.37Zm-445.08-13.52c4.62,3.61,9.29,7.18,13.91,10.79.86-1.06,1.68-2.14,2.51-3.22-4.62-3.61-9.28-7.18-13.91-10.78-.84,1.07-1.68,2.14-2.51,3.21h0Zm440.57,7c.83,1.08,1.68,2.15,2.56,3.2,4.59-3.65,9.24-7.2,13.85-10.82-.83-1.08-1.67-2.16-2.51-3.23-4.64,3.61-9.29,7.2-13.9,10.85Zm-397.16-23.58c-1.77.69-1.03,3.86.93,3.47,1.41.05,1.81-1.41,1.76-2.55-.69-.69-1.67-1.6-2.69-.92h0Zm381.22,6.88c.88.89,1.77,1.78,2.67,2.67,3.4-2.86,6.73-5.81,10.08-8.73-2.58,3.72-4.88,7.62-7.14,11.54.72.72,1.46,1.46,2.18,2.19,4.11-1.91,8.15-3.96,12.19-6.03-3.12,3.11-6.19,6.26-9.24,9.44.84,1.03,1.76,2.01,2.73,2.95,3.99-4.31,8.05-8.56,12.07-12.84-1.23-1.28-2.43-2.58-3.66-3.86-3.71,1.81-7.41,3.63-11,5.68,2.31-3.4,4.37-6.96,6.39-10.55-1.29-1.25-2.49-2.57-3.71-3.88-4.51,3.82-9.06,7.59-13.56,11.41h0Zm-403.98-13.14c-.97.94-1.93,1.91-2.88,2.87,1.57,1.57,3.14,3.15,4.71,4.72-1.49,1.51-2.98,3.01-4.51,4.49-1.55-1.59-3.11-3.16-4.7-4.7-.97.95-1.92,1.91-2.88,2.87,4.17,4.15,8.32,8.31,12.48,12.47.96-.96,1.92-1.92,2.88-2.88-1.7-1.72-3.41-3.43-5.13-5.12,1.46-1.53,2.97-3.01,4.46-4.51,1.74,1.69,3.42,3.44,5.17,5.12.95-.94,1.9-1.88,2.86-2.81-4.09-4.24-8.3-8.35-12.47-12.51h0Zm393.42,4.47c1.03.87,2.07,1.73,3.13,2.58,3.72-4.54,7.47-9.07,11.17-13.64-1.04-.87-2.1-1.72-3.17-2.55-3.71,4.54-7.45,9.04-11.13,13.6h0Zm11.67-14.26c.84.72,1.7,1.43,2.56,2.12,1.53-.16,3.06-.34,4.59-.52-1.08-.91-2.18-1.81-3.28-2.7-1.3.36-2.58.72-3.87,1.1Zm-392.83-.59c-2.77,1.21-5.19,3.85-5.35,6.98-.47,4.49,2.76,8.94,6.99,10.3,5.2,1.66,11.19-3.2,10.61-8.63-.39-5.65-6.56-11.08-12.25-8.65h0Zm366.31,3.72c1.1.78,2.19,1.56,3.28,2.36,1.46-1.96,2.85-3.95,4.27-5.94,1.74,1.2,3.46,2.42,5.16,3.69-1.37,2.01-2.81,3.97-4.21,5.95,1.11.78,2.2,1.58,3.3,2.38,3.46-4.77,6.83-9.59,10.27-14.38-1.13-.77-2.25-1.55-3.36-2.33-1.29,1.83-2.6,3.64-3.9,5.46-1.72-1.22-3.41-2.46-5.14-3.66,1.23-1.88,2.58-3.68,3.88-5.52-1.12-.78-2.24-1.57-3.36-2.35-3.35,4.81-6.81,9.54-10.19,14.34h0Zm-354.42-11.23c-2.84,5.44,1.61,13.22,7.85,13.16,3.65.02,6.72-2.35,8.99-4.99-.77-.8-1.55-1.59-2.33-2.37-1.53,1.8-3.6,3.53-6.09,3.47-3.03-.4-5.34-3.46-5.35-6.43.16-2.98,3.05-4.75,5.64-5.52-.33-1.03-.67-2.07-.98-3.12-3.19.78-6.26,2.78-7.73,5.8h0Zm343.3,2.51c1.33,3.64,5.03,5.75,8.62,6.65.38-1.03.77-2.05,1.17-3.06-2.55-.68-5.41-2.15-5.96-4.99-.36-2.8,1.54-5.65,4.08-6.74,2.74-.97,5.39.99,7.13,2.95.79-.79,1.58-1.6,2.38-2.4-2.32-2.66-5.71-4.63-9.33-4.43-5.64.27-9.85,6.73-8.09,12.02h0Zm-173.04-19.05c-28.38,1.12-56.69,5.55-83.87,13.9-22.36,6.89-44,16.44-63.52,29.41-15.39,10.31-29.51,22.84-40.21,38.06-9.87,13.95-16.53,30.4-17.69,47.53-.26,2.97,0,5.95-.23,8.92.59,13.85,4.54,27.5,11.17,39.66,10.66,19.64,27.23,35.48,45.55,47.99,18.83,12.78,39.74,22.28,61.36,29.26,25.21,8.09,51.48,12.78,77.88,14.51,5.6.32,11.13,1.37,16.75,1.61,11.46.81,23.01.11,34.34-1.75,5.39-.72,10.83-1.09,16.22-1.82,26.19-3.3,52.07-9.58,76.55-19.5,19.42-7.92,38.04-18.11,54.37-31.33,13.75-11.14,25.89-24.57,34.13-40.33,9.03-17.03,12.59-37.02,9.13-56.05-3.55-20.29-14.57-38.62-28.68-53.37-15.84-16.57-35.36-29.27-55.99-39.06-20.03-9.45-41.28-16.22-62.94-20.76-27.68-5.82-56.08-7.88-84.33-6.88h0Zm-151.33,7.13c-.43,4.91,3.13,10.62,8.41,10.83,2.1.23,3.96-.99,6-1.19,2.15-.23,4.29-.51,6.38-1.02-.18-1.1-.36-2.2-.53-3.3-1.34.41-2.7.77-4.05,1.13,2.8-4.78-.09-11.46-5.06-13.44-4.78-1.79-10.68,1.87-11.14,6.98h0Zm307.12-12.41c-4.25,1.55-6.84,6.42-6.23,10.81.74,5.61,8.17,8.74,12.79,5.61,3.47-2.45,5.4-7.11,4.25-11.26-1.37-4.26-6.65-6.72-10.81-5.16Zm9.46-4.32c.83,1.9.98,4.64,3.53,5-.15-1.2-.27-2.4-.41-3.6-1.04-.46-2.09-.93-3.12-1.4Zm-6.19,2.52c.71.42,1.42.84,2.14,1.26.63-.32,1.28-.64,1.93-.98-.27,1.85,1.27,2.57,2.74,3.08-.25-1.35-.51-2.7-.82-4.03-.83-.39-1.66-.78-2.49-1.18-1.17.62-2.34,1.25-3.51,1.85h0Zm-285-1.84c1.49,3.54,3.26,6.97,4.58,10.58.77,1.74-.27,3.9-2.16,4.25-1.81.41-3.17-1.23-3.85-2.7-1.48-3.18-2.82-6.44-4.32-9.62-1.2.56-2.41,1.08-3.63,1.58,1.15,3,2.53,5.89,3.82,8.83.96,2.18,2.38,4.44,4.74,5.27,2.82.77,5.89-.46,7.92-2.44,1.95-1.94,1.94-5.05.98-7.46-1.36-3.36-2.94-6.63-4.36-9.96-1.25.53-2.5,1.09-3.72,1.68h0Zm262.73-6.39c-2.2,5.44-4.27,10.92-6.46,16.36,1.26.52,2.52,1.02,3.79,1.51.91-2.26,1.77-4.54,2.68-6.8,1.97.79,3.97,1.52,5.93,2.37-.92,2.24-1.8,4.5-2.66,6.76,1.24.53,2.5,1.01,3.79,1.44,2.15-5.44,4.3-10.89,6.42-16.35-1.26-.48-2.52-.97-3.77-1.47-.83,2.08-1.65,4.16-2.46,6.24-1.98-.75-3.93-1.56-5.91-2.3.76-2.11,1.63-4.18,2.43-6.28-1.26-.48-2.51-.98-3.76-1.48h0Zm-246.17-.58c-3.12.78-5.74,3.41-6.2,6.64-.78,4.85,2.33,10.72,7.55,11.31,3.56.3,7.47-1.62,8.92-5,1.38-3.41.36-7.41-1.82-10.25-1.89-2.55-5.44-3.65-8.45-2.7h0Zm-3.31-2.88c-.37,1.28-.74,2.57-1.09,3.86.82-.27,1.63-.56,2.45-.83.17-.64.35-1.29.53-1.93.55.37,1.11.74,1.66,1.11.83-.31,1.66-.62,2.49-.92-1.13-.76-2.25-1.51-3.38-2.26-.89.32-1.78.65-2.67.98Zm225.66-2.61c-4.65,1.88-6.82,7.9-5.17,12.49,1.79,4.8,8.52,6.58,12.62,3.7,3.36-2.55,4.78-7.31,3.61-11.33-1.38-4.42-6.91-6.5-11.07-4.86h0Zm-207.45,1.96c-4.18,4.3-2.32,12.63,3.27,14.77,3.56,1.17,7.47-.01,10.47-2.07-.52-.96-1.03-1.91-1.57-2.85-1.57.84-3.22,1.82-5.07,1.72-4.75.03-7.12-7.29-3.32-10.1,1.5-1.25,3.52-1.48,5.41-1.51v-3.27c-3.32-.14-6.82.87-9.18,3.31Zm-13.55-3.35c-.29,1.2-.58,2.4-.85,3.6.47-.17,1.4-.49,1.87-.66.8-1.39,1.59-2.78,2.37-4.19-1.13.42-2.26.84-3.39,1.25h0Zm229.72-.78c2.22,1.08,4.21-.69,6.21-1.44-1.13-.35-2.26-.69-3.38-1.03-1,.76-1.96,1.57-2.83,2.47Zm-3.27-2.05c-1.1.81-2.19,1.63-3.28,2.45.84.26,1.7.51,2.54.77.52-.4,1.05-.79,1.58-1.19.21.62.43,1.23.65,1.85.86.26,1.71.52,2.57.78-.44-1.33-.92-2.65-1.48-3.94-.87-.24-1.72-.48-2.58-.73h0Zm-26.36-2.55c-1.38,5.7-2.72,11.42-4.06,17.14,1.32.32,2.65.62,3.99.92.49-2.39,1.1-4.75,1.61-7.13,2.07.52,4.15.99,6.24,1.46-.54,2.39-1.09,4.78-1.7,7.16,1.33.28,2.66.6,3.99.91,1.29-5.73,2.78-11.41,3.97-17.16-1.31-.28-2.6-.57-3.89-.9-.51,2.18-1.03,4.37-1.56,6.55-2.07-.51-4.15-.95-6.2-1.5.53-2.16,1.01-4.32,1.54-6.48-1.31-.33-2.62-.65-3.93-.96h0Zm-164.03,2.89c-4.2,4.02-2.85,12.14,2.46,14.52,4.05,1.6,8.46.02,12.11-1.88-.56-3.07-1.36-6.08-1.95-9.14-2.11.38-4.22.83-6.3,1.36-.29,1,.37,2.13.49,3.17.86-.21,1.71-.42,2.56-.63.33,1.2.61,2.42.83,3.64-1.43.38-2.93.97-4.42.54-4.06-1-5.61-7.19-2.27-9.84,1.93-1.47,4.52-1.72,6.87-1.48.06-1.13.13-2.26.22-3.38-3.74-.35-7.8.49-10.6,3.12h0Zm15.4-4.52c1.01,5.79,2.1,11.55,3.13,17.33,1.32-.25,2.65-.49,3.98-.73-1.02-5.77-2.11-11.53-3.12-17.3-1.33.23-2.66.47-3.98.69h0Zm128.9,15.96c1.31.25,2.63.48,3.95.69.38-2.03.73-4.06,1.14-6.09,2.03.46,4.22.78,6.22-.03,3.85-1.34,4.7-7.5,1.13-9.65-2.81-1.65-6.18-1.72-9.33-2.03-1.06,5.7-2.09,11.4-3.11,17.1Zm-116.12-18.16c-.91,6.06-1.91,12.11-2.78,18.18,1.39-.19,2.78-.41,4.17-.66.15-1.51.33-3.02.52-4.52,1.63-.28,3.26-.49,4.9-.72.64,1.45,1.27,2.92,2.12,4.28,1.38-.26,2.77-.48,4.16-.67-2.55-5.58-5.25-11.09-7.87-16.64-1.73.27-3.48.51-5.22.75h0Zm93.47-2.41c-.71,5.76-1.32,11.53-1.97,17.3,1.32.15,2.65.31,3.98.47.34-2.43.5-4.89.91-7.31,2.05.27,4.1.54,6.16.69,0,2.46-.51,4.87-.66,7.33,1.33.18,2.66.32,4.01.42.63-5.82,1.3-11.64,1.97-17.45-1.37-.13-2.74-.28-4.1-.41-.15,2.22-.43,4.42-.71,6.62-2.12-.18-4.23-.47-6.34-.72.27-2.21.5-4.42.74-6.63-1.33-.08-2.71-.58-4.01-.31h0Zm-74.93.05c.07,1.12.14,2.23.21,3.35,1.6-.06,3.18-.17,4.78-.26.37,4.69.72,9.38,1.18,14.06,1.33-.11,2.67-.23,4.01-.34-.41-4.7-.8-9.4-1.16-14.1,1.57-.13,3.14-.27,4.71-.37-.08-1.13-.17-2.26-.24-3.38-4.5.24-8.99.73-13.49,1.04h0Zm55.38-1.6c-.41,5.86-.76,11.72-1.1,17.58,1.25.04,2.49.12,3.74.19.16-4.21.54-8.41.65-12.62,1.67,4.46,3.86,8.69,5.88,13,1.41.09,2.81.29,4.22.22.45-5.83.74-11.67,1.11-17.51-1.23-.05-2.46-.11-3.68-.16-.3,4.02-.56,8.05-.58,12.09-1.3-4.39-3.67-8.34-5.52-12.5-1.57-.09-3.15-.17-4.71-.29Zm-14.67-.28c-1.87,5.81-3.7,11.64-5.57,17.46,1.4.08,2.79.16,4.19.18.41-1.49.84-2.97,1.28-4.46,1.64,0,3.29,0,4.93,0,.41,1.48.84,2.96,1.27,4.44,1.48.16,2.97.21,4.46.19-1.76-5.86-3.55-11.71-5.21-17.6-1.77-.27-3.56-.22-5.35-.2h0Zm-13.22.22c.25,2.19.21,4.4.32,6.6-2.15.11-4.3.18-6.44.26-.03-2.23-.13-4.46-.15-6.69-1.37.06-2.75.07-4.11.08.21,5.86.45,11.73.63,17.6,1.37-.04,2.73-.12,4.1-.18-.2-2.43-.19-4.87-.36-7.3,2.14.04,4.27-.14,6.41-.21.13,2.42.18,4.85.34,7.27,1.33,0,2.66-.03,3.99-.13-.22-5.83-.44-11.67-.58-17.5-1.39-.03-2.79-.03-4.16.22Zm11.36-4.33c1.03,1.12,2.11,2.2,3.21,3.25,1.09,0,2.18-.01,3.27-.01-.72-1.09-1.45-2.17-2.16-3.26-1.45,0-2.88,0-4.32.02h0Zm-6.27-16.13c50.99-.98,102.43,7.31,149.81,26.49,20.78,8.44,40.74,19.03,59.04,32.03,16.71,11.91,32.08,25.85,44.82,41.98,10.92,13.83,19.89,29.29,25.75,45.93,5.49,15.46,8.19,31.93,7.75,48.33-.4,19.2-5.21,38.22-13.42,55.57-11.02,23.36-27.85,43.64-47.36,60.41-24.09,20.69-52.21,36.35-81.76,47.79-43.4,16.76-90.04,24.45-136.48,24.55-49.85-.13-99.98-9.01-146-28.48-19.23-8.14-37.69-18.18-54.71-30.29-16.81-11.98-32.2-26.06-44.99-42.29-9.54-12.18-17.59-25.58-23.32-39.98-7.83-19.5-11.27-40.82-9.4-61.77,1.61-19.51,7.72-38.52,17.09-55.67,9.12-16.76,21.24-31.79,35.03-44.93,20.87-19.84,45.49-35.45,71.59-47.47,45.85-21.02,96.28-31.15,146.58-32.21"/>
      <path id="path186" class="cls-2" d="m279.48,101.43c.7-2.21,1.26-4.46,1.93-6.68.43,2.33,1.15,4.59,1.77,6.88-1.24-.04-2.47-.14-3.71-.2"/>
      <path id="path188" class="cls-2" d="m222.52,98.46c.93,2.2,1.91,4.37,2.9,6.54-1.24.17-2.47.33-3.71.51.41-2.33.67-4.69.81-7.05"/>
      <path id="path190" class="cls-2" d="m342.33,100.26c1.29.21,2.83.24,3.72,1.37,1.06,1.38.1,3.67-1.59,3.97-1.02.34-2.06-.12-3.06-.24.31-1.7.61-3.4.93-5.1"/>
      <path id="path192" class="cls-2" d="m378.08,109.53c2.07-1.36,5.07.14,5.45,2.53.6,2.91-.59,6.33-3.11,8.02-2.3,1.41-5.35-.56-5.48-3.13-.21-2.72.8-5.83,3.14-7.41"/>
      <path id="path194" class="cls-2" d="m154.09,115.19c3.34-1.37,5.98,2.3,6.51,5.2.93,2.55-.59,5.93-3.54,5.98-3.02-.29-4.64-3.44-5.14-6.11-.38-1.9.24-4.24,2.16-5.06"/>
      <path id="path196" class="cls-2" d="m420.9,125.73c2.37-1.39,5.59.77,5.32,3.46-.03,3.2-2.05,7.03-5.51,7.45-2.31-.09-4.1-2.4-3.7-4.66.41-2.45,1.65-5,3.89-6.25"/>
      <path id="path198" class="cls-2" d="m118.47,131.11c3.54-1.03,6.18,2.81,6.86,5.83.91,2.61-1.41,5.72-4.24,5.06-2.87-.79-4.61-3.82-5-6.61-.29-1.76.73-3.59,2.37-4.27"/>
      <path id="path200" class="cls-2" d="m81.82,155.14c3.49-1.2,6.56,2.23,7.64,5.22,1.15,2.54-1.26,5.69-4.01,5.14-2.76-.6-4.81-3.12-5.62-5.72-.7-1.8.34-3.82,2-4.65"/>
      <path id="path202" class="cls-2" d="m43.84,197.16c2.21.77,4.47,1.35,6.7,2.05-.63,1.02-1.27,2.03-1.92,3.04-1.63-1.66-3.13-3.44-4.77-5.09"/>
      <path id="path204" class="cls-2" d="m33.18,216.98c.76-2.28,2.26-5.03,5.04-4.94,3.22.04,7.17,2.53,6.71,6.16-.03,1.26-.67,2.38-1.17,3.5-1.35-.55-2.67-1.16-3.99-1.8.47-1.03.93-2.06,1.41-3.08-.96-.48-1.94-.92-2.92-1.36-.48,1.06-.96,2.12-1.45,3.18-1.22-.54-2.43-1.09-3.63-1.67"/>
      <path id="path206" class="cls-2" d="m32.13,305.16c1.45-.66,2.93-1.28,4.42-1.85.5,1.26,1.5,2.7.8,4.09-.62.78-1.72,1.54-2.75,1.11-1.43-.51-1.92-2.08-2.47-3.34"/>
      <path id="path208" class="cls-2" d="m512.01,308.76c2.29.37,4.59.72,6.89,1.05-.52,1.11-1.03,2.22-1.55,3.33-1.77-1.48-3.52-2.98-5.34-4.38"/>
      <path id="path210" class="cls-2" d="m51.25,334.67c2.62-1.18,5.92,1.31,5.17,4.17-.84,2.83-3.56,5.09-6.46,5.52-2.25.43-4.46-1.67-4.17-3.92.48-2.8,2.92-4.82,5.47-5.77"/>
      <path id="path212" class="cls-2" d="m479.53,353.05c2,1.24,4.05,2.4,6.09,3.57-.88.86-1.77,1.7-2.69,2.51-1.05-2.07-2.17-4.1-3.4-6.08"/>
      <path id="path214" class="cls-2" d="m97.79,374.26c2.11,1.11,4.56,2.97,4.18,5.67-.53,2.44-2.16,4.79-4.53,5.74-2.16.82-4.28-.56-6-1.74.8-1.21,1.6-2.42,2.38-3.64.98.63,1.95,1.27,2.92,1.92.58-.91,1.17-1.81,1.76-2.71-.96-.64-1.91-1.28-2.87-1.91.72-1.11,1.44-2.22,2.16-3.33"/>
      <path id="path216" class="cls-2" d="m110.1,390.08c1.64-1.66,3.34-3.26,4.83-5.05-.5,2.26-1.06,4.51-1.57,6.78-1.11-.54-2.19-1.12-3.26-1.73"/>
      <path id="path218" class="cls-2" d="m431.41,387.48c1.61,1.69,3.17,3.42,4.87,5.03-1.07.6-2.15,1.17-3.22,1.75-.49-2.28-1.01-4.55-1.65-6.78"/>
      <path id="path220" class="cls-2" d="m158.03,405.31c2.01-1.13,4.84.21,5.21,2.5.58,2.88-.62,6.16-2.97,7.94-1.98,1.45-5.03.19-5.57-2.15-.67-3.06.67-6.6,3.34-8.3"/>
      <path id="path222" class="cls-2" d="m388.63,405.66c2.15-1.38,4.74.19,5.75,2.23,1.49,2.47,2.15,6.65-.82,8.3-2.32,1.28-4.9-.61-5.81-2.76-1.22-2.41-1.76-6.1.88-7.78"/>
      <path id="path224" class="cls-2" d="m348.24,416.6c1.11,2.12,2.18,4.27,3.3,6.39-1.21.23-2.41.47-3.61.73.18-2.37.36-4.75.32-7.12"/>
      <path id="path226" class="cls-2" d="m231.86,421.73c2.08-1.26,4.81.37,5.29,2.61.71,2.94.15,6.83-2.76,8.39-2.39,1.09-4.96-1.01-5.24-3.41-.43-2.67.18-6.12,2.71-7.59"/>
      <path id="path228" class="cls-2" d="m292.45,423.51c2.18-.92,4.5.79,5.09,2.88.73,2.48.85,5.73-1.2,7.64-1.72,1.72-4.88.91-5.79-1.28-1.44-2.91-1.39-7.62,1.9-9.24"/>
      <path id="path230" class="cls-2" d="m249.17,429.82c.78-2.2,1.52-4.42,2.23-6.64.37,2.33.94,4.62,1.46,6.93-1.23-.12-2.46-.21-3.69-.29"/>
      <path id="path232" class="cls-1" d="m280.58,237.15c0,.85,0,1.71,0,2.57,3.82-.01,7.64.02,11.47-.02-1.79-1.62-3.47-3.36-5.28-4.95-1.87,1.23-3.99,2.03-6.19,2.4Zm-14.52,2.57c3.77-.01,7.55.01,11.32-.02.01-.83.02-1.67.04-2.51-2.22-.45-4.37-1.2-6.24-2.48-1.67,1.71-3.5,3.26-5.13,5.01Zm-2.3-13.37c-.01,3.77,0,7.54,0,11.31,1.73-1.68,3.56-3.27,5.21-5.02-1.28-1.87-2.22-3.97-2.53-6.23-.89-.02-1.8-.04-2.68-.06Zm27.84.03c-.35,2.27-1.24,4.42-2.61,6.26,1.79,1.67,3.52,3.41,5.36,5.03-.01-3.77.01-7.55-.02-11.33-.92.01-1.83.02-2.74.03Zm-15.85-9.65c-3.62,1.22-6.39,4.82-6.29,8.69.05,4.69,4.25,8.63,8.84,8.85,5.44.59,10.96-4.38,10.19-9.98-.54-5.88-7.35-9.67-12.75-7.57h0Zm13.25,1.13c1.16,1.7,2.06,3.57,2.51,5.6h2.83c0-3.56.04-7.13-.02-10.69-1.78,1.69-3.57,3.37-5.32,5.09h0Zm-25.23-5c-.03,3.52.01,7.03-.03,10.54.92.03,1.83.05,2.76.07.46-2.05,1.38-3.93,2.56-5.66-1.8-1.62-3.51-3.32-5.29-4.96Zm33.62-2.61c0,10.05,0,20.09,0,30.14,7.74.02,15.47.03,23.21,0-.04-10.03.16-20.06-.11-30.09-7.7-.13-15.4-.03-23.09-.05Zm-16.78.38c0,.92,0,1.85.02,2.77,2.23.23,4.3,1.16,6.2,2.33,1.81-1.68,3.56-3.42,5.4-5.07-3.87-.04-7.74.02-11.61-.03h0Zm-14.62.03c1.62,1.81,3.5,3.35,5.17,5.1,1.9-1.23,4.02-2.03,6.24-2.44,0-.87.01-1.73.02-2.6-3.81-.16-7.62-.05-11.43-.06Zm-28.52,29.69c7.75.12,15.5.02,23.25.04,0-10.05.01-20.1,0-30.15-7.73-.02-15.45.02-23.17-.02-.15,10.04.02,20.09-.08,30.13h0Zm40.05-112.37c1.03,0,2.07-.01,3.11-.01-.07.59-.22,1.78-.3,2.37.36.38.81.56,1.34.56,2.62.21,5.25.17,7.86.44l-.33-.02c-2.97-.3-5.95-.03-8.92.05.67,5.26.12,10.62.3,15.92.87,0,1.75,0,2.63.01,0,1.09-.01,2.18-.01,3.28,9.04.06,18.09.14,27.13-.03,5.32-1.69,9.9-5.4,13.04-9.99.05,5.3-.03,10.59.03,15.89.23,4.49,1.09,9.2,3.95,12.81,1.54,1.96,4.03,3.54,6.61,3,2.12-.37,3.57-2.06,5.02-3.49.56,1.92,1.18,4.2-.12,5.96-1.8,2.46-5.09,2.93-7.9,3.2-4.57.17-9.14.01-13.71.07.1,2.16.16,4.32.17,6.48,7.12.16,14.25.02,21.37.07.27,2.56,1.66,4.79,2.96,6.95,2.86,4.49,7.07,8.43,12.33,9.79,1.33.35,3.04.56,4.06-.61.72-1.02.4-2.35.5-3.5,1.32,2.1,2.57,4.5,2.16,7.06-.27,2.01-1.92,3.49-3.69,4.29-2.9,1.29-6.11,1.71-9.27,1.72-6.16-.01-12.33-.02-18.49,0-.01,10.29,0,20.57,0,30.86,3.8.01,7.59,0,11.38,0,.02,5.83.02,11.66,0,17.49-41.17,0-82.34,0-123.51,0-.02-5.83-.02-11.67,0-17.5,3.85,0,7.69.01,11.53,0,0-10.28,0-20.57,0-30.85-6.07-.02-12.13-.01-18.2,0-4.15-.08-8.86-.41-12.04-3.4-2.57-2.79-.97-6.89.81-9.65,0,1.71.05,4.3,2.35,4.36,4.43-.18,8.42-2.8,11.38-5.95,2.82-3.15,5.51-6.81,6.15-11.08,7.1.04,14.21,0,21.32.03.11-2.18.2-4.37.21-6.56-4.59-.07-9.18.11-13.76-.08-2.7-.29-5.83-.72-7.66-2.97-1.42-1.78-.96-4.19-.22-6.15,1.37,1.42,2.81,3,4.83,3.42,2.45.59,4.92-.76,6.46-2.61,3.09-3.62,4.06-8.53,4.21-13.17.06-5.28-.07-10.57.06-15.85,2.17,3.01,4.78,5.73,8,7.61,1.93,1.09,3.92,2.46,6.23,2.45,8.63-.02,17.25,0,25.87-.02,0-1.11,0-2.21.01-3.31.92-.01,1.84-.02,2.77-.03-.07-5.31.17-10.63-.13-15.93-2.22-.07-4.44-.15-6.66-.07h-.06c2.28-.11,4.57-.28,6.85-.44-.01-.96-.02-1.91-.03-2.87"/>
      <path id="path234" class="cls-1" d="m241.67,214.28c4.96,0,9.91-.02,14.87.02-.02,7.4-.02,14.8,0,22.21-4.96.03-9.91,0-14.86.01-.01-7.41,0-14.82,0-22.23"/>
      <path id="path236" class="cls-1" d="m301.57,214.29c4.95-.01,9.89,0,14.84,0,0,7.41,0,14.82,0,22.23-4.95,0-9.89,0-14.84,0,0-7.41,0-14.81,0-22.22"/>
      <path id="path238" class="cls-1" d="m256.91,270.05c5.2-4.07,12.72-4.3,18.65-1.75-.49,3.24-1.03,6.48-1.53,9.73-2.53-1.31-5.51-2.15-8.33-1.35-1.65.46-3.21,1.89-3.08,3.73-.11,2.91,2.87,4.38,4.95,5.78,3.85,2.12,7.54,5.15,9,9.45,1.36,4.08,1.08,8.75-.89,12.59-2.11,4.03-6.33,6.63-10.74,7.39-4.43.77-9.12.32-13.29-1.36-.08-3.22.87-6.63,1.17-9.94,3.23,1.52,6.96,2.4,10.51,1.65,2.03-.39,3.78-2.27,3.37-4.44-.11-2.79-2.78-4.32-4.87-5.66-4-2.31-7.86-5.52-9.27-10.09-1.59-5.46-.19-12.05,4.35-15.72"/>
      <path id="path240" class="cls-1" d="m285.22,270.05c5.21-4.08,12.75-4.31,18.68-1.75-.52,3.25-1.03,6.5-1.56,9.75-2.81-1.52-6.43-2.43-9.41-.89-2.15,1-2.66,4.1-1.13,5.85,1.87,2.15,4.55,3.32,6.86,4.9,3,2.02,5.46,4.96,6.48,8.48,1.61,5.65.07,12.46-4.75,16.11-5.85,4.45-14.01,4.19-20.63,1.73.39-3.3.96-6.58,1.39-9.88,3.08,1.4,6.56,2.24,9.94,1.72,1.98-.27,4.1-1.77,3.94-3.99.26-3.04-2.63-4.82-4.86-6.23-4.15-2.38-8.17-5.79-9.44-10.6-1.32-5.35.1-11.63,4.49-15.21"/>
      <path id="path242" class="cls-1" d="m217.64,267.09c3.61-.01,7.21-.01,10.82,0,0,9.63,0,19.25,0,28.89.11,3.12-.29,6.69,1.65,9.37.95,1.37,3.23,1.24,4.12-.12,1.23-1.89,1.26-4.25,1.34-6.43,0-10.57,0-21.14,0-31.71h10.82c.01,9.08,0,18.15,0,27.23.14,5.33-.18,10.96-2.87,15.7-1.76,3.13-4.96,5.36-8.51,5.87-4.88.81-10.66-.23-13.71-4.48-3.51-4.91-3.69-11.27-3.65-17.08,0-9.08,0-18.16,0-27.24"/>
      <path id="path244" class="cls-1" d="m310.59,267.08h10.82c.01,6.25,0,12.51,0,18.76,2.6.02,5.2.02,7.8,0,0-6.25,0-12.51,0-18.76h10.82c0,16.16,0,32.32,0,48.48-3.61,0-7.21,0-10.82,0-.02-6.44,0-12.87-.01-19.31-2.6-.01-5.2-.01-7.79,0-.02,6.44,0,12.87-.01,19.31-3.61,0-7.21,0-10.82,0-.01-16.16,0-32.32,0-48.48"/>
      <path id="path246" class="cls-1" d="m217.17,320.59c2.22,0,4.44,0,6.66-.02.86,6.67,1.92,13.32,2.51,20.03.85-6.66,1.59-13.35,2.51-20.01,2.21,0,4.42-.01,6.63.01-1.87,9.2-3.93,18.36-5.76,27.56-2.29.12-4.58.06-6.87.07-1.86-9.22-3.82-18.42-5.66-27.64"/>
      <path id="path248" class="cls-1" d="m237.23,320.59c1.82,0,3.65,0,5.47,0,2.05,5.52,4.06,11.06,6.01,16.62-.43-5.52-.59-11.07-.51-16.61,1.76-.01,3.51-.01,5.26,0,0,9.21,0,18.42,0,27.63-1.84,0-3.67,0-5.51,0-1.87-5.43-4.25-10.69-5.62-16.28-.11,5.42.3,10.85.15,16.29h-5.26c0-9.22-.01-18.43.01-27.65"/>
      <path id="path250" class="cls-1" d="m257.49,320.65c1.99-.08,3.98-.07,5.98-.06.09,6.45-.15,12.92.12,19.37-.04,1.46,1.21,3.89,2.89,2.5,1.11-1.72.8-3.91.92-5.86-.02-5.33,0-10.67,0-16,1.98,0,3.96,0,5.95,0,.03,5.7,0,11.39.02,17.1-.07,3.12-.56,6.54-2.76,8.94-3.25,3.08-9.66,2.51-11.69-1.71-1.03-2.06-1.34-4.4-1.38-6.68-.02-5.86.04-11.72-.03-17.58"/>
      <path id="path252" class="cls-1" d="m283.51,320.59c1.98,0,3.97,0,5.95,0,.06,3.58-.08,7.16.08,10.74,1.36-.03,2.73-.04,4.1-.04,0-3.55.03-7.1-.02-10.65,2.05-.07,4.1-.08,6.15.02-.08,9.19-.01,18.39-.04,27.58h-6.08c-.01-3.66,0-7.32,0-10.98-1.4-.01-2.78-.02-4.17-.02-.02,3.66,0,7.33-.01,10.99-1.99,0-3.98,0-5.97-.01.01-9.21,0-18.42,0-27.63"/>
      <path id="path254" class="cls-1" d="m306.33,323.37c2.7-2.95,7.23-3.87,10.92-2.4-.33,1.81-.63,3.63-1.01,5.44-1.44-.44-3.18-.78-4.47.22-2.45,1.71-2.75,5.01-2.85,7.74.06,2.62.29,5.71,2.46,7.51,1.37,1.19,3.28.74,4.91.61.18,1.83.39,3.67.39,5.53-3.19.61-6.88.8-9.57-1.32-3.4-2.62-4.4-7.18-4.56-11.24-.06-4.25.73-8.89,3.77-12.08"/>
      <path id="path256" class="cls-1" d="m320.23,320.58c2.1.01,4.19.01,6.29.01,1.01,5.97,2.31,11.89,3.22,17.88,1.02-5.98,2.05-11.94,3.21-17.89,2.08,0,4.16,0,6.24.02.54,9.21,1.12,18.41,1.58,27.62-1.76,0-3.51,0-5.26,0-.3-5.41-.71-10.83-.65-16.25-1.07,5.23-2.12,10.47-3.26,15.69-1.46.01-2.92.01-4.37.01-1.06-5.27-2.3-10.51-3.02-15.84-.38,5.46-.62,10.93-.84,16.4-1.71,0-3.42,0-5.14,0,.68-9.22,1.27-18.44,2.01-27.65"/>
      <path id="path258" class="cls-1" d="m210.14,353.12c45.89-.01,91.8,0,137.69,0,0,2.27,0,4.53,0,6.8,2.26,0,4.53,0,6.8,0,0,2.21,0,4.44,0,6.65,2.22.01,4.45.01,6.67.02,0,1.51,0,3.01,0,4.52.21-.14.63-.43.83-.58-.22.18-.65.56-.87.74.14.5.42,1.5.57,1.99l.31.18c-.3.23-.62.43-.93.64-1.11-.79-2.59-.27-3.86-.39-51.5-.08-103.01-.04-154.52-.02-1.33-.01-2.68-.09-3.99.2-.73-.14-1.47-.23-2.21-.32,0-.31,0-.92,0-1.22,0-.97,0-1.92,0-2.88,0-.96,0-1.92.01-2.87,2.27,0,4.54,0,6.81,0,0-2.22,0-4.44,0-6.65,2.22-.01,4.45-.02,6.67-.02,0-2.26,0-4.52,0-6.79"/>
      <path id="path260" class="cls-6" d="m151.81,154.41c31.77-13.78,66.07-21.18,100.53-23.66,1.49-.16,2.99-.26,4.5-.22-34.68,5.24-67.13,24.15-88.79,51.74-.44.42-.75,1.25-1.47,1.19-21.14.06-42.28-.03-63.42.04,14.72-11.97,31.28-21.54,48.65-29.1"/>
      <path id="path262" class="cls-6" d="m307.01,131.03c25.58,2.37,51.01,7.15,75.35,15.5,24.78,8.44,48.65,20.34,69,36.96-19.38-.04-38.75.01-58.12-.03-11.75-15.01-26.42-27.75-43.14-36.95-13.41-7.43-28.02-12.65-43.09-15.49"/>
      <path id="path264" class="cls-6" d="m320.23,320.58c-.74,9.21-1.33,18.43-2.01,27.65,1.71,0,3.42,0,5.14,0,.22-5.47.47-10.94.84-16.4.72,5.34,1.96,10.57,3.02,15.84,1.46,0,2.91,0,4.37-.01,1.14-5.22,2.19-10.46,3.26-15.69-.06,5.42.36,10.84.65,16.25,1.75,0,3.51,0,5.26,0-.46-9.21-1.04-18.41-1.58-27.62-2.08-.02-4.16-.02-6.24-.02-1.16,5.95-2.18,11.92-3.21,17.89-.91-5.99-2.21-11.91-3.22-17.88-2.1,0-4.2,0-6.29-.01h0Zm-13.89,2.78c-3.04,3.19-3.82,7.83-3.77,12.08.16,4.07,1.16,8.62,4.56,11.24,2.7,2.12,6.38,1.93,9.57,1.32,0-1.86-.21-3.7-.39-5.53-1.63.13-3.55.58-4.91-.61-2.16-1.8-2.4-4.89-2.46-7.51.1-2.73.4-6.04,2.85-7.74,1.3-.99,3.03-.66,4.47-.22.38-1.81.68-3.62,1.01-5.44-3.69-1.47-8.22-.54-10.92,2.4h0Zm-22.83-2.77c0,9.21,0,18.42,0,27.63,1.99.01,3.97.01,5.97.01,0-3.67-.01-7.33.01-10.99,1.38,0,2.77,0,4.17.02,0,3.66,0,7.31,0,10.98h6.08c.03-9.19-.04-18.39.04-27.58-2.05-.1-4.1-.09-6.15-.02.05,3.55.02,7.1.02,10.65-1.37,0-2.74.01-4.1.04-.16-3.58-.03-7.16-.08-10.74-1.98,0-3.97,0-5.95,0h0Zm-26.01.06c.07,5.86.01,11.72.03,17.58.05,2.28.35,4.62,1.38,6.68,2.03,4.22,8.45,4.79,11.69,1.71,2.2-2.4,2.69-5.81,2.76-8.94-.02-5.7.01-11.4-.02-17.1-1.99,0-3.97,0-5.95,0,0,5.33-.01,10.67,0,16-.12,1.95.19,4.15-.92,5.86-1.68,1.39-2.93-1.03-2.89-2.5-.27-6.45-.03-12.91-.12-19.37-2-.02-3.99-.03-5.98.06h0Zm-20.26-.06c-.02,9.22,0,18.43-.01,27.65h5.26c.15-5.44-.26-10.86-.15-16.29,1.37,5.59,3.75,10.85,5.62,16.28,1.84,0,3.67,0,5.51,0,0-9.21,0-18.42,0-27.63-1.76-.01-3.51-.01-5.26,0-.08,5.54.08,11.08.51,16.61-1.95-5.56-3.97-11.09-6.01-16.62-1.82,0-3.65,0-5.47,0h0Zm-20.07,0c1.84,9.22,3.8,18.42,5.66,27.64,2.29-.01,4.58.05,6.87-.07,1.83-9.2,3.89-18.36,5.76-27.56-2.21-.02-4.41-.02-6.63-.01-.91,6.66-1.66,13.35-2.51,20.01-.59-6.7-1.65-13.36-2.51-20.03-2.22.02-4.44.01-6.66.02h0Zm93.42-53.51c0,16.16,0,32.32,0,48.48,3.6,0,7.21,0,10.82,0,.01-6.44,0-12.87.01-19.31,2.6-.01,5.19-.01,7.79,0,.02,6.44,0,12.87.01,19.31,3.61,0,7.21,0,10.82,0,.01-16.16,0-32.32,0-48.48h-10.82c-.01,6.25,0,12.51,0,18.76-2.6.02-5.2.02-7.8,0,0-6.25,0-12.51,0-18.76h-10.82Zm-92.95,0c0,9.08,0,18.15,0,27.24-.04,5.81.14,12.17,3.65,17.08,3.05,4.25,8.83,5.29,13.71,4.48,3.56-.51,6.76-2.74,8.51-5.87,2.7-4.74,3.01-10.37,2.87-15.7,0-9.08,0-18.15,0-27.23h-10.82c0,10.57,0,21.14,0,31.71-.08,2.17-.11,4.54-1.34,6.43-.89,1.36-3.17,1.49-4.12.12-1.93-2.67-1.54-6.24-1.65-9.37.01-9.63,0-19.26,0-28.89-3.61-.01-7.21-.01-10.82,0h0Zm67.58,2.96c-4.38,3.58-5.8,9.86-4.49,15.21,1.27,4.81,5.29,8.22,9.44,10.6,2.23,1.41,5.12,3.19,4.86,6.23.16,2.21-1.96,3.72-3.94,3.99-3.38.52-6.86-.33-9.94-1.72-.43,3.3-1,6.58-1.39,9.88,6.61,2.46,14.78,2.72,20.63-1.73,4.82-3.66,6.36-10.46,4.75-16.11-1.02-3.52-3.48-6.46-6.48-8.48-2.32-1.58-4.99-2.76-6.86-4.9-1.53-1.75-1.02-4.85,1.13-5.85,2.98-1.54,6.6-.63,9.41.89.52-3.25,1.04-6.5,1.56-9.75-5.94-2.56-13.47-2.33-18.68,1.75h0Zm-28.32,0c-4.54,3.67-5.94,10.27-4.35,15.72,1.41,4.56,5.27,7.78,9.27,10.09,2.08,1.34,4.76,2.87,4.87,5.66.41,2.16-1.34,4.05-3.37,4.44-3.54.76-7.28-.12-10.51-1.65-.31,3.31-1.26,6.71-1.17,9.94,4.17,1.68,8.86,2.13,13.29,1.36,4.41-.76,8.64-3.36,10.74-7.39,1.98-3.84,2.26-8.51.89-12.59-1.46-4.3-5.15-7.33-9-9.45-2.08-1.4-5.06-2.87-4.95-5.78-.13-1.84,1.43-3.27,3.08-3.73,2.82-.79,5.8.04,8.33,1.35.5-3.25,1.03-6.49,1.53-9.73-5.93-2.56-13.45-2.32-18.65,1.75h0Zm-36.29-126.11c15.76-7.24,32.85-11.41,50.12-12.64,2.22-.08,4.44,0,6.66.07.3,5.3.06,10.62.13,15.93-.93,0-1.85.02-2.77.03-.01,1.1-.01,2.21-.01,3.31-8.63.02-17.25,0-25.87.02-2.31.02-4.3-1.35-6.23-2.45-3.22-1.89-5.83-4.61-8-7.61-.13,5.29,0,10.57-.06,15.85-.16,4.64-1.12,9.55-4.21,13.17-1.54,1.85-4.01,3.2-6.46,2.61-2.02-.43-3.46-2.01-4.83-3.42-.73,1.97-1.2,4.37.22,6.15,1.83,2.25,4.96,2.67,7.66,2.97,4.58.18,9.17.01,13.76.08-.01,2.19-.1,4.37-.21,6.56-7.1-.03-14.21.02-21.32-.03-.64,4.27-3.33,7.94-6.15,11.08-2.96,3.15-6.95,5.77-11.38,5.95-2.3-.07-2.36-2.66-2.35-4.36-1.78,2.76-3.37,6.86-.81,9.65,3.18,2.98,7.89,3.31,12.04,3.4,6.07-.01,12.13-.02,18.2,0,0,10.28,0,20.57,0,30.85-3.84.02-7.69,0-11.53,0-.01,5.83-.01,11.67,0,17.5,41.17-.01,82.33,0,123.51,0,.01-5.83.02-11.66,0-17.49-3.79,0-7.58,0-11.38,0,0-10.29-.01-20.57,0-30.86,6.16-.01,12.33,0,18.49,0,3.15,0,6.36-.43,9.27-1.72,1.76-.8,3.41-2.27,3.69-4.29.42-2.57-.84-4.97-2.16-7.06-.1,1.16.22,2.48-.5,3.5-1.02,1.16-2.72.96-4.06.61-5.26-1.36-9.47-5.3-12.33-9.79-1.31-2.16-2.69-4.39-2.96-6.95-7.13-.04-14.25.09-21.37-.07,0-2.16-.07-4.32-.17-6.48,4.57-.06,9.14.09,13.71-.07,2.82-.27,6.11-.74,7.9-3.2,1.31-1.76.68-4.04.12-5.96-1.45,1.43-2.91,3.12-5.02,3.49-2.58.54-5.07-1.03-6.61-3-2.86-3.61-3.72-8.32-3.95-12.81-.06-5.3.02-10.59-.03-15.89-3.13,4.59-7.72,8.3-13.04,9.99-9.04.17-18.09.09-27.13.03,0-1.09,0-2.19.01-3.28-.88,0-1.76-.01-2.63-.01-.18-5.3.37-10.66-.3-15.92,2.97-.08,5.94-.35,8.92-.05,22.49,1.36,44.66,8.14,64,19.72,14.23,8.45,26.89,19.49,37.24,32.4-15.02.04-30.04,0-45.06.02,0,.82,0,1.63,0,2.46h46.97c17.15,22.52,26.77,50.74,26.39,79.09-24.46.02-48.91,0-73.37.01,0,.87,0,1.73.01,2.6h73.26c-.63,24.81-9,49.25-23.19,69.57-17.43.21-34.87.02-52.3.09,0,.61,0,1.81-.01,2.42,16.84.01,33.67.02,50.51,0-8.78,11.86-19.43,22.34-31.51,30.82-.21.14-.62.43-.83.58,0-1.51-.01-3.02,0-4.52-2.23,0-4.45,0-6.67-.02,0-2.22,0-4.44,0-6.65-2.27,0-4.54-.01-6.8,0,0-2.27,0-4.53,0-6.8-45.9,0-91.8,0-137.69,0,0,2.26,0,4.52,0,6.79-2.22,0-4.45,0-6.67.02,0,2.22,0,4.44,0,6.65-2.27,0-4.54,0-6.81,0,0,.96-.01,1.91-.01,2.87-11.46-8.27-21.63-18.34-29.98-29.74,14.84.03,29.67-.02,44.51.03,0-.83.01-1.65.01-2.46-15.42.02-30.84.04-46.26-.01-14.31-20.29-22.59-44.8-23.31-69.63h69.6c0-.87,0-1.74,0-2.61-23.19,0-46.39,0-69.58,0-.56-28.35,9.18-56.58,26.31-79.09,14.42-.01,28.84,0,43.26,0,0-.82,0-1.63.02-2.44-13.8-.03-27.59-.02-41.38-.01,13.53-16.91,31.07-30.58,50.78-39.54"/>
      <path id="path266" class="cls-6" d="m99.2,186.91c.54-.4,1.04-1.11,1.82-.97,21.42,0,42.84-.01,64.26,0-16.78,22.67-26.07,50.86-25.59,79.1-26.4-.02-52.81,0-79.22-.01-.64-16.94,4.45-33.78,13.21-48.18,6.8-11.29,15.65-21.24,25.52-29.94"/>
      <path id="path268" class="cls-6" d="m395.02,185.93c19.75.02,39.51-.04,59.26.03,13.93,12.04,26,26.66,33.17,43.74,4.68,11.14,7.04,23.24,6.73,35.32-24.51.01-49.02,0-73.54,0,.39-28.24-8.86-56.41-25.62-79.1"/>
      <path id="path270" class="cls-6" d="m241.67,214.28c0,7.41,0,14.82,0,22.23,4.95,0,9.9.02,14.86-.01-.02-7.4-.02-14.81,0-22.21-4.96-.03-9.91-.01-14.87-.02Zm-4.21,26.07c.1-10.04-.07-20.09.08-30.13,7.72.04,15.44,0,23.17.02.01,10.05,0,20.1,0,30.15-7.75-.02-15.5.07-23.25-.04"/>
      <path id="path272" class="cls-6" d="m265.98,210.67c3.81.01,7.63-.09,11.43.06-.01.86-.02,1.73-.02,2.6-2.22.41-4.34,1.21-6.24,2.44-1.68-1.75-3.56-3.29-5.17-5.1"/>
      <path id="path274" class="cls-6" d="m280.6,210.63c3.87.05,7.74,0,11.61.03-1.83,1.66-3.59,3.39-5.4,5.07-1.9-1.17-3.96-2.1-6.2-2.33-.01-.93-.02-1.85-.02-2.77"/>
      <path id="path276" class="cls-6" d="m301.57,214.29c0,7.41,0,14.81,0,22.22,4.95.01,9.89,0,14.84,0,0-7.41,0-14.82,0-22.23-4.95,0-9.89,0-14.84,0h0Zm-4.19-4.04c7.7.02,15.4-.08,23.09.05.27,10.03.07,20.06.11,30.09-7.74.03-15.47.02-23.21,0,.01-10.05,0-20.09,0-30.14"/>
      <path id="path278" class="cls-6" d="m263.76,212.86c1.78,1.63,3.49,3.34,5.29,4.96-1.17,1.73-2.09,3.61-2.56,5.66-.92-.02-1.84-.04-2.76-.07.04-3.51,0-7.03.03-10.54"/>
      <path id="path280" class="cls-6" d="m288.99,217.87c1.75-1.72,3.54-3.4,5.32-5.09.06,3.56.03,7.13.02,10.69h-2.83c-.46-2.02-1.35-3.9-2.51-5.6"/>
      <path id="path282" class="cls-6" d="m275.74,216.73c5.39-2.1,12.2,1.7,12.75,7.57.77,5.6-4.75,10.57-10.19,9.98-4.6-.23-8.79-4.16-8.84-8.85-.1-3.87,2.67-7.47,6.29-8.69"/>
      <path id="path284" class="cls-6" d="m291.59,226.38c.91-.01,1.82-.02,2.74-.03.03,3.77,0,7.55.02,11.33-1.84-1.62-3.57-3.36-5.36-5.03,1.37-1.85,2.26-3.99,2.61-6.26"/>
      <path id="path286" class="cls-6" d="m263.76,226.35c.89.02,1.79.03,2.68.06.31,2.26,1.25,4.36,2.53,6.23-1.66,1.75-3.49,3.33-5.21,5.02,0-3.77-.01-7.54,0-11.31"/>
      <path id="path288" class="cls-6" d="m266.06,239.72c1.63-1.75,3.46-3.3,5.13-5.01,1.87,1.29,4.02,2.03,6.24,2.48-.02.83-.03,1.67-.04,2.51-3.77.03-7.55,0-11.32.02"/>
      <path id="path290" class="cls-6" d="m280.58,237.15c2.21-.37,4.32-1.16,6.19-2.4,1.81,1.59,3.49,3.33,5.28,4.95-3.82.03-7.64,0-11.47.02,0-.86-.01-1.72,0-2.57"/>
      <path id="path292" class="cls-6" d="m60.51,267.67c26.4-.07,52.8-.03,79.19-.02.66,24.75,8.69,49.22,22.67,69.65-21-.03-41.99,0-62.99-.02-.84.1-1.57-.26-2.11-.87-11.36-10.34-21.3-22.47-28.01-36.36-4.96-10.1-7.93-21.15-8.75-32.38"/>
      <path id="path294" class="cls-6" d="m420.67,267.64h73.36c-1.22,20.62-10.67,40.02-23.94,55.57-4.33,4.95-8.77,9.93-13.92,14.01-19.41.18-38.82.01-58.24.09,12.71-18.62,20.52-40.57,22.29-63.05.17-2.21.21-4.42.45-6.61"/>
      <path id="path296" class="cls-6" d="m101.02,339.71c20.78.04,41.55-.02,62.33.03.82-.15,1.15.78,1.61,1.27,8.75,12.09,19.55,22.67,31.69,31.33,0,.31,0,.92,0,1.22.73.09,1.47.18,2.21.32,12.5,8.53,26.35,15.1,40.91,19.24-25.22-2.58-50.19-8.17-74.01-16.89-23.32-8.62-45.7-20.4-64.73-36.52"/>
      <path id="path298" class="cls-6" d="m362.15,373.44c13.11-9.24,24.81-20.54,34.07-33.67,19.1-.13,38.21,0,57.32-.06-14.79,12.56-31.68,22.48-49.38,30.31-25.35,11.17-52.4,18.29-79.82,21.96,13.07-4.15,25.47-10.31,36.88-17.9.31-.21.63-.42.93-.64"/>
      <path id="path300" class="cls-6" d="m202.84,373.68c51.5-.03,103.01-.07,154.52.02-13.58,8.93-28.84,15.24-44.66,18.93-8.33,2.09-16.99,2-25.52,2.41-7.58.22-15.16.21-22.73-.13-5.21,0-10.38-.78-15.45-1.95-16.36-3.63-32.11-10.12-46.16-19.28"/>
    </g>
  </g>
  <g id="MGeacE">
    <g>
      <path class="cls-4" d="m1086.47,203.95c0-25.94,0-51.89,0-77.83,0-5.51.11-5.61,5.75-5.62,11.42-.02,22.84-.02,34.26,0,5.57.01,5.88.32,5.88,6.07.02,18.05,0,36.09.01,54.14,0,5.67.1,5.77,5.58,5.78,12.83.02,25.66-.1,38.49.07,3.66.05,4.91-1.09,4.88-4.83-.16-18.47-.08-36.94-.07-55.41,0-5.75.07-5.82,5.96-5.83,11.42-.01,22.84-.02,34.26,0,5.24.01,5.66.38,5.66,5.44.02,52.03-.02,104.05.07,156.08,0,3.99-1.33,5.49-5.4,5.42-11.98-.19-23.97-.15-35.95-.02-3.46.04-4.69-1.2-4.66-4.7.13-16.78-.06-33.56.14-50.33.05-4.12-1.33-5.34-5.34-5.28-12.69.2-25.38.06-38.07.08-5.32,0-5.54.22-5.54,5.44-.02,16.21,0,32.43-.02,48.64,0,5.78-.31,6.08-5.86,6.09-11.42.02-22.84.02-34.26,0-5.73,0-5.77-.06-5.77-6.02,0-25.8,0-51.6,0-77.4Z"/>
      <path class="cls-4" d="m709.23,172.99c0,13.96.04,27.92-.01,41.88-.02,5.98.63,11.82,2.84,17.41,3.64,9.2,11.42,14.93,20.5,15.12,9.9.21,17.94-4.94,22.06-14.18,2.51-5.62,3.56-11.54,3.56-17.68-.01-29.61,0-59.22,0-88.83,0-6.17.02-6.19,6.05-6.19,11.56-.01,23.13.11,34.68-.06,3.91-.06,5.16,1.48,5.15,5.23-.09,31.16.11,62.32-.14,93.48-.09,11.46-2.02,22.74-6.83,33.32-10.42,22.95-29.14,33.81-53.39,36.67-10.9,1.28-21.7.71-32.28-2.12-25.93-6.92-40.9-24.13-46.33-50.09-1.27-6.09-1.81-12.24-1.8-18.47.05-30.74.02-61.47.03-92.21,0-5.61.11-5.73,5.62-5.74,11.7-.02,23.41.1,35.11-.06,3.85-.05,5.25,1.34,5.22,5.17-.12,15.79-.05,31.58-.05,47.37Z"/>
      <path class="cls-4" d="m1009.37,118.72c20.07-.41,37.39,6.9,53.19,18.72,3.39,2.54,3.55,4.47.83,7.76-6.73,8.15-13.14,16.57-19.49,25.03-1.9,2.53-3.31,2.66-5.79.77-7.67-5.82-15.63-11.12-25.5-12.6-6.34-.96-11.73,1.2-13.33,5.58-1.8,4.9.43,9.89,6.18,13.38,2.4,1.46,4.95,2.71,7.53,3.83,3.75,1.63,7.6,3.02,11.38,4.58,5.87,2.41,11.73,4.85,17.56,7.33,17.67,7.53,28.39,20.19,28.5,40.05.1,18.18-5.7,33.79-21.27,44.61-9.12,6.34-19.39,9.81-30.28,11.16-26.84,3.33-50.02-4.85-69.98-22.87-2.69-2.43-2.85-4.2-.49-6.99,6.47-7.64,12.68-15.49,18.98-23.27,3.7-4.58,3.73-4.63,8.27-.63,8.9,7.86,18.98,13.07,30.94,14.35,1.85.2,3.62.24,5.45-.09,6.54-1.19,10.04-4.11,10.72-9.09.59-4.32-2.06-8.23-7.55-11.11-5.65-2.97-11.77-4.7-17.72-6.9-10.35-3.83-20.39-8.19-29.04-15.3-8.66-7.12-13.85-16.23-15.89-27.15-3.16-16.89.53-32.1,12.58-44.53,10.12-10.44,23.02-15.47,37.45-16.6,2.24-.18,4.51-.02,6.77-.02Z"/>
      <path class="cls-4" d="m877.13,118.6c22.31-.2,39.8,7.05,55.58,19.19,2.77,2.13,3.45,3.77.99,6.78-6.78,8.3-13.37,16.75-19.77,25.34-2.18,2.93-3.71,2.75-6.43.75-7.38-5.45-14.93-10.67-24.36-12.14-2.58-.4-5.02-.4-7.52.21-6.83,1.65-9.39,9.07-4.93,14.5,3.24,3.94,7.66,6.16,12.25,8.05,9.52,3.92,19.15,7.57,28.57,11.71,12.55,5.51,23.26,13.32,26.84,27.4,6.33,24.88-2.51,53.69-32.66,64.19-32.75,11.41-61.82,3.87-87.41-18.92-2.46-2.19-2.34-3.91-.29-6.36,6.89-8.21,13.68-16.5,20.27-24.94,2.12-2.71,3.52-2.82,5.97-.45,8.96,8.7,19.56,14.12,32.1,15.63,3.34.4,6.5-.06,9.55-1.1,3.75-1.28,6.19-4.06,6.63-8.04.46-4.13-1.31-7.46-4.85-9.65-4.7-2.92-9.85-4.88-15.08-6.6-8.73-2.86-17.22-6.25-25.22-10.82-19.54-11.16-28.02-28.28-25.5-50.26,2.4-20.88,15.27-33.88,34.52-41,7.36-2.72,15-3.87,20.75-3.48Z"/>
      <path class="cls-4" d="m1206.69,352.95c-5.83,10.28-11.76,20.51-17.42,30.88-1.86,3.41-3.85,5.36-8.12,5.25-4.38-.11-7.62-.64-9.92-5.12-4.84-9.4-10.28-18.48-15.51-27.67-.66-1.16-.97-2.65-2.51-3.25-.96,1.46-.5,3.04-.5,4.51-.04,14.39-.13,28.77.04,43.16.05,4.06-1.34,5.64-5.4,5.29-3.08-.26-6.21-.17-9.3-.03-3.08.14-4.27-1.12-4.22-4.22.13-7.9.04-15.8.04-23.69,0-19.6.08-39.21-.06-58.81-.03-3.78,1.07-5.16,5.02-5.16,13.93,0,13.87-.1,20.35,12.14,6.27,11.84,12.68,23.6,19.05,35.38.52.96.74,2.51,1.98,2.53,1.5.03,1.72-1.67,2.28-2.73,7.71-14.27,15.47-28.51,22.98-42.88,1.65-3.16,3.53-4.74,7.18-4.43,3.22.28,6.5.25,9.72,0,3.81-.29,4.89,1.41,4.84,4.96-.14,10.58-.05,21.16-.05,31.73,0,16.5.01,33,0,49.51,0,5.46-.19,5.61-5.77,5.63-2.82.01-5.66-.21-8.46.05-4.23.4-5.29-1.55-5.25-5.44.16-14.24.06-28.49.06-42.73,0-1.53,0-3.07,0-4.6-.35-.09-.69-.18-1.04-.27Z"/>
      <path class="cls-4" d="m816.75,372.84c1.23-1.98.82-3.56.82-5.06.04-15.79.02-31.59.03-47.38,0-6.23.02-6.23,6.41-6.24,2.54,0,5.1.23,7.61-.05,4.44-.5,5.69,1.55,5.45,5.63-.24,4.22-.05,8.46-.05,12.69,0,22.28,0,44.56,0,66.84,0,6.66-.1,6-6.41,6.83-9.83,1.31-15.54-2.53-20.56-10.96-9.08-15.24-19.47-29.71-29.32-44.49-.62-.92-1.27-1.82-2.76-2.67,0,1.44,0,2.89,0,4.33,0,15.93,0,31.87,0,47.8,0,5.78-.05,5.8-5.97,5.83-2.4,0-4.79.01-7.19,0-5.66-.03-5.76-.1-5.77-5.6-.02-9.02,0-18.05,0-27.07,0-17.63,0-35.25,0-52.88,0-6.2.11-5.55,5.94-6.37,9.69-1.36,15.29,2.46,20.21,10.78,8.87,15.04,19.04,29.32,28.67,43.91.84,1.28,1.76,2.5,2.91,4.14Z"/>
      <path class="cls-4" d="m1021.69,360.16c0,13.53-.13,27.06.08,40.59.06,4.13-1.43,5.55-5.41,5.25-3.22-.25-6.48-.15-9.72-.04-2.91.1-4.01-1.14-3.98-4.02.09-8.74-.2-17.49.12-26.21.16-4.42-1.41-5.55-5.58-5.41-8.31.28-16.63.07-24.94.09-5.68,0-5.74.05-5.75,5.58-.02,8.32-.14,16.63.05,24.95.09,3.86-1.31,5.38-5.18,5.07-3.08-.25-6.22-.27-9.29,0-4.04.35-5.2-1.5-5.04-5.2.19-4.36.04-8.74.04-13.11,0-22.55,0-45.1,0-67.65,0-5.82.07-5.86,5.93-5.87,2.96,0,5.93.18,8.88-.04,3.59-.27,4.69,1.34,4.65,4.71-.11,9.72.12,19.45-.11,29.17-.1,4.09,1.35,5.41,5.37,5.3,8.59-.24,17.2-.27,25.79.01,4.21.14,5.26-1.47,5.17-5.41-.23-9.72.04-19.45-.13-29.17-.06-3.5,1.2-4.84,4.67-4.61,3.09.2,6.21.23,9.3,0,3.82-.29,5.22,1.1,5.17,5.03-.18,13.67-.07,27.34-.07,41.01Z"/>
      <path class="cls-4" d="m854.65,345.37c0-8.88.11-17.77-.05-26.65-.07-3.52,1.28-4.81,4.72-4.6,3.23.2,6.49.21,9.72,0,3.58-.24,4.62,1.33,4.6,4.72-.11,15.37-.02,30.74-.06,46.11-.01,3.7.35,7.32,1.4,10.86,2.58,8.68,9,13.65,17.28,13.43,8.51-.22,15.34-6.03,17.19-14.82.63-3.02,1.03-6.09,1.02-9.23-.07-15.09-.04-30.17-.02-45.26,0-5.75.03-5.76,5.95-5.77,3.24,0,6.49.04,9.73.02,2.07-.01,3.21.94,3.18,3.03-.27,19.72,1.37,39.51-.78,59.15-2.05,18.81-15.95,30.36-34.93,30.51-5.97.05-11.81-.26-17.42-2.59-14.75-6.14-20.55-18.18-21.41-33.12-.5-8.57-.09-17.2-.09-25.8h-.01Z"/>
      <path class="cls-4" d="m1082.11,406.85c-28.5-.08-48.12-22.33-44.81-52.16,2.48-22.37,15.35-36.94,36.45-40.88,16.35-3.06,30.72,1.23,42.93,12.53,4.39,4.06,4.3,4.64-.28,8.37-2.94,2.4-5.61,6.01-8.95,6.82-3.53.86-5.54-4-8.63-5.88-9.11-5.52-18.44-6.12-27.8-1.42-9.3,4.66-13.34,12.9-13.93,23.07-.57,9.74,1.28,18.67,9.07,25.27,10.84,9.19,26.71,8.41,37.3-1.92,2.78-2.71,4.6-2.85,7.25-.21,2.28,2.29,4.83,4.34,7.39,6.32,2.23,1.72,2.14,3.24.29,5.19-9.56,10.02-21.11,15.26-36.26,14.9Z"/>
      <path class="cls-4" d="m705.39,378.47c6.24-18.34,12.08-35.4,17.85-52.48,4-11.82,3.96-11.82,16.32-11.84,8.9-.02,8.27-.33,5.37,7.5-9.84,26.58-19.7,53.14-29.42,79.77-1.2,3.28-2.85,4.68-6.43,4.58-14.89-.39-11.05,2.02-15.95-10.87-9.48-24.9-18.6-49.94-27.87-74.93-.39-1.06-.74-2.13-1.09-3.2-.55-1.69-.15-2.79,1.84-2.79,5.08-.01,10.15-.01,15.23,0,2.87,0,3.19,2.33,3.86,4.29,6.12,18.17,12.22,36.35,18.33,54.53.48,1.44,1.02,2.85,1.95,5.44Z"/>
      <path class="cls-4" d="m1579.06,363.35c7.04-5.64,17.53-7.05,24.41.35,1.7,1.83,2.77.06,3.9-.78,4.63-3.45,9.81-4.88,15.5-4.07,7.58,1.08,11.83,5.32,13.17,13.28,1.67,9.93.58,19.97.76,29.95.04,2.08-1.1,2.87-3.16,3.08-9.37.95-9.69.64-9.81-8.71-.08-6.18.59-12.4-.56-18.55-.72-3.84-1.97-7.19-6.64-7.43-3.94-.2-7.48,2.95-8.42,7.47-1.52,7.25-.51,14.61-.85,21.92-.09,1.81.92,4.57-1.76,4.99-3.4.53-7.06,1.17-10.32-.52-1.29-.67-.87-2.57-.87-3.95-.03-6.76.04-13.53-.05-20.29-.08-6.16-2.68-9.52-7.2-9.63-4.66-.11-8.42,3.83-8.64,9.61-.25,6.75-.26,13.53-.1,20.29.08,3.66-1.26,4.92-4.94,4.88-8.6-.09-8.61.06-8.61-8.34,0-10.71-.02-21.42.01-32.13.02-5.09.42-5.43,5.61-5.5q6.76-.09,8.57,4.09Z"/>
      <path class="cls-4" d="m1446.2,371.79c0-9.44.11-18.89-.05-28.33-.06-3.53,1.3-4.7,4.72-4.66,10.58.13,9.09-.53,9.18,9.02.05,5.22.1,10.43-.02,15.65-.07,2.82.83,4.13,3.86,4.05,6.06-.15,12.12-.15,18.18,0,3.01.08,3.93-1.17,3.87-4.02-.13-6.62.08-13.25-.08-19.87-.09-3.35.93-4.87,4.53-4.82,10.92.14,9.39-.59,9.43,9.19.07,17.2-.08,34.4.09,51.59.04,4.08-.96,5.83-5.41,5.67-9.69-.36-8.49.81-8.58-8.71-.04-4.51-.07-9.02,0-13.53.03-2.33-.97-3.31-3.29-3.29-6.34.05-12.69.09-19.03-.02-2.89-.05-3.59,1.39-3.56,3.93.08,5.78-.07,11.56.05,17.34.07,3.06-1.09,4.28-4.21,4.23-11.14-.16-9.58.99-9.67-9.3-.07-8.03-.01-16.07-.01-24.1Z"/>
      <path class="cls-4" d="m1307.79,147.14c0,5.36.02,10.71,0,16.07-.04,16.69-9.46,27.01-26.14,27.33-14.56.28-26.02-7.11-27.26-24.96-.9-12.91-.22-25.92-.3-38.89-.02-2.56,1.26-3.36,3.63-3.55,10.14-.83,10.29-.73,10.3,9.56,0,9.02-.04,18.04.03,27.06.02,2.1.22,4.23.62,6.28,1.55,7.91,6.24,11.62,13.88,11.12,6.22-.41,11.14-5.83,11.29-13.12.23-10.57.09-21.14.1-31.71,0-9.73.14-9.79,9.97-9.22,2.88.17,3.96,1.29,3.91,4.15-.12,6.62-.04,13.25-.04,19.87Z"/>
      <path class="cls-4" d="m1409.95,371.09c0,9.3.01,18.6,0,27.9-.01,6.16-.03,6.29-6.06,6.1-2.49-.08-5.84,1.53-6.95-2.73-.31-1.19-1.37-.09-2.04.26-9.37,4.93-18.62,4.62-25.52-1.74-7.69-7.08-9.22-16.17-6.59-26.01,2.53-9.44,9.23-15.09,18.93-16.18,4.03-.45,7.93.35,11.33,2.54,3.08,1.99,3.46.66,3.42-2.15-.08-5.92.1-11.84-.06-17.75-.1-3.64,1.35-4.96,4.97-4.98,8.57-.06,8.57-.19,8.57,8.53,0,8.74,0,17.47,0,26.21Zm-24.01,22.85c6.89-.01,11.23-4.45,11.23-11.48,0-6.73-4.77-11.93-11.04-12.02-6.3-.1-11.03,4.94-11.11,11.82-.08,7.15,4.17,11.69,10.92,11.68Z"/>
      <path class="cls-4" d="m1285.57,363.29c1.4-4.02,4.25-4.92,10.52-3.98,3.58.53,3.07,3.11,3.08,5.43.04,11.7-.11,23.41.09,35.11.07,3.98-1.18,6.02-5.28,5.26-2.7-.5-6.44,1.93-7.82-2.67-.29-.98-1.1-.29-1.72,0-19.13,8.56-34.48-2.25-32.86-23.14,1.12-14.49,14.66-23.98,27.85-19.58,2.19.73,4,2.03,6.15,3.58Zm.74,19.21c0-7.03-4.54-12.07-10.86-12.05-6.17.02-10.9,5.31-10.85,12.15.05,6.78,4.47,11.36,10.93,11.34,6.57-.02,10.78-4.49,10.78-11.44Z"/>
      <path class="cls-4" d="m1692.01,382.3c0,6.2-.1,12.41.04,18.61.07,3.02-.99,4.74-4.12,4.19-2.94-.51-7,2.12-8.5-2.91-.23-.78-1.19,0-1.75.35-8.57,5.38-16.99,4.66-24.78-1.3-7.42-5.67-9.96-16.67-7.16-26.58,4.28-15.12,20.89-19.98,30.8-13.06.9.63,1.96,1.54,2.58-.34.63-1.89,2.27-1.85,3.82-1.97,8.88-.66,9.07-.49,9.07,8.21,0,4.93,0,9.87,0,14.8Zm-33.98.17c0,7.17,3.89,11.42,10.51,11.47,6.64.05,11.2-4.62,11.2-11.47,0-6.67-4.96-12.1-10.98-12.02-6.44.08-10.72,4.88-10.73,12.02Z"/>
      <path class="cls-4" d="m1473,171.45c-3.81,0-7.61-.04-11.42.02-1.06.02-2.53-.51-3.05.75-.58,1.39.76,2.29,1.59,3.18,3.89,4.16,10.21,4.58,15.5,1.24,1.3-.82,2.36-3.13,4.26-1.82,2.52,1.74,5.27,3.49,6.59,6.39.67,1.49-1.01,2.47-2.01,3.4-7.04,6.57-20.48,7.87-29.34,2.88-8.4-4.74-12.89-15-11.05-25.03,1.71-9.29,6.74-15.83,15.96-18.36,8.59-2.36,16.57-.82,22.97,5.81,4.93,5.1,6.25,11.49,5.87,18.37-.13,2.39-1.49,3.14-3.61,3.13-4.09,0-8.18,0-12.26,0v.03Zm-6.25-9.64c2.1,0,4.21,0,6.31,0,2.28,0,2.78-1.01,1.58-2.87-1.81-2.81-4.44-4.26-7.76-4.25-3.45.02-6.24,1.49-8.17,4.37-1.01,1.51-.9,2.7,1.31,2.73,2.24.03,4.49,0,6.73.02Z"/>
      <path class="cls-4" d="m1869.08,386.55c-4.08,0-8.17-.02-12.25.01-.94,0-2.16-.28-2.6.87-.39,1.02.42,1.85,1.01,2.63,3.67,4.93,11.15,5.71,16.68,1.79,1.27-.9,2.39-2.99,4.29-1.44,2.37,1.94,4.99,3.74,6.34,6.62.22.47-.51,1.55-1.02,2.15-5.49,6.49-19.26,8.82-28.39,4.86-9.24-4.01-14.42-13.57-13.34-24.59,1.01-10.26,7.9-18.22,17.52-20.25,15.47-3.27,28.33,7.68,27.61,23.38-.13,2.86-1.14,4.08-4.04,3.99-3.94-.12-7.88-.03-11.83-.03v.02Zm-6.67-9.64c2.1,0,4.21-.02,6.31,0,2.68.04,2.82-1.13,1.56-3.09-3.06-4.75-12.34-4.58-15.33.26-1.24,2.02-.61,2.81,1.57,2.82,1.96,0,3.93,0,5.89,0Z"/>
      <path class="cls-4" d="m1704.26,167.05c-.02-14.48,9.54-23.85,24.28-23.82,14.3.02,24.3,9.78,24.26,23.66-.04,13.8-10.32,23.86-24.32,23.8-14.33-.06-24.2-9.69-24.22-23.64Zm13.03-.29c0,6.91,4.56,11.95,10.87,12.01,6.45.06,11.52-5.24,11.49-12.01-.03-6.7-4.93-11.78-11.27-11.7-6.62.09-11.08,4.8-11.09,11.7Z"/>
      <path class="cls-4" d="m1532.56,232.92c5.7-.14,10.75,1.81,15.55,4.73,2.7,1.65,3.72,3.35,1.17,5.93-.59.6-1.09,1.31-1.53,2.02-1.87,3.04-3.89,4.03-7.05,1.34-2.52-2.14-5.73-2.94-9.11-2.78-2.58.12-4.8.79-5.46,3.68-.63,2.76.58,4.67,3.03,5.83,2.16,1.03,4.37,1.96,6.57,2.91,2.2.95,4.46,1.78,6.62,2.8,7.69,3.62,11.06,8.59,10.67,15.62-.41,7.61-5.16,13.55-12.97,16.01-10.05,3.16-18.86.46-26.91-5.82-1.95-1.52-2.37-3.04-.43-4.85.41-.38.72-.86,1.07-1.31q3.81-4.8,8.67-1.47c3.59,2.44,7.45,4.07,11.91,3.31,2.8-.48,5.22-1.65,5.58-4.88.33-2.97-1.48-4.81-3.94-5.89-3.74-1.64-7.66-2.88-11.38-4.56-6.19-2.81-11.07-6.82-11.59-14.3-.76-10.74,7.35-18.36,19.51-18.31Z"/>
      <path class="cls-4" d="m1280.16,292.44c-7.27-.43-13.54-2.6-18.99-7.05-2.01-1.64-2.7-3.16-.56-5.17.61-.57,1.12-1.28,1.57-1.99,2.1-3.31,4.19-4.26,7.6-1.16,3.3,3,7.52,4.5,12.13,3.85,2.78-.39,5.31-1.48,5.82-4.66.5-3.16-1.43-5.09-4.04-6.24-3.87-1.7-7.93-2.96-11.76-4.74-5.74-2.66-10.27-6.5-11.03-13.35-1.02-9.23,5.01-17.19,14.51-18.72,7.69-1.24,14.83.47,21.28,4.98,2.02,1.42,2.62,2.8.83,4.79-.84.94-1.65,1.95-2.31,3.02-1.76,2.88-3.65,3.33-6.44,1.1-2.82-2.26-6.23-3.23-9.92-2.92-2.46.2-4.4,1.08-4.94,3.75-.52,2.56.45,4.49,2.78,5.56,4.87,2.22,9.83,4.25,14.69,6.5,4.41,2.04,7.69,5.11,8.85,10.1,1.79,7.69-1.39,15.22-8.24,19.12-3.76,2.14-7.89,2.96-11.83,3.22Z"/>
      <path class="cls-4" d="m1554.66,382.36c0,6.2-.07,12.4.02,18.6.04,3.01-1.14,4.71-4.24,4.14-3.35-.61-7.76,2.27-9.85-3.02-.32-.81-1.67.51-2.43,1.01-3.98,2.58-8.37,3.23-12.97,2.77-7.8-.79-13.26-6.48-13.66-15.23-.43-9.28-.11-18.6-.16-27.9-.01-2.28,1.01-3.4,3.27-3.43.28,0,.56-.02.84-.03q8.89-.49,8.89,8.42c0,6.06-.08,12.12.06,18.18.08,3.51.79,6.87,4.93,7.87,4.29,1.03,7.91-.59,10.13-4.31,1.28-2.14,1.61-4.48,1.62-6.91.03-6.2.11-12.4.03-18.6-.04-3.1,1-4.59,4.36-4.72,9.14-.33,9.16-.42,9.16,8.77,0,4.79,0,9.58,0,14.38Z"/>
      <path class="cls-4" d="m1717.09,363.41c4.38-3.28,8.94-5.11,14.05-4.81,9.29.55,15.01,6.01,15.57,15.71.52,9.13.17,18.31.22,27.48.01,2.25-.97,3.35-3.29,3.36-11.55.07-9.54.68-9.69-8.81-.09-5.64.1-11.28-.1-16.91-.21-5.99-2.88-8.85-7.9-8.97-5.13-.12-9.14,3.32-9.42,8.81-.35,6.89-.36,13.81-.16,20.71.12,4.11-1.42,5.36-5.43,5.27-8.14-.19-8.14,0-8.14-7.97,0-10.43,0-20.86,0-31.29,0-6.66.09-6.73,6.94-6.72q5.45,0,7.34,4.15Z"/>
      <path class="cls-4" d="m1332.51,148.74c4.86-3.99,9.7-5.79,15.32-5.53,7.9.36,13.43,4.65,14.82,12.46,1.84,10.33.58,20.79.77,31.19.03,1.85-1.03,2.83-2.86,3-.14.01-.28.03-.42.05-8.68,1.21-9.63.37-9.64-8.44,0-5.63.15-11.27-.09-16.9-.28-6.42-2.36-8.94-7-9.27-6.16-.44-9.26,2-10.46,8.42-1.3,6.98-.56,14.05-.53,21.07.02,3.79-1.11,5.58-5.03,5.19-1.26-.13-2.53-.07-3.8-.03-3.01.12-4.3-1.25-4.28-4.31.08-12.53.07-25.07,0-37.6-.01-2.85,1.11-4.2,4.02-3.99,1.26.09,2.54.07,3.8,0,3.01-.18,5.75-.04,5.37,4.69Z"/>
      <path class="cls-4" d="m1309.89,382.14c0-6.2.11-12.4-.04-18.6-.08-3.1,1.17-4.7,4.18-4.2,3.18.53,7.58-2.28,9.13,3.31.39,1.41,1.68-.04,2.35-.49,3.76-2.52,7.91-3.82,12.38-3.6,9.14.44,15.01,6.02,15.43,15.28.42,9.28.12,18.6.17,27.9.01,2.23-.84,3.39-3.21,3.41-11.43.08-9.65.72-9.77-8.76-.07-5.78.05-11.56-.07-17.33-.1-5.06-2.4-7.95-6.46-8.54-4.63-.68-8.62,1.79-10.27,6.24-.75,2.04-.79,4.14-.8,6.25-.02,6.06-.08,12.12,0,18.18.04,2.86-1.11,4.03-4.02,4-10.52-.1-8.85.67-8.98-8.67-.07-4.79-.01-9.58,0-14.38Z"/>
      <path class="cls-4" d="m1652.54,170.04c2.68-7.22,5.43-13.84,7.57-20.66,1.26-4.02,3.2-5.61,7.51-5.41,8.68.41,8.51-.98,5.14,7.85-6.48,16.98-12.98,33.96-19.55,50.91-.73,1.87-.83,4.55-3.39,4.94-3.33.51-6.78.67-10.08-.12-1.77-.43-.88-2.12-.47-3.23,1.7-4.63,3.36-9.28,5.29-13.82,1.2-2.83.99-5.3-.23-8.07-4.97-11.36-9.68-22.83-14.66-34.19-1.41-3.22-.75-4.28,2.75-4.21,11.03.24,8.44-1.22,12.36,8.17,2.28,5.46,4.42,10.98,6.64,16.47.1.24.34.43,1.12,1.37Z"/>
      <path class="cls-4" d="m1460.91,271.76c0,4.64.1,9.29-.04,13.92-.06,1.96,1.03,4.81-1.66,5.51-2.88.75-6.34,1.53-8.81-.8-1.44-1.37-2.17-1.02-3.53-.37-7.8,3.72-16.11,2.5-21.8-3.11-6.01-5.91-7.67-16.3-3.96-24.77,3.35-7.64,10.1-11.73,18.47-11.41,3.41.13,7.36,3.78,8.77,2.85,2.86-1.88,5.46-1.89,8.38-2.07,3.12-.2,4.27,1.16,4.2,4.21-.13,5.34-.04,10.69-.03,16.04Zm-11.26-.11c.02-6.27-3.59-10.4-9.13-10.44-5.59-.04-9.32,4.01-9.38,10.18-.06,6.18,3.57,10.38,9.1,10.52,5.4.14,9.4-4.21,9.42-10.26Z"/>
      <path class="cls-4" d="m1775.79,171.82c0,4.65-.1,9.3.03,13.94.08,2.79-.88,4.05-3.82,4.23-8.89.54-9.21.32-9.21-8.7,0-7.46,0-14.93,0-22.39,0-2,.12-3.89-2.73-4.36-3.03-.5-2.17-3.23-2.17-5.17,0-1.93-.86-4.65,2.16-5.18,2.51-.44,2.75-1.96,2.74-3.93-.01-3.1-.06-6.18.71-9.24,2.53-10.08,16.2-14.75,24.27-8.11,3.24,2.66.36,5.74-.23,8.54-.59,2.78-2.76,1.68-4.44,1.15-2.43-.76-4.87-1.26-6.29,1.47-1.49,2.86-1.64,6.11-.45,9,.71,1.72,3.08,1.09,4.67.93,4.14-.43,5,1.64,4.93,5.26-.07,3.36-.33,5.68-4.73,5.49-5.41-.24-5.42.05-5.43,5.66,0,3.8,0,7.61,0,11.41Z"/>
      <path class="cls-4" d="m1784.75,275.56c-3.38,0-6.77-.02-10.15.01-.96,0-2.17-.16-2.52,1.03-.31,1.04.51,1.85,1.18,2.57,3.19,3.43,9.08,3.68,13.62.58,3.06-2.09,5.64-1.15,8.68,3.2,2.16,3.09-.83,3.99-2.44,5.14-8.69,6.18-21,5.52-28.13-1.34-7.15-6.88-8.39-18.6-2.88-27.25,4.75-7.47,14.69-10.74,23.5-7.74,8.3,2.82,13.7,11.35,12.97,20.21-.2,2.44-1.23,3.59-3.68,3.56-3.38-.04-6.77-.01-10.15-.01v.04Zm-6.38-8.73v-.02c1.68,0,3.36.03,5.04-.01.96-.02,2.14.14,2.52-1.01.35-1.04-.45-1.87-1.17-2.53-2.95-2.68-6.33-2.74-9.76-1.25-1.65.72-3.67,2.01-3.23,3.9.41,1.76,2.67.66,4.09.88.82.13,1.68.02,2.51.02Z"/>
      <path class="cls-4" d="m1649,275.55c-3.1,0-6.2-.03-9.31.02-1.07.02-2.54-.35-2.97.98-.44,1.38.75,2.32,1.71,3.14,3.46,2.97,8.73,3,12.98.11,3.13-2.13,5.58-1.29,8.68,3.1,2.32,3.29-.99,4.2-2.67,5.37-8.01,5.56-19.41,5.32-26.52-.35-6.97-5.56-9.45-15.5-6.11-24.58,3.39-9.22,13.43-14.47,23.31-12.18,9.49,2.2,15.83,10.99,15.08,20.73-.18,2.4-1.11,3.66-3.6,3.63-3.52-.04-7.05,0-10.57,0v.04Zm-5.72-8.72h0c1.54-.01,3.08.02,4.62-.03.95-.03,2.15.2,2.57-.92.47-1.25-.54-2.07-1.34-2.83-2.89-2.77-8.6-2.59-11.49.35-.68.69-1.64,1.42-1.39,2.45.38,1.52,1.83.88,2.84.96,1.39.1,2.8.03,4.2.03Z"/>
      <path class="cls-4" d="m1547.51,143.24c4.94-.13,9.42,1.31,13.62,3.83,2.07,1.24,2.88,2.59,1.17,4.71-.62.76-1.21,1.58-1.63,2.46-1.66,3.48-3.65,4.55-7.01,1.7-1.81-1.53-4.26-2.2-6.74-2.07-1.6.08-3.2.55-3.6,2.35-.38,1.7.97,2.58,2.26,3.16,4.1,1.85,8.3,3.49,12.37,5.4,4.44,2.09,6.89,5.6,7.05,10.64.22,7.04-3.57,12.35-10.75,14.21-8,2.08-15.58.83-22.68-3.55-2.65-1.64-3.18-3.31-1.08-5.71.64-.74,1.22-1.57,1.67-2.43,1.43-2.74,3.07-3.19,5.61-1.13,2.96,2.4,6.53,3.19,10.33,2.87,1.63-.14,3.19-.57,3.58-2.37.43-1.93-1.08-2.77-2.52-3.4-3.86-1.7-8.03-2.6-11.72-4.75-4.97-2.89-7.6-7.22-7.17-12.9.45-5.85,3.81-9.84,9.33-11.93,2.55-.97,5.2-1.19,7.89-1.09Z"/>
      <path class="cls-4" d="m1908.46,405.93c-5.86.27-11.09-1.61-15.95-4.73-2.04-1.31-2.69-2.76-.9-4.8.83-.95,1.54-2.02,2.17-3.12,1.4-2.48,2.89-2.98,5.35-1.06,2.95,2.31,6.5,3.38,10.3,3.12,1.76-.12,3.46-.74,3.77-2.76.29-1.93-1.28-2.7-2.74-3.27-2.49-.98-5.07-1.74-7.54-2.76-8.46-3.48-12.17-8.91-10.95-15.91,1.25-7.23,6.82-11.71,15.68-12.05,5.28-.21,10.31,1.07,14.91,3.95,2.35,1.47,2.75,2.95,1.02,5.09-.62.76-1.17,1.6-1.62,2.48-1.59,3.13-3.4,4.05-6.5,1.48-2.07-1.72-4.82-2.29-7.6-2.01-1.5.15-2.83.69-3.14,2.32-.3,1.55.9,2.33,2.06,2.85,3.09,1.37,6.25,2.58,9.35,3.92,8.66,3.77,11.6,8.51,10.08,16.2-1.28,6.51-7.3,10.78-15.62,11.07-.7.02-1.41,0-2.11,0Z"/>
      <path class="cls-4" d="m1327.57,250.75c12.84,0,21.62,8.55,21.54,20.96-.08,11.67-9.2,20.57-21.2,20.7-12.6.13-21.57-8.56-21.64-20.95-.07-12.12,8.77-20.72,21.3-20.71Zm9.53,20.75c.03-6.08-3.63-10.14-9.26-10.28-5.78-.14-9.84,4.04-9.91,10.2-.07,5.84,4.3,10.5,9.82,10.48,5.27-.02,9.32-4.53,9.36-10.4Z"/>
      <path class="cls-4" d="m1783.81,383.43c0-2.68-.06-5.36.02-8.03.08-2.68.11-4.85-3.64-5.27-2.9-.32-1.97-3.32-1.99-5.27-.03-2.11-.76-4.96,2.48-5.42,2.91-.41,3.28-2.14,3.14-4.47-.03-.56,0-1.13,0-1.69.02-9.03.74-9.63,9.75-9.56,2.46.02,3.28.98,3.25,3.23-.04,2.82.09,5.64,0,8.45-.08,2.64.98,4,3.71,3.85.56-.03,1.13,0,1.69.01,6.34.08,8.21,2.76,6.48,9.02-.64,2.32-2.4,2.1-4.03,2.09-8.36-.04-7.84-.89-7.85,8.12,0,3.52-.07,7.05.04,10.57.14,4.22,1.3,5.13,5.56,4.7,4.11-.42,4.88.55,6.3,6.62.86,3.68-1.92,4.05-4.05,4.62-12.47,3.37-21.41-1.46-20.88-14.8.09-2.25.01-4.51.01-6.76Z"/>
      <path class="cls-4" d="m1599.46,167.49c0-2.54,0-5.07,0-7.61,0-2.54.29-4.77-3.41-5.59-3.05-.67-1.46-4.07-1.68-6.27-.17-1.64-.21-3.67,2.19-3.86,2.83-.22,2.94-2.09,2.9-4.18-.01-.7,0-1.41,0-2.11.06-10.56-.98-8.04,9.61-9.69,2.3-.36,3.41.75,3.38,3.1-.04,3.1.1,6.2,0,9.3-.08,2.54.99,3.65,3.51,3.48,1.12-.08,2.25,0,3.38,0,5.33.04,5.5.4,5.63,5.8.09,3.67-1.27,4.94-4.95,4.87-8.27-.16-7.52-1.03-7.55,7.8-.01,3.66-.1,7.33.06,10.99.2,4.47,1.89,5.79,6.27,4.61,2.48-.67,3.52-.02,4.37,2.3,2.6,7.07,1.84,8.53-5.57,9.74-11.63,1.89-18.04-3.58-18.13-15.49-.02-2.4,0-4.79,0-7.19Z"/>
      <path class="cls-4" d="m1419.06,171.86c2.62-7.72,5.4-15.39,7.78-23.18,1.1-3.61,2.98-4.82,6.69-4.7,9.58.3,9.37-.97,5.68,8.34-4.41,11.14-8.94,22.23-12.99,33.5-1.58,4.41-4.63,4.09-8.05,4.17-3.31.08-5.77-.28-7.2-4.13-4.65-12.55-9.67-24.97-14.7-37.37-1.32-3.25-.97-4.59,2.91-4.48,10.92.3,8.62-1.25,12.05,8.31,2.33,6.48,4.59,12.98,6.89,19.47.32.02.63.05.95.07Z"/>
      <path class="cls-4" d="m1682.21,255.2c4-2.75,7.74-4.5,12.18-4.47,8.12.05,13.73,4.47,14.25,12.51.55,8.42.2,16.9.25,25.35.01,2.12-1.05,3.08-3.11,3.08-1.41,0-2.82-.05-4.23.04-2.86.18-4.09-1.07-4.04-3.97.1-5.77.06-11.55,0-17.33-.06-6.25-1.94-8.88-6.39-9.17-4.83-.31-8,2.42-8.9,8.17-.92,5.87-.47,11.82-.3,17.72.13,4.55-2.49,4.57-5.69,4.52-3.07-.04-5.94.29-5.85-4.36.21-10.42.17-20.85,0-31.28-.06-3.62,1.48-4.9,4.8-4.44,2.61.36,6.31-1.6,7,3.64Z"/>
      <path class="cls-4" d="m1375.37,250.72c5.61-.13,10.51,1.67,14.84,5.18,2.09,1.7,2.21,3.17.14,5.16-2.81,2.69-4.98,4.73-9.19,1.54-4.02-3.04-10.14-1.5-12.96,2.15-2.87,3.7-2.81,9.8.12,13.4,3.21,3.95,8.56,4.99,13.34,2.11,2.57-1.54,4.36-2.32,6.89.2,4.52,4.5,4.53,5.68-1.09,8.81-9.6,5.35-21.72,3.65-28.31-3.95-6.25-7.22-6.5-19.01-.45-27.05,4.16-5.52,10.03-7.43,16.67-7.54Z"/>
      <path class="cls-4" d="m1716.05,271.6c.23-8.84,3.69-15.7,12.12-19.09,8.66-3.48,16.81-2.22,24.14,3.72,2.11,1.71,1.79,3.02-.12,4.73-3.06,2.75-5.45,4.92-9.9,1.4-3.71-2.94-9.73-1.09-12.52,2.5-2.77,3.57-2.81,9.37-.08,13.04,2.8,3.77,8.73,5.65,12.84,2.62,5-3.69,7.2-.16,10.18,2.3,1.81,1.5,1.46,2.85-.24,4.1-7.74,5.7-16.18,7.23-25.07,3.33-7.96-3.5-11.16-10.27-11.39-18.65Z"/>
      <path class="cls-4" d="m1558.69,272.1c-.25-9.01,3.21-15.54,10.78-19.13,8.24-3.91,16.47-3.16,23.95,2.34,1.51,1.11,4.25,2.76,1.54,4.91-2.21,1.75-3.42,6.67-8.01,3.27-4.01-2.97-8.99-3.06-12.65-.63-3.15,2.1-4.83,6.66-4,10.88.81,4.14,3.93,7.19,8.3,7.96,3.07.54,5.81-.46,8.4-2.06,2.54-1.57,6.31-.04,8.77,3.84,2.01,3.17-1.34,3.84-2.92,4.88-10.64,6.97-24.94,4.51-31.19-5.19-2.3-3.57-3.24-7.46-2.98-11.08Z"/>
      <path class="cls-4" d="m1819.36,250.77c3.93-.23,7.49.96,10.91,2.76,2.26,1.18,3.94,2.69,1.85,5.21-1.68,2.03-2.14,6.7-6.69,3.56-1.63-1.13-3.47-1.89-5.51-1.92-1.53-.02-3.4-.31-3.96,1.57-.59,1.96,1.16,2.66,2.56,3.28,3.08,1.38,6.21,2.65,9.31,3.99,4.76,2.07,7.32,5.65,7.02,10.91-.3,5.33-3.16,8.99-8.08,10.82-7.72,2.88-14.93,1.22-21.77-2.92-2.07-1.25-2.3-2.94-.64-4.47,1.76-1.63,1.96-6.21,6.11-3.74,2.7,1.61,5.41,3.05,8.64,3,1.74-.03,3.65-.33,4.06-2.29.41-1.95-1.53-2.5-2.89-3.07-2.59-1.09-5.34-1.83-7.88-3.02-6.3-2.95-9.1-8.05-7.83-13.82,1.25-5.66,6.2-9.51,12.68-9.85.7-.04,1.41,0,2.11,0Z"/>
      <path class="cls-4" d="m1510.91,148.96c3.74-3.07,6.76-5.11,10.54-5.61,2.41-.32,3.83.53,3.76,3.17-.03.99.02,1.97.02,2.96q.02,6.52-6.11,8c-5.06,1.22-8.06,4.61-8.25,9.87-.21,5.77-.28,11.56-.04,17.33.17,4.14-1.56,5.39-5.48,5.34-7.58-.08-7.58.07-7.58-7.67,0-10.57,0-21.14,0-31.7,0-6.6.01-6.62,6.81-6.58,3.01.02,6.68-.97,6.33,4.89Z"/>
      <path class="cls-4" d="m1482.12,261.92c0,8.45-.17,16.9.07,25.34.13,4.66-2.74,4.33-5.81,4.38-3.2.05-5.76.02-5.71-4.5.18-17.18.17-34.36,0-51.54-.04-4.65,2.77-4.31,5.83-4.35,3.17-.04,5.83-.11,5.69,4.48-.27,8.72-.08,17.46-.08,26.19Z"/>
      <path class="cls-4" d="m1771.31,382.94c0,5.91-.08,11.82.03,17.72.06,3.12-.94,4.62-4.36,4.54-9.93-.23-9.13,1.1-9.15-9.01-.03-10.55.09-21.1-.05-31.65-.05-3.66,1.03-5.36,5.02-5.36,8.53,0,8.53-.17,8.53,8.56,0,5.06,0,10.13,0,15.19Z"/>
      <path class="cls-4" d="m1830.55,382.29c0,6.05-.1,12.1.03,18.15.07,3.3-.93,4.88-4.57,4.78-9.58-.27-8.94,1.09-8.96-8.79-.02-10.69.11-21.38-.06-32.07-.06-3.87,1.43-5.48,5.22-5.1.7.07,1.41,0,2.11,0,5.96.03,6.19.25,6.21,6.15.02,5.63,0,11.25,0,16.88Z"/>
      <path class="cls-4" d="m1573.93,166.92c0-6.2.09-12.4-.04-18.59-.06-2.98.9-4.26,4.09-4.33,8.95-.2,8.95-.33,8.95,8.81,0,10.28.01,20.56,0,30.84,0,6.13-.19,6.29-6.49,6.31-.42,0-.85-.04-1.27,0-4.03.48-5.51-1.23-5.31-5.3.28-5.9.07-11.83.08-17.74Z"/>
      <path class="cls-4" d="m1387.34,166.7c0,6.34-.11,12.68.04,19.01.08,3.13-1.19,4.43-4.21,4.24-.42-.03-.84,0-1.27,0-7.53.09-7.56.06-7.56-7.35,0-11.13.09-22.25-.05-33.38-.05-3.65.89-5.34,4.98-5.26,8.07.17,8.07-.04,8.08,7.94,0,4.93,0,9.86,0,14.79Z"/>
      <path class="cls-4" d="m1603.7,271.29c0-5.07.13-10.14-.05-15.21-.13-3.52,1.33-4.91,4.75-4.56,1.12.11,2.26.09,3.38.01,2.73-.2,3.82,1.13,3.81,3.75-.03,10.7-.04,21.41.01,32.11.01,3.04-1.32,4.42-4.35,4.23-1.26-.08-2.54-.06-3.8,0-2.71.12-3.79-1.21-3.76-3.84.06-5.49.02-10.98.01-16.48Z"/>
      <path class="cls-4" d="m1411.03,271.44c0,5.36-.16,10.72.05,16.07.17,4.46-2.74,4.16-5.62,4.1-2.74-.06-5.88.68-5.84-3.89.11-10.72.08-21.43,0-32.15-.02-2.82.97-4.26,3.94-4.04,1.26.09,2.54.09,3.8,0,2.77-.17,3.72,1.2,3.68,3.83-.09,5.36-.03,10.72-.02,16.07Z"/>
      <path class="cls-4" d="m1588.33,130.63c.06,4.15-3.5,7.76-7.75,7.85-4.42.09-8.21-3.58-8.14-7.87.07-4.19,3.6-7.58,7.95-7.6,4.24-.02,7.88,3.48,7.94,7.63Z"/>
      <path class="cls-4" d="m1388.9,130.81c-.07,4.18-3.73,7.7-8.01,7.67-4.3-.03-7.8-3.58-7.75-7.86.05-4.38,3.51-7.7,7.93-7.61,4.34.09,7.9,3.63,7.83,7.8Z"/>
      <path class="cls-4" d="m1772.34,346.02c.08,4.31-3.33,7.9-7.61,8.02-4.28.12-7.85-3.3-7.96-7.64-.12-4.42,3.16-7.85,7.57-7.94,4.38-.09,7.91,3.25,8,7.56Z"/>
      <path class="cls-4" d="m1831.61,345.98c.08,4.38-3.22,7.91-7.54,8.06-4.27.15-7.86-3.27-8-7.6-.14-4.36,3.15-7.84,7.56-7.98,4.38-.14,7.9,3.18,7.98,7.52Z"/>
      <path class="cls-4" d="m1616.55,239.68c.11,3.76-3.03,7-6.84,7.05-3.85.05-6.91-2.98-6.96-6.9-.05-3.66,2.81-6.62,6.56-6.79,3.8-.17,7.12,2.88,7.23,6.64Z"/>
      <path class="cls-4" d="m1405.66,233.03c3.93.1,7.02,3.28,6.81,7.01-.21,3.73-3.64,6.89-7.27,6.68-3.76-.21-6.46-3.09-6.45-6.88,0-3.97,2.99-6.9,6.91-6.8Z"/>
    </g>
  </g>
</svg>